<?xml version="1.0" encoding="UTF-8"?>
<svg id="svg4247" width="798.19" height="281.5" fill="none" stroke-linecap="square" stroke-miterlimit="10" version="1.1" viewBox="0 0 798.19 281.5" xmlns="http://www.w3.org/2000/svg">
 <clipPath id="p.0">
  <path id="path3810" d="m0 0h1152v864h-1152z"/>
 </clipPath>
 <g id="g4245" transform="translate(-176.85 -182.65)" clip-path="url(#p.0)">
  <path id="path3815" d="m201.6 240.61h-24v22.772h24z" fill="#cfe2f3" fill-rule="evenodd"/>
  <path id="path3817" d="m201.6 240.61h-24v22.772h24z" fill-rule="evenodd" stroke="#000" stroke-linecap="butt" stroke-linejoin="round"/>
  <path id="path3819" d="m187.66 256.79v-9.5469h1.2656v3.9219h4.9531v-3.9219h1.2656v9.5469h-1.2656v-4.5h-4.9531v4.5z" fill="#000"/>
  <path id="path3821" d="m225.6 240.61h-24v22.772h24z" fill="#cfe2f3" fill-rule="evenodd"/>
  <path id="path3823" d="m225.6 240.61h-24v22.772h24z" fill-rule="evenodd" stroke="#000" stroke-linecap="butt" stroke-linejoin="round"/>
  <path id="path3825" d="m216.21 254.58 1.2031 0.14062q-0.28125 1.0625-1.0625 1.6562-0.76562 0.57812-1.9688 0.57812-1.5156 0-2.4062-0.9375-0.89062-0.93748-0.89062-2.6094 0-1.75 0.89062-2.7031 0.90625-0.96875 2.3438-0.96875 1.3906 0 2.2656 0.9375t0.875 2.6562q0 0.10937 0 0.3125h-5.1562q0.0625 1.1406 0.64062 1.75 0.57813 0.59375 1.4375 0.59375 0.65625 0 1.1094-0.32813 0.45312-0.34375 0.71875-1.0781zm-3.8438-1.9062h3.8594q-0.0781-0.85938-0.4375-1.2969-0.5625-0.6875-1.4531-0.6875-0.8125 0-1.3594 0.54688-0.54687 0.53125-0.60937 1.4375z" fill="#000"/>
  <path id="path3827" d="m249.6 240.61h-24v22.772h24z" fill="#cfe2f3" fill-rule="evenodd"/>
  <path id="path3829" d="m249.6 240.61h-24v22.772h24z" fill-rule="evenodd" stroke="#000" stroke-linecap="butt" stroke-linejoin="round"/>
  <path id="path3831" d="m236.98 256.79v-9.5469h1.1719v9.5469z" fill="#000"/>
  <path id="path3833" d="m273.6 240.61h-24v22.772h24z" fill="#cfe2f3" fill-rule="evenodd"/>
  <path id="path3835" d="m273.6 240.61h-24v22.772h24z" fill-rule="evenodd" stroke="#000" stroke-linecap="butt" stroke-linejoin="round"/>
  <path id="path3837" d="m260.98 256.79v-9.5469h1.1719v9.5469z" fill="#000"/>
  <path id="path3839" d="m297.6 240.61h-24v22.772h24z" fill="#cfe2f3" fill-rule="evenodd"/>
  <path id="path3841" d="m297.6 240.61h-24v22.772h24z" fill-rule="evenodd" stroke="#000" stroke-linecap="butt" stroke-linejoin="round"/>
  <path id="path3843" d="m283.04 253.34q0-1.9219 1.0781-2.8438 0.89063-0.76563 2.1719-0.76563 1.4219 0 2.3281 0.9375 0.90625 0.92188 0.90625 2.5781 0 1.3281-0.40625 2.0938-0.39062 0.76561-1.1562 1.1875-0.76562 0.42188-1.6719 0.42188-1.4531 0-2.3594-0.92188-0.89062-0.93748-0.89062-2.6875zm1.2031 0q0 1.3281 0.57813 1.9844 0.59375 0.65625 1.4688 0.65625t1.4531-0.65625q0.57813-0.67187 0.57813-2.0312 0-1.2812-0.59375-1.9375-0.57813-0.65625-1.4375-0.65625-0.875 0-1.4688 0.65625-0.57813 0.65625-0.57813 1.9844z" fill="#000"/>
  <path id="path3845" d="m321.6 240.61h-24v22.772h24z" fill="#cfe2f3" fill-rule="evenodd"/>
  <path id="path3847" d="m321.6 240.61h-24v22.772h24z" fill-rule="evenodd" stroke="#000" stroke-linecap="butt" stroke-linejoin="round"/>
  <path id="path3849" d="m345.6 240.61h-24v22.772h24z" fill="#cfe2f3" fill-rule="evenodd"/>
  <path id="path3851" d="m345.6 240.61h-24v22.772h24z" fill-rule="evenodd" stroke="#000" stroke-linecap="butt" stroke-linejoin="round"/>
  <path id="path3853" d="m332.75 256.79-2.125-6.9062h1.2188l1.0938 3.9844 0.42187 1.4844q0.0156-0.10938 0.35938-1.4219l1.0938-4.0469h1.2031l1.0312 4 0.34375 1.3281 0.40625-1.3438 1.1719-3.9844h1.1406l-2.1562 6.9062h-1.2188l-1.0938-4.1406-0.26562-1.1719-1.4062 5.3125z" fill="#000"/>
  <path id="path3855" d="m369.6 240.61h-24v22.772h24z" fill="#cfe2f3" fill-rule="evenodd"/>
  <path id="path3857" d="m369.6 240.61h-24v22.772h24z" fill-rule="evenodd" stroke="#000" stroke-linecap="butt" stroke-linejoin="round"/>
  <path id="path3859" d="m355.04 253.34q0-1.9219 1.0781-2.8438 0.89063-0.76563 2.1719-0.76563 1.4219 0 2.3281 0.9375 0.90625 0.92188 0.90625 2.5781 0 1.3281-0.40625 2.0938-0.39062 0.76561-1.1562 1.1875-0.76562 0.42188-1.6719 0.42188-1.4531 0-2.3594-0.92188-0.89062-0.93748-0.89062-2.6875zm1.2031 0q0 1.3281 0.57813 1.9844 0.59375 0.65625 1.4688 0.65625t1.4531-0.65625q0.57813-0.67187 0.57813-2.0312 0-1.2812-0.59375-1.9375-0.57813-0.65625-1.4375-0.65625-0.875 0-1.4688 0.65625-0.57813 0.65625-0.57813 1.9844z" fill="#000"/>
  <path id="path3861" d="m403.2 240.61h-24v22.772h24z" fill="#cfe2f3" fill-rule="evenodd"/>
  <path id="path3863" d="m403.2 240.61h-24v22.772h24z" fill-rule="evenodd" stroke="#000" stroke-linecap="butt" stroke-linejoin="round"/>
  <path id="path3865" d="m389.84 256.79v-6.9062h1.0625v1.0469q0.40625-0.73437 0.73437-0.96875 0.34375-0.23437 0.76563-0.23437 0.59375 0 1.2031 0.375l-0.40625 1.0781q-0.4375-0.25-0.85937-0.25-0.39063 0-0.70313 0.23438-0.29687 0.23437-0.42187 0.64062-0.20313 0.625-0.20313 1.3594v3.625z" fill="#000"/>
  <path id="path3867" d="m427.2 240.61h-24v22.772h24z" fill="#cfe2f3" fill-rule="evenodd"/>
  <path id="path3869" d="m427.2 240.61h-24v22.772h24z" fill-rule="evenodd" stroke="#000" stroke-linecap="butt" stroke-linejoin="round"/>
  <path id="path3871" d="m414.58 256.79v-9.5469h1.1719v9.5469z" fill="#000"/>
  <path id="path3873" d="m451.2 240.61h-24v22.772h24z" fill="#cfe2f3" fill-rule="evenodd"/>
  <path id="path3875" d="m451.2 240.61h-24v22.772h24z" fill-rule="evenodd" stroke="#000" stroke-linecap="butt" stroke-linejoin="round"/>
  <path id="path3877" d="m441.56 256.79v-0.87498q-0.65625 1.0312-1.9375 1.0312-0.8125 0-1.5156-0.45313-0.6875-0.45312-1.0781-1.2656-0.375-0.82813-0.375-1.8906 0-1.0312 0.34375-1.875t1.0312-1.2812q0.70312-0.45312 1.5469-0.45312 0.625 0 1.1094 0.26562 0.5 0.25 0.79687 0.67188v-3.4219h1.1719v9.5469zm-3.7031-3.4531q0 1.3281 0.5625 1.9844t1.3281 0.65625q0.76562 0 1.2969-0.625t0.53125-1.9062q0-1.4219-0.54687-2.0781-0.54688-0.67187-1.3438-0.67187-0.78125 0-1.3125 0.64062-0.51563 0.625-0.51563 2z" fill="#000"/>
  <path id="path3879" d="m475.2 240.61h-24v22.772h24z" fill="#cfe2f3" fill-rule="evenodd"/>
  <path id="path3881" d="m475.2 240.61h-24v22.772h24z" fill-rule="evenodd" stroke="#000" stroke-linecap="butt" stroke-linejoin="round"/>
  <path id="path3883" d="m462.85 254.42-0.35937-5.0469v-2.125h1.4531v2.125l-0.32812 5.0469zm-0.29687 2.375v-1.3281h1.3438v1.3281z" fill="#000"/>
  <path id="path3885" d="m499.2 240.61h-24v22.772h24z" fill="#cfe2f3" fill-rule="evenodd"/>
  <path id="path3887" d="m499.2 240.61h-24v22.772h24z" fill-rule="evenodd" stroke="#000" stroke-linecap="butt" stroke-linejoin="round"/>
  <path id="path3889" d="m484.75 252.09q0-1.6875 0.34375-2.7188 0.35937-1.0312 1.0469-1.5938t1.7188-0.5625q0.78125 0 1.3594 0.3125 0.57812 0.29687 0.95312 0.89062 0.375 0.57813 0.59375 1.4219 0.21875 0.82812 0.21875 2.25 0 1.6719-0.35937 2.7031-0.34375 1.0312-1.0312 1.5937-0.67188 0.5625-1.7344 0.5625-1.375 0-2.1562-0.98436-0.95312-1.1875-0.95312-3.875zm1.2031 0q0 2.3438 0.54688 3.125 0.5625 0.78125 1.3594 0.78125 0.8125 0 1.3594-0.78125 0.5625-0.78125 0.5625-3.125 0-2.3594-0.5625-3.125-0.54688-0.78125-1.3594-0.78125t-1.2969 0.6875q-0.60938 0.875-0.60938 3.2188z" fill="#000"/>
  <path id="path3891" d="m523.2 240.61h-24v22.772h24z" fill="#cfe2f3" fill-rule="evenodd"/>
  <path id="path3893" d="m523.2 240.61h-24v22.772h24z" fill-rule="evenodd" stroke="#000" stroke-linecap="butt" stroke-linejoin="round"/>
  <path id="path3895" d="m508.75 252.09q0-1.6875 0.34375-2.7188 0.35937-1.0312 1.0469-1.5938t1.7188-0.5625q0.78125 0 1.3594 0.3125 0.57812 0.29687 0.95312 0.89062 0.375 0.57813 0.59375 1.4219 0.21875 0.82812 0.21875 2.25 0 1.6719-0.35937 2.7031-0.34375 1.0312-1.0312 1.5937-0.67188 0.5625-1.7344 0.5625-1.375 0-2.1562-0.98436-0.95312-1.1875-0.95312-3.875zm1.2031 0q0 2.3438 0.54688 3.125 0.5625 0.78125 1.3594 0.78125 0.8125 0 1.3594-0.78125 0.5625-0.78125 0.5625-3.125 0-2.3594-0.5625-3.125-0.54688-0.78125-1.3594-0.78125t-1.2969 0.6875q-0.60938 0.875-0.60938 3.2188z" fill="#000"/>
  <path id="path3897" d="m547.2 240.61h-24v22.772h24z" fill="#cfe2f3" fill-rule="evenodd"/>
  <path id="path3899" d="m547.2 240.61h-24v22.772h24z" fill-rule="evenodd" stroke="#000" stroke-linecap="butt" stroke-linejoin="round"/>
  <path id="path3901" d="m532.75 252.09q0-1.6875 0.34375-2.7188 0.35938-1.0312 1.0469-1.5938t1.7188-0.5625q0.78125 0 1.3594 0.3125 0.57813 0.29687 0.95313 0.89062 0.375 0.57813 0.59375 1.4219 0.21875 0.82812 0.21875 2.25 0 1.6719-0.35938 2.7031-0.34375 1.0312-1.0312 1.5937-0.67187 0.5625-1.7344 0.5625-1.375 0-2.1562-0.98436-0.95313-1.1875-0.95313-3.875zm1.2031 0q0 2.3438 0.54687 3.125 0.5625 0.78125 1.3594 0.78125 0.8125 0 1.3594-0.78125 0.5625-0.78125 0.5625-3.125 0-2.3594-0.5625-3.125-0.54687-0.78125-1.3594-0.78125t-1.2969 0.6875q-0.60937 0.875-0.60937 3.2188z" fill="#000"/>
  <path id="path3903" d="m571.2 240.61h-24v22.772h24z" fill="#cfe2f3" fill-rule="evenodd"/>
  <path id="path3905" d="m571.2 240.61h-24v22.772h24z" fill-rule="evenodd" stroke="#000" stroke-linecap="butt" stroke-linejoin="round"/>
  <path id="path3907" d="m556.75 252.09q0-1.6875 0.34375-2.7188 0.35938-1.0312 1.0469-1.5938t1.7188-0.5625q0.78125 0 1.3594 0.3125 0.57813 0.29687 0.95313 0.89062 0.375 0.57813 0.59375 1.4219 0.21875 0.82812 0.21875 2.25 0 1.6719-0.35938 2.7031-0.34375 1.0312-1.0312 1.5937-0.67187 0.5625-1.7344 0.5625-1.375 0-2.1562-0.98436-0.95313-1.1875-0.95313-3.875zm1.2031 0q0 2.3438 0.54687 3.125 0.5625 0.78125 1.3594 0.78125 0.8125 0 1.3594-0.78125 0.5625-0.78125 0.5625-3.125 0-2.3594-0.5625-3.125-0.54687-0.78125-1.3594-0.78125t-1.2969 0.6875q-0.60937 0.875-0.60937 3.2188z" fill="#000"/>
  <path id="path3909" d="m604.8 240.61h-24v22.772h24z" fill="#cfe2f3" fill-rule="evenodd"/>
  <path id="path3911" d="m604.8 240.61h-24v22.772h24z" fill-rule="evenodd" stroke="#000" stroke-linecap="butt" stroke-linejoin="round"/>
  <path id="path3913" d="m590.35 252.09q0-1.6875 0.34375-2.7188 0.35937-1.0312 1.0469-1.5938t1.7188-0.5625q0.78125 0 1.3594 0.3125 0.57812 0.29687 0.95312 0.89062 0.375 0.57813 0.59375 1.4219 0.21875 0.82812 0.21875 2.25 0 1.6719-0.35937 2.7031-0.34375 1.0312-1.0312 1.5937-0.67188 0.5625-1.7344 0.5625-1.375 0-2.1562-0.98436-0.95312-1.1875-0.95312-3.875zm1.2031 0q0 2.3438 0.54688 3.125 0.5625 0.78125 1.3594 0.78125 0.8125 0 1.3594-0.78125 0.5625-0.78125 0.5625-3.125 0-2.3594-0.5625-3.125-0.54688-0.78125-1.3594-0.78125t-1.2969 0.6875q-0.60938 0.875-0.60938 3.2188z" fill="#000"/>
  <path id="path3915" d="m628.8 240.61h-24v22.772h24z" fill="#cfe2f3" fill-rule="evenodd"/>
  <path id="path3917" d="m628.8 240.61h-24v22.772h24z" fill-rule="evenodd" stroke="#000" stroke-linecap="butt" stroke-linejoin="round"/>
  <path id="path3919" d="m614.35 252.09q0-1.6875 0.34375-2.7188 0.35937-1.0312 1.0469-1.5938t1.7188-0.5625q0.78125 0 1.3594 0.3125 0.57812 0.29687 0.95312 0.89062 0.375 0.57813 0.59375 1.4219 0.21875 0.82812 0.21875 2.25 0 1.6719-0.35937 2.7031-0.34375 1.0312-1.0312 1.5937-0.67188 0.5625-1.7344 0.5625-1.375 0-2.1562-0.98436-0.95312-1.1875-0.95312-3.875zm1.2031 0q0 2.3438 0.54688 3.125 0.5625 0.78125 1.3594 0.78125 0.8125 0 1.3594-0.78125 0.5625-0.78125 0.5625-3.125 0-2.3594-0.5625-3.125-0.54688-0.78125-1.3594-0.78125t-1.2969 0.6875q-0.60938 0.875-0.60938 3.2188z" fill="#000"/>
  <path id="path3921" d="m652.8 240.61h-24v22.772h24z" fill="#cfe2f3" fill-rule="evenodd"/>
  <path id="path3923" d="m652.8 240.61h-24v22.772h24z" fill-rule="evenodd" stroke="#000" stroke-linecap="butt" stroke-linejoin="round"/>
  <path id="path3925" d="m638.35 252.09q0-1.6875 0.34375-2.7188 0.35937-1.0312 1.0469-1.5938t1.7188-0.5625q0.78125 0 1.3594 0.3125 0.57812 0.29687 0.95312 0.89062 0.375 0.57813 0.59375 1.4219 0.21875 0.82812 0.21875 2.25 0 1.6719-0.35937 2.7031-0.34375 1.0312-1.0312 1.5937-0.67188 0.5625-1.7344 0.5625-1.375 0-2.1562-0.98436-0.95312-1.1875-0.95312-3.875zm1.2031 0q0 2.3438 0.54688 3.125 0.5625 0.78125 1.3594 0.78125 0.8125 0 1.3594-0.78125 0.5625-0.78125 0.5625-3.125 0-2.3594-0.5625-3.125-0.54688-0.78125-1.3594-0.78125t-1.2969 0.6875q-0.60938 0.875-0.60938 3.2188z" fill="#000"/>
  <path id="path3927" d="m676.8 240.61h-24v22.772h24z" fill="#cfe2f3" fill-rule="evenodd"/>
  <path id="path3929" d="m676.8 240.61h-24v22.772h24z" fill-rule="evenodd" stroke="#000" stroke-linecap="butt" stroke-linejoin="round"/>
  <path id="path3931" d="m662.35 252.09q0-1.6875 0.34375-2.7188 0.35937-1.0312 1.0469-1.5938t1.7188-0.5625q0.78125 0 1.3594 0.3125 0.57812 0.29687 0.95312 0.89062 0.375 0.57813 0.59375 1.4219 0.21875 0.82812 0.21875 2.25 0 1.6719-0.35937 2.7031-0.34375 1.0312-1.0312 1.5937-0.67188 0.5625-1.7344 0.5625-1.375 0-2.1562-0.98436-0.95312-1.1875-0.95312-3.875zm1.2031 0q0 2.3438 0.54688 3.125 0.5625 0.78125 1.3594 0.78125 0.8125 0 1.3594-0.78125 0.5625-0.78125 0.5625-3.125 0-2.3594-0.5625-3.125-0.54688-0.78125-1.3594-0.78125t-1.2969 0.6875q-0.60938 0.875-0.60938 3.2188z" fill="#000"/>
  <path id="path3933" d="m700.8 240.61h-24v22.772h24z" fill="#cfe2f3" fill-rule="evenodd"/>
  <path id="path3935" d="m700.8 240.61h-24v22.772h24z" fill-rule="evenodd" stroke="#000" stroke-linecap="butt" stroke-linejoin="round"/>
  <path id="path3937" d="m686.35 252.09q0-1.6875 0.34375-2.7188 0.35937-1.0312 1.0469-1.5938t1.7188-0.5625q0.78125 0 1.3594 0.3125 0.57812 0.29687 0.95312 0.89062 0.375 0.57813 0.59375 1.4219 0.21875 0.82812 0.21875 2.25 0 1.6719-0.35937 2.7031-0.34375 1.0312-1.0312 1.5937-0.67188 0.5625-1.7344 0.5625-1.375 0-2.1562-0.98436-0.95312-1.1875-0.95312-3.875zm1.2031 0q0 2.3438 0.54688 3.125 0.5625 0.78125 1.3594 0.78125 0.8125 0 1.3594-0.78125 0.5625-0.78125 0.5625-3.125 0-2.3594-0.5625-3.125-0.54688-0.78125-1.3594-0.78125t-1.2969 0.6875q-0.60938 0.875-0.60938 3.2188z" fill="#000"/>
  <path id="path3939" d="m724.8 240.61h-24v22.772h24z" fill="#cfe2f3" fill-rule="evenodd"/>
  <path id="path3941" d="m724.8 240.61h-24v22.772h24z" fill-rule="evenodd" stroke="#000" stroke-linecap="butt" stroke-linejoin="round"/>
  <path id="path3943" d="m710.35 252.09q0-1.6875 0.34375-2.7188 0.35937-1.0312 1.0469-1.5938t1.7188-0.5625q0.78125 0 1.3594 0.3125 0.57812 0.29687 0.95312 0.89062 0.375 0.57813 0.59375 1.4219 0.21875 0.82812 0.21875 2.25 0 1.6719-0.35937 2.7031-0.34375 1.0312-1.0312 1.5937-0.67188 0.5625-1.7344 0.5625-1.375 0-2.1562-0.98436-0.95312-1.1875-0.95312-3.875zm1.2031 0q0 2.3438 0.54688 3.125 0.5625 0.78125 1.3594 0.78125 0.8125 0 1.3594-0.78125 0.5625-0.78125 0.5625-3.125 0-2.3594-0.5625-3.125-0.54688-0.78125-1.3594-0.78125t-1.2969 0.6875q-0.60938 0.875-0.60938 3.2188z" fill="#000"/>
  <path id="path3945" d="m748.8 240.61h-24v22.772h24z" fill="#cfe2f3" fill-rule="evenodd"/>
  <path id="path3947" d="m748.8 240.61h-24v22.772h24z" fill-rule="evenodd" stroke="#000" stroke-linecap="butt" stroke-linejoin="round"/>
  <path id="path3949" d="m734.35 252.09q0-1.6875 0.34375-2.7188 0.35937-1.0312 1.0469-1.5938t1.7188-0.5625q0.78125 0 1.3594 0.3125 0.57812 0.29687 0.95312 0.89062 0.375 0.57813 0.59375 1.4219 0.21875 0.82812 0.21875 2.25 0 1.6719-0.35937 2.7031-0.34375 1.0312-1.0312 1.5937-0.67188 0.5625-1.7344 0.5625-1.375 0-2.1562-0.98436-0.95312-1.1875-0.95312-3.875zm1.2031 0q0 2.3438 0.54688 3.125 0.5625 0.78125 1.3594 0.78125 0.8125 0 1.3594-0.78125 0.5625-0.78125 0.5625-3.125 0-2.3594-0.5625-3.125-0.54688-0.78125-1.3594-0.78125t-1.2969 0.6875q-0.60938 0.875-0.60938 3.2188z" fill="#000"/>
  <path id="path3951" d="m772.8 240.61h-24v22.772h24z" fill="#cfe2f3" fill-rule="evenodd"/>
  <path id="path3953" d="m772.8 240.61h-24v22.772h24z" fill-rule="evenodd" stroke="#000" stroke-linecap="butt" stroke-linejoin="round"/>
  <path id="path3955" d="m758.35 252.09q0-1.6875 0.34375-2.7188 0.35937-1.0312 1.0469-1.5938t1.7188-0.5625q0.78125 0 1.3594 0.3125 0.57812 0.29687 0.95312 0.89062 0.375 0.57813 0.59375 1.4219 0.21875 0.82812 0.21875 2.25 0 1.6719-0.35937 2.7031-0.34375 1.0312-1.0312 1.5937-0.67188 0.5625-1.7344 0.5625-1.375 0-2.1562-0.98436-0.95312-1.1875-0.95312-3.875zm1.2031 0q0 2.3438 0.54688 3.125 0.5625 0.78125 1.3594 0.78125 0.8125 0 1.3594-0.78125 0.5625-0.78125 0.5625-3.125 0-2.3594-0.5625-3.125-0.54688-0.78125-1.3594-0.78125t-1.2969 0.6875q-0.60938 0.875-0.60938 3.2188z" fill="#000"/>
  <path id="path3957" d="m806.4 240.61h-24v22.772h24z" fill="#cfe2f3" fill-rule="evenodd"/>
  <path id="path3959" d="m806.4 240.61h-24v22.772h24z" fill-rule="evenodd" stroke="#000" stroke-linecap="butt" stroke-linejoin="round"/>
  <path id="path3961" d="m791.95 252.09q0-1.6875 0.34375-2.7188 0.35937-1.0312 1.0469-1.5938t1.7188-0.5625q0.78125 0 1.3594 0.3125 0.57812 0.29687 0.95312 0.89062 0.375 0.57813 0.59375 1.4219 0.21875 0.82812 0.21875 2.25 0 1.6719-0.35937 2.7031-0.34375 1.0312-1.0312 1.5937-0.67188 0.5625-1.7344 0.5625-1.375 0-2.1562-0.98436-0.95312-1.1875-0.95312-3.875zm1.2031 0q0 2.3438 0.54688 3.125 0.5625 0.78125 1.3594 0.78125 0.8125 0 1.3594-0.78125 0.5625-0.78125 0.5625-3.125 0-2.3594-0.5625-3.125-0.54688-0.78125-1.3594-0.78125t-1.2969 0.6875q-0.60938 0.875-0.60938 3.2188z" fill="#000"/>
  <path id="path3963" d="m830.4 240.61h-24v22.772h24z" fill="#cfe2f3" fill-rule="evenodd"/>
  <path id="path3965" d="m830.4 240.61h-24v22.772h24z" fill-rule="evenodd" stroke="#000" stroke-linecap="butt" stroke-linejoin="round"/>
  <path id="path3967" d="m815.95 252.09q0-1.6875 0.34375-2.7188 0.35937-1.0312 1.0469-1.5938t1.7188-0.5625q0.78125 0 1.3594 0.3125 0.57812 0.29687 0.95312 0.89062 0.375 0.57813 0.59375 1.4219 0.21875 0.82812 0.21875 2.25 0 1.6719-0.35937 2.7031-0.34375 1.0312-1.0312 1.5937-0.67188 0.5625-1.7344 0.5625-1.375 0-2.1562-0.98436-0.95312-1.1875-0.95312-3.875zm1.2031 0q0 2.3438 0.54688 3.125 0.5625 0.78125 1.3594 0.78125 0.8125 0 1.3594-0.78125 0.5625-0.78125 0.5625-3.125 0-2.3594-0.5625-3.125-0.54688-0.78125-1.3594-0.78125t-1.2969 0.6875q-0.60938 0.875-0.60938 3.2188z" fill="#000"/>
  <path id="path3969" d="m854.4 240.61h-24v22.772h24z" fill="#cfe2f3" fill-rule="evenodd"/>
  <path id="path3971" d="m854.4 240.61h-24v22.772h24z" fill-rule="evenodd" stroke="#000" stroke-linecap="butt" stroke-linejoin="round"/>
  <path id="path3973" d="m839.95 252.09q0-1.6875 0.34375-2.7188 0.35937-1.0312 1.0469-1.5938t1.7188-0.5625q0.78125 0 1.3594 0.3125 0.57812 0.29687 0.95312 0.89062 0.375 0.57813 0.59375 1.4219 0.21875 0.82812 0.21875 2.25 0 1.6719-0.35937 2.7031-0.34375 1.0312-1.0312 1.5937-0.67188 0.5625-1.7344 0.5625-1.375 0-2.1562-0.98436-0.95312-1.1875-0.95312-3.875zm1.2031 0q0 2.3438 0.54688 3.125 0.5625 0.78125 1.3594 0.78125 0.8125 0 1.3594-0.78125 0.5625-0.78125 0.5625-3.125 0-2.3594-0.5625-3.125-0.54688-0.78125-1.3594-0.78125t-1.2969 0.6875q-0.60938 0.875-0.60938 3.2188z" fill="#000"/>
  <path id="path3975" d="m878.4 240.61h-24v22.772h24z" fill="#cfe2f3" fill-rule="evenodd"/>
  <path id="path3977" d="m878.4 240.61h-24v22.772h24z" fill-rule="evenodd" stroke="#000" stroke-linecap="butt" stroke-linejoin="round"/>
  <path id="path3979" d="m863.95 252.09q0-1.6875 0.34375-2.7188 0.35937-1.0312 1.0469-1.5938t1.7188-0.5625q0.78125 0 1.3594 0.3125 0.57812 0.29687 0.95312 0.89062 0.375 0.57813 0.59375 1.4219 0.21875 0.82812 0.21875 2.25 0 1.6719-0.35937 2.7031-0.34375 1.0312-1.0312 1.5937-0.67188 0.5625-1.7344 0.5625-1.375 0-2.1562-0.98436-0.95312-1.1875-0.95312-3.875zm1.2031 0q0 2.3438 0.54688 3.125 0.5625 0.78125 1.3594 0.78125 0.8125 0 1.3594-0.78125 0.5625-0.78125 0.5625-3.125 0-2.3594-0.5625-3.125-0.54688-0.78125-1.3594-0.78125t-1.2969 0.6875q-0.60938 0.875-0.60938 3.2188z" fill="#000"/>
  <path id="path3981" d="m902.4 240.61h-24v22.772h24z" fill="#cfe2f3" fill-rule="evenodd"/>
  <path id="path3983" d="m902.4 240.61h-24v22.772h24z" fill-rule="evenodd" stroke="#000" stroke-linecap="butt" stroke-linejoin="round"/>
  <path id="path3985" d="m887.95 252.09q0-1.6875 0.34375-2.7188 0.35937-1.0312 1.0469-1.5938t1.7188-0.5625q0.78125 0 1.3594 0.3125 0.57812 0.29687 0.95312 0.89062 0.375 0.57813 0.59375 1.4219 0.21875 0.82812 0.21875 2.25 0 1.6719-0.35937 2.7031-0.34375 1.0312-1.0312 1.5937-0.67188 0.5625-1.7344 0.5625-1.375 0-2.1562-0.98436-0.95312-1.1875-0.95312-3.875zm1.2031 0q0 2.3438 0.54688 3.125 0.5625 0.78125 1.3594 0.78125 0.8125 0 1.3594-0.78125 0.5625-0.78125 0.5625-3.125 0-2.3594-0.5625-3.125-0.54688-0.78125-1.3594-0.78125t-1.2969 0.6875q-0.60938 0.875-0.60938 3.2188z" fill="#000"/>
  <path id="path3987" d="m926.4 240.61h-24v22.772h24z" fill="#cfe2f3" fill-rule="evenodd"/>
  <path id="path3989" d="m926.4 240.61h-24v22.772h24z" fill-rule="evenodd" stroke="#000" stroke-linecap="butt" stroke-linejoin="round"/>
  <path id="path3991" d="m911.95 252.09q0-1.6875 0.34375-2.7188 0.35937-1.0312 1.0469-1.5938t1.7188-0.5625q0.78125 0 1.3594 0.3125 0.57812 0.29687 0.95312 0.89062 0.375 0.57813 0.59375 1.4219 0.21875 0.82812 0.21875 2.25 0 1.6719-0.35937 2.7031-0.34375 1.0312-1.0312 1.5937-0.67188 0.5625-1.7344 0.5625-1.375 0-2.1562-0.98436-0.95312-1.1875-0.95312-3.875zm1.2031 0q0 2.3438 0.54688 3.125 0.5625 0.78125 1.3594 0.78125 0.8125 0 1.3594-0.78125 0.5625-0.78125 0.5625-3.125 0-2.3594-0.5625-3.125-0.54688-0.78125-1.3594-0.78125t-1.2969 0.6875q-0.60938 0.875-0.60938 3.2188z" fill="#000"/>
  <path id="path3993" d="m950.4 240.61h-24v22.772h24z" fill="#cfe2f3" fill-rule="evenodd"/>
  <path id="path3995" d="m950.4 240.61h-24v22.772h24z" fill-rule="evenodd" stroke="#000" stroke-linecap="butt" stroke-linejoin="round"/>
  <path id="path3997" d="m935.95 252.09q0-1.6875 0.34375-2.7188 0.35937-1.0312 1.0469-1.5938t1.7188-0.5625q0.78125 0 1.3594 0.3125 0.57812 0.29687 0.95312 0.89062 0.375 0.57813 0.59375 1.4219 0.21875 0.82812 0.21875 2.25 0 1.6719-0.35937 2.7031-0.34375 1.0312-1.0312 1.5937-0.67188 0.5625-1.7344 0.5625-1.375 0-2.1562-0.98436-0.95312-1.1875-0.95312-3.875zm1.2031 0q0 2.3438 0.54688 3.125 0.5625 0.78125 1.3594 0.78125 0.8125 0 1.3594-0.78125 0.5625-0.78125 0.5625-3.125 0-2.3594-0.5625-3.125-0.54688-0.78125-1.3594-0.78125t-1.2969 0.6875q-0.60938 0.875-0.60938 3.2188z" fill="#000"/>
  <path id="path3999" d="m974.4 240.61h-24v22.772h24z" fill="#cfe2f3" fill-rule="evenodd"/>
  <path id="path4001" d="m974.4 240.61h-24v22.772h24z" fill-rule="evenodd" stroke="#000" stroke-linecap="butt" stroke-linejoin="round"/>
  <path id="path4003" d="m959.95 252.09q0-1.6875 0.34375-2.7188 0.35937-1.0312 1.0469-1.5938t1.7188-0.5625q0.78125 0 1.3594 0.3125 0.57812 0.29687 0.95312 0.89062 0.375 0.57813 0.59375 1.4219 0.21875 0.82812 0.21875 2.25 0 1.6719-0.35937 2.7031-0.34375 1.0312-1.0312 1.5937-0.67188 0.5625-1.7344 0.5625-1.375 0-2.1562-0.98436-0.95312-1.1875-0.95312-3.875zm1.2031 0q0 2.3438 0.54688 3.125 0.5625 0.78125 1.3594 0.78125 0.8125 0 1.3594-0.78125 0.5625-0.78125 0.5625-3.125 0-2.3594-0.5625-3.125-0.54688-0.78125-1.3594-0.78125t-1.2969 0.6875q-0.60938 0.875-0.60938 3.2188z" fill="#000"/>
  <path id="path4005" d="m973.64 235.39c0-5.3054-4.3009-9.6063-9.6063-9.6063h-378.6c-5.3054 0-9.6063-4.3009-9.6063-9.6063 0 5.3054-4.3009 9.6063-9.6063 9.6063h-378.6c-5.3054 0-9.6063 4.3009-9.6063 9.6063z" fill="#000" fill-opacity="0" fill-rule="evenodd"/>
  <path id="path4007" d="m973.64 235.39c0-5.3054-4.3009-9.6063-9.6063-9.6063h-378.6c-5.3054 0-9.6063-4.3009-9.6063-9.6063 0 5.3054-4.3009 9.6063-9.6063 9.6063h-378.6c-5.3054 0-9.6063 4.3009-9.6063 9.6063" fill="#000" fill-opacity="0" fill-rule="evenodd"/>
  <path id="path4009" d="m973.64 235.39c0-5.3054-4.3009-9.6063-9.6063-9.6063h-378.6c-5.3054 0-9.6063-4.3009-9.6063-9.6063 0 5.3054-4.3009 9.6063-9.6063 9.6063h-378.6c-5.3054 0-9.6063 4.3009-9.6063 9.6063" fill-rule="evenodd" stroke="#000" stroke-linecap="butt" stroke-linejoin="round"/>
  <path id="path4011" d="m521.38 182.65h108.91v35.559h-108.91z" fill="#000" fill-opacity="0" fill-rule="evenodd"/>
  <path id="path4013" d="m561.56 207.11v-12.203h2.5781v0.96875h-1.4062v10.25h1.4062v0.98438zm3.8436-2.6562v-9.5469h4.2344q1.2656 0 1.9219 0.26563 0.67187 0.25 1.0625 0.90625 0.40625 0.65625 0.40625 1.4375 0 1.0156-0.65625 1.7188-0.65625 0.6875-2.0312 0.875 0.5 0.25 0.76562 0.48437 0.54688 0.5 1.0469 1.2656l1.6562 2.5938h-1.5781l-1.2656-1.9844q-0.5625-0.85937-0.92188-1.3125-0.34375-0.45312-0.64062-0.64062-0.28125-0.1875-0.5625-0.25-0.21875-0.0469-0.70313-0.0469h-1.4688v4.2344zm1.2656-5.3281h2.7188q0.85938 0 1.3438-0.17187 0.48438-0.1875 0.73438-0.57813 0.26562-0.39062 0.26562-0.85937 0-0.67188-0.5-1.1094-0.48437-0.4375-1.5469-0.4375h-3.0156zm8.3439 5.3281v-9.5469h3.2812q1.1094 0 1.7031 0.14063 0.8125 0.1875 1.3906 0.6875 0.76563 0.64062 1.1406 1.6406 0.375 0.98438 0.375 2.25 0 1.0938-0.26563 1.9375-0.25 0.82813-0.65625 1.3906-0.39062 0.54687-0.85937 0.85937t-1.1406 0.48438q-0.65625 0.15625-1.5312 0.15625zm1.2656-1.125h2.0312q0.9375 0 1.4688-0.17188 0.54687-0.1875 0.875-0.5 0.4375-0.45312 0.6875-1.2031 0.25-0.76563 0.25-1.8438 0-1.5-0.5-2.2969-0.48438-0.8125-1.1875-1.0781-0.5-0.20313-1.625-0.20313h-2zm8.5782 1.125v-9.5469h1.25v9.5469zm5.2968 2.6562h-2.5938v-0.98438h1.4219v-10.25h-1.4219v-0.96875h2.5938z" fill="#000"/>
  <path id="path4015" d="m604.55 374.93h-24v22.772h24z" fill="#f4cccc" fill-rule="evenodd"/>
  <path id="path4017" d="m604.55 374.93h-24v22.772h24z" fill-rule="evenodd" stroke="#000" stroke-linecap="butt" stroke-linejoin="round"/>
  <path id="path4019" d="m594.52 391.12h-1.1719v-7.4688q-0.42188 0.40625-1.1094 0.8125t-1.2344 0.60937v-1.1406q0.98437-0.45313 1.7188-1.1094 0.73437-0.67187 1.0312-1.2812h0.76562z" fill="#000"/>
  <path id="path4021" d="m628.55 374.93h-24v22.772h24z" fill="#f4cccc" fill-rule="evenodd"/>
  <path id="path4023" d="m628.55 374.93h-24v22.772h24z" fill-rule="evenodd" stroke="#000" stroke-linecap="butt" stroke-linejoin="round"/>
  <path id="path4025" d="m618.52 391.12h-1.1719v-7.4688q-0.42188 0.40625-1.1094 0.8125t-1.2344 0.60937v-1.1406q0.98437-0.45313 1.7188-1.1094 0.73437-0.67187 1.0312-1.2812h0.76562z" fill="#000"/>
  <path id="path4027" d="m652.55 374.93h-24v22.772h24z" fill="#f4cccc" fill-rule="evenodd"/>
  <path id="path4029" d="m652.55 374.93h-24v22.772h24z" fill-rule="evenodd" stroke="#000" stroke-linecap="butt" stroke-linejoin="round"/>
  <path id="path4031" d="m642.52 391.12h-1.1719v-7.4688q-0.42188 0.40625-1.1094 0.8125t-1.2344 0.60937v-1.1406q0.98437-0.45313 1.7188-1.1094 0.73437-0.67187 1.0312-1.2812h0.76562z" fill="#000"/>
  <path id="path4033" d="m676.55 374.93h-24v22.772h24z" fill="#f4cccc" fill-rule="evenodd"/>
  <path id="path4035" d="m676.55 374.93h-24v22.772h24z" fill-rule="evenodd" stroke="#000" stroke-linecap="butt" stroke-linejoin="round"/>
  <path id="path4037" d="m666.52 391.12h-1.1719v-7.4688q-0.42188 0.40625-1.1094 0.8125t-1.2344 0.60937v-1.1406q0.98437-0.45313 1.7188-1.1094 0.73437-0.67187 1.0312-1.2812h0.76562z" fill="#000"/>
  <path id="path4039" d="m700.55 374.93h-24v22.772h24z" fill="#f4cccc" fill-rule="evenodd"/>
  <path id="path4041" d="m700.55 374.93h-24v22.772h24z" fill-rule="evenodd" stroke="#000" stroke-linecap="butt" stroke-linejoin="round"/>
  <path id="path4043" d="m690.52 391.12h-1.1719v-7.4688q-0.42188 0.40625-1.1094 0.8125t-1.2344 0.60937v-1.1406q0.98437-0.45313 1.7188-1.1094 0.73437-0.67187 1.0312-1.2812h0.76562z" fill="#000"/>
  <path id="path4045" d="m724.55 374.93h-24v22.772h24z" fill="#f4cccc" fill-rule="evenodd"/>
  <path id="path4047" d="m724.55 374.93h-24v22.772h24z" fill-rule="evenodd" stroke="#000" stroke-linecap="butt" stroke-linejoin="round"/>
  <path id="path4049" d="m714.52 391.12h-1.1719v-7.4688q-0.42188 0.40625-1.1094 0.8125t-1.2344 0.60937v-1.1406q0.98437-0.45313 1.7188-1.1094 0.73437-0.67187 1.0312-1.2812h0.76562z" fill="#000"/>
  <path id="path4051" d="m748.55 374.93h-24v22.772h24z" fill="#f4cccc" fill-rule="evenodd"/>
  <path id="path4053" d="m748.55 374.93h-24v22.772h24z" fill-rule="evenodd" stroke="#000" stroke-linecap="butt" stroke-linejoin="round"/>
  <path id="path4055" d="m738.52 391.12h-1.1719v-7.4688q-0.42188 0.40625-1.1094 0.8125t-1.2344 0.60937v-1.1406q0.98437-0.45313 1.7188-1.1094 0.73437-0.67187 1.0312-1.2812h0.76562z" fill="#000"/>
  <path id="path4057" d="m772.55 374.93h-24v22.772h24z" fill="#f4cccc" fill-rule="evenodd"/>
  <path id="path4059" d="m772.55 374.93h-24v22.772h24z" fill-rule="evenodd" stroke="#000" stroke-linecap="butt" stroke-linejoin="round"/>
  <path id="path4061" d="m762.52 391.12h-1.1719v-7.4688q-0.42188 0.40625-1.1094 0.8125t-1.2344 0.60937v-1.1406q0.98437-0.45313 1.7188-1.1094 0.73437-0.67187 1.0312-1.2812h0.76562z" fill="#000"/>
  <path id="path4063" d="m806.15 374.93h-24v22.772h24z" fill="#f4cccc" fill-rule="evenodd"/>
  <path id="path4065" d="m806.15 374.93h-24v22.772h24z" fill-rule="evenodd" stroke="#000" stroke-linecap="butt" stroke-linejoin="round"/>
  <path id="path4067" d="m796.12 391.12h-1.1719v-7.4688q-0.42187 0.40625-1.1094 0.8125t-1.2344 0.60937v-1.1406q0.98438-0.45313 1.7188-1.1094 0.73438-0.67187 1.0312-1.2812h0.76563z" fill="#000"/>
  <path id="path4069" d="m830.15 374.93h-24v22.772h24z" fill="#f4cccc" fill-rule="evenodd"/>
  <path id="path4071" d="m830.15 374.93h-24v22.772h24z" fill-rule="evenodd" stroke="#000" stroke-linecap="butt" stroke-linejoin="round"/>
  <path id="path4073" d="m820.12 391.12h-1.1719v-7.4688q-0.42187 0.40625-1.1094 0.8125t-1.2344 0.60937v-1.1406q0.98438-0.45313 1.7188-1.1094 0.73438-0.67187 1.0312-1.2812h0.76563z" fill="#000"/>
  <path id="path4075" d="m854.15 374.93h-24v22.772h24z" fill="#f4cccc" fill-rule="evenodd"/>
  <path id="path4077" d="m854.15 374.93h-24v22.772h24z" fill-rule="evenodd" stroke="#000" stroke-linecap="butt" stroke-linejoin="round"/>
  <path id="path4079" d="m844.12 391.12h-1.1719v-7.4688q-0.42187 0.40625-1.1094 0.8125t-1.2344 0.60937v-1.1406q0.98438-0.45313 1.7188-1.1094 0.73438-0.67187 1.0312-1.2812h0.76563z" fill="#000"/>
  <path id="path4081" d="m878.15 374.93h-24v22.772h24z" fill="#f4cccc" fill-rule="evenodd"/>
  <path id="path4083" d="m878.15 374.93h-24v22.772h24z" fill-rule="evenodd" stroke="#000" stroke-linecap="butt" stroke-linejoin="round"/>
  <path id="path4085" d="m868.12 391.12h-1.1719v-7.4688q-0.42187 0.40625-1.1094 0.8125t-1.2344 0.60937v-1.1406q0.98438-0.45313 1.7188-1.1094 0.73438-0.67187 1.0312-1.2812h0.76563z" fill="#000"/>
  <path id="path4087" d="m902.15 374.93h-24v22.772h24z" fill="#f4cccc" fill-rule="evenodd"/>
  <path id="path4089" d="m902.15 374.93h-24v22.772h24z" fill-rule="evenodd" stroke="#000" stroke-linecap="butt" stroke-linejoin="round"/>
  <path id="path4091" d="m892.12 391.12h-1.1719v-7.4688q-0.42187 0.40625-1.1094 0.8125t-1.2344 0.60937v-1.1406q0.98438-0.45313 1.7188-1.1094 0.73438-0.67187 1.0312-1.2812h0.76563z" fill="#000"/>
  <path id="path4093" d="m926.15 374.93h-24v22.772h24z" fill="#f4cccc" fill-rule="evenodd"/>
  <path id="path4095" d="m926.15 374.93h-24v22.772h24z" fill-rule="evenodd" stroke="#000" stroke-linecap="butt" stroke-linejoin="round"/>
  <path id="path4097" d="m916.12 391.12h-1.1719v-7.4688q-0.42187 0.40625-1.1094 0.8125t-1.2344 0.60937v-1.1406q0.98438-0.45313 1.7188-1.1094 0.73438-0.67187 1.0312-1.2812h0.76563z" fill="#000"/>
  <path id="path4099" d="m950.15 374.93h-24v22.772h24z" fill="#f4cccc" fill-rule="evenodd"/>
  <path id="path4101" d="m950.15 374.93h-24v22.772h24z" fill-rule="evenodd" stroke="#000" stroke-linecap="butt" stroke-linejoin="round"/>
  <path id="path4103" d="m940.12 391.12h-1.1719v-7.4688q-0.42187 0.40625-1.1094 0.8125t-1.2344 0.60937v-1.1406q0.98438-0.45313 1.7188-1.1094 0.73438-0.67187 1.0312-1.2812h0.76563z" fill="#000"/>
  <path id="path4105" d="m974.15 374.93h-24v22.772h24z" fill="#f4cccc" fill-rule="evenodd"/>
  <path id="path4107" d="m974.15 374.93h-24v22.772h24z" fill-rule="evenodd" stroke="#000" stroke-linecap="butt" stroke-linejoin="round"/>
  <path id="path4109" d="m964.12 391.12h-1.1719v-7.4688q-0.42187 0.40625-1.1094 0.8125t-1.2344 0.60937v-1.1406q0.98438-0.45313 1.7188-1.1094 0.73438-0.67187 1.0312-1.2812h0.76563z" fill="#000"/>
  <path id="path4111" d="m973.39 369.71c0-5.3054-4.3008-9.6063-9.6063-9.6063h-378.6c-5.3054 0-9.6063-4.3009-9.6063-9.6063 0 5.3054-4.3009 9.6063-9.6063 9.6063h-378.6c-5.3054 0-9.6063 4.3009-9.6063 9.6063z" fill="#000" fill-opacity="0" fill-rule="evenodd"/>
  <path id="path4113" d="m973.39 369.71c0-5.3054-4.3008-9.6063-9.6063-9.6063h-378.6c-5.3054 0-9.6063-4.3009-9.6063-9.6063 0 5.3054-4.3009 9.6063-9.6063 9.6063h-378.6c-5.3054 0-9.6063 4.3009-9.6063 9.6063" fill="#000" fill-opacity="0" fill-rule="evenodd"/>
  <path id="path4115" d="m973.39 369.71c0-5.3054-4.3008-9.6063-9.6063-9.6063h-378.6c-5.3054 0-9.6063-4.3009-9.6063-9.6063 0 5.3054-4.3009 9.6063-9.6063 9.6063h-378.6c-5.3054 0-9.6063 4.3009-9.6063 9.6063" fill-rule="evenodd" stroke="#000" stroke-linecap="butt" stroke-linejoin="round"/>
  <path id="path4117" d="m521.12 316.98h108.91v35.559h-108.91z" fill="#000" fill-opacity="0" fill-rule="evenodd"/>
  <path id="path4119" d="m546.63 338.78v-9.5469h6.9062v1.125h-5.6406v2.9219h5.2812v1.125h-5.2812v3.25h5.8594v1.125zm7.8272 0 3.6562-9.5469h1.3594l3.9062 9.5469h-1.4375l-1.1094-2.8906h-3.9844l-1.0469 2.8906zm2.75-3.9219h3.2344l-1-2.6406q-0.45312-1.2031-0.67187-1.9688-0.1875 0.90625-0.51563 1.8125zm6.2179 3.9219 3.6875-4.9688-3.25-4.5781h1.5l1.7344 2.4531q0.53125 0.76562 0.76563 1.1719 0.3125-0.51562 0.75-1.0938l1.9219-2.5312h1.375l-3.3594 4.5 3.625 5.0469h-1.5625l-2.4062-3.4062q-0.20313-0.29688-0.42188-0.64063-0.3125 0.53125-0.45312 0.71875l-2.3906 3.3281zm15.655 2.8125q-0.98438-1.2344-1.6562-2.875-0.65625-1.6406-0.65625-3.3906 0-1.5469 0.5-2.9688 0.57812-1.6406 1.8125-3.2812h0.82812q-0.78125 1.3594-1.0312 1.9375-0.40625 0.89063-0.625 1.875-0.28125 1.2188-0.28125 2.4375 0 3.1406 1.9375 6.2656zm3.2665-2.8125h-1.0781v-9.5469h1.1719v3.4062q0.73437-0.92187 1.8906-0.92187 0.64063 0 1.2031 0.26562 0.57812 0.25 0.9375 0.71875 0.375 0.45313 0.57812 1.1094 0.20313 0.65625 0.20313 1.4062 0 1.7812-0.875 2.75t-2.1094 0.96875q-1.2188 0-1.9219-1.0156zm0-3.5q0 1.2344 0.32812 1.7812 0.5625 0.90625 1.5 0.90625 0.76563 0 1.3281-0.65625 0.5625-0.67188 0.5625-2 0-1.3438-0.54688-1.9844-0.53125-0.65625-1.2969-0.65625-0.76563 0-1.3281 0.67188-0.54687 0.67187-0.54687 1.9375zm6.35-4.6875v-1.3594h1.1719v1.3594zm0 8.1875v-6.9062h1.1719v6.9062zm5.5079-1.0469 0.17187 1.0312q-0.5 0.10938-0.89062 0.10938-0.64063 0-1-0.20313-0.34375-0.20312-0.48438-0.53125-0.14062-0.32812-0.14062-1.3906v-3.9688h-0.85938v-0.90625h0.85938v-1.7188l1.1719-0.70313v2.4219h1.1719v0.90625h-1.1719v4.0469q0 0.5 0.0469 0.64063 0.0625 0.14062 0.20312 0.23437 0.14063 0.0781 0.40625 0.0781 0.20313 0 0.51563-0.0469zm0.67175-1.0156 1.1562-0.1875q0.10938 0.70312 0.54688 1.0781 0.45312 0.35938 1.25 0.35938 0.8125 0 1.2031-0.32813 0.39063-0.32812 0.39063-0.76562 0-0.39063-0.35938-0.625-0.23437-0.15625-1.1875-0.39063-1.2969-0.32812-1.7969-0.5625-0.48438-0.25-0.75-0.65625-0.25-0.42187-0.25-0.9375 0-0.45312 0.20312-0.84375 0.21875-0.40625 0.57813-0.67187 0.28125-0.1875 0.75-0.32813 0.46875-0.14062 1.0156-0.14062 0.8125 0 1.4219 0.23437 0.60937 0.23438 0.90625 0.64063 0.29687 0.39062 0.40625 1.0625l-1.1406 0.15625q-0.0781-0.53125-0.45312-0.82813-0.375-0.3125-1.0625-0.3125-0.8125 0-1.1562 0.26563-0.34375 0.26562-0.34375 0.625 0 0.23437 0.14062 0.42187 0.15625 0.1875 0.45313 0.3125 0.17187 0.0625 1.0312 0.29688 1.25 0.32812 1.7344 0.54687 0.5 0.20313 0.78125 0.60938t0.28125 1-0.34375 1.1094q-0.34375 0.51563-1 0.79688-0.64062 0.28125-1.4531 0.28125-1.3438 0-2.0469-0.5625-0.70312-0.5625-0.90625-1.6562zm7.8984 4.875h-0.82813q1.9375-3.125 1.9375-6.2656 0-1.2188-0.28125-2.4219-0.21875-0.98438-0.60937-1.875-0.26563-0.59375-1.0469-1.9531h0.82813q1.2344 1.6406 1.8125 3.2812 0.5 1.4219 0.5 2.9688 0 1.75-0.67188 3.3906-0.67187 1.6406-1.6406 2.875z" fill="#000"/>
  <path id="path4121" d="m402.95 374.93h-24v22.772h24z" fill="#d9ead3" fill-rule="evenodd"/>
  <path id="path4123" d="m402.95 374.93h-24v22.772h24z" fill-rule="evenodd" stroke="#000" stroke-linecap="butt" stroke-linejoin="round"/>
  <path id="path4125" d="m388.49 386.42q0-1.6875 0.34375-2.7188 0.35937-1.0312 1.0469-1.5938t1.7188-0.5625q0.78125 0 1.3594 0.3125 0.57812 0.29687 0.95312 0.89062 0.375 0.57813 0.59375 1.4219 0.21875 0.82812 0.21875 2.25 0 1.6719-0.35937 2.7031-0.34375 1.0312-1.0312 1.5938-0.67188 0.5625-1.7344 0.5625-1.375 0-2.1562-0.98437-0.95312-1.1875-0.95312-3.875zm1.2031 0q0 2.3438 0.54688 3.125 0.5625 0.78125 1.3594 0.78125 0.8125 0 1.3594-0.78125 0.5625-0.78125 0.5625-3.125 0-2.3594-0.5625-3.125-0.54688-0.78125-1.3594-0.78125t-1.2969 0.6875q-0.60938 0.875-0.60938 3.2188z" fill="#000"/>
  <path id="path4127" d="m426.95 374.93h-24v22.772h24z" fill="#d9ead3" fill-rule="evenodd"/>
  <path id="path4129" d="m426.95 374.93h-24v22.772h24z" fill-rule="evenodd" stroke="#000" stroke-linecap="butt" stroke-linejoin="round"/>
  <path id="path4131" d="m412.49 386.42q0-1.6875 0.34375-2.7188 0.35937-1.0312 1.0469-1.5938t1.7188-0.5625q0.78125 0 1.3594 0.3125 0.57812 0.29687 0.95312 0.89062 0.375 0.57813 0.59375 1.4219 0.21875 0.82812 0.21875 2.25 0 1.6719-0.35937 2.7031-0.34375 1.0312-1.0312 1.5938-0.67188 0.5625-1.7344 0.5625-1.375 0-2.1562-0.98437-0.95312-1.1875-0.95312-3.875zm1.2031 0q0 2.3438 0.54688 3.125 0.5625 0.78125 1.3594 0.78125 0.8125 0 1.3594-0.78125 0.5625-0.78125 0.5625-3.125 0-2.3594-0.5625-3.125-0.54688-0.78125-1.3594-0.78125t-1.2969 0.6875q-0.60938 0.875-0.60938 3.2188z" fill="#000"/>
  <path id="path4133" d="m450.95 374.93h-24v22.772h24z" fill="#d9ead3" fill-rule="evenodd"/>
  <path id="path4135" d="m450.95 374.93h-24v22.772h24z" fill-rule="evenodd" stroke="#000" stroke-linecap="butt" stroke-linejoin="round"/>
  <path id="path4137" d="m436.49 386.42q0-1.6875 0.34375-2.7188 0.35937-1.0312 1.0469-1.5938t1.7188-0.5625q0.78125 0 1.3594 0.3125 0.57812 0.29687 0.95312 0.89062 0.375 0.57813 0.59375 1.4219 0.21875 0.82812 0.21875 2.25 0 1.6719-0.35937 2.7031-0.34375 1.0312-1.0312 1.5938-0.67188 0.5625-1.7344 0.5625-1.375 0-2.1562-0.98437-0.95312-1.1875-0.95312-3.875zm1.2031 0q0 2.3438 0.54688 3.125 0.5625 0.78125 1.3594 0.78125 0.8125 0 1.3594-0.78125 0.5625-0.78125 0.5625-3.125 0-2.3594-0.5625-3.125-0.54688-0.78125-1.3594-0.78125t-1.2969 0.6875q-0.60938 0.875-0.60938 3.2188z" fill="#000"/>
  <path id="path4139" d="m474.95 374.93h-24v22.772h24z" fill="#d9ead3" fill-rule="evenodd"/>
  <path id="path4141" d="m474.95 374.93h-24v22.772h24z" fill-rule="evenodd" stroke="#000" stroke-linecap="butt" stroke-linejoin="round"/>
  <path id="path4143" d="m460.49 386.42q0-1.6875 0.34375-2.7188 0.35937-1.0312 1.0469-1.5938t1.7188-0.5625q0.78125 0 1.3594 0.3125 0.57812 0.29687 0.95312 0.89062 0.375 0.57813 0.59375 1.4219 0.21875 0.82812 0.21875 2.25 0 1.6719-0.35937 2.7031-0.34375 1.0312-1.0312 1.5938-0.67188 0.5625-1.7344 0.5625-1.375 0-2.1562-0.98437-0.95312-1.1875-0.95312-3.875zm1.2031 0q0 2.3438 0.54688 3.125 0.5625 0.78125 1.3594 0.78125 0.8125 0 1.3594-0.78125 0.5625-0.78125 0.5625-3.125 0-2.3594-0.5625-3.125-0.54688-0.78125-1.3594-0.78125t-1.2969 0.6875q-0.60938 0.875-0.60938 3.2188z" fill="#000"/>
  <path id="path4145" d="m498.95 374.93h-24v22.772h24z" fill="#f4cccc" fill-rule="evenodd"/>
  <path id="path4147" d="m498.95 374.93h-24v22.772h24z" fill-rule="evenodd" stroke="#000" stroke-linecap="butt" stroke-linejoin="round"/>
  <path id="path4149" d="m488.92 391.12h-1.1719v-7.4688q-0.42188 0.40625-1.1094 0.8125t-1.2344 0.60937v-1.1406q0.98437-0.45313 1.7188-1.1094 0.73437-0.67187 1.0312-1.2812h0.76562z" fill="#000"/>
  <path id="path4151" d="m522.95 374.93h-24v22.772h24z" fill="#f4cccc" fill-rule="evenodd"/>
  <path id="path4153" d="m522.95 374.93h-24v22.772h24z" fill-rule="evenodd" stroke="#000" stroke-linecap="butt" stroke-linejoin="round"/>
  <path id="path4155" d="m512.92 391.12h-1.1719v-7.4688q-0.42187 0.40625-1.1094 0.8125t-1.2344 0.60937v-1.1406q0.98438-0.45313 1.7188-1.1094 0.73438-0.67187 1.0312-1.2812h0.76563z" fill="#000"/>
  <path id="path4157" d="m546.95 374.93h-24v22.772h24z" fill="#f4cccc" fill-rule="evenodd"/>
  <path id="path4159" d="m546.95 374.93h-24v22.772h24z" fill-rule="evenodd" stroke="#000" stroke-linecap="butt" stroke-linejoin="round"/>
  <path id="path4161" d="m536.92 391.12h-1.1719v-7.4688q-0.42187 0.40625-1.1094 0.8125t-1.2344 0.60937v-1.1406q0.98438-0.45313 1.7188-1.1094 0.73438-0.67187 1.0312-1.2812h0.76563z" fill="#000"/>
  <path id="path4163" d="m570.95 374.93h-24v22.772h24z" fill="#f4cccc" fill-rule="evenodd"/>
  <path id="path4165" d="m570.95 374.93h-24v22.772h24z" fill-rule="evenodd" stroke="#000" stroke-linecap="butt" stroke-linejoin="round"/>
  <path id="path4167" d="m560.92 391.12h-1.1719v-7.4688q-0.42187 0.40625-1.1094 0.8125t-1.2344 0.60937v-1.1406q0.98438-0.45313 1.7188-1.1094 0.73438-0.67187 1.0312-1.2812h0.76563z" fill="#000"/>
  <path id="path4169" d="m201.35 374.93h-24v22.772h24z" fill="#d9ead3" fill-rule="evenodd"/>
  <path id="path4171" d="m201.35 374.93h-24v22.772h24z" fill-rule="evenodd" stroke="#000" stroke-linecap="butt" stroke-linejoin="round"/>
  <path id="path4173" d="m186.89 386.42q0-1.6875 0.34375-2.7188 0.35937-1.0312 1.0469-1.5938t1.7188-0.5625q0.78125 0 1.3594 0.3125 0.57812 0.29687 0.95312 0.89062 0.375 0.57813 0.59375 1.4219 0.21875 0.82812 0.21875 2.25 0 1.6719-0.35937 2.7031-0.34375 1.0312-1.0312 1.5938-0.67188 0.5625-1.7344 0.5625-1.375 0-2.1562-0.98437-0.95312-1.1875-0.95312-3.875zm1.2031 0q0 2.3438 0.54688 3.125 0.5625 0.78125 1.3594 0.78125 0.8125 0 1.3594-0.78125 0.5625-0.78125 0.5625-3.125 0-2.3594-0.5625-3.125-0.54688-0.78125-1.3594-0.78125t-1.2969 0.6875q-0.60938 0.875-0.60938 3.2188z" fill="#000"/>
  <path id="path4175" d="m225.35 374.93h-24v22.772h24z" fill="#d9ead3" fill-rule="evenodd"/>
  <path id="path4177" d="m225.35 374.93h-24v22.772h24z" fill-rule="evenodd" stroke="#000" stroke-linecap="butt" stroke-linejoin="round"/>
  <path id="path4179" d="m210.89 386.42q0-1.6875 0.34375-2.7188 0.35937-1.0312 1.0469-1.5938t1.7188-0.5625q0.78125 0 1.3594 0.3125 0.57812 0.29687 0.95312 0.89062 0.375 0.57813 0.59375 1.4219 0.21875 0.82812 0.21875 2.25 0 1.6719-0.35937 2.7031-0.34375 1.0312-1.0312 1.5938-0.67188 0.5625-1.7344 0.5625-1.375 0-2.1562-0.98437-0.95312-1.1875-0.95312-3.875zm1.2031 0q0 2.3438 0.54688 3.125 0.5625 0.78125 1.3594 0.78125 0.8125 0 1.3594-0.78125 0.5625-0.78125 0.5625-3.125 0-2.3594-0.5625-3.125-0.54688-0.78125-1.3594-0.78125t-1.2969 0.6875q-0.60938 0.875-0.60938 3.2188z" fill="#000"/>
  <path id="path4181" d="m273.35 374.93h-24v22.772h24z" fill="#d9ead3" fill-rule="evenodd"/>
  <path id="path4183" d="m273.35 374.93h-24v22.772h24z" fill-rule="evenodd" stroke="#000" stroke-linecap="butt" stroke-linejoin="round"/>
  <path id="path4185" d="m258.89 386.42q0-1.6875 0.34375-2.7188 0.35938-1.0312 1.0469-1.5938t1.7188-0.5625q0.78125 0 1.3594 0.3125 0.57813 0.29687 0.95313 0.89062 0.375 0.57813 0.59375 1.4219 0.21875 0.82812 0.21875 2.25 0 1.6719-0.35938 2.7031-0.34375 1.0312-1.0312 1.5938-0.67187 0.5625-1.7344 0.5625-1.375 0-2.1562-0.98437-0.95313-1.1875-0.95313-3.875zm1.2031 0q0 2.3438 0.54687 3.125 0.5625 0.78125 1.3594 0.78125 0.8125 0 1.3594-0.78125 0.5625-0.78125 0.5625-3.125 0-2.3594-0.5625-3.125-0.54687-0.78125-1.3594-0.78125t-1.2969 0.6875q-0.60937 0.875-0.60937 3.2188z" fill="#000"/>
  <path id="path4187" d="m297.35 374.93h-24v22.772h24z" fill="#d9ead3" fill-rule="evenodd"/>
  <path id="path4189" d="m297.35 374.93h-24v22.772h24z" fill-rule="evenodd" stroke="#000" stroke-linecap="butt" stroke-linejoin="round"/>
  <path id="path4191" d="m282.89 386.42q0-1.6875 0.34375-2.7188 0.35938-1.0312 1.0469-1.5938t1.7188-0.5625q0.78125 0 1.3594 0.3125 0.57813 0.29687 0.95313 0.89062 0.375 0.57813 0.59375 1.4219 0.21875 0.82812 0.21875 2.25 0 1.6719-0.35938 2.7031-0.34375 1.0312-1.0312 1.5938-0.67187 0.5625-1.7344 0.5625-1.375 0-2.1562-0.98437-0.95313-1.1875-0.95313-3.875zm1.2031 0q0 2.3438 0.54687 3.125 0.5625 0.78125 1.3594 0.78125 0.8125 0 1.3594-0.78125 0.5625-0.78125 0.5625-3.125 0-2.3594-0.5625-3.125-0.54687-0.78125-1.3594-0.78125t-1.2969 0.6875q-0.60937 0.875-0.60937 3.2188z" fill="#000"/>
  <path id="path4193" d="m321.35 374.93h-24v22.772h24z" fill="#d9ead3" fill-rule="evenodd"/>
  <path id="path4195" d="m321.35 374.93h-24v22.772h24z" fill-rule="evenodd" stroke="#000" stroke-linecap="butt" stroke-linejoin="round"/>
  <path id="path4197" d="m306.89 386.42q0-1.6875 0.34375-2.7188 0.35938-1.0312 1.0469-1.5938t1.7188-0.5625q0.78125 0 1.3594 0.3125 0.57813 0.29687 0.95313 0.89062 0.375 0.57813 0.59375 1.4219 0.21875 0.82812 0.21875 2.25 0 1.6719-0.35938 2.7031-0.34375 1.0312-1.0312 1.5938-0.67187 0.5625-1.7344 0.5625-1.375 0-2.1562-0.98437-0.95313-1.1875-0.95313-3.875zm1.2031 0q0 2.3438 0.54687 3.125 0.5625 0.78125 1.3594 0.78125 0.8125 0 1.3594-0.78125 0.5625-0.78125 0.5625-3.125 0-2.3594-0.5625-3.125-0.54687-0.78125-1.3594-0.78125t-1.2969 0.6875q-0.60937 0.875-0.60937 3.2188z" fill="#000"/>
  <path id="path4199" d="m345.35 374.93h-24v22.772h24z" fill="#d9ead3" fill-rule="evenodd"/>
  <path id="path4201" d="m345.35 374.93h-24v22.772h24z" fill-rule="evenodd" stroke="#000" stroke-linecap="butt" stroke-linejoin="round"/>
  <path id="path4203" d="m330.89 386.42q0-1.6875 0.34375-2.7188 0.35938-1.0312 1.0469-1.5938t1.7188-0.5625q0.78125 0 1.3594 0.3125 0.57813 0.29687 0.95313 0.89062 0.375 0.57813 0.59375 1.4219 0.21875 0.82812 0.21875 2.25 0 1.6719-0.35938 2.7031-0.34375 1.0312-1.0312 1.5938-0.67187 0.5625-1.7344 0.5625-1.375 0-2.1562-0.98437-0.95313-1.1875-0.95313-3.875zm1.2031 0q0 2.3438 0.54687 3.125 0.5625 0.78125 1.3594 0.78125 0.8125 0 1.3594-0.78125 0.5625-0.78125 0.5625-3.125 0-2.3594-0.5625-3.125-0.54687-0.78125-1.3594-0.78125t-1.2969 0.6875q-0.60937 0.875-0.60937 3.2188z" fill="#000"/>
  <path id="path4205" d="m369.35 374.93h-24v22.772h24z" fill="#d9ead3" fill-rule="evenodd"/>
  <path id="path4207" d="m369.35 374.93h-24v22.772h24z" fill-rule="evenodd" stroke="#000" stroke-linecap="butt" stroke-linejoin="round"/>
  <path id="path4209" d="m354.89 386.42q0-1.6875 0.34375-2.7188 0.35938-1.0312 1.0469-1.5938t1.7188-0.5625q0.78125 0 1.3594 0.3125 0.57813 0.29687 0.95313 0.89062 0.375 0.57813 0.59375 1.4219 0.21875 0.82812 0.21875 2.25 0 1.6719-0.35938 2.7031-0.34375 1.0312-1.0312 1.5938-0.67187 0.5625-1.7344 0.5625-1.375 0-2.1562-0.98437-0.95313-1.1875-0.95313-3.875zm1.2031 0q0 2.3438 0.54687 3.125 0.5625 0.78125 1.3594 0.78125 0.8125 0 1.3594-0.78125 0.5625-0.78125 0.5625-3.125 0-2.3594-0.5625-3.125-0.54687-0.78125-1.3594-0.78125t-1.2969 0.6875q-0.60937 0.875-0.60937 3.2188z" fill="#000"/>
  <path id="path4211" d="m249.35 374.93h-24v22.772h24z" fill="#d9ead3" fill-rule="evenodd"/>
  <path id="path4213" d="m249.35 374.93h-24v22.772h24z" fill-rule="evenodd" stroke="#000" stroke-linecap="butt" stroke-linejoin="round"/>
  <path id="path4215" d="m234.89 386.42q0-1.6875 0.34375-2.7188 0.35937-1.0312 1.0469-1.5938t1.7188-0.5625q0.78125 0 1.3594 0.3125 0.57812 0.29687 0.95312 0.89062 0.375 0.57813 0.59375 1.4219 0.21875 0.82812 0.21875 2.25 0 1.6719-0.35937 2.7031-0.34375 1.0312-1.0312 1.5938-0.67188 0.5625-1.7344 0.5625-1.375 0-2.1562-0.98437-0.95312-1.1875-0.95312-3.875zm1.2031 0q0 2.3438 0.54688 3.125 0.5625 0.78125 1.3594 0.78125 0.8125 0 1.3594-0.78125 0.5625-0.78125 0.5625-3.125 0-2.3594-0.5625-3.125-0.54688-0.78125-1.3594-0.78125t-1.2969 0.6875q-0.60938 0.875-0.60938 3.2188z" fill="#000"/>
  <path id="path4217" d="m177.35 402.93h48.63v29.071h-48.63z" fill="#000" fill-opacity="0" fill-rule="evenodd"/>
  <path id="path4219" d="m186.94 419.61v-5.7344h0.75v5.0625h2.8281v0.67188zm4.2148-1.8438 0.71875-0.0625q0.0469 0.4375 0.23438 0.71875 0.1875 0.26562 0.57812 0.4375 0.39063 0.17187 0.875 0.17187 0.4375 0 0.76563-0.125 0.32812-0.14062 0.48437-0.35937 0.17188-0.23438 0.17188-0.5 0-0.26563-0.15625-0.46875-0.15625-0.20313-0.51563-0.32813-0.23437-0.0937-1.0312-0.28125-0.78125-0.1875-1.0938-0.35937-0.40625-0.21875-0.60937-0.53125-0.20313-0.32813-0.20313-0.71875 0-0.4375 0.25-0.8125t0.71875-0.5625q0.46875-0.20313 1.0469-0.20313 0.64062 0 1.125 0.20313 0.48437 0.20312 0.75 0.60937 0.26562 0.39063 0.28125 0.90625l-0.73438 0.0469q-0.0469-0.54688-0.39062-0.8125-0.34375-0.28125-1-0.28125-0.6875 0-1 0.25t-0.3125 0.60937q0 0.3125 0.21875 0.5 0.21875 0.20313 1.1406 0.42188 0.92188 0.20312 1.2656 0.35937 0.5 0.23438 0.73437 0.59375 0.25 0.34375 0.25 0.79688 0 0.46875-0.26562 0.875-0.26563 0.39062-0.75 0.625-0.48438 0.21875-1.1094 0.21875-0.76562 0-1.2969-0.21875-0.53125-0.23438-0.82813-0.6875-0.29687-0.45313-0.3125-1.0312zm5.5703 1.8438v-5.7344h2.1406q0.65625 0 1.0469 0.1875 0.40625 0.17188 0.625 0.53125 0.23437 0.35938 0.23437 0.75 0 0.375-0.20312 0.70313-0.20313 0.3125-0.60938 0.51562 0.53125 0.15625 0.79688 0.53125 0.28125 0.35938 0.28125 0.85938 0 0.39062-0.17188 0.75-0.15625 0.34375-0.40625 0.53125t-0.64062 0.28125q-0.375 0.0937-0.92188 0.0937zm0.75-3.3281h1.2344q0.51563 0 0.73438-0.0625 0.28125-0.0781 0.42187-0.28125 0.15625-0.20312 0.15625-0.5 0-0.28125-0.14062-0.5-0.14063-0.21875-0.39063-0.29687-0.25-0.0781-0.875-0.0781h-1.1406zm0 2.6562h1.4219q0.375 0 0.51563-0.0312 0.26562-0.0469 0.4375-0.15625 0.1875-0.10937 0.29687-0.3125 0.10938-0.21875 0.10938-0.48437 0-0.32813-0.17188-0.5625-0.15625-0.23438-0.45312-0.32813-0.28125-0.0937-0.82813-0.0937h-1.3281z" fill="#000"/>
  <path id="path4221" d="m926.4 402.93h48.63v29.071h-48.63z" fill="#000" fill-opacity="0" fill-rule="evenodd"/>
  <path id="path4223" d="m949.29 419.61v-5.7344h1.1406l1.3594 4.0625q0.1875 0.5625 0.26563 0.84375 0.10937-0.3125 0.3125-0.92187l1.375-3.9844h1.0156v5.7344h-0.73437v-4.7969l-1.6562 4.7969h-0.6875l-1.6562-4.875v4.875zm6.4297-1.8438 0.71875-0.0625q0.0469 0.4375 0.23437 0.71875 0.1875 0.26562 0.57813 0.4375 0.39062 0.17187 0.875 0.17187 0.4375 0 0.76562-0.125 0.32813-0.14062 0.48438-0.35937 0.17187-0.23438 0.17187-0.5 0-0.26563-0.15625-0.46875-0.15625-0.20313-0.51562-0.32813-0.23438-0.0937-1.0312-0.28125-0.78125-0.1875-1.0938-0.35937-0.40625-0.21875-0.60938-0.53125-0.20312-0.32813-0.20312-0.71875 0-0.4375 0.25-0.8125t0.71875-0.5625q0.46875-0.20313 1.0469-0.20313 0.64063 0 1.125 0.20313 0.48438 0.20312 0.75 0.60937 0.26563 0.39063 0.28125 0.90625l-0.73437 0.0469q-0.0469-0.54688-0.39063-0.8125-0.34375-0.28125-1-0.28125-0.6875 0-1 0.25t-0.3125 0.60937q0 0.3125 0.21875 0.5 0.21875 0.20313 1.1406 0.42188 0.92187 0.20312 1.2656 0.35937 0.5 0.23438 0.73438 0.59375 0.25 0.34375 0.25 0.79688 0 0.46875-0.26563 0.875-0.26562 0.39062-0.75 0.625-0.48437 0.21875-1.1094 0.21875-0.76563 0-1.2969-0.21875-0.53125-0.23438-0.82812-0.6875-0.29688-0.45313-0.3125-1.0312zm5.5703 1.8438v-5.7344h2.1406q0.65625 0 1.0469 0.1875 0.40625 0.17188 0.625 0.53125 0.23438 0.35938 0.23438 0.75 0 0.375-0.20313 0.70313-0.20312 0.3125-0.60937 0.51562 0.53125 0.15625 0.79687 0.53125 0.28125 0.35938 0.28125 0.85938 0 0.39062-0.17187 0.75-0.15625 0.34375-0.40625 0.53125t-0.64063 0.28125q-0.375 0.0937-0.92187 0.0937zm0.75-3.3281h1.2344q0.51562 0 0.73437-0.0625 0.28125-0.0781 0.42188-0.28125 0.15625-0.20312 0.15625-0.5 0-0.28125-0.14063-0.5-0.14062-0.21875-0.39062-0.29687-0.25-0.0781-0.875-0.0781h-1.1406zm0 2.6562h1.4219q0.375 0 0.51562-0.0312 0.26563-0.0469 0.4375-0.15625 0.1875-0.10937 0.29688-0.3125 0.10937-0.21875 0.10937-0.48437 0-0.32813-0.17187-0.5625-0.15625-0.23438-0.45313-0.32813-0.28125-0.0937-0.82812-0.0937h-1.3281z" fill="#000"/>
  <path id="path4225" d="m177.78 402.93c0 5.3054 4.3009 9.6063 9.6063 9.6063h129.45c5.3054 0 9.6063 4.3009 9.6063 9.6063 0-5.3054 4.3009-9.6063 9.6063-9.6063h129.45c5.3054 0 9.6063-4.3009 9.6063-9.6063z" fill="#000" fill-opacity="0" fill-rule="evenodd"/>
  <path id="path4227" d="m177.78 402.93c0 5.3054 4.3009 9.6063 9.6063 9.6063h129.45c5.3054 0 9.6063 4.3009 9.6063 9.6063 0-5.3054 4.3009-9.6063 9.6063-9.6063h129.45c5.3054 0 9.6063-4.3009 9.6063-9.6063" fill="#000" fill-opacity="0" fill-rule="evenodd"/>
  <path id="path4229" d="m177.78 402.93c0 5.3054 4.3009 9.6063 9.6063 9.6063h129.45c5.3054 0 9.6063 4.3009 9.6063 9.6063 0-5.3054 4.3009-9.6063 9.6063-9.6063h129.45c5.3054 0 9.6063-4.3009 9.6063-9.6063" fill-rule="evenodd" stroke="#000" stroke-linecap="butt" stroke-linejoin="round"/>
  <path id="path4231" d="m182.14 422.14h288.6v42.016h-288.6z" fill="#000" fill-opacity="0" fill-rule="evenodd"/>
  <path id="path4233" d="m244.16 447.59 0.23437 1.4531q-0.6875 0.14062-1.2344 0.14062-0.89063 0-1.3906-0.28125-0.48437-0.28125-0.6875-0.73437-0.20312-0.46875-0.20312-1.9375v-5.5781h-1.2031v-1.2656h1.2031v-2.3906l1.625-0.98437v3.375h1.6562v1.2656h-1.6562v5.6719q0 0.6875 0.0781 0.89062 0.0937 0.20313 0.28125 0.32813 0.20313 0.10937 0.57813 0.10937 0.26562 0 0.71875-0.0625zm3.3864 1.4688-2.9688-9.6719h1.7031l1.5312 5.5781 0.57813 2.0781q0.0469-0.15625 0.5-2l1.5469-5.6562h1.6875l1.4375 5.6094 0.48438 1.8438 0.5625-1.8594 1.6563-5.5938h1.5938l-3.0313 9.6719h-1.7031l-1.5312-5.7969-0.375-1.6406-1.9531 7.4375zm18.317-3.1094 1.6875 0.20312q-0.40625 1.4844-1.4844 2.3125-1.0781 0.8125-2.7656 0.8125-2.125 0-3.375-1.2969-1.2344-1.3125-1.2344-3.6719 0-2.4531 1.25-3.7969 1.2656-1.3438 3.2656-1.3438 1.9375 0 3.1562 1.3281 1.2344 1.3125 1.2344 3.7031 0 0.15625 0 0.4375h-7.2188q0.0937 1.5938 0.90625 2.4531 0.8125 0.84375 2.0156 0.84375 0.90625 0 1.5469-0.46875 0.64062-0.48437 1.0156-1.5156zm-5.3906-2.6562h5.4062q-0.10938-1.2188-0.625-1.8281-0.78125-0.95312-2.0312-0.95312-1.125 0-1.9062 0.76562-0.76563 0.75-0.84375 2.0156zm9.0945 5.7656v-13.359h1.6406v13.359zm6.8792 0-3.6875-9.6719h1.7344l2.0781 5.7969q0.32813 0.9375 0.625 1.9375 0.20313-0.76562 0.60938-1.8281l2.1406-5.9062h1.6875l-3.6562 9.6719zm13.266-3.1094 1.6875 0.20312q-0.40625 1.4844-1.4844 2.3125-1.0781 0.8125-2.7656 0.8125-2.125 0-3.375-1.2969-1.2344-1.3125-1.2344-3.6719 0-2.4531 1.25-3.7969 1.2656-1.3438 3.2656-1.3438 1.9375 0 3.1562 1.3281 1.2344 1.3125 1.2344 3.7031 0 0.15625 0 0.4375h-7.2188q0.0937 1.5938 0.90625 2.4531 0.8125 0.84375 2.0156 0.84375 0.90625 0 1.5469-0.46875 0.64063-0.48437 1.0156-1.5156zm-5.3906-2.6562h5.4062q-0.10937-1.2188-0.625-1.8281-0.78125-0.95312-2.0312-0.95312-1.125 0-1.9062 0.76562-0.76562 0.75-0.84375 2.0156zm17.903 4.2969 0.23438 1.4531q-0.6875 0.14062-1.2344 0.14062-0.89062 0-1.3906-0.28125-0.48438-0.28125-0.6875-0.73437-0.20313-0.46875-0.20313-1.9375v-5.5781h-1.2031v-1.2656h1.2031v-2.3906l1.625-0.98437v3.375h1.6562v1.2656h-1.6562v5.6719q0 0.6875 0.0781 0.89062 0.0937 0.20313 0.28125 0.32813 0.20312 0.10937 0.57812 0.10937 0.26563 0 0.71875-0.0625zm1.5896 1.4688v-9.6719h1.4688v1.4688q0.5625-1.0312 1.0312-1.3594 0.48438-0.32812 1.0625-0.32812 0.82813 0 1.6875 0.53125l-0.5625 1.5156q-0.60937-0.35937-1.2031-0.35937-0.54688 0-0.96875 0.32812-0.42188 0.32813-0.60938 0.89063-0.28125 0.875-0.28125 1.9219v5.0625zm12.541-1.1875q-0.92187 0.76563-1.7656 1.0938-0.82813 0.3125-1.7969 0.3125-1.5938 0-2.4531-0.78125-0.85935-0.78125-0.85935-1.9844 0-0.71875 0.32813-1.2969 0.32812-0.59375 0.84372-0.9375 0.53125-0.35937 1.1875-0.54687 0.46875-0.125 1.4531-0.25 1.9844-0.23438 2.9219-0.5625 0.0156-0.34375 0.0156-0.42188 0-1-0.46875-1.4219-0.625-0.54688-1.875-0.54688-1.1562 0-1.7031 0.40625-0.54688 0.40625-0.8125 1.4219l-1.6094-0.21875q0.21875-1.0156 0.71872-1.6406 0.5-0.64062 1.4531-0.98437 0.95312-0.34375 2.1875-0.34375 1.25 0 2.0156 0.29687 0.78125 0.28125 1.1406 0.73438 0.375 0.4375 0.51562 1.1094 0.0781 0.42188 0.0781 1.5156v2.1875q0 2.2812 0.10937 2.8906 0.10938 0.59375 0.40625 1.1562h-1.7031q-0.26563-0.51562-0.32813-1.1875zm-0.14062-3.6719q-0.89063 0.375-2.6719 0.625-1.0156 0.14062-1.4375 0.32812-0.42187 0.1875-0.65625 0.53125-0.21875 0.34375-0.21875 0.78125 0 0.65625 0.5 1.0938t1.4531 0.4375q0.9375 0 1.6719-0.40625 0.75-0.42187 1.0938-1.1406 0.26563-0.5625 0.26563-1.6406zm4.2039-6.6094v-1.8906h1.6406v1.8906zm0 11.469v-9.6719h1.6406v9.6719zm4.0979 0v-13.359h1.6406v13.359zm4.1917-11.469v-1.8906h1.6406v1.8906zm0 11.469v-9.6719h1.6406v9.6719zm4.1448 0v-9.6719h1.4688v1.375q1.0625-1.5938 3.0781-1.5938 0.875 0 1.6094 0.3125 0.73437 0.3125 1.0938 0.82812 0.375 0.5 0.51562 1.2031 0.0937 0.45312 0.0937 1.5938v5.9531h-1.6406v-5.8906q0-1-0.20313-1.4844-0.1875-0.5-0.67187-0.79687-0.48438-0.29688-1.1406-0.29688-1.0469 0-1.8125 0.67188-0.75 0.65625-0.75 2.5156v5.2812zm10.063 0.79688 1.5938 0.23437q0.10937 0.75 0.5625 1.0781 0.60937 0.45312 1.6719 0.45312 1.1406 0 1.75-0.45312 0.625-0.45313 0.84375-1.2656 0.125-0.5 0.10938-2.1094-1.0625 1.2656-2.6719 1.2656-2 0-3.0938-1.4375t-1.0938-3.4531q0-1.3906 0.5-2.5625 0.51563-1.1719 1.4531-1.7969 0.95312-0.64062 2.25-0.64062 1.7031 0 2.8125 1.375v-1.1562h1.5156v8.3594q0 2.2656-0.46875 3.2031-0.45312 0.9375-1.4531 1.4844-0.98438 0.54688-2.4531 0.54688-1.7188 0-2.7969-0.78125-1.0625-0.76563-1.0312-2.3438zm1.3594-5.8125q0 1.9062 0.75 2.7812 0.76563 0.875 1.9062 0.875 1.125 0 1.8906-0.85938 0.76562-0.875 0.76562-2.7344 0-1.7812-0.79687-2.6719-0.78125-0.90625-1.8906-0.90625-1.0938 0-1.8594 0.89063-0.76563 0.875-0.76563 2.625zm13.637 5.0156v-1.3281l6.1562-7.0781q-1.0469 0.0625-1.8438 0.0625h-3.9375v-1.3281h7.9062v1.0781l-5.25 6.1406-1 1.125q1.0938-0.0781 2.0625-0.0781h4.4688v1.4062zm16.828-3.1094 1.6875 0.20312q-0.40625 1.4844-1.4844 2.3125-1.0781 0.8125-2.7656 0.8125-2.125 0-3.375-1.2969-1.2344-1.3125-1.2344-3.6719 0-2.4531 1.25-3.7969 1.2656-1.3438 3.2656-1.3438 1.9375 0 3.1562 1.3281 1.2344 1.3125 1.2344 3.7031 0 0.15625 0 0.4375h-7.2188q0.0937 1.5938 0.90625 2.4531 0.8125 0.84375 2.0156 0.84375 0.90625 0 1.5469-0.46875 0.64062-0.48437 1.0156-1.5156zm-5.3906-2.6562h5.4062q-0.10938-1.2188-0.625-1.8281-0.78125-0.95312-2.0312-0.95312-1.125 0-1.9062 0.76562-0.76563 0.75-0.84375 2.0156zm9.1257 5.7656v-9.6719h1.4688v1.4688q0.5625-1.0312 1.0312-1.3594 0.48438-0.32812 1.0625-0.32812 0.82813 0 1.6875 0.53125l-0.5625 1.5156q-0.60937-0.35937-1.2031-0.35937-0.54688 0-0.96875 0.32812-0.42188 0.32813-0.60938 0.89063-0.28125 0.875-0.28125 1.9219v5.0625zm5.6189-4.8438q0-2.6875 1.4844-3.9688 1.25-1.0781 3.0469-1.0781 2 0 3.2656 1.3125 1.2656 1.2969 1.2656 3.6094 0 1.8594-0.5625 2.9375-0.5625 1.0625-1.6406 1.6562-1.0625 0.59375-2.3281 0.59375-2.0312 0-3.2812-1.2969-1.25-1.3125-1.25-3.7656zm1.6875 0q0 1.8594 0.79687 2.7969 0.8125 0.92187 2.0469 0.92187 1.2188 0 2.0312-0.92187 0.8125-0.9375 0.8125-2.8438 0-1.7969-0.8125-2.7188-0.8125-0.92188-2.0312-0.92188-1.2344 0-2.0469 0.92188-0.79687 0.90625-0.79687 2.7656zm15.923 1.7344 1.6875 0.20312q-0.40625 1.4844-1.4844 2.3125-1.0781 0.8125-2.7656 0.8125-2.125 0-3.375-1.2969-1.2344-1.3125-1.2344-3.6719 0-2.4531 1.25-3.7969 1.2656-1.3438 3.2656-1.3438 1.9375 0 3.1562 1.3281 1.2344 1.3125 1.2344 3.7031 0 0.15625 0 0.4375h-7.2188q0.0937 1.5938 0.90625 2.4531 0.8125 0.84375 2.0156 0.84375 0.90625 0 1.5469-0.46875 0.64062-0.48437 1.0156-1.5156zm-5.3906-2.6562h5.4062q-0.10938-1.2188-0.625-1.8281-0.78125-0.95312-2.0312-0.95312-1.125 0-1.9062 0.76562-0.76563 0.75-0.84375 2.0156zm8.4851 2.875 1.625-0.25q0.125 0.96875 0.75 1.5 0.625 0.51562 1.75 0.51562t1.6719-0.45312q0.54688-0.46875 0.54688-1.0938 0-0.54688-0.48438-0.875-0.32812-0.21875-1.6719-0.54688-1.8125-0.46875-2.5156-0.79687-0.6875-0.32813-1.0469-0.90625-0.35938-0.59375-0.35938-1.3125 0-0.64063 0.29688-1.1875 0.29687-0.5625 0.8125-0.92188 0.375-0.28125 1.0312-0.46875 0.67187-0.20312 1.4219-0.20312 1.1406 0 2 0.32812 0.85938 0.32813 1.2656 0.89063 0.42187 0.5625 0.57812 1.5l-1.6094 0.21875q-0.10938-0.75-0.64063-1.1719-0.51562-0.42187-1.4688-0.42187-1.1406 0-1.625 0.375-0.46875 0.375-0.46875 0.875 0 0.3125 0.1875 0.57812 0.20313 0.26563 0.64063 0.4375 0.23437 0.0937 1.4375 0.42188 1.75 0.45312 2.4375 0.75 0.6875 0.29687 1.0781 0.85937 0.39063 0.5625 0.39063 1.4062 0 0.82813-0.48438 1.5469-0.46875 0.71875-1.375 1.125-0.90625 0.39062-2.0469 0.39062-1.875 0-2.875-0.78125-0.98438-0.78125-1.25-2.3281z" fill="#000"/>
  <path id="path4235" d="m177.78 267.48c0 5.3054 4.3009 9.6063 9.6063 9.6063h129.45c5.3054 0 9.6063 4.3009 9.6063 9.6063 0-5.3054 4.3009-9.6063 9.6063-9.6063h129.45c5.3054 0 9.6063-4.3009 9.6063-9.6063z" fill="#000" fill-opacity="0" fill-rule="evenodd"/>
  <path id="path4237" d="m177.78 267.48c0 5.3054 4.3009 9.6063 9.6063 9.6063h129.45c5.3054 0 9.6063 4.3009 9.6063 9.6063 0-5.3054 4.3009-9.6063 9.6063-9.6063h129.45c5.3054 0 9.6063-4.3009 9.6063-9.6063" fill="#000" fill-opacity="0" fill-rule="evenodd"/>
  <path id="path4239" d="m177.78 267.48c0 5.3054 4.3009 9.6063 9.6063 9.6063h129.45c5.3054 0 9.6063 4.3009 9.6063 9.6063 0-5.3054 4.3009-9.6063 9.6063-9.6063h129.45c5.3054 0 9.6063-4.3009 9.6063-9.6063" fill-rule="evenodd" stroke="#000" stroke-linecap="butt" stroke-linejoin="round"/>
  <path id="path4241" d="m182.14 282.59h288.6v42.016h-288.6z" fill="#000" fill-opacity="0" fill-rule="evenodd"/>
  <path id="path4243" d="m258.68 308.04 0.23437 1.4531q-0.6875 0.14063-1.2344 0.14063-0.89063 0-1.3906-0.28125-0.48437-0.28125-0.6875-0.73438-0.20312-0.46875-0.20312-1.9375v-5.5781h-1.2031v-1.2656h1.2031v-2.3906l1.625-0.98438v3.375h1.6562v1.2656h-1.6562v5.6719q0 0.6875 0.0781 0.89063 0.0937 0.20312 0.28125 0.32812 0.20313 0.10938 0.57813 0.10938 0.26562 0 0.71875-0.0625zm3.3864 1.4688-2.9688-9.6719h1.7031l1.5312 5.5781 0.57812 2.0781q0.0469-0.15625 0.5-2l1.5469-5.6562h1.6875l1.4375 5.6094 0.48437 1.8438 0.5625-1.8594 1.6562-5.5938h1.5938l-3.0312 9.6719h-1.7031l-1.5312-5.7969-0.375-1.6406-1.9531 7.4375zm18.317-3.1094 1.6875 0.20313q-0.40625 1.4844-1.4844 2.3125-1.0781 0.8125-2.7656 0.8125-2.125 0-3.375-1.2969-1.2344-1.3125-1.2344-3.6719 0-2.4531 1.25-3.7969 1.2656-1.3438 3.2656-1.3438 1.9375 0 3.1562 1.3281 1.2344 1.3125 1.2344 3.7031 0 0.15625 0 0.4375h-7.2188q0.0937 1.5938 0.90625 2.4531 0.8125 0.84375 2.0156 0.84375 0.90625 0 1.5469-0.46875 0.64062-0.48438 1.0156-1.5156zm-5.3906-2.6562h5.4062q-0.10938-1.2188-0.625-1.8281-0.78125-0.95313-2.0312-0.95313-1.125 0-1.9062 0.76563-0.76563 0.75-0.84375 2.0156zm9.0945 5.7656v-13.359h1.6406v13.359zm6.8792 0-3.6875-9.6719h1.7344l2.0781 5.7969q0.32813 0.9375 0.625 1.9375 0.20313-0.76563 0.60938-1.8281l2.1406-5.9062h1.6875l-3.6562 9.6719zm13.266-3.1094 1.6875 0.20313q-0.40625 1.4844-1.4844 2.3125-1.0781 0.8125-2.7656 0.8125-2.125 0-3.375-1.2969-1.2344-1.3125-1.2344-3.6719 0-2.4531 1.25-3.7969 1.2656-1.3438 3.2656-1.3438 1.9375 0 3.1562 1.3281 1.2344 1.3125 1.2344 3.7031 0 0.15625 0 0.4375h-7.2188q0.0937 1.5938 0.90625 2.4531 0.8125 0.84375 2.0156 0.84375 0.90625 0 1.5469-0.46875 0.64063-0.48438 1.0156-1.5156zm-5.3906-2.6562h5.4062q-0.10937-1.2188-0.625-1.8281-0.78125-0.95313-2.0312-0.95313-1.125 0-1.9062 0.76563-0.76562 0.75-0.84375 2.0156zm20.637 2.2188 1.6094 0.21875q-0.26562 1.6562-1.3594 2.6094-1.0781 0.9375-2.6719 0.9375-1.9844 0-3.1875-1.2969-1.2031-1.2969-1.2031-3.7188 0-1.5781 0.51562-2.75 0.51563-1.1719 1.5781-1.75 1.0625-0.59375 2.3125-0.59375 1.5781 0 2.5781 0.79688 1 0.79687 1.2812 2.2656l-1.5938 0.23438q-0.23437-0.96875-0.8125-1.4531-0.57812-0.5-1.3906-0.5-1.2344 0-2.0156 0.89063-0.78125 0.89062-0.78125 2.8125 0 1.9531 0.75 2.8438 0.75 0.875 1.9531 0.875 0.96875 0 1.6094-0.59375 0.65625-0.59375 0.82813-1.8281zm3.0156 3.5469v-13.359h1.6406v4.7969q1.1406-1.3281 2.8906-1.3281 1.0781 0 1.8594 0.42188 0.79687 0.42187 1.1406 1.1719t0.34375 2.1719v6.125h-1.6406v-6.125q0-1.2344-0.53125-1.7969t-1.5156-0.5625q-0.71875 0-1.3594 0.39063-0.64063 0.375-0.92188 1.0156-0.26562 0.64063-0.26562 1.7812v5.2969zm16.688-1.1875q-0.92188 0.76562-1.7656 1.0938-0.82812 0.3125-1.7969 0.3125-1.5938 0-2.4531-0.78125-0.85937-0.78125-0.85937-1.9844 0-0.71875 0.32812-1.2969 0.32813-0.59375 0.84375-0.9375 0.53125-0.35938 1.1875-0.54688 0.46875-0.125 1.4531-0.25 1.9844-0.23437 2.9219-0.5625 0.0156-0.34375 0.0156-0.42187 0-1-0.46875-1.4219-0.625-0.54687-1.875-0.54687-1.1562 0-1.7031 0.40625-0.54687 0.40625-0.8125 1.4219l-1.6094-0.21875q0.21875-1.0156 0.71875-1.6406 0.5-0.64063 1.4531-0.98438 0.95313-0.34375 2.1875-0.34375 1.25 0 2.0156 0.29688 0.78125 0.28125 1.1406 0.73437 0.375 0.4375 0.51563 1.1094 0.0781 0.42187 0.0781 1.5156v2.1875q0 2.2812 0.10938 2.8906 0.10937 0.59375 0.40625 1.1562h-1.7031q-0.26562-0.51563-0.32812-1.1875zm-0.14063-3.6719q-0.89062 0.375-2.6719 0.625-1.0156 0.14063-1.4375 0.32813-0.42188 0.1875-0.65625 0.53125-0.21875 0.34375-0.21875 0.78125 0 0.65625 0.5 1.0938t1.4531 0.4375q0.9375 0 1.6719-0.40625 0.75-0.42188 1.0938-1.1406 0.26562-0.5625 0.26562-1.6406zm4.1882 4.8594v-9.6719h1.4688v1.4688q0.5625-1.0312 1.0312-1.3594 0.48438-0.32813 1.0625-0.32813 0.82813 0 1.6875 0.53125l-0.5625 1.5156q-0.60937-0.35938-1.2031-0.35938-0.54688 0-0.96875 0.32813-0.42188 0.32812-0.60938 0.89062-0.28125 0.875-0.28125 1.9219v5.0625zm12.541-1.1875q-0.92187 0.76562-1.7656 1.0938-0.82813 0.3125-1.7969 0.3125-1.5938 0-2.4531-0.78125-0.85938-0.78125-0.85938-1.9844 0-0.71875 0.32813-1.2969 0.32812-0.59375 0.84375-0.9375 0.53125-0.35938 1.1875-0.54688 0.46875-0.125 1.4531-0.25 1.9844-0.23437 2.9219-0.5625 0.0156-0.34375 0.0156-0.42187 0-1-0.46875-1.4219-0.625-0.54687-1.875-0.54687-1.1562 0-1.7031 0.40625-0.54688 0.40625-0.8125 1.4219l-1.6094-0.21875q0.21875-1.0156 0.71875-1.6406 0.5-0.64063 1.4531-0.98438 0.95312-0.34375 2.1875-0.34375 1.25 0 2.0156 0.29688 0.78125 0.28125 1.1406 0.73437 0.375 0.4375 0.51562 1.1094 0.0781 0.42187 0.0781 1.5156v2.1875q0 2.2812 0.10937 2.8906 0.10938 0.59375 0.40625 1.1562h-1.7031q-0.26563-0.51563-0.32813-1.1875zm-0.14062-3.6719q-0.89063 0.375-2.6719 0.625-1.0156 0.14063-1.4375 0.32813-0.42187 0.1875-0.65625 0.53125-0.21875 0.34375-0.21875 0.78125 0 0.65625 0.5 1.0938t1.4531 0.4375q0.9375 0 1.6719-0.40625 0.75-0.42188 1.0938-1.1406 0.26563-0.5625 0.26563-1.6406zm10.516 1.3125 1.6094 0.21875q-0.26562 1.6562-1.3594 2.6094-1.0781 0.9375-2.6719 0.9375-1.9844 0-3.1875-1.2969-1.2031-1.2969-1.2031-3.7188 0-1.5781 0.51562-2.75 0.51563-1.1719 1.5781-1.75 1.0625-0.59375 2.3125-0.59375 1.5781 0 2.5781 0.79688 1 0.79687 1.2812 2.2656l-1.5938 0.23438q-0.23437-0.96875-0.8125-1.4531-0.57812-0.5-1.3906-0.5-1.2344 0-2.0156 0.89063-0.78125 0.89062-0.78125 2.8125 0 1.9531 0.75 2.8438 0.75 0.875 1.9531 0.875 0.96875 0 1.6094-0.59375 0.65625-0.59375 0.82813-1.8281zm6.5938 2.0781 0.23437 1.4531q-0.6875 0.14063-1.2344 0.14063-0.89063 0-1.3906-0.28125-0.48437-0.28125-0.6875-0.73438-0.20312-0.46875-0.20312-1.9375v-5.5781h-1.2031v-1.2656h1.2031v-2.3906l1.625-0.98438v3.375h1.6562v1.2656h-1.6562v5.6719q0 0.6875 0.0781 0.89063 0.0937 0.20312 0.28125 0.32812 0.20313 0.10938 0.57813 0.10938 0.26562 0 0.71875-0.0625zm8.2302-1.6406 1.6875 0.20313q-0.40625 1.4844-1.4844 2.3125-1.0781 0.8125-2.7656 0.8125-2.125 0-3.375-1.2969-1.2344-1.3125-1.2344-3.6719 0-2.4531 1.25-3.7969 1.2656-1.3438 3.2656-1.3438 1.9375 0 3.1562 1.3281 1.2344 1.3125 1.2344 3.7031 0 0.15625 0 0.4375h-7.2188q0.0937 1.5938 0.90625 2.4531 0.8125 0.84375 2.0156 0.84375 0.90625 0 1.5469-0.46875 0.64062-0.48438 1.0156-1.5156zm-5.3906-2.6562h5.4062q-0.10938-1.2188-0.625-1.8281-0.78125-0.95313-2.0312-0.95313-1.125 0-1.9062 0.76563-0.76563 0.75-0.84375 2.0156zm9.1257 5.7656v-9.6719h1.4688v1.4688q0.5625-1.0312 1.0312-1.3594 0.48437-0.32813 1.0625-0.32813 0.82812 0 1.6875 0.53125l-0.5625 1.5156q-0.60938-0.35938-1.2031-0.35938-0.54687 0-0.96875 0.32813-0.42187 0.32812-0.60937 0.89062-0.28125 0.875-0.28125 1.9219v5.0625zm5.572-2.8906 1.625-0.25q0.125 0.96875 0.75 1.5 0.625 0.51563 1.75 0.51563t1.6719-0.45313q0.54688-0.46875 0.54688-1.0938 0-0.54687-0.48438-0.875-0.32812-0.21875-1.6719-0.54687-1.8125-0.46875-2.5156-0.79688-0.6875-0.32812-1.0469-0.90625-0.35938-0.59375-0.35938-1.3125 0-0.64062 0.29688-1.1875 0.29687-0.5625 0.8125-0.92187 0.375-0.28125 1.0312-0.46875 0.67187-0.20313 1.4219-0.20313 1.1406 0 2 0.32813 0.85938 0.32812 1.2656 0.89062 0.42187 0.5625 0.57812 1.5l-1.6094 0.21875q-0.10938-0.75-0.64063-1.1719-0.51562-0.42188-1.4688-0.42188-1.1406 0-1.625 0.375-0.46875 0.375-0.46875 0.875 0 0.3125 0.1875 0.57813 0.20313 0.26562 0.64063 0.4375 0.23437 0.0937 1.4375 0.42187 1.75 0.45313 2.4375 0.75 0.6875 0.29688 1.0781 0.85938 0.39063 0.5625 0.39063 1.4062 0 0.82812-0.48438 1.5469-0.46875 0.71875-1.375 1.125-0.90625 0.39063-2.0469 0.39063-1.875 0-2.875-0.78125-0.98438-0.78125-1.25-2.3281z" fill="#000"/>
 </g>
</svg>
