<?xml version="1.0" encoding="UTF-8"?>
<svg id="svg1317" width="797.8" height="423.55" fill="none" stroke-linecap="square" stroke-miterlimit="10" version="1.1" viewBox="0 0 797.8 423.55" xmlns="http://www.w3.org/2000/svg">
 <clipPath id="p.0">
  <path id="path666" d="m0 0h1152v864h-1152z"/>
 </clipPath>
 <g id="g1315" transform="translate(-177.01 -212.95)" clip-path="url(#p.0)">
  <path id="path671" d="m201.51 409.2h-24v22.772h24z" fill="#cfe2f3" fill-rule="evenodd"/>
  <path id="path673" d="m201.51 409.2h-24v22.772h24z" fill-rule="evenodd" stroke="#000" stroke-linecap="butt" stroke-linejoin="round"/>
  <path id="path675" d="m187.06 420.68q0-1.6875 0.34375-2.7188 0.35937-1.0312 1.0469-1.5938t1.7188-0.5625q0.78125 0 1.3594 0.3125 0.57812 0.29687 0.95312 0.89062 0.375 0.57813 0.59375 1.4219 0.21875 0.82812 0.21875 2.25 0 1.6719-0.35937 2.7031-0.34375 1.0312-1.0312 1.5938-0.67188 0.5625-1.7344 0.5625-1.375 0-2.1562-0.98437-0.95312-1.1875-0.95312-3.875zm1.2031 0q0 2.3438 0.54688 3.125 0.5625 0.78125 1.3594 0.78125 0.8125 0 1.3594-0.78125 0.5625-0.78125 0.5625-3.125 0-2.3594-0.5625-3.125-0.54688-0.78125-1.3594-0.78125t-1.2969 0.6875q-0.60938 0.875-0.60938 3.2188z" fill="#000"/>
  <path id="path677" d="m225.51 409.2h-24v22.772h24z" fill="#cfe2f3" fill-rule="evenodd"/>
  <path id="path679" d="m225.51 409.2h-24v22.772h24z" fill-rule="evenodd" stroke="#000" stroke-linecap="butt" stroke-linejoin="round"/>
  <path id="path681" d="m211.06 420.68q0-1.6875 0.34375-2.7188 0.35937-1.0312 1.0469-1.5938t1.7188-0.5625q0.78125 0 1.3594 0.3125 0.57812 0.29687 0.95312 0.89062 0.375 0.57813 0.59375 1.4219 0.21875 0.82812 0.21875 2.25 0 1.6719-0.35937 2.7031-0.34375 1.0312-1.0312 1.5938-0.67188 0.5625-1.7344 0.5625-1.375 0-2.1562-0.98437-0.95312-1.1875-0.95312-3.875zm1.2031 0q0 2.3438 0.54688 3.125 0.5625 0.78125 1.3594 0.78125 0.8125 0 1.3594-0.78125 0.5625-0.78125 0.5625-3.125 0-2.3594-0.5625-3.125-0.54688-0.78125-1.3594-0.78125t-1.2969 0.6875q-0.60938 0.875-0.60938 3.2188z" fill="#000"/>
  <path id="path683" d="m249.51 409.2h-24v22.772h24z" fill="#cfe2f3" fill-rule="evenodd"/>
  <path id="path685" d="m249.51 409.2h-24v22.772h24z" fill-rule="evenodd" stroke="#000" stroke-linecap="butt" stroke-linejoin="round"/>
  <path id="path687" d="m235.06 420.68q0-1.6875 0.34375-2.7188 0.35937-1.0312 1.0469-1.5938t1.7188-0.5625q0.78125 0 1.3594 0.3125 0.57812 0.29687 0.95312 0.89062 0.375 0.57813 0.59375 1.4219 0.21875 0.82812 0.21875 2.25 0 1.6719-0.35937 2.7031-0.34375 1.0312-1.0312 1.5938-0.67188 0.5625-1.7344 0.5625-1.375 0-2.1562-0.98437-0.95312-1.1875-0.95312-3.875zm1.2031 0q0 2.3438 0.54688 3.125 0.5625 0.78125 1.3594 0.78125 0.8125 0 1.3594-0.78125 0.5625-0.78125 0.5625-3.125 0-2.3594-0.5625-3.125-0.54688-0.78125-1.3594-0.78125t-1.2969 0.6875q-0.60938 0.875-0.60938 3.2188z" fill="#000"/>
  <path id="path689" d="m273.51 409.2h-24v22.772h24z" fill="#cfe2f3" fill-rule="evenodd"/>
  <path id="path691" d="m273.51 409.2h-24v22.772h24z" fill-rule="evenodd" stroke="#000" stroke-linecap="butt" stroke-linejoin="round"/>
  <path id="path693" d="m259.06 420.68q0-1.6875 0.34375-2.7188 0.35938-1.0312 1.0469-1.5938t1.7188-0.5625q0.78125 0 1.3594 0.3125 0.57813 0.29687 0.95313 0.89062 0.375 0.57813 0.59375 1.4219 0.21875 0.82812 0.21875 2.25 0 1.6719-0.35938 2.7031-0.34375 1.0312-1.0312 1.5938-0.67187 0.5625-1.7344 0.5625-1.375 0-2.1562-0.98437-0.95313-1.1875-0.95313-3.875zm1.2031 0q0 2.3438 0.54687 3.125 0.5625 0.78125 1.3594 0.78125 0.8125 0 1.3594-0.78125 0.5625-0.78125 0.5625-3.125 0-2.3594-0.5625-3.125-0.54687-0.78125-1.3594-0.78125t-1.2969 0.6875q-0.60937 0.875-0.60937 3.2188z" fill="#000"/>
  <path id="path695" d="m297.51 409.2h-24v22.772h24z" fill="#cfe2f3" fill-rule="evenodd"/>
  <path id="path697" d="m297.51 409.2h-24v22.772h24z" fill-rule="evenodd" stroke="#000" stroke-linecap="butt" stroke-linejoin="round"/>
  <path id="path699" d="m283.06 420.68q0-1.6875 0.34375-2.7188 0.35938-1.0312 1.0469-1.5938t1.7188-0.5625q0.78125 0 1.3594 0.3125 0.57813 0.29687 0.95313 0.89062 0.375 0.57813 0.59375 1.4219 0.21875 0.82812 0.21875 2.25 0 1.6719-0.35938 2.7031-0.34375 1.0312-1.0312 1.5938-0.67187 0.5625-1.7344 0.5625-1.375 0-2.1562-0.98437-0.95313-1.1875-0.95313-3.875zm1.2031 0q0 2.3438 0.54687 3.125 0.5625 0.78125 1.3594 0.78125 0.8125 0 1.3594-0.78125 0.5625-0.78125 0.5625-3.125 0-2.3594-0.5625-3.125-0.54687-0.78125-1.3594-0.78125t-1.2969 0.6875q-0.60937 0.875-0.60937 3.2188z" fill="#000"/>
  <path id="path701" d="m321.51 409.2h-24v22.772h24z" fill="#cfe2f3" fill-rule="evenodd"/>
  <path id="path703" d="m321.51 409.2h-24v22.772h24z" fill-rule="evenodd" stroke="#000" stroke-linecap="butt" stroke-linejoin="round"/>
  <path id="path705" d="m307.06 420.68q0-1.6875 0.34375-2.7188 0.35938-1.0312 1.0469-1.5938t1.7188-0.5625q0.78125 0 1.3594 0.3125 0.57813 0.29687 0.95313 0.89062 0.375 0.57813 0.59375 1.4219 0.21875 0.82812 0.21875 2.25 0 1.6719-0.35938 2.7031-0.34375 1.0312-1.0312 1.5938-0.67187 0.5625-1.7344 0.5625-1.375 0-2.1562-0.98437-0.95313-1.1875-0.95313-3.875zm1.2031 0q0 2.3438 0.54687 3.125 0.5625 0.78125 1.3594 0.78125 0.8125 0 1.3594-0.78125 0.5625-0.78125 0.5625-3.125 0-2.3594-0.5625-3.125-0.54687-0.78125-1.3594-0.78125t-1.2969 0.6875q-0.60937 0.875-0.60937 3.2188z" fill="#000"/>
  <path id="path707" d="m345.51 409.2h-24v22.772h24z" fill="#cfe2f3" fill-rule="evenodd"/>
  <path id="path709" d="m345.51 409.2h-24v22.772h24z" fill-rule="evenodd" stroke="#000" stroke-linecap="butt" stroke-linejoin="round"/>
  <path id="path711" d="m331.06 420.68q0-1.6875 0.34375-2.7188 0.35938-1.0312 1.0469-1.5938t1.7188-0.5625q0.78125 0 1.3594 0.3125 0.57813 0.29687 0.95313 0.89062 0.375 0.57813 0.59375 1.4219 0.21875 0.82812 0.21875 2.25 0 1.6719-0.35938 2.7031-0.34375 1.0312-1.0312 1.5938-0.67187 0.5625-1.7344 0.5625-1.375 0-2.1562-0.98437-0.95313-1.1875-0.95313-3.875zm1.2031 0q0 2.3438 0.54687 3.125 0.5625 0.78125 1.3594 0.78125 0.8125 0 1.3594-0.78125 0.5625-0.78125 0.5625-3.125 0-2.3594-0.5625-3.125-0.54687-0.78125-1.3594-0.78125t-1.2969 0.6875q-0.60937 0.875-0.60937 3.2188z" fill="#000"/>
  <path id="path713" d="m369.51 409.2h-24v22.772h24z" fill="#cfe2f3" fill-rule="evenodd"/>
  <path id="path715" d="m369.51 409.2h-24v22.772h24z" fill-rule="evenodd" stroke="#000" stroke-linecap="butt" stroke-linejoin="round"/>
  <path id="path717" d="m355.06 420.68q0-1.6875 0.34375-2.7188 0.35938-1.0312 1.0469-1.5938t1.7188-0.5625q0.78125 0 1.3594 0.3125 0.57813 0.29687 0.95313 0.89062 0.375 0.57813 0.59375 1.4219 0.21875 0.82812 0.21875 2.25 0 1.6719-0.35938 2.7031-0.34375 1.0312-1.0312 1.5938-0.67187 0.5625-1.7344 0.5625-1.375 0-2.1562-0.98437-0.95313-1.1875-0.95313-3.875zm1.2031 0q0 2.3438 0.54687 3.125 0.5625 0.78125 1.3594 0.78125 0.8125 0 1.3594-0.78125 0.5625-0.78125 0.5625-3.125 0-2.3594-0.5625-3.125-0.54687-0.78125-1.3594-0.78125t-1.2969 0.6875q-0.60937 0.875-0.60937 3.2188z" fill="#000"/>
  <path id="path719" d="m403.12 409.2h-24v22.772h24z" fill="#cfe2f3" fill-rule="evenodd"/>
  <path id="path721" d="m403.12 409.2h-24v22.772h24z" fill-rule="evenodd" stroke="#000" stroke-linecap="butt" stroke-linejoin="round"/>
  <path id="path723" d="m388.66 420.68q0-1.6875 0.34375-2.7188 0.35937-1.0312 1.0469-1.5938t1.7188-0.5625q0.78125 0 1.3594 0.3125 0.57812 0.29687 0.95312 0.89062 0.375 0.57813 0.59375 1.4219 0.21875 0.82812 0.21875 2.25 0 1.6719-0.35937 2.7031-0.34375 1.0312-1.0312 1.5938-0.67188 0.5625-1.7344 0.5625-1.375 0-2.1562-0.98437-0.95312-1.1875-0.95312-3.875zm1.2031 0q0 2.3438 0.54688 3.125 0.5625 0.78125 1.3594 0.78125 0.8125 0 1.3594-0.78125 0.5625-0.78125 0.5625-3.125 0-2.3594-0.5625-3.125-0.54688-0.78125-1.3594-0.78125t-1.2969 0.6875q-0.60938 0.875-0.60938 3.2188z" fill="#000"/>
  <path id="path725" d="m427.12 409.2h-24v22.772h24z" fill="#cfe2f3" fill-rule="evenodd"/>
  <path id="path727" d="m427.12 409.2h-24v22.772h24z" fill-rule="evenodd" stroke="#000" stroke-linecap="butt" stroke-linejoin="round"/>
  <path id="path729" d="m412.66 420.68q0-1.6875 0.34375-2.7188 0.35937-1.0312 1.0469-1.5938t1.7188-0.5625q0.78125 0 1.3594 0.3125 0.57812 0.29687 0.95312 0.89062 0.375 0.57813 0.59375 1.4219 0.21875 0.82812 0.21875 2.25 0 1.6719-0.35937 2.7031-0.34375 1.0312-1.0312 1.5938-0.67188 0.5625-1.7344 0.5625-1.375 0-2.1562-0.98437-0.95312-1.1875-0.95312-3.875zm1.2031 0q0 2.3438 0.54688 3.125 0.5625 0.78125 1.3594 0.78125 0.8125 0 1.3594-0.78125 0.5625-0.78125 0.5625-3.125 0-2.3594-0.5625-3.125-0.54688-0.78125-1.3594-0.78125t-1.2969 0.6875q-0.60938 0.875-0.60938 3.2188z" fill="#000"/>
  <path id="path731" d="m451.12 409.2h-24v22.772h24z" fill="#cfe2f3" fill-rule="evenodd"/>
  <path id="path733" d="m451.12 409.2h-24v22.772h24z" fill-rule="evenodd" stroke="#000" stroke-linecap="butt" stroke-linejoin="round"/>
  <path id="path735" d="m436.66 420.68q0-1.6875 0.34375-2.7188 0.35937-1.0312 1.0469-1.5938t1.7188-0.5625q0.78125 0 1.3594 0.3125 0.57812 0.29687 0.95312 0.89062 0.375 0.57813 0.59375 1.4219 0.21875 0.82812 0.21875 2.25 0 1.6719-0.35937 2.7031-0.34375 1.0312-1.0312 1.5938-0.67188 0.5625-1.7344 0.5625-1.375 0-2.1562-0.98437-0.95312-1.1875-0.95312-3.875zm1.2031 0q0 2.3438 0.54688 3.125 0.5625 0.78125 1.3594 0.78125 0.8125 0 1.3594-0.78125 0.5625-0.78125 0.5625-3.125 0-2.3594-0.5625-3.125-0.54688-0.78125-1.3594-0.78125t-1.2969 0.6875q-0.60938 0.875-0.60938 3.2188z" fill="#000"/>
  <path id="path737" d="m475.12 409.2h-24v22.772h24z" fill="#cfe2f3" fill-rule="evenodd"/>
  <path id="path739" d="m475.12 409.2h-24v22.772h24z" fill-rule="evenodd" stroke="#000" stroke-linecap="butt" stroke-linejoin="round"/>
  <path id="path741" d="m460.66 420.68q0-1.6875 0.34375-2.7188 0.35937-1.0312 1.0469-1.5938t1.7188-0.5625q0.78125 0 1.3594 0.3125 0.57812 0.29687 0.95312 0.89062 0.375 0.57813 0.59375 1.4219 0.21875 0.82812 0.21875 2.25 0 1.6719-0.35937 2.7031-0.34375 1.0312-1.0312 1.5938-0.67188 0.5625-1.7344 0.5625-1.375 0-2.1562-0.98437-0.95312-1.1875-0.95312-3.875zm1.2031 0q0 2.3438 0.54688 3.125 0.5625 0.78125 1.3594 0.78125 0.8125 0 1.3594-0.78125 0.5625-0.78125 0.5625-3.125 0-2.3594-0.5625-3.125-0.54688-0.78125-1.3594-0.78125t-1.2969 0.6875q-0.60938 0.875-0.60938 3.2188z" fill="#000"/>
  <path id="path743" d="m499.12 409.2h-24v22.772h24z" fill="#cfe2f3" fill-rule="evenodd"/>
  <path id="path745" d="m499.12 409.2h-24v22.772h24z" fill-rule="evenodd" stroke="#000" stroke-linecap="butt" stroke-linejoin="round"/>
  <path id="path747" d="m484.66 420.68q0-1.6875 0.34375-2.7188 0.35937-1.0312 1.0469-1.5938t1.7188-0.5625q0.78125 0 1.3594 0.3125 0.57812 0.29687 0.95312 0.89062 0.375 0.57813 0.59375 1.4219 0.21875 0.82812 0.21875 2.25 0 1.6719-0.35937 2.7031-0.34375 1.0312-1.0312 1.5938-0.67188 0.5625-1.7344 0.5625-1.375 0-2.1562-0.98437-0.95312-1.1875-0.95312-3.875zm1.2031 0q0 2.3438 0.54688 3.125 0.5625 0.78125 1.3594 0.78125 0.8125 0 1.3594-0.78125 0.5625-0.78125 0.5625-3.125 0-2.3594-0.5625-3.125-0.54688-0.78125-1.3594-0.78125t-1.2969 0.6875q-0.60938 0.875-0.60938 3.2188z" fill="#000"/>
  <path id="path749" d="m523.12 409.2h-24v22.772h24z" fill="#cfe2f3" fill-rule="evenodd"/>
  <path id="path751" d="m523.12 409.2h-24v22.772h24z" fill-rule="evenodd" stroke="#000" stroke-linecap="butt" stroke-linejoin="round"/>
  <path id="path753" d="m508.66 420.68q0-1.6875 0.34375-2.7188 0.35937-1.0312 1.0469-1.5938t1.7188-0.5625q0.78126 0 1.3594 0.3125 0.57813 0.29687 0.95313 0.89062 0.375 0.57813 0.59375 1.4219 0.21875 0.82812 0.21875 2.25 0 1.6719-0.35938 2.7031-0.34375 1.0312-1.0312 1.5938-0.67187 0.5625-1.7344 0.5625-1.375 0-2.1562-0.98437-0.95313-1.1875-0.95313-3.875zm1.2031 0q0 2.3438 0.54688 3.125 0.5625 0.78125 1.3594 0.78125 0.81251 0 1.3594-0.78125 0.5625-0.78125 0.5625-3.125 0-2.3594-0.5625-3.125-0.54687-0.78125-1.3594-0.78125t-1.2969 0.6875q-0.60937 0.875-0.60938 3.2188z" fill="#000"/>
  <path id="path755" d="m547.12 409.2h-24v22.772h24z" fill="#cfe2f3" fill-rule="evenodd"/>
  <path id="path757" d="m547.12 409.2h-24v22.772h24z" fill-rule="evenodd" stroke="#000" stroke-linecap="butt" stroke-linejoin="round"/>
  <path id="path759" d="m532.66 420.68q0-1.6875 0.34375-2.7188 0.35937-1.0312 1.0469-1.5938t1.7188-0.5625q0.78125 0 1.3594 0.3125 0.57812 0.29687 0.95312 0.89062 0.375 0.57813 0.59375 1.4219 0.21875 0.82812 0.21875 2.25 0 1.6719-0.35937 2.7031-0.34375 1.0312-1.0312 1.5938-0.67188 0.5625-1.7344 0.5625-1.375 0-2.1562-0.98437-0.95312-1.1875-0.95312-3.875zm1.2031 0q0 2.3438 0.54688 3.125 0.5625 0.78125 1.3594 0.78125 0.8125 0 1.3594-0.78125 0.5625-0.78125 0.5625-3.125 0-2.3594-0.5625-3.125-0.54688-0.78125-1.3594-0.78125t-1.2969 0.6875q-0.60938 0.875-0.60938 3.2188z" fill="#000"/>
  <path id="path761" d="m571.12 409.2h-24v22.772h24z" fill="#cfe2f3" fill-rule="evenodd"/>
  <path id="path763" d="m571.12 409.2h-24v22.772h24z" fill-rule="evenodd" stroke="#000" stroke-linecap="butt" stroke-linejoin="round"/>
  <path id="path765" d="m556.66 420.68q0-1.6875 0.34375-2.7188 0.35937-1.0312 1.0469-1.5938t1.7188-0.5625q0.78125 0 1.3594 0.3125 0.57812 0.29687 0.95312 0.89062 0.375 0.57813 0.59375 1.4219 0.21875 0.82812 0.21875 2.25 0 1.6719-0.35937 2.7031-0.34375 1.0312-1.0312 1.5938-0.67188 0.5625-1.7344 0.5625-1.375 0-2.1562-0.98437-0.95312-1.1875-0.95312-3.875zm1.2031 0q0 2.3438 0.54688 3.125 0.5625 0.78125 1.3594 0.78125 0.8125 0 1.3594-0.78125 0.5625-0.78125 0.5625-3.125 0-2.3594-0.5625-3.125-0.54688-0.78125-1.3594-0.78125t-1.2969 0.6875q-0.60938 0.875-0.60938 3.2188z" fill="#000"/>
  <path id="path767" d="m604.72 409.2h-24v22.772h24z" fill="#cfe2f3" fill-rule="evenodd"/>
  <path id="path769" d="m604.72 409.2h-24v22.772h24z" fill-rule="evenodd" stroke="#000" stroke-linecap="butt" stroke-linejoin="round"/>
  <path id="path771" d="m590.26 420.68q0-1.6875 0.34375-2.7188 0.35938-1.0312 1.0469-1.5938t1.7188-0.5625q0.78125 0 1.3594 0.3125 0.57813 0.29687 0.95313 0.89062 0.375 0.57813 0.59375 1.4219 0.21875 0.82812 0.21875 2.25 0 1.6719-0.35938 2.7031-0.34375 1.0312-1.0312 1.5938-0.67187 0.5625-1.7344 0.5625-1.375 0-2.1562-0.98437-0.95313-1.1875-0.95313-3.875zm1.2031 0q0 2.3438 0.54687 3.125 0.5625 0.78125 1.3594 0.78125 0.8125 0 1.3594-0.78125 0.5625-0.78125 0.5625-3.125 0-2.3594-0.5625-3.125-0.54687-0.78125-1.3594-0.78125t-1.2969 0.6875q-0.60937 0.875-0.60937 3.2188z" fill="#000"/>
  <path id="path773" d="m628.72 409.2h-24v22.772h24z" fill="#cfe2f3" fill-rule="evenodd"/>
  <path id="path775" d="m628.72 409.2h-24v22.772h24z" fill-rule="evenodd" stroke="#000" stroke-linecap="butt" stroke-linejoin="round"/>
  <path id="path777" d="m614.26 420.68q0-1.6875 0.34375-2.7188 0.35938-1.0312 1.0469-1.5938t1.7188-0.5625q0.78125 0 1.3594 0.3125 0.57813 0.29687 0.95313 0.89062 0.375 0.57813 0.59375 1.4219 0.21875 0.82812 0.21875 2.25 0 1.6719-0.35938 2.7031-0.34375 1.0312-1.0312 1.5938-0.67187 0.5625-1.7344 0.5625-1.375 0-2.1562-0.98437-0.95313-1.1875-0.95313-3.875zm1.2031 0q0 2.3438 0.54687 3.125 0.5625 0.78125 1.3594 0.78125 0.8125 0 1.3594-0.78125 0.5625-0.78125 0.5625-3.125 0-2.3594-0.5625-3.125-0.54687-0.78125-1.3594-0.78125t-1.2969 0.6875q-0.60937 0.875-0.60937 3.2188z" fill="#000"/>
  <path id="path779" d="m652.72 409.2h-24v22.772h24z" fill="#cfe2f3" fill-rule="evenodd"/>
  <path id="path781" d="m652.72 409.2h-24v22.772h24z" fill-rule="evenodd" stroke="#000" stroke-linecap="butt" stroke-linejoin="round"/>
  <path id="path783" d="m638.26 420.68q0-1.6875 0.34375-2.7188 0.35938-1.0312 1.0469-1.5938t1.7188-0.5625q0.78125 0 1.3594 0.3125 0.57813 0.29687 0.95313 0.89062 0.375 0.57813 0.59375 1.4219 0.21875 0.82812 0.21875 2.25 0 1.6719-0.35938 2.7031-0.34375 1.0312-1.0312 1.5938-0.67187 0.5625-1.7344 0.5625-1.375 0-2.1562-0.98437-0.95313-1.1875-0.95313-3.875zm1.2031 0q0 2.3438 0.54687 3.125 0.5625 0.78125 1.3594 0.78125 0.8125 0 1.3594-0.78125 0.5625-0.78125 0.5625-3.125 0-2.3594-0.5625-3.125-0.54687-0.78125-1.3594-0.78125t-1.2969 0.6875q-0.60937 0.875-0.60937 3.2188z" fill="#000"/>
  <path id="path785" d="m676.72 409.2h-24v22.772h24z" fill="#cfe2f3" fill-rule="evenodd"/>
  <path id="path787" d="m676.72 409.2h-24v22.772h24z" fill-rule="evenodd" stroke="#000" stroke-linecap="butt" stroke-linejoin="round"/>
  <path id="path789" d="m662.26 420.68q0-1.6875 0.34375-2.7188 0.35938-1.0312 1.0469-1.5938t1.7188-0.5625q0.78125 0 1.3594 0.3125 0.57813 0.29687 0.95313 0.89062 0.375 0.57813 0.59375 1.4219 0.21875 0.82812 0.21875 2.25 0 1.6719-0.35938 2.7031-0.34375 1.0312-1.0312 1.5938-0.67187 0.5625-1.7344 0.5625-1.375 0-2.1562-0.98437-0.95313-1.1875-0.95313-3.875zm1.2031 0q0 2.3438 0.54687 3.125 0.5625 0.78125 1.3594 0.78125 0.8125 0 1.3594-0.78125 0.5625-0.78125 0.5625-3.125 0-2.3594-0.5625-3.125-0.54687-0.78125-1.3594-0.78125t-1.2969 0.6875q-0.60937 0.875-0.60937 3.2188z" fill="#000"/>
  <path id="path791" d="m700.72 409.2h-24v22.772h24z" fill="#cfe2f3" fill-rule="evenodd"/>
  <path id="path793" d="m700.72 409.2h-24v22.772h24z" fill-rule="evenodd" stroke="#000" stroke-linecap="butt" stroke-linejoin="round"/>
  <path id="path795" d="m686.26 420.68q0-1.6875 0.34375-2.7188 0.35938-1.0312 1.0469-1.5938t1.7188-0.5625q0.78125 0 1.3594 0.3125 0.57813 0.29687 0.95313 0.89062 0.375 0.57813 0.59375 1.4219 0.21875 0.82812 0.21875 2.25 0 1.6719-0.35938 2.7031-0.34375 1.0312-1.0312 1.5938-0.67187 0.5625-1.7344 0.5625-1.375 0-2.1562-0.98437-0.95313-1.1875-0.95313-3.875zm1.2031 0q0 2.3438 0.54687 3.125 0.5625 0.78125 1.3594 0.78125 0.8125 0 1.3594-0.78125 0.5625-0.78125 0.5625-3.125 0-2.3594-0.5625-3.125-0.54687-0.78125-1.3594-0.78125t-1.2969 0.6875q-0.60937 0.875-0.60937 3.2188z" fill="#000"/>
  <path id="path797" d="m724.72 409.2h-24v22.772h24z" fill="#cfe2f3" fill-rule="evenodd"/>
  <path id="path799" d="m724.72 409.2h-24v22.772h24z" fill-rule="evenodd" stroke="#000" stroke-linecap="butt" stroke-linejoin="round"/>
  <path id="path801" d="m710.26 420.68q0-1.6875 0.34375-2.7188 0.35938-1.0312 1.0469-1.5938t1.7188-0.5625q0.78125 0 1.3594 0.3125 0.57813 0.29687 0.95313 0.89062 0.375 0.57813 0.59375 1.4219 0.21875 0.82812 0.21875 2.25 0 1.6719-0.35938 2.7031-0.34375 1.0312-1.0312 1.5938-0.67187 0.5625-1.7344 0.5625-1.375 0-2.1562-0.98437-0.95313-1.1875-0.95313-3.875zm1.2031 0q0 2.3438 0.54687 3.125 0.5625 0.78125 1.3594 0.78125 0.8125 0 1.3594-0.78125 0.5625-0.78125 0.5625-3.125 0-2.3594-0.5625-3.125-0.54687-0.78125-1.3594-0.78125t-1.2969 0.6875q-0.60937 0.875-0.60937 3.2188z" fill="#000"/>
  <path id="path803" d="m748.72 409.2h-24v22.772h24z" fill="#cfe2f3" fill-rule="evenodd"/>
  <path id="path805" d="m748.72 409.2h-24v22.772h24z" fill-rule="evenodd" stroke="#000" stroke-linecap="butt" stroke-linejoin="round"/>
  <path id="path807" d="m734.26 420.68q0-1.6875 0.34375-2.7188 0.35938-1.0312 1.0469-1.5938t1.7188-0.5625q0.78125 0 1.3594 0.3125 0.57813 0.29687 0.95313 0.89062 0.375 0.57813 0.59375 1.4219 0.21875 0.82812 0.21875 2.25 0 1.6719-0.35938 2.7031-0.34375 1.0312-1.0312 1.5938-0.67187 0.5625-1.7344 0.5625-1.375 0-2.1562-0.98437-0.95313-1.1875-0.95313-3.875zm1.2031 0q0 2.3438 0.54687 3.125 0.5625 0.78125 1.3594 0.78125 0.8125 0 1.3594-0.78125 0.5625-0.78125 0.5625-3.125 0-2.3594-0.5625-3.125-0.54687-0.78125-1.3594-0.78125t-1.2969 0.6875q-0.60937 0.875-0.60937 3.2188z" fill="#000"/>
  <path id="path809" d="m772.72 409.2h-24v22.772h24z" fill="#cfe2f3" fill-rule="evenodd"/>
  <path id="path811" d="m772.72 409.2h-24v22.772h24z" fill-rule="evenodd" stroke="#000" stroke-linecap="butt" stroke-linejoin="round"/>
  <path id="path813" d="m758.26 420.68q0-1.6875 0.34375-2.7188 0.35938-1.0312 1.0469-1.5938t1.7188-0.5625q0.78125 0 1.3594 0.3125 0.57813 0.29687 0.95313 0.89062 0.375 0.57813 0.59375 1.4219 0.21875 0.82812 0.21875 2.25 0 1.6719-0.35938 2.7031-0.34375 1.0312-1.0312 1.5938-0.67187 0.5625-1.7344 0.5625-1.375 0-2.1562-0.98437-0.95313-1.1875-0.95313-3.875zm1.2031 0q0 2.3438 0.54687 3.125 0.5625 0.78125 1.3594 0.78125 0.8125 0 1.3594-0.78125 0.5625-0.78125 0.5625-3.125 0-2.3594-0.5625-3.125-0.54687-0.78125-1.3594-0.78125t-1.2969 0.6875q-0.60937 0.875-0.60937 3.2188z" fill="#000"/>
  <path id="path815" d="m806.32 409.2h-24v22.772h24z" fill="#cfe2f3" fill-rule="evenodd"/>
  <path id="path817" d="m806.32 409.2h-24v22.772h24z" fill-rule="evenodd" stroke="#000" stroke-linecap="butt" stroke-linejoin="round"/>
  <path id="path819" d="m791.86 420.68q0-1.6875 0.34375-2.7188 0.35937-1.0312 1.0469-1.5938t1.7188-0.5625q0.78125 0 1.3594 0.3125 0.57812 0.29687 0.95312 0.89062 0.375 0.57813 0.59375 1.4219 0.21875 0.82812 0.21875 2.25 0 1.6719-0.35937 2.7031-0.34375 1.0312-1.0312 1.5938-0.67188 0.5625-1.7344 0.5625-1.375 0-2.1562-0.98437-0.95312-1.1875-0.95312-3.875zm1.2031 0q0 2.3438 0.54688 3.125 0.5625 0.78125 1.3594 0.78125 0.8125 0 1.3594-0.78125 0.5625-0.78125 0.5625-3.125 0-2.3594-0.5625-3.125-0.54688-0.78125-1.3594-0.78125t-1.2969 0.6875q-0.60938 0.875-0.60938 3.2188z" fill="#000"/>
  <path id="path821" d="m830.32 409.2h-24v22.772h24z" fill="#cfe2f3" fill-rule="evenodd"/>
  <path id="path823" d="m830.32 409.2h-24v22.772h24z" fill-rule="evenodd" stroke="#000" stroke-linecap="butt" stroke-linejoin="round"/>
  <path id="path825" d="m815.86 420.68q0-1.6875 0.34375-2.7188 0.35937-1.0312 1.0469-1.5938t1.7188-0.5625q0.78125 0 1.3594 0.3125 0.57812 0.29687 0.95312 0.89062 0.375 0.57813 0.59375 1.4219 0.21875 0.82812 0.21875 2.25 0 1.6719-0.35937 2.7031-0.34375 1.0312-1.0312 1.5938-0.67188 0.5625-1.7344 0.5625-1.375 0-2.1562-0.98437-0.95312-1.1875-0.95312-3.875zm1.2031 0q0 2.3438 0.54688 3.125 0.5625 0.78125 1.3594 0.78125 0.8125 0 1.3594-0.78125 0.5625-0.78125 0.5625-3.125 0-2.3594-0.5625-3.125-0.54688-0.78125-1.3594-0.78125t-1.2969 0.6875q-0.60938 0.875-0.60938 3.2188z" fill="#000"/>
  <path id="path827" d="m854.32 409.2h-24v22.772h24z" fill="#cfe2f3" fill-rule="evenodd"/>
  <path id="path829" d="m854.32 409.2h-24v22.772h24z" fill-rule="evenodd" stroke="#000" stroke-linecap="butt" stroke-linejoin="round"/>
  <path id="path831" d="m839.86 420.68q0-1.6875 0.34375-2.7188 0.35937-1.0312 1.0469-1.5938t1.7188-0.5625q0.78125 0 1.3594 0.3125 0.57812 0.29687 0.95312 0.89062 0.375 0.57813 0.59375 1.4219 0.21875 0.82812 0.21875 2.25 0 1.6719-0.35937 2.7031-0.34375 1.0312-1.0312 1.5938-0.67188 0.5625-1.7344 0.5625-1.375 0-2.1562-0.98437-0.95312-1.1875-0.95312-3.875zm1.2031 0q0 2.3438 0.54688 3.125 0.5625 0.78125 1.3594 0.78125 0.8125 0 1.3594-0.78125 0.5625-0.78125 0.5625-3.125 0-2.3594-0.5625-3.125-0.54688-0.78125-1.3594-0.78125t-1.2969 0.6875q-0.60938 0.875-0.60938 3.2188z" fill="#000"/>
  <path id="path833" d="m878.32 409.2h-24v22.772h24z" fill="#cfe2f3" fill-rule="evenodd"/>
  <path id="path835" d="m878.32 409.2h-24v22.772h24z" fill-rule="evenodd" stroke="#000" stroke-linecap="butt" stroke-linejoin="round"/>
  <path id="path837" d="m863.86 420.68q0-1.6875 0.34375-2.7188 0.35937-1.0312 1.0469-1.5938t1.7188-0.5625q0.78125 0 1.3594 0.3125 0.57812 0.29687 0.95312 0.89062 0.375 0.57813 0.59375 1.4219 0.21875 0.82812 0.21875 2.25 0 1.6719-0.35937 2.7031-0.34375 1.0312-1.0312 1.5938-0.67188 0.5625-1.7344 0.5625-1.375 0-2.1562-0.98437-0.95312-1.1875-0.95312-3.875zm1.2031 0q0 2.3438 0.54688 3.125 0.5625 0.78125 1.3594 0.78125 0.8125 0 1.3594-0.78125 0.5625-0.78125 0.5625-3.125 0-2.3594-0.5625-3.125-0.54688-0.78125-1.3594-0.78125t-1.2969 0.6875q-0.60938 0.875-0.60938 3.2188z" fill="#000"/>
  <path id="path839" d="m902.32 409.2h-24v22.772h24z" fill="#cfe2f3" fill-rule="evenodd"/>
  <path id="path841" d="m902.32 409.2h-24v22.772h24z" fill-rule="evenodd" stroke="#000" stroke-linecap="butt" stroke-linejoin="round"/>
  <path id="path843" d="m887.86 420.68q0-1.6875 0.34375-2.7188 0.35937-1.0312 1.0469-1.5938t1.7188-0.5625q0.78125 0 1.3594 0.3125 0.57812 0.29687 0.95312 0.89062 0.375 0.57813 0.59375 1.4219 0.21875 0.82812 0.21875 2.25 0 1.6719-0.35937 2.7031-0.34375 1.0312-1.0312 1.5938-0.67188 0.5625-1.7344 0.5625-1.375 0-2.1562-0.98437-0.95312-1.1875-0.95312-3.875zm1.2031 0q0 2.3438 0.54688 3.125 0.5625 0.78125 1.3594 0.78125 0.8125 0 1.3594-0.78125 0.5625-0.78125 0.5625-3.125 0-2.3594-0.5625-3.125-0.54688-0.78125-1.3594-0.78125t-1.2969 0.6875q-0.60938 0.875-0.60938 3.2188z" fill="#000"/>
  <path id="path845" d="m926.32 409.2h-24v22.772h24z" fill="#cfe2f3" fill-rule="evenodd"/>
  <path id="path847" d="m926.32 409.2h-24v22.772h24z" fill-rule="evenodd" stroke="#000" stroke-linecap="butt" stroke-linejoin="round"/>
  <path id="path849" d="m911.86 420.68q0-1.6875 0.34375-2.7188 0.35937-1.0312 1.0469-1.5938t1.7188-0.5625q0.78125 0 1.3594 0.3125 0.57812 0.29687 0.95312 0.89062 0.375 0.57813 0.59375 1.4219 0.21875 0.82812 0.21875 2.25 0 1.6719-0.35937 2.7031-0.34375 1.0312-1.0312 1.5938-0.67188 0.5625-1.7344 0.5625-1.375 0-2.1562-0.98437-0.95312-1.1875-0.95312-3.875zm1.2031 0q0 2.3438 0.54688 3.125 0.5625 0.78125 1.3594 0.78125 0.8125 0 1.3594-0.78125 0.5625-0.78125 0.5625-3.125 0-2.3594-0.5625-3.125-0.54688-0.78125-1.3594-0.78125t-1.2969 0.6875q-0.60938 0.875-0.60938 3.2188z" fill="#000"/>
  <path id="path851" d="m950.32 409.2h-24v22.772h24z" fill="#cfe2f3" fill-rule="evenodd"/>
  <path id="path853" d="m950.32 409.2h-24v22.772h24z" fill-rule="evenodd" stroke="#000" stroke-linecap="butt" stroke-linejoin="round"/>
  <path id="path855" d="m935.86 420.68q0-1.6875 0.34375-2.7188 0.35937-1.0312 1.0469-1.5938t1.7188-0.5625q0.78125 0 1.3594 0.3125 0.57812 0.29687 0.95312 0.89062 0.375 0.57813 0.59375 1.4219 0.21875 0.82812 0.21875 2.25 0 1.6719-0.35937 2.7031-0.34375 1.0312-1.0312 1.5938-0.67188 0.5625-1.7344 0.5625-1.375 0-2.1562-0.98437-0.95312-1.1875-0.95312-3.875zm1.2031 0q0 2.3438 0.54688 3.125 0.5625 0.78125 1.3594 0.78125 0.8125 0 1.3594-0.78125 0.5625-0.78125 0.5625-3.125 0-2.3594-0.5625-3.125-0.54688-0.78125-1.3594-0.78125t-1.2969 0.6875q-0.60938 0.875-0.60938 3.2188z" fill="#000"/>
  <path id="path857" d="m974.32 409.2h-24v22.772h24z" fill="#cfe2f3" fill-rule="evenodd"/>
  <path id="path859" d="m974.32 409.2h-24v22.772h24z" fill-rule="evenodd" stroke="#000" stroke-linecap="butt" stroke-linejoin="round"/>
  <path id="path861" d="m959.86 420.68q0-1.6875 0.34375-2.7188 0.35937-1.0312 1.0469-1.5938t1.7188-0.5625q0.78125 0 1.3594 0.3125 0.57812 0.29687 0.95312 0.89062 0.375 0.57813 0.59375 1.4219 0.21875 0.82812 0.21875 2.25 0 1.6719-0.35937 2.7031-0.34375 1.0312-1.0312 1.5938-0.67188 0.5625-1.7344 0.5625-1.375 0-2.1562-0.98437-0.95312-1.1875-0.95312-3.875zm1.2031 0q0 2.3438 0.54688 3.125 0.5625 0.78125 1.3594 0.78125 0.8125 0 1.3594-0.78125 0.5625-0.78125 0.5625-3.125 0-2.3594-0.5625-3.125-0.54688-0.78125-1.3594-0.78125t-1.2969 0.6875q-0.60938 0.875-0.60938 3.2188z" fill="#000"/>
  <path id="path863" d="m973.67 434.01c0 5.3054-4.3009 9.6063-9.6063 9.6063h-176.94c-5.3054 0-9.6063 4.3009-9.6063 9.6063 0-5.3054-4.3009-9.6063-9.6063-9.6063h-176.94c-5.3054 0-9.6063-4.3009-9.6063-9.6063z" fill="#000" fill-opacity="0" fill-rule="evenodd"/>
  <path id="path865" d="m973.67 434.01c0 5.3054-4.3009 9.6063-9.6063 9.6063h-176.94c-5.3054 0-9.6063 4.3009-9.6063 9.6063 0-5.3054-4.3009-9.6063-9.6063-9.6063h-176.94c-5.3054 0-9.6063-4.3009-9.6063-9.6063" fill="#000" fill-opacity="0" fill-rule="evenodd"/>
  <path id="path867" d="m973.67 434.01c0 5.3054-4.3009 9.6063-9.6063 9.6063h-176.94c-5.3054 0-9.6063 4.3009-9.6063 9.6063 0-5.3054-4.3009-9.6063-9.6063-9.6063h-176.94c-5.3054 0-9.6063-4.3009-9.6063-9.6063" fill-rule="evenodd" stroke="#000" stroke-linecap="butt" stroke-linejoin="round"/>
  <path id="path869" d="m973.56 407.16c0-5.3054-4.3009-9.6063-9.6063-9.6063h-378.6c-5.3054 0-9.6063-4.3009-9.6063-9.6063 0 5.3054-4.3009 9.6063-9.6063 9.6063h-378.6c-5.3054 0-9.6063 4.3009-9.6063 9.6063z" fill="#000" fill-opacity="0" fill-rule="evenodd"/>
  <path id="path871" d="m973.56 407.16c0-5.3054-4.3009-9.6063-9.6063-9.6063h-378.6c-5.3054 0-9.6063-4.3009-9.6063-9.6063 0 5.3054-4.3009 9.6063-9.6063 9.6063h-378.6c-5.3054 0-9.6063 4.3009-9.6063 9.6063" fill="#000" fill-opacity="0" fill-rule="evenodd"/>
  <path id="path873" d="m973.56 407.16c0-5.3054-4.3009-9.6063-9.6063-9.6063h-378.6c-5.3054 0-9.6063-4.3009-9.6063-9.6063 0 5.3054-4.3009 9.6063-9.6063 9.6063h-378.6c-5.3054 0-9.6063 4.3009-9.6063 9.6063" fill-rule="evenodd" stroke="#000" stroke-linecap="butt" stroke-linejoin="round"/>
  <path id="path875" d="m723.06 451.21h108.91v35.559h-108.91z" fill="#000" fill-opacity="0" fill-rule="evenodd"/>
  <path id="path877" d="m758.33 473.01 3.6875-4.9688-3.25-4.5781h1.5l1.7344 2.4531q0.53125 0.76563 0.76562 1.1719 0.3125-0.51563 0.75-1.0938l1.9219-2.5312h1.375l-3.3594 4.5 3.625 5.0469h-1.5625l-2.4062-3.4062q-0.20312-0.29687-0.42187-0.64062-0.3125 0.53125-0.45313 0.71875l-2.3906 3.3281zm9.8116 0v-9.5469h1.9062l2.25 6.7656q0.3125 0.9375 0.46875 1.4062 0.15625-0.51562 0.5-1.5312l2.2812-6.6406h1.7031v9.5469h-1.2188v-7.9844l-2.7656 7.9844h-1.1406l-2.7656-8.125v8.125zm11.102 0v-9.5469h1.9062l2.25 6.7656q0.3125 0.9375 0.46875 1.4062 0.15625-0.51562 0.5-1.5312l2.2812-6.6406h1.7031v9.5469h-1.2188v-7.9844l-2.7656 7.9844h-1.1406l-2.7656-8.125v8.125zm10.665-4.7031q0-1.6875 0.34375-2.7188 0.35938-1.0312 1.0469-1.5938t1.7188-0.5625q0.78125 0 1.3594 0.3125 0.57813 0.29687 0.95313 0.89062 0.375 0.57813 0.59375 1.4219 0.21875 0.82812 0.21875 2.25 0 1.6719-0.35938 2.7031-0.34375 1.0312-1.0312 1.5938-0.67187 0.5625-1.7344 0.5625-1.375 0-2.1562-0.98437-0.95313-1.1875-0.95313-3.875zm1.2031 0q0 2.3438 0.54687 3.125 0.5625 0.78125 1.3594 0.78125 0.8125 0 1.3594-0.78125 0.5625-0.78125 0.5625-3.125 0-2.3594-0.5625-3.125-0.54687-0.78125-1.3594-0.78125t-1.2969 0.6875q-0.60937 0.875-0.60937 3.2188z" fill="#000"/>
  <path id="path879" d="m521.29 354.43h108.91v35.559h-108.91z" fill="#000" fill-opacity="0" fill-rule="evenodd"/>
  <path id="path881" d="m560.21 376.23v-4.0469l-3.6875-5.5h1.5469l1.875 2.875q0.51563 0.8125 0.96875 1.625 0.4375-0.75 1.0469-1.6875l1.8438-2.8125h1.4688l-3.7969 5.5v4.0469zm6.1553 0v-9.5469h1.9062l2.25 6.7656q0.3125 0.9375 0.46875 1.4062 0.15625-0.51563 0.5-1.5312l2.2812-6.6406h1.7031v9.5469h-1.2188v-7.9844l-2.7656 7.9844h-1.1406l-2.7656-8.125v8.125zm11.102 0v-9.5469h1.9062l2.25 6.7656q0.3125 0.9375 0.46875 1.4062 0.15625-0.51563 0.5-1.5312l2.2812-6.6406h1.7031v9.5469h-1.2188v-7.9844l-2.7656 7.9844h-1.1406l-2.7656-8.125v8.125zm10.665-4.7031q0-1.6875 0.34375-2.7188 0.35937-1.0312 1.0469-1.5938t1.7188-0.5625q0.78125 0 1.3594 0.3125 0.57812 0.29688 0.95312 0.89063 0.375 0.57812 0.59375 1.4219 0.21875 0.82813 0.21875 2.25 0 1.6719-0.35937 2.7031-0.34375 1.0312-1.0312 1.5938-0.67188 0.5625-1.7344 0.5625-1.375 0-2.1562-0.98438-0.95312-1.1875-0.95312-3.875zm1.2031 0q0 2.3438 0.54688 3.125 0.5625 0.78125 1.3594 0.78125 0.8125 0 1.3594-0.78125 0.5625-0.78125 0.5625-3.125 0-2.3594-0.5625-3.125-0.54688-0.78125-1.3594-0.78125t-1.2969 0.6875q-0.60938 0.875-0.60938 3.2188z" fill="#000"/>
  <path id="path883" d="m201.51 558.93h-24v22.772h24z" fill="#f4cccc" fill-rule="evenodd"/>
  <path id="path885" d="m201.51 558.93h-24v22.772h24z" fill-rule="evenodd" stroke="#000" stroke-linecap="butt" stroke-linejoin="round"/>
  <path id="path887" d="m187.06 570.41q0-1.6875 0.34375-2.7188 0.35937-1.0312 1.0469-1.5938t1.7188-0.5625q0.78125 0 1.3594 0.3125 0.57812 0.29687 0.95312 0.89062 0.375 0.57813 0.59375 1.4219 0.21875 0.82812 0.21875 2.25 0 1.6719-0.35937 2.7031-0.34375 1.0312-1.0312 1.5938-0.67188 0.5625-1.7344 0.5625-1.375 0-2.1562-0.98437-0.95312-1.1875-0.95312-3.875zm1.2031 0q0 2.3438 0.54688 3.125 0.5625 0.78125 1.3594 0.78125 0.8125 0 1.3594-0.78125 0.5625-0.78125 0.5625-3.125 0-2.3594-0.5625-3.125-0.54688-0.78125-1.3594-0.78125t-1.2969 0.6875q-0.60938 0.875-0.60938 3.2188z" fill="#000"/>
  <path id="path889" d="m225.51 558.93h-24v22.772h24z" fill="#f4cccc" fill-rule="evenodd"/>
  <path id="path891" d="m225.51 558.93h-24v22.772h24z" fill-rule="evenodd" stroke="#000" stroke-linecap="butt" stroke-linejoin="round"/>
  <path id="path893" d="m211.06 570.41q0-1.6875 0.34375-2.7188 0.35937-1.0312 1.0469-1.5938t1.7188-0.5625q0.78125 0 1.3594 0.3125 0.57812 0.29687 0.95312 0.89062 0.375 0.57813 0.59375 1.4219 0.21875 0.82812 0.21875 2.25 0 1.6719-0.35937 2.7031-0.34375 1.0312-1.0312 1.5938-0.67188 0.5625-1.7344 0.5625-1.375 0-2.1562-0.98437-0.95312-1.1875-0.95312-3.875zm1.2031 0q0 2.3438 0.54688 3.125 0.5625 0.78125 1.3594 0.78125 0.8125 0 1.3594-0.78125 0.5625-0.78125 0.5625-3.125 0-2.3594-0.5625-3.125-0.54688-0.78125-1.3594-0.78125t-1.2969 0.6875q-0.60938 0.875-0.60938 3.2188z" fill="#000"/>
  <path id="path895" d="m249.51 558.93h-24v22.772h24z" fill="#f4cccc" fill-rule="evenodd"/>
  <path id="path897" d="m249.51 558.93h-24v22.772h24z" fill-rule="evenodd" stroke="#000" stroke-linecap="butt" stroke-linejoin="round"/>
  <path id="path899" d="m235.06 570.41q0-1.6875 0.34375-2.7188 0.35937-1.0312 1.0469-1.5938t1.7188-0.5625q0.78125 0 1.3594 0.3125 0.57812 0.29687 0.95312 0.89062 0.375 0.57813 0.59375 1.4219 0.21875 0.82812 0.21875 2.25 0 1.6719-0.35937 2.7031-0.34375 1.0312-1.0312 1.5938-0.67188 0.5625-1.7344 0.5625-1.375 0-2.1562-0.98437-0.95312-1.1875-0.95312-3.875zm1.2031 0q0 2.3438 0.54688 3.125 0.5625 0.78125 1.3594 0.78125 0.8125 0 1.3594-0.78125 0.5625-0.78125 0.5625-3.125 0-2.3594-0.5625-3.125-0.54688-0.78125-1.3594-0.78125t-1.2969 0.6875q-0.60938 0.875-0.60938 3.2188z" fill="#000"/>
  <path id="path901" d="m273.51 558.93h-24v22.772h24z" fill="#f4cccc" fill-rule="evenodd"/>
  <path id="path903" d="m273.51 558.93h-24v22.772h24z" fill-rule="evenodd" stroke="#000" stroke-linecap="butt" stroke-linejoin="round"/>
  <path id="path905" d="m259.06 570.41q0-1.6875 0.34375-2.7188 0.35938-1.0312 1.0469-1.5938t1.7188-0.5625q0.78125 0 1.3594 0.3125 0.57813 0.29687 0.95313 0.89062 0.375 0.57813 0.59375 1.4219 0.21875 0.82812 0.21875 2.25 0 1.6719-0.35938 2.7031-0.34375 1.0312-1.0312 1.5938-0.67187 0.5625-1.7344 0.5625-1.375 0-2.1562-0.98437-0.95313-1.1875-0.95313-3.875zm1.2031 0q0 2.3438 0.54687 3.125 0.5625 0.78125 1.3594 0.78125 0.8125 0 1.3594-0.78125 0.5625-0.78125 0.5625-3.125 0-2.3594-0.5625-3.125-0.54687-0.78125-1.3594-0.78125t-1.2969 0.6875q-0.60937 0.875-0.60937 3.2188z" fill="#000"/>
  <path id="path907" d="m297.51 558.93h-24v22.772h24z" fill="#f4cccc" fill-rule="evenodd"/>
  <path id="path909" d="m297.51 558.93h-24v22.772h24z" fill-rule="evenodd" stroke="#000" stroke-linecap="butt" stroke-linejoin="round"/>
  <path id="path911" d="m283.06 570.41q0-1.6875 0.34375-2.7188 0.35938-1.0312 1.0469-1.5938t1.7188-0.5625q0.78125 0 1.3594 0.3125 0.57813 0.29687 0.95313 0.89062 0.375 0.57813 0.59375 1.4219 0.21875 0.82812 0.21875 2.25 0 1.6719-0.35938 2.7031-0.34375 1.0312-1.0312 1.5938-0.67187 0.5625-1.7344 0.5625-1.375 0-2.1562-0.98437-0.95313-1.1875-0.95313-3.875zm1.2031 0q0 2.3438 0.54687 3.125 0.5625 0.78125 1.3594 0.78125 0.8125 0 1.3594-0.78125 0.5625-0.78125 0.5625-3.125 0-2.3594-0.5625-3.125-0.54687-0.78125-1.3594-0.78125t-1.2969 0.6875q-0.60937 0.875-0.60937 3.2188z" fill="#000"/>
  <path id="path913" d="m321.51 558.93h-24v22.772h24z" fill="#f4cccc" fill-rule="evenodd"/>
  <path id="path915" d="m321.51 558.93h-24v22.772h24z" fill-rule="evenodd" stroke="#000" stroke-linecap="butt" stroke-linejoin="round"/>
  <path id="path917" d="m307.06 570.41q0-1.6875 0.34375-2.7188 0.35938-1.0312 1.0469-1.5938t1.7188-0.5625q0.78125 0 1.3594 0.3125 0.57813 0.29687 0.95313 0.89062 0.375 0.57813 0.59375 1.4219 0.21875 0.82812 0.21875 2.25 0 1.6719-0.35938 2.7031-0.34375 1.0312-1.0312 1.5938-0.67187 0.5625-1.7344 0.5625-1.375 0-2.1562-0.98437-0.95313-1.1875-0.95313-3.875zm1.2031 0q0 2.3438 0.54687 3.125 0.5625 0.78125 1.3594 0.78125 0.8125 0 1.3594-0.78125 0.5625-0.78125 0.5625-3.125 0-2.3594-0.5625-3.125-0.54687-0.78125-1.3594-0.78125t-1.2969 0.6875q-0.60937 0.875-0.60937 3.2188z" fill="#000"/>
  <path id="path919" d="m345.51 558.93h-24v22.772h24z" fill="#f4cccc" fill-rule="evenodd"/>
  <path id="path921" d="m345.51 558.93h-24v22.772h24z" fill-rule="evenodd" stroke="#000" stroke-linecap="butt" stroke-linejoin="round"/>
  <path id="path923" d="m331.06 570.41q0-1.6875 0.34375-2.7188 0.35938-1.0312 1.0469-1.5938t1.7188-0.5625q0.78125 0 1.3594 0.3125 0.57813 0.29687 0.95313 0.89062 0.375 0.57813 0.59375 1.4219 0.21875 0.82812 0.21875 2.25 0 1.6719-0.35938 2.7031-0.34375 1.0312-1.0312 1.5938-0.67187 0.5625-1.7344 0.5625-1.375 0-2.1562-0.98437-0.95313-1.1875-0.95313-3.875zm1.2031 0q0 2.3438 0.54687 3.125 0.5625 0.78125 1.3594 0.78125 0.8125 0 1.3594-0.78125 0.5625-0.78125 0.5625-3.125 0-2.3594-0.5625-3.125-0.54687-0.78125-1.3594-0.78125t-1.2969 0.6875q-0.60937 0.875-0.60937 3.2188z" fill="#000"/>
  <path id="path925" d="m369.51 558.93h-24v22.772h24z" fill="#f4cccc" fill-rule="evenodd"/>
  <path id="path927" d="m369.51 558.93h-24v22.772h24z" fill-rule="evenodd" stroke="#000" stroke-linecap="butt" stroke-linejoin="round"/>
  <path id="path929" d="m355.06 570.41q0-1.6875 0.34375-2.7188 0.35938-1.0312 1.0469-1.5938t1.7188-0.5625q0.78125 0 1.3594 0.3125 0.57813 0.29687 0.95313 0.89062 0.375 0.57813 0.59375 1.4219 0.21875 0.82812 0.21875 2.25 0 1.6719-0.35938 2.7031-0.34375 1.0312-1.0312 1.5938-0.67187 0.5625-1.7344 0.5625-1.375 0-2.1562-0.98437-0.95313-1.1875-0.95313-3.875zm1.2031 0q0 2.3438 0.54687 3.125 0.5625 0.78125 1.3594 0.78125 0.8125 0 1.3594-0.78125 0.5625-0.78125 0.5625-3.125 0-2.3594-0.5625-3.125-0.54687-0.78125-1.3594-0.78125t-1.2969 0.6875q-0.60937 0.875-0.60937 3.2188z" fill="#000"/>
  <path id="path931" d="m403.12 558.93h-24v22.772h24z" fill="#f4cccc" fill-rule="evenodd"/>
  <path id="path933" d="m403.12 558.93h-24v22.772h24z" fill-rule="evenodd" stroke="#000" stroke-linecap="butt" stroke-linejoin="round"/>
  <path id="path935" d="m388.66 570.41q0-1.6875 0.34375-2.7188 0.35937-1.0312 1.0469-1.5938t1.7188-0.5625q0.78125 0 1.3594 0.3125 0.57812 0.29687 0.95312 0.89062 0.375 0.57813 0.59375 1.4219 0.21875 0.82812 0.21875 2.25 0 1.6719-0.35937 2.7031-0.34375 1.0312-1.0312 1.5938-0.67188 0.5625-1.7344 0.5625-1.375 0-2.1562-0.98437-0.95312-1.1875-0.95312-3.875zm1.2031 0q0 2.3438 0.54688 3.125 0.5625 0.78125 1.3594 0.78125 0.8125 0 1.3594-0.78125 0.5625-0.78125 0.5625-3.125 0-2.3594-0.5625-3.125-0.54688-0.78125-1.3594-0.78125t-1.2969 0.6875q-0.60938 0.875-0.60938 3.2188z" fill="#000"/>
  <path id="path937" d="m427.12 558.93h-24v22.772h24z" fill="#f4cccc" fill-rule="evenodd"/>
  <path id="path939" d="m427.12 558.93h-24v22.772h24z" fill-rule="evenodd" stroke="#000" stroke-linecap="butt" stroke-linejoin="round"/>
  <path id="path941" d="m412.66 570.41q0-1.6875 0.34375-2.7188 0.35937-1.0312 1.0469-1.5938t1.7188-0.5625q0.78125 0 1.3594 0.3125 0.57812 0.29687 0.95312 0.89062 0.375 0.57813 0.59375 1.4219 0.21875 0.82812 0.21875 2.25 0 1.6719-0.35937 2.7031-0.34375 1.0312-1.0312 1.5938-0.67188 0.5625-1.7344 0.5625-1.375 0-2.1562-0.98437-0.95312-1.1875-0.95312-3.875zm1.2031 0q0 2.3438 0.54688 3.125 0.5625 0.78125 1.3594 0.78125 0.8125 0 1.3594-0.78125 0.5625-0.78125 0.5625-3.125 0-2.3594-0.5625-3.125-0.54688-0.78125-1.3594-0.78125t-1.2969 0.6875q-0.60938 0.875-0.60938 3.2188z" fill="#000"/>
  <path id="path943" d="m451.12 558.93h-24v22.772h24z" fill="#f4cccc" fill-rule="evenodd"/>
  <path id="path945" d="m451.12 558.93h-24v22.772h24z" fill-rule="evenodd" stroke="#000" stroke-linecap="butt" stroke-linejoin="round"/>
  <path id="path947" d="m436.66 570.41q0-1.6875 0.34375-2.7188 0.35937-1.0312 1.0469-1.5938t1.7188-0.5625q0.78125 0 1.3594 0.3125 0.57812 0.29687 0.95312 0.89062 0.375 0.57813 0.59375 1.4219 0.21875 0.82812 0.21875 2.25 0 1.6719-0.35937 2.7031-0.34375 1.0312-1.0312 1.5938-0.67188 0.5625-1.7344 0.5625-1.375 0-2.1562-0.98437-0.95312-1.1875-0.95312-3.875zm1.2031 0q0 2.3438 0.54688 3.125 0.5625 0.78125 1.3594 0.78125 0.8125 0 1.3594-0.78125 0.5625-0.78125 0.5625-3.125 0-2.3594-0.5625-3.125-0.54688-0.78125-1.3594-0.78125t-1.2969 0.6875q-0.60938 0.875-0.60938 3.2188z" fill="#000"/>
  <path id="path949" d="m475.12 558.93h-24v22.772h24z" fill="#f4cccc" fill-rule="evenodd"/>
  <path id="path951" d="m475.12 558.93h-24v22.772h24z" fill-rule="evenodd" stroke="#000" stroke-linecap="butt" stroke-linejoin="round"/>
  <path id="path953" d="m460.66 570.41q0-1.6875 0.34375-2.7188 0.35937-1.0312 1.0469-1.5938t1.7188-0.5625q0.78125 0 1.3594 0.3125 0.57812 0.29687 0.95312 0.89062 0.375 0.57813 0.59375 1.4219 0.21875 0.82812 0.21875 2.25 0 1.6719-0.35937 2.7031-0.34375 1.0312-1.0312 1.5938-0.67188 0.5625-1.7344 0.5625-1.375 0-2.1562-0.98437-0.95312-1.1875-0.95312-3.875zm1.2031 0q0 2.3438 0.54688 3.125 0.5625 0.78125 1.3594 0.78125 0.8125 0 1.3594-0.78125 0.5625-0.78125 0.5625-3.125 0-2.3594-0.5625-3.125-0.54688-0.78125-1.3594-0.78125t-1.2969 0.6875q-0.60938 0.875-0.60938 3.2188z" fill="#000"/>
  <path id="path955" d="m499.12 558.93h-24v22.772h24z" fill="#d9ead3" fill-rule="evenodd"/>
  <path id="path957" d="m499.12 558.93h-24v22.772h24z" fill-rule="evenodd" stroke="#000" stroke-linecap="butt" stroke-linejoin="round"/>
  <path id="path959" d="m485.21 575.11v-9.5469h6.4375v1.125h-5.1719v2.9688h4.4688v1.125h-4.4688v4.3281z" fill="#000"/>
  <path id="path961" d="m523.12 558.93h-24v22.772h24z" fill="#d9ead3" fill-rule="evenodd"/>
  <path id="path963" d="m523.12 558.93h-24v22.772h24z" fill-rule="evenodd" stroke="#000" stroke-linecap="butt" stroke-linejoin="round"/>
  <path id="path965" d="m509.21 575.11v-9.5469h6.4375v1.125h-5.1719v2.9688h4.4688v1.125h-4.4688v4.3281z" fill="#000"/>
  <path id="path967" d="m547.12 558.93h-24v22.772h24z" fill="#d9ead3" fill-rule="evenodd"/>
  <path id="path969" d="m547.12 558.93h-24v22.772h24z" fill-rule="evenodd" stroke="#000" stroke-linecap="butt" stroke-linejoin="round"/>
  <path id="path971" d="m533.21 575.11v-9.5469h6.4375v1.125h-5.1719v2.9688h4.4688v1.125h-4.4688v4.3281z" fill="#000"/>
  <path id="path973" d="m571.12 558.93h-24v22.772h24z" fill="#d9ead3" fill-rule="evenodd"/>
  <path id="path975" d="m571.12 558.93h-24v22.772h24z" fill-rule="evenodd" stroke="#000" stroke-linecap="butt" stroke-linejoin="round"/>
  <path id="path977" d="m557.21 575.11v-9.5469h6.4375v1.125h-5.1719v2.9688h4.4688v1.125h-4.4688v4.3281z" fill="#000"/>
  <path id="path979" d="m604.72 558.93h-24v22.772h24z" fill="#d9ead3" fill-rule="evenodd"/>
  <path id="path981" d="m604.72 558.93h-24v22.772h24z" fill-rule="evenodd" stroke="#000" stroke-linecap="butt" stroke-linejoin="round"/>
  <path id="path983" d="m590.81 575.11v-9.5469h6.4375v1.125h-5.1719v2.9688h4.4688v1.125h-4.4688v4.3281z" fill="#000"/>
  <path id="path985" d="m628.72 558.93h-24v22.772h24z" fill="#d9ead3" fill-rule="evenodd"/>
  <path id="path987" d="m628.72 558.93h-24v22.772h24z" fill-rule="evenodd" stroke="#000" stroke-linecap="butt" stroke-linejoin="round"/>
  <path id="path989" d="m614.81 575.11v-9.5469h6.4375v1.125h-5.1719v2.9688h4.4688v1.125h-4.4688v4.3281z" fill="#000"/>
  <path id="path991" d="m652.72 558.93h-24v22.772h24z" fill="#d9ead3" fill-rule="evenodd"/>
  <path id="path993" d="m652.72 558.93h-24v22.772h24z" fill-rule="evenodd" stroke="#000" stroke-linecap="butt" stroke-linejoin="round"/>
  <path id="path995" d="m638.81 575.11v-9.5469h6.4375v1.125h-5.1719v2.9688h4.4688v1.125h-4.4688v4.3281z" fill="#000"/>
  <path id="path997" d="m676.72 558.93h-24v22.772h24z" fill="#d9ead3" fill-rule="evenodd"/>
  <path id="path999" d="m676.72 558.93h-24v22.772h24z" fill-rule="evenodd" stroke="#000" stroke-linecap="butt" stroke-linejoin="round"/>
  <path id="path1001" d="m662.81 575.11v-9.5469h6.4375v1.125h-5.1719v2.9688h4.4688v1.125h-4.4688v4.3281z" fill="#000"/>
  <path id="path1003" d="m700.72 558.93h-24v22.772h24z" fill="#d9ead3" fill-rule="evenodd"/>
  <path id="path1005" d="m700.72 558.93h-24v22.772h24z" fill-rule="evenodd" stroke="#000" stroke-linecap="butt" stroke-linejoin="round"/>
  <path id="path1007" d="m686.81 575.11v-9.5469h6.4375v1.125h-5.1719v2.9688h4.4688v1.125h-4.4688v4.3281z" fill="#000"/>
  <path id="path1009" d="m724.72 558.93h-24v22.772h24z" fill="#d9ead3" fill-rule="evenodd"/>
  <path id="path1011" d="m724.72 558.93h-24v22.772h24z" fill-rule="evenodd" stroke="#000" stroke-linecap="butt" stroke-linejoin="round"/>
  <path id="path1013" d="m710.81 575.11v-9.5469h6.4375v1.125h-5.1719v2.9688h4.4688v1.125h-4.4688v4.3281z" fill="#000"/>
  <path id="path1015" d="m748.72 558.93h-24v22.772h24z" fill="#d9ead3" fill-rule="evenodd"/>
  <path id="path1017" d="m748.72 558.93h-24v22.772h24z" fill-rule="evenodd" stroke="#000" stroke-linecap="butt" stroke-linejoin="round"/>
  <path id="path1019" d="m734.81 575.11v-9.5469h6.4375v1.125h-5.1719v2.9688h4.4688v1.125h-4.4688v4.3281z" fill="#000"/>
  <path id="path1021" d="m772.72 558.93h-24v22.772h24z" fill="#d9ead3" fill-rule="evenodd"/>
  <path id="path1023" d="m772.72 558.93h-24v22.772h24z" fill-rule="evenodd" stroke="#000" stroke-linecap="butt" stroke-linejoin="round"/>
  <path id="path1025" d="m758.81 575.11v-9.5469h6.4375v1.125h-5.1719v2.9688h4.4688v1.125h-4.4688v4.3281z" fill="#000"/>
  <path id="path1027" d="m806.32 558.93h-24v22.772h24z" fill="#d9ead3" fill-rule="evenodd"/>
  <path id="path1029" d="m806.32 558.93h-24v22.772h24z" fill-rule="evenodd" stroke="#000" stroke-linecap="butt" stroke-linejoin="round"/>
  <path id="path1031" d="m792.41 575.11v-9.5469h6.4375v1.125h-5.1719v2.9688h4.4688v1.125h-4.4688v4.3281z" fill="#000"/>
  <path id="path1033" d="m830.32 558.93h-24v22.772h24z" fill="#d9ead3" fill-rule="evenodd"/>
  <path id="path1035" d="m830.32 558.93h-24v22.772h24z" fill-rule="evenodd" stroke="#000" stroke-linecap="butt" stroke-linejoin="round"/>
  <path id="path1037" d="m816.41 575.11v-9.5469h6.4375v1.125h-5.1719v2.9688h4.4688v1.125h-4.4688v4.3281z" fill="#000"/>
  <path id="path1039" d="m854.32 558.93h-24v22.772h24z" fill="#d9ead3" fill-rule="evenodd"/>
  <path id="path1041" d="m854.32 558.93h-24v22.772h24z" fill-rule="evenodd" stroke="#000" stroke-linecap="butt" stroke-linejoin="round"/>
  <path id="path1043" d="m840.41 575.11v-9.5469h6.4375v1.125h-5.1719v2.9688h4.4688v1.125h-4.4688v4.3281z" fill="#000"/>
  <path id="path1045" d="m878.32 558.93h-24v22.772h24z" fill="#d9ead3" fill-rule="evenodd"/>
  <path id="path1047" d="m878.32 558.93h-24v22.772h24z" fill-rule="evenodd" stroke="#000" stroke-linecap="butt" stroke-linejoin="round"/>
  <path id="path1049" d="m864.41 575.11v-9.5469h6.4375v1.125h-5.1719v2.9688h4.4688v1.125h-4.4688v4.3281z" fill="#000"/>
  <path id="path1051" d="m902.32 558.93h-24v22.772h24z" fill="#d9ead3" fill-rule="evenodd"/>
  <path id="path1053" d="m902.32 558.93h-24v22.772h24z" fill-rule="evenodd" stroke="#000" stroke-linecap="butt" stroke-linejoin="round"/>
  <path id="path1055" d="m888.41 575.11v-9.5469h6.4375v1.125h-5.1719v2.9688h4.4688v1.125h-4.4688v4.3281z" fill="#000"/>
  <path id="path1057" d="m926.32 558.93h-24v22.772h24z" fill="#d9ead3" fill-rule="evenodd"/>
  <path id="path1059" d="m926.32 558.93h-24v22.772h24z" fill-rule="evenodd" stroke="#000" stroke-linecap="butt" stroke-linejoin="round"/>
  <path id="path1061" d="m912.41 575.11v-9.5469h6.4375v1.125h-5.1719v2.9688h4.4688v1.125h-4.4688v4.3281z" fill="#000"/>
  <path id="path1063" d="m950.32 558.93h-24v22.772h24z" fill="#d9ead3" fill-rule="evenodd"/>
  <path id="path1065" d="m950.32 558.93h-24v22.772h24z" fill-rule="evenodd" stroke="#000" stroke-linecap="butt" stroke-linejoin="round"/>
  <path id="path1067" d="m936.41 575.11v-9.5469h6.4375v1.125h-5.1719v2.9688h4.4688v1.125h-4.4688v4.3281z" fill="#000"/>
  <path id="path1069" d="m974.32 558.93h-24v22.772h24z" fill="#d9ead3" fill-rule="evenodd"/>
  <path id="path1071" d="m974.32 558.93h-24v22.772h24z" fill-rule="evenodd" stroke="#000" stroke-linecap="butt" stroke-linejoin="round"/>
  <path id="path1073" d="m960.41 575.11v-9.5469h6.4375v1.125h-5.1719v2.9688h4.4688v1.125h-4.4688v4.3281z" fill="#000"/>
  <path id="path1075" d="m973.67 583.74c0 5.3054-4.3009 9.6063-9.6063 9.6063h-176.94c-5.3054 0-9.6063 4.3009-9.6063 9.6063 0-5.3054-4.3009-9.6063-9.6063-9.6063h-176.94c-5.3054 0-9.6063-4.3008-9.6063-9.6063z" fill="#000" fill-opacity="0" fill-rule="evenodd"/>
  <path id="path1077" d="m973.67 583.74c0 5.3054-4.3009 9.6063-9.6063 9.6063h-176.94c-5.3054 0-9.6063 4.3009-9.6063 9.6063 0-5.3054-4.3009-9.6063-9.6063-9.6063h-176.94c-5.3054 0-9.6063-4.3008-9.6063-9.6063" fill="#000" fill-opacity="0" fill-rule="evenodd"/>
  <path id="path1079" d="m973.67 583.74c0 5.3054-4.3009 9.6063-9.6063 9.6063h-176.94c-5.3054 0-9.6063 4.3009-9.6063 9.6063 0-5.3054-4.3009-9.6063-9.6063-9.6063h-176.94c-5.3054 0-9.6063-4.3008-9.6063-9.6063" fill-rule="evenodd" stroke="#000" stroke-linecap="butt" stroke-linejoin="round"/>
  <path id="path1081" d="m973.56 556.89c0-5.3054-4.3009-9.6063-9.6063-9.6063h-378.6c-5.3054 0-9.6063-4.3008-9.6063-9.6063 0 5.3054-4.3009 9.6063-9.6063 9.6063h-378.6c-5.3054 0-9.6063 4.3009-9.6063 9.6063z" fill="#000" fill-opacity="0" fill-rule="evenodd"/>
  <path id="path1083" d="m973.56 556.89c0-5.3054-4.3009-9.6063-9.6063-9.6063h-378.6c-5.3054 0-9.6063-4.3008-9.6063-9.6063 0 5.3054-4.3009 9.6063-9.6063 9.6063h-378.6c-5.3054 0-9.6063 4.3009-9.6063 9.6063" fill="#000" fill-opacity="0" fill-rule="evenodd"/>
  <path id="path1085" d="m973.56 556.89c0-5.3054-4.3009-9.6063-9.6063-9.6063h-378.6c-5.3054 0-9.6063-4.3008-9.6063-9.6063 0 5.3054-4.3009 9.6063-9.6063 9.6063h-378.6c-5.3054 0-9.6063 4.3009-9.6063 9.6063" fill-rule="evenodd" stroke="#000" stroke-linecap="butt" stroke-linejoin="round"/>
  <path id="path1087" d="m723.06 600.94h108.91v35.559h-108.91z" fill="#000" fill-opacity="0" fill-rule="evenodd"/>
  <path id="path1089" d="m758.33 622.74 3.6875-4.9688-3.25-4.5781h1.5l1.7344 2.4531q0.53125 0.76562 0.76562 1.1719 0.3125-0.51562 0.75-1.0938l1.9219-2.5312h1.375l-3.3594 4.5 3.625 5.0469h-1.5625l-2.4062-3.4062q-0.20312-0.29688-0.42187-0.64063-0.3125 0.53125-0.45313 0.71875l-2.3906 3.3281zm9.8116 0v-9.5469h1.9062l2.25 6.7656q0.3125 0.9375 0.46875 1.4062 0.15625-0.51563 0.5-1.5312l2.2812-6.6406h1.7031v9.5469h-1.2188v-7.9844l-2.7656 7.9844h-1.1406l-2.7656-8.125v8.125zm11.102 0v-9.5469h1.9062l2.25 6.7656q0.3125 0.9375 0.46875 1.4062 0.15625-0.51563 0.5-1.5312l2.2812-6.6406h1.7031v9.5469h-1.2188v-7.9844l-2.7656 7.9844h-1.1406l-2.7656-8.125v8.125zm15.087 0h-1.1719v-7.4688q-0.42187 0.40625-1.1094 0.8125t-1.2344 0.60937v-1.1406q0.98438-0.45313 1.7188-1.1094 0.73438-0.67187 1.0312-1.2812h0.76563z" fill="#000"/>
  <path id="path1091" d="m521.29 504.16h108.91v35.559h-108.91z" fill="#000" fill-opacity="0" fill-rule="evenodd"/>
  <path id="path1093" d="m560.21 525.96v-4.0469l-3.6875-5.5h1.5469l1.875 2.875q0.51563 0.8125 0.96875 1.625 0.4375-0.75 1.0469-1.6875l1.8438-2.8125h1.4688l-3.7969 5.5v4.0469zm6.1553 0v-9.5469h1.9062l2.25 6.7656q0.3125 0.9375 0.46875 1.4062 0.15625-0.51563 0.5-1.5312l2.2812-6.6406h1.7031v9.5469h-1.2188v-7.9844l-2.7656 7.9844h-1.1406l-2.7656-8.125v8.125zm11.102 0v-9.5469h1.9062l2.25 6.7656q0.3125 0.9375 0.46875 1.4062 0.15625-0.51563 0.5-1.5312l2.2812-6.6406h1.7031v9.5469h-1.2188v-7.9844l-2.7656 7.9844h-1.1406l-2.7656-8.125v8.125zm15.087 0h-1.1719v-7.4688q-0.42188 0.40625-1.1094 0.8125t-1.2344 0.60937v-1.1406q0.98437-0.45313 1.7188-1.1094 0.73437-0.67187 1.0312-1.2812h0.76562z" fill="#000"/>
  <path id="path1095" d="m201.51 270.91h-24v22.772h24z" fill="#cfe2f3" fill-rule="evenodd"/>
  <path id="path1097" d="m201.51 270.91h-24v22.772h24z" fill-rule="evenodd" stroke="#000" stroke-linecap="butt" stroke-linejoin="round"/>
  <path id="path1099" d="m187.58 287.09v-9.5469h1.2656v3.9219h4.9531v-3.9219h1.2656v9.5469h-1.2656v-4.5h-4.9531v4.5z" fill="#000"/>
  <path id="path1101" d="m225.51 270.91h-24v22.772h24z" fill="#cfe2f3" fill-rule="evenodd"/>
  <path id="path1103" d="m225.51 270.91h-24v22.772h24z" fill-rule="evenodd" stroke="#000" stroke-linecap="butt" stroke-linejoin="round"/>
  <path id="path1105" d="m216.12 284.88 1.2031 0.14062q-0.28125 1.0625-1.0625 1.6562-0.76562 0.57813-1.9688 0.57813-1.5156 0-2.4062-0.9375-0.89062-0.9375-0.89062-2.6094 0-1.75 0.89062-2.7031 0.90625-0.96875 2.3438-0.96875 1.3906 0 2.2656 0.9375t0.875 2.6562q0 0.10937 0 0.3125h-5.1562q0.0625 1.1406 0.64062 1.75 0.57813 0.59375 1.4375 0.59375 0.65625 0 1.1094-0.32813 0.45312-0.34375 0.71875-1.0781zm-3.8438-1.9062h3.8594q-0.0781-0.85938-0.4375-1.2969-0.5625-0.6875-1.4531-0.6875-0.8125 0-1.3594 0.54688-0.54687 0.53125-0.60937 1.4375z" fill="#000"/>
  <path id="path1107" d="m249.51 270.91h-24v22.772h24z" fill="#cfe2f3" fill-rule="evenodd"/>
  <path id="path1109" d="m249.51 270.91h-24v22.772h24z" fill-rule="evenodd" stroke="#000" stroke-linecap="butt" stroke-linejoin="round"/>
  <path id="path1111" d="m236.89 287.09v-9.5469h1.1719v9.5469z" fill="#000"/>
  <path id="path1113" d="m273.51 270.91h-24v22.772h24z" fill="#cfe2f3" fill-rule="evenodd"/>
  <path id="path1115" d="m273.51 270.91h-24v22.772h24z" fill-rule="evenodd" stroke="#000" stroke-linecap="butt" stroke-linejoin="round"/>
  <path id="path1117" d="m260.89 287.09v-9.5469h1.1719v9.5469z" fill="#000"/>
  <path id="path1119" d="m297.51 270.91h-24v22.772h24z" fill="#cfe2f3" fill-rule="evenodd"/>
  <path id="path1121" d="m297.51 270.91h-24v22.772h24z" fill-rule="evenodd" stroke="#000" stroke-linecap="butt" stroke-linejoin="round"/>
  <path id="path1123" d="m282.95 283.64q0-1.9219 1.0781-2.8438 0.89063-0.76562 2.1719-0.76562 1.4219 0 2.3281 0.9375 0.90625 0.92187 0.90625 2.5781 0 1.3281-0.40625 2.0938-0.39062 0.76563-1.1562 1.1875-0.76562 0.42188-1.6719 0.42188-1.4531 0-2.3594-0.92188-0.89062-0.9375-0.89062-2.6875zm1.2031 0q0 1.3281 0.57813 1.9844 0.59375 0.65625 1.4688 0.65625t1.4531-0.65625q0.57813-0.67188 0.57813-2.0312 0-1.2812-0.59375-1.9375-0.57813-0.65625-1.4375-0.65625-0.875 0-1.4688 0.65625-0.57813 0.65625-0.57813 1.9844z" fill="#000"/>
  <path id="path1125" d="m321.51 270.91h-24v22.772h24z" fill="#cfe2f3" fill-rule="evenodd"/>
  <path id="path1127" d="m321.51 270.91h-24v22.772h24z" fill-rule="evenodd" stroke="#000" stroke-linecap="butt" stroke-linejoin="round"/>
  <path id="path1129" d="m345.51 270.91h-24v22.772h24z" fill="#cfe2f3" fill-rule="evenodd"/>
  <path id="path1131" d="m345.51 270.91h-24v22.772h24z" fill-rule="evenodd" stroke="#000" stroke-linecap="butt" stroke-linejoin="round"/>
  <path id="path1133" d="m332.67 287.09-2.125-6.9062h1.2188l1.0938 3.9844 0.42187 1.4844q0.0156-0.10938 0.35938-1.4219l1.0938-4.0469h1.2031l1.0312 4 0.34375 1.3281 0.40625-1.3438 1.1719-3.9844h1.1406l-2.1562 6.9062h-1.2188l-1.0938-4.1406-0.26562-1.1719-1.4062 5.3125z" fill="#000"/>
  <path id="path1135" d="m369.51 270.91h-24v22.772h24z" fill="#cfe2f3" fill-rule="evenodd"/>
  <path id="path1137" d="m369.51 270.91h-24v22.772h24z" fill-rule="evenodd" stroke="#000" stroke-linecap="butt" stroke-linejoin="round"/>
  <path id="path1139" d="m354.95 283.64q0-1.9219 1.0781-2.8438 0.89063-0.76562 2.1719-0.76562 1.4219 0 2.3281 0.9375 0.90625 0.92187 0.90625 2.5781 0 1.3281-0.40625 2.0938-0.39062 0.76563-1.1562 1.1875-0.76562 0.42188-1.6719 0.42188-1.4531 0-2.3594-0.92188-0.89062-0.9375-0.89062-2.6875zm1.2031 0q0 1.3281 0.57813 1.9844 0.59375 0.65625 1.4688 0.65625t1.4531-0.65625q0.57813-0.67188 0.57813-2.0312 0-1.2812-0.59375-1.9375-0.57813-0.65625-1.4375-0.65625-0.875 0-1.4688 0.65625-0.57813 0.65625-0.57813 1.9844z" fill="#000"/>
  <path id="path1141" d="m403.12 270.91h-24v22.772h24z" fill="#cfe2f3" fill-rule="evenodd"/>
  <path id="path1143" d="m403.12 270.91h-24v22.772h24z" fill-rule="evenodd" stroke="#000" stroke-linecap="butt" stroke-linejoin="round"/>
  <path id="path1145" d="m389.76 287.09v-6.9062h1.0625v1.0469q0.40625-0.73437 0.73437-0.96875 0.34375-0.23437 0.76563-0.23437 0.59375 0 1.2031 0.375l-0.40625 1.0781q-0.4375-0.25-0.85937-0.25-0.39063 0-0.70313 0.23438-0.29687 0.23437-0.42187 0.64062-0.20313 0.625-0.20313 1.3594v3.625z" fill="#000"/>
  <path id="path1147" d="m427.12 270.91h-24v22.772h24z" fill="#cfe2f3" fill-rule="evenodd"/>
  <path id="path1149" d="m427.12 270.91h-24v22.772h24z" fill-rule="evenodd" stroke="#000" stroke-linecap="butt" stroke-linejoin="round"/>
  <path id="path1151" d="m414.49 287.09v-9.5469h1.1719v9.5469z" fill="#000"/>
  <path id="path1153" d="m451.12 270.91h-24v22.772h24z" fill="#cfe2f3" fill-rule="evenodd"/>
  <path id="path1155" d="m451.12 270.91h-24v22.772h24z" fill-rule="evenodd" stroke="#000" stroke-linecap="butt" stroke-linejoin="round"/>
  <path id="path1157" d="m441.47 287.09v-0.875q-0.65625 1.0312-1.9375 1.0312-0.8125 0-1.5156-0.45313-0.6875-0.45312-1.0781-1.2656-0.375-0.82813-0.375-1.8906 0-1.0312 0.34375-1.875t1.0312-1.2812q0.70312-0.45312 1.5469-0.45312 0.625 0 1.1094 0.26562 0.5 0.25 0.79687 0.67188v-3.4219h1.1719v9.5469zm-3.7031-3.4531q0 1.3281 0.5625 1.9844t1.3281 0.65625q0.76562 0 1.2969-0.625t0.53125-1.9062q0-1.4219-0.54687-2.0781-0.54688-0.67187-1.3438-0.67187-0.78125 0-1.3125 0.64062-0.51563 0.625-0.51563 2z" fill="#000"/>
  <path id="path1159" d="m475.12 270.91h-24v22.772h24z" fill="#cfe2f3" fill-rule="evenodd"/>
  <path id="path1161" d="m475.12 270.91h-24v22.772h24z" fill-rule="evenodd" stroke="#000" stroke-linecap="butt" stroke-linejoin="round"/>
  <path id="path1163" d="m462.76 284.72-0.35938-5.0469v-2.125h1.4531v2.125l-0.32813 5.0469zm-0.29688 2.375v-1.3281h1.3438v1.3281z" fill="#000"/>
  <path id="path1165" d="m499.12 270.91h-24v22.772h24z" fill="#cfe2f3" fill-rule="evenodd"/>
  <path id="path1167" d="m499.12 270.91h-24v22.772h24z" fill-rule="evenodd" stroke="#000" stroke-linecap="butt" stroke-linejoin="round"/>
  <path id="path1169" d="m484.66 282.39q0-1.6875 0.34375-2.7188 0.35937-1.0312 1.0469-1.5938t1.7188-0.5625q0.78125 0 1.3594 0.3125 0.57812 0.29688 0.95312 0.89063 0.375 0.57812 0.59375 1.4219 0.21875 0.82813 0.21875 2.25 0 1.6719-0.35937 2.7031-0.34375 1.0312-1.0312 1.5938-0.67188 0.5625-1.7344 0.5625-1.375 0-2.1562-0.98438-0.95312-1.1875-0.95312-3.875zm1.2031 0q0 2.3438 0.54688 3.125 0.5625 0.78125 1.3594 0.78125 0.8125 0 1.3594-0.78125 0.5625-0.78125 0.5625-3.125 0-2.3594-0.5625-3.125-0.54688-0.78125-1.3594-0.78125t-1.2969 0.6875q-0.60938 0.875-0.60938 3.2188z" fill="#000"/>
  <path id="path1171" d="m523.12 270.91h-24v22.772h24z" fill="#cfe2f3" fill-rule="evenodd"/>
  <path id="path1173" d="m523.12 270.91h-24v22.772h24z" fill-rule="evenodd" stroke="#000" stroke-linecap="butt" stroke-linejoin="round"/>
  <path id="path1175" d="m508.66 282.39q0-1.6875 0.34375-2.7188 0.35937-1.0312 1.0469-1.5938t1.7188-0.5625q0.78126 0 1.3594 0.3125 0.57813 0.29688 0.95313 0.89063 0.375 0.57812 0.59375 1.4219 0.21875 0.82813 0.21875 2.25 0 1.6719-0.35938 2.7031-0.34375 1.0312-1.0312 1.5938-0.67187 0.5625-1.7344 0.5625-1.375 0-2.1562-0.98438-0.95313-1.1875-0.95313-3.875zm1.2031 0q0 2.3438 0.54688 3.125 0.5625 0.78125 1.3594 0.78125 0.81251 0 1.3594-0.78125 0.5625-0.78125 0.5625-3.125 0-2.3594-0.5625-3.125-0.54687-0.78125-1.3594-0.78125t-1.2969 0.6875q-0.60937 0.875-0.60938 3.2188z" fill="#000"/>
  <path id="path1177" d="m547.12 270.91h-24v22.772h24z" fill="#cfe2f3" fill-rule="evenodd"/>
  <path id="path1179" d="m547.12 270.91h-24v22.772h24z" fill-rule="evenodd" stroke="#000" stroke-linecap="butt" stroke-linejoin="round"/>
  <path id="path1181" d="m532.66 282.39q0-1.6875 0.34375-2.7188 0.35937-1.0312 1.0469-1.5938t1.7188-0.5625q0.78125 0 1.3594 0.3125 0.57812 0.29688 0.95312 0.89063 0.375 0.57812 0.59375 1.4219 0.21875 0.82813 0.21875 2.25 0 1.6719-0.35937 2.7031-0.34375 1.0312-1.0312 1.5938-0.67188 0.5625-1.7344 0.5625-1.375 0-2.1562-0.98438-0.95312-1.1875-0.95312-3.875zm1.2031 0q0 2.3438 0.54688 3.125 0.5625 0.78125 1.3594 0.78125 0.8125 0 1.3594-0.78125 0.5625-0.78125 0.5625-3.125 0-2.3594-0.5625-3.125-0.54688-0.78125-1.3594-0.78125t-1.2969 0.6875q-0.60938 0.875-0.60938 3.2188z" fill="#000"/>
  <path id="path1183" d="m571.12 270.91h-24v22.772h24z" fill="#cfe2f3" fill-rule="evenodd"/>
  <path id="path1185" d="m571.12 270.91h-24v22.772h24z" fill-rule="evenodd" stroke="#000" stroke-linecap="butt" stroke-linejoin="round"/>
  <path id="path1187" d="m556.66 282.39q0-1.6875 0.34375-2.7188 0.35937-1.0312 1.0469-1.5938t1.7188-0.5625q0.78125 0 1.3594 0.3125 0.57812 0.29688 0.95312 0.89063 0.375 0.57812 0.59375 1.4219 0.21875 0.82813 0.21875 2.25 0 1.6719-0.35937 2.7031-0.34375 1.0312-1.0312 1.5938-0.67188 0.5625-1.7344 0.5625-1.375 0-2.1562-0.98438-0.95312-1.1875-0.95312-3.875zm1.2031 0q0 2.3438 0.54688 3.125 0.5625 0.78125 1.3594 0.78125 0.8125 0 1.3594-0.78125 0.5625-0.78125 0.5625-3.125 0-2.3594-0.5625-3.125-0.54688-0.78125-1.3594-0.78125t-1.2969 0.6875q-0.60938 0.875-0.60938 3.2188z" fill="#000"/>
  <path id="path1189" d="m604.72 270.91h-24v22.772h24z" fill="#cfe2f3" fill-rule="evenodd"/>
  <path id="path1191" d="m604.72 270.91h-24v22.772h24z" fill-rule="evenodd" stroke="#000" stroke-linecap="butt" stroke-linejoin="round"/>
  <path id="path1193" d="m590.26 282.39q0-1.6875 0.34375-2.7188 0.35938-1.0312 1.0469-1.5938t1.7188-0.5625q0.78125 0 1.3594 0.3125 0.57813 0.29688 0.95313 0.89063 0.375 0.57812 0.59375 1.4219 0.21875 0.82813 0.21875 2.25 0 1.6719-0.35938 2.7031-0.34375 1.0312-1.0312 1.5938-0.67187 0.5625-1.7344 0.5625-1.375 0-2.1562-0.98438-0.95313-1.1875-0.95313-3.875zm1.2031 0q0 2.3438 0.54687 3.125 0.5625 0.78125 1.3594 0.78125 0.8125 0 1.3594-0.78125 0.5625-0.78125 0.5625-3.125 0-2.3594-0.5625-3.125-0.54687-0.78125-1.3594-0.78125t-1.2969 0.6875q-0.60937 0.875-0.60937 3.2188z" fill="#000"/>
  <path id="path1195" d="m628.72 270.91h-24v22.772h24z" fill="#cfe2f3" fill-rule="evenodd"/>
  <path id="path1197" d="m628.72 270.91h-24v22.772h24z" fill-rule="evenodd" stroke="#000" stroke-linecap="butt" stroke-linejoin="round"/>
  <path id="path1199" d="m614.26 282.39q0-1.6875 0.34375-2.7188 0.35938-1.0312 1.0469-1.5938t1.7188-0.5625q0.78125 0 1.3594 0.3125 0.57813 0.29688 0.95313 0.89063 0.375 0.57812 0.59375 1.4219 0.21875 0.82813 0.21875 2.25 0 1.6719-0.35938 2.7031-0.34375 1.0312-1.0312 1.5938-0.67187 0.5625-1.7344 0.5625-1.375 0-2.1562-0.98438-0.95313-1.1875-0.95313-3.875zm1.2031 0q0 2.3438 0.54687 3.125 0.5625 0.78125 1.3594 0.78125 0.8125 0 1.3594-0.78125 0.5625-0.78125 0.5625-3.125 0-2.3594-0.5625-3.125-0.54687-0.78125-1.3594-0.78125t-1.2969 0.6875q-0.60937 0.875-0.60937 3.2188z" fill="#000"/>
  <path id="path1201" d="m652.72 270.91h-24v22.772h24z" fill="#cfe2f3" fill-rule="evenodd"/>
  <path id="path1203" d="m652.72 270.91h-24v22.772h24z" fill-rule="evenodd" stroke="#000" stroke-linecap="butt" stroke-linejoin="round"/>
  <path id="path1205" d="m638.26 282.39q0-1.6875 0.34375-2.7188 0.35938-1.0312 1.0469-1.5938t1.7188-0.5625q0.78125 0 1.3594 0.3125 0.57813 0.29688 0.95313 0.89063 0.375 0.57812 0.59375 1.4219 0.21875 0.82813 0.21875 2.25 0 1.6719-0.35938 2.7031-0.34375 1.0312-1.0312 1.5938-0.67187 0.5625-1.7344 0.5625-1.375 0-2.1562-0.98438-0.95313-1.1875-0.95313-3.875zm1.2031 0q0 2.3438 0.54687 3.125 0.5625 0.78125 1.3594 0.78125 0.8125 0 1.3594-0.78125 0.5625-0.78125 0.5625-3.125 0-2.3594-0.5625-3.125-0.54687-0.78125-1.3594-0.78125t-1.2969 0.6875q-0.60937 0.875-0.60937 3.2188z" fill="#000"/>
  <path id="path1207" d="m676.72 270.91h-24v22.772h24z" fill="#cfe2f3" fill-rule="evenodd"/>
  <path id="path1209" d="m676.72 270.91h-24v22.772h24z" fill-rule="evenodd" stroke="#000" stroke-linecap="butt" stroke-linejoin="round"/>
  <path id="path1211" d="m662.26 282.39q0-1.6875 0.34375-2.7188 0.35938-1.0312 1.0469-1.5938t1.7188-0.5625q0.78125 0 1.3594 0.3125 0.57813 0.29688 0.95313 0.89063 0.375 0.57812 0.59375 1.4219 0.21875 0.82813 0.21875 2.25 0 1.6719-0.35938 2.7031-0.34375 1.0312-1.0312 1.5938-0.67187 0.5625-1.7344 0.5625-1.375 0-2.1562-0.98438-0.95313-1.1875-0.95313-3.875zm1.2031 0q0 2.3438 0.54687 3.125 0.5625 0.78125 1.3594 0.78125 0.8125 0 1.3594-0.78125 0.5625-0.78125 0.5625-3.125 0-2.3594-0.5625-3.125-0.54687-0.78125-1.3594-0.78125t-1.2969 0.6875q-0.60937 0.875-0.60937 3.2188z" fill="#000"/>
  <path id="path1213" d="m700.72 270.91h-24v22.772h24z" fill="#cfe2f3" fill-rule="evenodd"/>
  <path id="path1215" d="m700.72 270.91h-24v22.772h24z" fill-rule="evenodd" stroke="#000" stroke-linecap="butt" stroke-linejoin="round"/>
  <path id="path1217" d="m686.26 282.39q0-1.6875 0.34375-2.7188 0.35938-1.0312 1.0469-1.5938t1.7188-0.5625q0.78125 0 1.3594 0.3125 0.57813 0.29688 0.95313 0.89063 0.375 0.57812 0.59375 1.4219 0.21875 0.82813 0.21875 2.25 0 1.6719-0.35938 2.7031-0.34375 1.0312-1.0312 1.5938-0.67187 0.5625-1.7344 0.5625-1.375 0-2.1562-0.98438-0.95313-1.1875-0.95313-3.875zm1.2031 0q0 2.3438 0.54687 3.125 0.5625 0.78125 1.3594 0.78125 0.8125 0 1.3594-0.78125 0.5625-0.78125 0.5625-3.125 0-2.3594-0.5625-3.125-0.54687-0.78125-1.3594-0.78125t-1.2969 0.6875q-0.60937 0.875-0.60937 3.2188z" fill="#000"/>
  <path id="path1219" d="m724.72 270.91h-24v22.772h24z" fill="#cfe2f3" fill-rule="evenodd"/>
  <path id="path1221" d="m724.72 270.91h-24v22.772h24z" fill-rule="evenodd" stroke="#000" stroke-linecap="butt" stroke-linejoin="round"/>
  <path id="path1223" d="m710.26 282.39q0-1.6875 0.34375-2.7188 0.35938-1.0312 1.0469-1.5938t1.7188-0.5625q0.78125 0 1.3594 0.3125 0.57813 0.29688 0.95313 0.89063 0.375 0.57812 0.59375 1.4219 0.21875 0.82813 0.21875 2.25 0 1.6719-0.35938 2.7031-0.34375 1.0312-1.0312 1.5938-0.67187 0.5625-1.7344 0.5625-1.375 0-2.1562-0.98438-0.95313-1.1875-0.95313-3.875zm1.2031 0q0 2.3438 0.54687 3.125 0.5625 0.78125 1.3594 0.78125 0.8125 0 1.3594-0.78125 0.5625-0.78125 0.5625-3.125 0-2.3594-0.5625-3.125-0.54687-0.78125-1.3594-0.78125t-1.2969 0.6875q-0.60937 0.875-0.60937 3.2188z" fill="#000"/>
  <path id="path1225" d="m748.72 270.91h-24v22.772h24z" fill="#cfe2f3" fill-rule="evenodd"/>
  <path id="path1227" d="m748.72 270.91h-24v22.772h24z" fill-rule="evenodd" stroke="#000" stroke-linecap="butt" stroke-linejoin="round"/>
  <path id="path1229" d="m734.26 282.39q0-1.6875 0.34375-2.7188 0.35938-1.0312 1.0469-1.5938t1.7188-0.5625q0.78125 0 1.3594 0.3125 0.57813 0.29688 0.95313 0.89063 0.375 0.57812 0.59375 1.4219 0.21875 0.82813 0.21875 2.25 0 1.6719-0.35938 2.7031-0.34375 1.0312-1.0312 1.5938-0.67187 0.5625-1.7344 0.5625-1.375 0-2.1562-0.98438-0.95313-1.1875-0.95313-3.875zm1.2031 0q0 2.3438 0.54687 3.125 0.5625 0.78125 1.3594 0.78125 0.8125 0 1.3594-0.78125 0.5625-0.78125 0.5625-3.125 0-2.3594-0.5625-3.125-0.54687-0.78125-1.3594-0.78125t-1.2969 0.6875q-0.60937 0.875-0.60937 3.2188z" fill="#000"/>
  <path id="path1231" d="m772.72 270.91h-24v22.772h24z" fill="#cfe2f3" fill-rule="evenodd"/>
  <path id="path1233" d="m772.72 270.91h-24v22.772h24z" fill-rule="evenodd" stroke="#000" stroke-linecap="butt" stroke-linejoin="round"/>
  <path id="path1235" d="m758.26 282.39q0-1.6875 0.34375-2.7188 0.35938-1.0312 1.0469-1.5938t1.7188-0.5625q0.78125 0 1.3594 0.3125 0.57813 0.29688 0.95313 0.89063 0.375 0.57812 0.59375 1.4219 0.21875 0.82813 0.21875 2.25 0 1.6719-0.35938 2.7031-0.34375 1.0312-1.0312 1.5938-0.67187 0.5625-1.7344 0.5625-1.375 0-2.1562-0.98438-0.95313-1.1875-0.95313-3.875zm1.2031 0q0 2.3438 0.54687 3.125 0.5625 0.78125 1.3594 0.78125 0.8125 0 1.3594-0.78125 0.5625-0.78125 0.5625-3.125 0-2.3594-0.5625-3.125-0.54687-0.78125-1.3594-0.78125t-1.2969 0.6875q-0.60937 0.875-0.60937 3.2188z" fill="#000"/>
  <path id="path1237" d="m806.32 270.91h-24v22.772h24z" fill="#cfe2f3" fill-rule="evenodd"/>
  <path id="path1239" d="m806.32 270.91h-24v22.772h24z" fill-rule="evenodd" stroke="#000" stroke-linecap="butt" stroke-linejoin="round"/>
  <path id="path1241" d="m791.86 282.39q0-1.6875 0.34375-2.7188 0.35937-1.0312 1.0469-1.5938t1.7188-0.5625q0.78125 0 1.3594 0.3125 0.57812 0.29688 0.95312 0.89063 0.375 0.57812 0.59375 1.4219 0.21875 0.82813 0.21875 2.25 0 1.6719-0.35937 2.7031-0.34375 1.0312-1.0312 1.5938-0.67188 0.5625-1.7344 0.5625-1.375 0-2.1562-0.98438-0.95312-1.1875-0.95312-3.875zm1.2031 0q0 2.3438 0.54688 3.125 0.5625 0.78125 1.3594 0.78125 0.8125 0 1.3594-0.78125 0.5625-0.78125 0.5625-3.125 0-2.3594-0.5625-3.125-0.54688-0.78125-1.3594-0.78125t-1.2969 0.6875q-0.60938 0.875-0.60938 3.2188z" fill="#000"/>
  <path id="path1243" d="m830.32 270.91h-24v22.772h24z" fill="#cfe2f3" fill-rule="evenodd"/>
  <path id="path1245" d="m830.32 270.91h-24v22.772h24z" fill-rule="evenodd" stroke="#000" stroke-linecap="butt" stroke-linejoin="round"/>
  <path id="path1247" d="m815.86 282.39q0-1.6875 0.34375-2.7188 0.35937-1.0312 1.0469-1.5938t1.7188-0.5625q0.78125 0 1.3594 0.3125 0.57812 0.29688 0.95312 0.89063 0.375 0.57812 0.59375 1.4219 0.21875 0.82813 0.21875 2.25 0 1.6719-0.35937 2.7031-0.34375 1.0312-1.0312 1.5938-0.67188 0.5625-1.7344 0.5625-1.375 0-2.1562-0.98438-0.95312-1.1875-0.95312-3.875zm1.2031 0q0 2.3438 0.54688 3.125 0.5625 0.78125 1.3594 0.78125 0.8125 0 1.3594-0.78125 0.5625-0.78125 0.5625-3.125 0-2.3594-0.5625-3.125-0.54688-0.78125-1.3594-0.78125t-1.2969 0.6875q-0.60938 0.875-0.60938 3.2188z" fill="#000"/>
  <path id="path1249" d="m854.32 270.91h-24v22.772h24z" fill="#cfe2f3" fill-rule="evenodd"/>
  <path id="path1251" d="m854.32 270.91h-24v22.772h24z" fill-rule="evenodd" stroke="#000" stroke-linecap="butt" stroke-linejoin="round"/>
  <path id="path1253" d="m839.86 282.39q0-1.6875 0.34375-2.7188 0.35937-1.0312 1.0469-1.5938t1.7188-0.5625q0.78125 0 1.3594 0.3125 0.57812 0.29688 0.95312 0.89063 0.375 0.57812 0.59375 1.4219 0.21875 0.82813 0.21875 2.25 0 1.6719-0.35937 2.7031-0.34375 1.0312-1.0312 1.5938-0.67188 0.5625-1.7344 0.5625-1.375 0-2.1562-0.98438-0.95312-1.1875-0.95312-3.875zm1.2031 0q0 2.3438 0.54688 3.125 0.5625 0.78125 1.3594 0.78125 0.8125 0 1.3594-0.78125 0.5625-0.78125 0.5625-3.125 0-2.3594-0.5625-3.125-0.54688-0.78125-1.3594-0.78125t-1.2969 0.6875q-0.60938 0.875-0.60938 3.2188z" fill="#000"/>
  <path id="path1255" d="m878.32 270.91h-24v22.772h24z" fill="#cfe2f3" fill-rule="evenodd"/>
  <path id="path1257" d="m878.32 270.91h-24v22.772h24z" fill-rule="evenodd" stroke="#000" stroke-linecap="butt" stroke-linejoin="round"/>
  <path id="path1259" d="m863.86 282.39q0-1.6875 0.34375-2.7188 0.35937-1.0312 1.0469-1.5938t1.7188-0.5625q0.78125 0 1.3594 0.3125 0.57812 0.29688 0.95312 0.89063 0.375 0.57812 0.59375 1.4219 0.21875 0.82813 0.21875 2.25 0 1.6719-0.35937 2.7031-0.34375 1.0312-1.0312 1.5938-0.67188 0.5625-1.7344 0.5625-1.375 0-2.1562-0.98438-0.95312-1.1875-0.95312-3.875zm1.2031 0q0 2.3438 0.54688 3.125 0.5625 0.78125 1.3594 0.78125 0.8125 0 1.3594-0.78125 0.5625-0.78125 0.5625-3.125 0-2.3594-0.5625-3.125-0.54688-0.78125-1.3594-0.78125t-1.2969 0.6875q-0.60938 0.875-0.60938 3.2188z" fill="#000"/>
  <path id="path1261" d="m902.32 270.91h-24v22.772h24z" fill="#cfe2f3" fill-rule="evenodd"/>
  <path id="path1263" d="m902.32 270.91h-24v22.772h24z" fill-rule="evenodd" stroke="#000" stroke-linecap="butt" stroke-linejoin="round"/>
  <path id="path1265" d="m887.86 282.39q0-1.6875 0.34375-2.7188 0.35937-1.0312 1.0469-1.5938t1.7188-0.5625q0.78125 0 1.3594 0.3125 0.57812 0.29688 0.95312 0.89063 0.375 0.57812 0.59375 1.4219 0.21875 0.82813 0.21875 2.25 0 1.6719-0.35937 2.7031-0.34375 1.0312-1.0312 1.5938-0.67188 0.5625-1.7344 0.5625-1.375 0-2.1562-0.98438-0.95312-1.1875-0.95312-3.875zm1.2031 0q0 2.3438 0.54688 3.125 0.5625 0.78125 1.3594 0.78125 0.8125 0 1.3594-0.78125 0.5625-0.78125 0.5625-3.125 0-2.3594-0.5625-3.125-0.54688-0.78125-1.3594-0.78125t-1.2969 0.6875q-0.60938 0.875-0.60938 3.2188z" fill="#000"/>
  <path id="path1267" d="m926.32 270.91h-24v22.772h24z" fill="#cfe2f3" fill-rule="evenodd"/>
  <path id="path1269" d="m926.32 270.91h-24v22.772h24z" fill-rule="evenodd" stroke="#000" stroke-linecap="butt" stroke-linejoin="round"/>
  <path id="path1271" d="m911.86 282.39q0-1.6875 0.34375-2.7188 0.35937-1.0312 1.0469-1.5938t1.7188-0.5625q0.78125 0 1.3594 0.3125 0.57812 0.29688 0.95312 0.89063 0.375 0.57812 0.59375 1.4219 0.21875 0.82813 0.21875 2.25 0 1.6719-0.35937 2.7031-0.34375 1.0312-1.0312 1.5938-0.67188 0.5625-1.7344 0.5625-1.375 0-2.1562-0.98438-0.95312-1.1875-0.95312-3.875zm1.2031 0q0 2.3438 0.54688 3.125 0.5625 0.78125 1.3594 0.78125 0.8125 0 1.3594-0.78125 0.5625-0.78125 0.5625-3.125 0-2.3594-0.5625-3.125-0.54688-0.78125-1.3594-0.78125t-1.2969 0.6875q-0.60938 0.875-0.60938 3.2188z" fill="#000"/>
  <path id="path1273" d="m950.32 270.91h-24v22.772h24z" fill="#cfe2f3" fill-rule="evenodd"/>
  <path id="path1275" d="m950.32 270.91h-24v22.772h24z" fill-rule="evenodd" stroke="#000" stroke-linecap="butt" stroke-linejoin="round"/>
  <path id="path1277" d="m935.86 282.39q0-1.6875 0.34375-2.7188 0.35937-1.0312 1.0469-1.5938t1.7188-0.5625q0.78125 0 1.3594 0.3125 0.57812 0.29688 0.95312 0.89063 0.375 0.57812 0.59375 1.4219 0.21875 0.82813 0.21875 2.25 0 1.6719-0.35937 2.7031-0.34375 1.0312-1.0312 1.5938-0.67188 0.5625-1.7344 0.5625-1.375 0-2.1562-0.98438-0.95312-1.1875-0.95312-3.875zm1.2031 0q0 2.3438 0.54688 3.125 0.5625 0.78125 1.3594 0.78125 0.8125 0 1.3594-0.78125 0.5625-0.78125 0.5625-3.125 0-2.3594-0.5625-3.125-0.54688-0.78125-1.3594-0.78125t-1.2969 0.6875q-0.60938 0.875-0.60938 3.2188z" fill="#000"/>
  <path id="path1279" d="m974.32 270.91h-24v22.772h24z" fill="#cfe2f3" fill-rule="evenodd"/>
  <path id="path1281" d="m974.32 270.91h-24v22.772h24z" fill-rule="evenodd" stroke="#000" stroke-linecap="butt" stroke-linejoin="round"/>
  <path id="path1283" d="m959.86 282.39q0-1.6875 0.34375-2.7188 0.35937-1.0312 1.0469-1.5938t1.7188-0.5625q0.78125 0 1.3594 0.3125 0.57812 0.29688 0.95312 0.89063 0.375 0.57812 0.59375 1.4219 0.21875 0.82813 0.21875 2.25 0 1.6719-0.35937 2.7031-0.34375 1.0312-1.0312 1.5938-0.67188 0.5625-1.7344 0.5625-1.375 0-2.1562-0.98438-0.95312-1.1875-0.95312-3.875zm1.2031 0q0 2.3438 0.54688 3.125 0.5625 0.78125 1.3594 0.78125 0.8125 0 1.3594-0.78125 0.5625-0.78125 0.5625-3.125 0-2.3594-0.5625-3.125-0.54688-0.78125-1.3594-0.78125t-1.2969 0.6875q-0.60938 0.875-0.60938 3.2188z" fill="#000"/>
  <path id="path1285" d="m973.56 265.69c0-5.3054-4.3009-9.6063-9.6063-9.6063h-378.6c-5.3054 0-9.6063-4.3009-9.6063-9.6063 0 5.3054-4.3009 9.6063-9.6063 9.6063h-378.6c-5.3054 0-9.6063 4.3009-9.6063 9.6063z" fill="#000" fill-opacity="0" fill-rule="evenodd"/>
  <path id="path1287" d="m973.56 265.69c0-5.3054-4.3009-9.6063-9.6063-9.6063h-378.6c-5.3054 0-9.6063-4.3009-9.6063-9.6063 0 5.3054-4.3009 9.6063-9.6063 9.6063h-378.6c-5.3054 0-9.6063 4.3009-9.6063 9.6063" fill="#000" fill-opacity="0" fill-rule="evenodd"/>
  <path id="path1289" d="m973.56 265.69c0-5.3054-4.3009-9.6063-9.6063-9.6063h-378.6c-5.3054 0-9.6063-4.3009-9.6063-9.6063 0 5.3054-4.3009 9.6063-9.6063 9.6063h-378.6c-5.3054 0-9.6063 4.3009-9.6063 9.6063" fill-rule="evenodd" stroke="#000" stroke-linecap="butt" stroke-linejoin="round"/>
  <path id="path1291" d="m521.29 212.95h108.91v35.559h-108.91z" fill="#000" fill-opacity="0" fill-rule="evenodd"/>
  <path id="path1293" d="m561.47 237.41v-12.203h2.5781v0.96875h-1.4062v10.25h1.4062v0.98438zm3.8436-2.6562v-9.5469h4.2344q1.2656 0 1.9219 0.26563 0.67187 0.25 1.0625 0.90625 0.40625 0.65625 0.40625 1.4375 0 1.0156-0.65625 1.7188-0.65625 0.6875-2.0312 0.875 0.5 0.25 0.76562 0.48437 0.54688 0.5 1.0469 1.2656l1.6562 2.5938h-1.5781l-1.2656-1.9844q-0.5625-0.85937-0.92188-1.3125-0.34375-0.45312-0.64062-0.64062-0.28125-0.1875-0.5625-0.25-0.21875-0.0469-0.70313-0.0469h-1.4688v4.2344zm1.2656-5.3281h2.7188q0.85938 0 1.3438-0.17187 0.48438-0.1875 0.73438-0.57813 0.26562-0.39062 0.26562-0.85937 0-0.67188-0.5-1.1094-0.48437-0.4375-1.5469-0.4375h-3.0156zm8.3439 5.3281v-9.5469h3.2812q1.1094 0 1.7031 0.14063 0.8125 0.1875 1.3906 0.6875 0.76563 0.64062 1.1406 1.6406 0.375 0.98438 0.375 2.25 0 1.0938-0.26563 1.9375-0.25 0.82813-0.65625 1.3906-0.39062 0.54687-0.85937 0.85937t-1.1406 0.48438q-0.65625 0.15625-1.5312 0.15625zm1.2656-1.125h2.0312q0.9375 0 1.4688-0.17188 0.54687-0.1875 0.875-0.5 0.4375-0.45312 0.6875-1.2031 0.25-0.76563 0.25-1.8438 0-1.5-0.5-2.2969-0.48438-0.8125-1.1875-1.0781-0.5-0.20313-1.625-0.20313h-2zm8.5782 1.125v-9.5469h1.25v9.5469zm5.2968 2.6562h-2.5938v-0.98438h1.4219v-10.25h-1.4219v-0.96875h2.5938z" fill="#000"/>
  <path id="path1295" d="m191.19 311.33v67.905" fill="#000" fill-opacity="0" fill-rule="evenodd"/>
  <path id="path1297" d="m191.19 311.33v61.905" fill-rule="evenodd" stroke="#000" stroke-linecap="butt" stroke-linejoin="round"/>
  <path id="path1299" d="m189.53 373.24 1.6517 4.5381 1.6517-4.5381z" fill="#000" fill-rule="evenodd" stroke="#000" stroke-linecap="butt"/>
  <path id="path1301" d="m229.86 324.28h149.26v42.016h-149.26z" fill="#000" fill-opacity="0" fill-rule="evenodd"/>
  <path id="path1303" d="m246.4 347.65 1.6094 0.21875q-0.26562 1.6562-1.3594 2.6094-1.0781 0.9375-2.6719 0.9375-1.9844 0-3.1875-1.2969-1.2031-1.2969-1.2031-3.7188 0-1.5781 0.51562-2.75 0.51563-1.1719 1.5781-1.75 1.0625-0.59375 2.3125-0.59375 1.5781 0 2.5781 0.79687 1 0.79688 1.2812 2.2656l-1.5938 0.23437q-0.23437-0.96875-0.8125-1.4531-0.57812-0.5-1.3906-0.5-1.2344 0-2.0156 0.89062-0.78125 0.89063-0.78125 2.8125 0 1.9531 0.75 2.8438 0.75 0.875 1.9531 0.875 0.96875 0 1.6094-0.59375 0.65625-0.59375 0.82813-1.8281zm2.4062-1.2969q0-2.6875 1.4844-3.9688 1.25-1.0781 3.0469-1.0781 2 0 3.2656 1.3125 1.2656 1.2969 1.2656 3.6094 0 1.8594-0.5625 2.9375-0.5625 1.0625-1.6406 1.6562-1.0625 0.59375-2.3281 0.59375-2.0312 0-3.2812-1.2969-1.25-1.3125-1.25-3.7656zm1.6875 0q0 1.8594 0.79687 2.7969 0.8125 0.92187 2.0469 0.92187 1.2188 0 2.0312-0.92187 0.81252-0.9375 0.81252-2.8438 0-1.7969-0.81252-2.7188-0.8125-0.92188-2.0312-0.92188-1.2344 0-2.0469 0.92188-0.79687 0.90625-0.79687 2.7656zm9.2976 4.8438v-9.6719h1.4688v1.3594q0.45313-0.71875 1.2031-1.1406 0.76562-0.4375 1.7188-0.4375 1.0781 0 1.7656 0.45312 0.6875 0.4375 0.96875 1.2344 1.1562-1.6875 2.9844-1.6875 1.4531 0 2.2188 0.79687 0.78125 0.79688 0.78125 2.4531v6.6406h-1.6406v-6.0938q0-0.98437-0.15625-1.4062-0.15625-0.4375-0.57812-0.70312-0.42188-0.26563-0.98438-0.26563-1.0156 0-1.6875 0.6875-0.67187 0.67188-0.67187 2.1562v5.625h-1.6406v-6.2812q0-1.0938-0.40625-1.6406-0.40625-0.54688-1.3125-0.54688-0.6875 0-1.2812 0.35938-0.59375 0.35937-0.85937 1.0625-0.25 0.70312-0.25 2.0312v5.0156zm15.541 3.7031v-13.375h1.4844v1.25q0.53125-0.73438 1.1875-1.0938 0.67187-0.375 1.625-0.375 1.2344 0 2.1719 0.64062 0.95313 0.625 1.4375 1.7969 0.48438 1.1562 0.48438 2.5469 0 1.4844-0.53125 2.6719t-1.5469 1.8281q-1.0156 0.625-2.1406 0.625-0.8125 0-1.4688-0.34375t-1.0625-0.875v4.7031zm1.4844-8.4844q0 1.8594 0.75 2.7656 0.76562 0.89062 1.8281 0.89062 1.0938 0 1.875-0.92187 0.78125-0.9375 0.78125-2.875 0-1.8438-0.76562-2.7656-0.75-0.92187-1.8125-0.92187-1.0469 0-1.8594 0.98437-0.79687 0.96875-0.79687 2.8438zm15.204 3.5938q-0.92188 0.76563-1.7656 1.0938-0.82812 0.3125-1.7969 0.3125-1.5938 0-2.4531-0.78125-0.85937-0.78125-0.85937-1.9844 0-0.71875 0.32812-1.2969 0.32813-0.59375 0.84375-0.9375 0.53125-0.35937 1.1875-0.54687 0.46875-0.125 1.4531-0.25 1.9844-0.23438 2.9219-0.5625 0.0156-0.34375 0.0156-0.42188 0-1-0.46875-1.4219-0.625-0.54688-1.875-0.54688-1.1562 0-1.7031 0.40625-0.54687 0.40625-0.8125 1.4219l-1.6094-0.21875q0.21875-1.0156 0.71875-1.6406 0.5-0.64062 1.4531-0.98437 0.95313-0.34375 2.1875-0.34375 1.25 0 2.0156 0.29687 0.78125 0.28125 1.1406 0.73438 0.375 0.4375 0.51563 1.1094 0.0781 0.42188 0.0781 1.5156v2.1875q0 2.2812 0.10938 2.8906 0.10937 0.59375 0.40625 1.1562h-1.7031q-0.26562-0.51562-0.32812-1.1875zm-0.14063-3.6719q-0.89062 0.375-2.6719 0.625-1.0156 0.14062-1.4375 0.32812-0.42188 0.1875-0.65625 0.53125-0.21875 0.34375-0.21875 0.78125 0 0.65625 0.5 1.0938t1.4531 0.4375q0.9375 0 1.6719-0.40625 0.75-0.42187 1.0938-1.1406 0.26562-0.5625 0.26562-1.6406zm4.1882 4.8594v-9.6719h1.4688v1.4688q0.5625-1.0312 1.0312-1.3594 0.48438-0.32812 1.0625-0.32812 0.82813 0 1.6875 0.53125l-0.5625 1.5156q-0.60937-0.35937-1.2031-0.35937-0.54688 0-0.96875 0.32812-0.42188 0.32813-0.60938 0.89063-0.28125 0.875-0.28125 1.9219v5.0625zm12.853-3.1094 1.6875 0.20312q-0.40625 1.4844-1.4844 2.3125-1.0781 0.8125-2.7656 0.8125-2.125 0-3.375-1.2969-1.2344-1.3125-1.2344-3.6719 0-2.4531 1.25-3.7969 1.2656-1.3438 3.2656-1.3438 1.9375 0 3.1562 1.3281 1.2344 1.3125 1.2344 3.7031 0 0.15625 0 0.4375h-7.2188q0.0937 1.5938 0.90625 2.4531 0.8125 0.84375 2.0156 0.84375 0.90625 0 1.5469-0.46875 0.64062-0.48437 1.0156-1.5156zm-5.3906-2.6562h5.4062q-0.10938-1.2188-0.625-1.8281-0.78125-0.95312-2.0312-0.95312-1.125 0-1.9062 0.76562-0.76563 0.75-0.84375 2.0156z" fill="#000"/>
  <path id="path1305" d="m191.19 467.73v67.906" fill="#000" fill-opacity="0" fill-rule="evenodd"/>
  <path id="path1307" d="m191.19 467.73v61.906" fill-rule="evenodd" stroke="#000" stroke-linecap="butt" stroke-linejoin="round"/>
  <path id="path1309" d="m189.53 529.64 1.6517 4.5381 1.6517-4.5381z" fill="#000" fill-rule="evenodd" stroke="#000" stroke-linecap="butt"/>
  <path id="path1311" d="m229.86 480.68h149.26v42.016h-149.26z" fill="#000" fill-opacity="0" fill-rule="evenodd"/>
  <path id="path1313" d="m240.07 507.6v-9.6719h1.4688v1.4688q0.5625-1.0312 1.0312-1.3594 0.48437-0.32813 1.0625-0.32813 0.82812 0 1.6875 0.53125l-0.5625 1.5156q-0.60938-0.35938-1.2031-0.35938-0.54687 0-0.96875 0.32813-0.42187 0.32812-0.60937 0.89062-0.28125 0.875-0.28125 1.9219v5.0625zm12.853-3.1094 1.6875 0.20313q-0.40625 1.4844-1.4844 2.3125-1.0781 0.8125-2.7656 0.8125-2.125 0-3.375-1.2969-1.2344-1.3125-1.2344-3.6719 0-2.4531 1.25-3.7969 1.2656-1.3438 3.2656-1.3438 1.9375 0 3.1562 1.3281 1.2344 1.3125 1.2344 3.7031 0 0.15625 0 0.4375h-7.2188q0.0937 1.5938 0.90625 2.4531 0.8125 0.84375 2.0156 0.84375 0.90625 0 1.5469-0.46875 0.64062-0.48438 1.0156-1.5156zm-5.3906-2.6562h5.4062q-0.10938-1.2188-0.625-1.8281-0.78125-0.95313-2.0312-0.95313-1.125 0-1.9062 0.76563-0.76563 0.75-0.84375 2.0156zm8.4851 2.875 1.625-0.25q0.125 0.96875 0.75 1.5 0.625 0.51563 1.75 0.51563t1.6719-0.45313q0.54688-0.46875 0.54688-1.0938 0-0.54687-0.48438-0.875-0.32812-0.21875-1.6719-0.54687-1.8125-0.46875-2.5156-0.79688-0.6875-0.32812-1.0469-0.90625-0.35938-0.59375-0.35938-1.3125 0-0.64062 0.29688-1.1875 0.29687-0.5625 0.8125-0.92187 0.375-0.28125 1.0312-0.46875 0.67187-0.20313 1.4219-0.20313 1.1406 0 2 0.32813 0.85938 0.32812 1.2656 0.89062 0.42187 0.5625 0.57812 1.5l-1.6094 0.21875q-0.10938-0.75-0.64063-1.1719-0.51562-0.42188-1.4688-0.42188-1.1406 0-1.625 0.375-0.46875 0.375-0.46875 0.875 0 0.3125 0.1875 0.57813 0.20313 0.26562 0.64063 0.4375 0.23437 0.0937 1.4375 0.42187 1.75 0.45313 2.4375 0.75 0.6875 0.29688 1.0781 0.85938 0.39063 0.5625 0.39063 1.4062 0 0.82812-0.48438 1.5469-0.46875 0.71875-1.375 1.125-0.90625 0.39063-2.0469 0.39063-1.875 0-2.875-0.78125-0.98438-0.78125-1.25-2.3281zm16.312 2.8906v-1.4219q-1.125 1.6406-3.0625 1.6406-0.85938 0-1.6094-0.32813-0.73437-0.32812-1.0938-0.82812-0.35937-0.5-0.5-1.2188-0.10937-0.46875-0.10937-1.5312v-5.9844h1.6406v5.3594q0 1.2812 0.10938 1.7344 0.15625 0.64063 0.65625 1.0156t1.2344 0.375q0.73438 0 1.375-0.375 0.65625-0.39063 0.92188-1.0312 0.26562-0.65625 0.26562-1.8906v-5.1875h1.6406v9.6719zm4.0007 0v-13.359h1.6406v13.359zm7.7698-1.4688 0.23437 1.4531q-0.6875 0.14063-1.2344 0.14063-0.89063 0-1.3906-0.28125-0.48437-0.28125-0.6875-0.73438-0.20312-0.46875-0.20312-1.9375v-5.5781h-1.2031v-1.2656h1.2031v-2.3906l1.625-0.98438v3.375h1.6562v1.2656h-1.6562v5.6719q0 0.6875 0.0781 0.89063 0.0937 0.20312 0.28125 0.32812 0.20313 0.10938 0.57813 0.10938 0.26562 0 0.71875-0.0625z" fill="#000"/>
 </g>
</svg>
