<?xml version="1.0" encoding="UTF-8"?>
<svg id="svg5342" width="797.8" height="264.68" fill="none" stroke-linecap="square" stroke-miterlimit="10" version="1.1" viewBox="0 0 797.8 264.68" xmlns="http://www.w3.org/2000/svg">
 <clipPath id="p.0">
  <path id="path4911" d="m0 0h1152v864h-1152z"/>
 </clipPath>
 <g id="g5340" transform="translate(-193.29 -358.63)" clip-path="url(#p.0)">
  <path id="path4916" d="m217.79 545.74h-24v22.772h24z" fill="#f4cccc" fill-rule="evenodd"/>
  <path id="path4918" d="m217.79 545.74h-24v22.772h24z" fill-rule="evenodd" stroke="#000" stroke-linecap="butt" stroke-linejoin="round"/>
  <path id="path4920" d="m203.33 557.22q0-1.6875 0.34375-2.7188 0.35937-1.0312 1.0469-1.5938t1.7188-0.5625q0.78125 0 1.3594 0.3125 0.57812 0.29688 0.95312 0.89063 0.375 0.57812 0.59375 1.4219 0.21875 0.82813 0.21875 2.25 0 1.6719-0.35937 2.7031-0.34375 1.0312-1.0312 1.5938-0.67188 0.5625-1.7344 0.5625-1.375 0-2.1562-0.98438-0.95312-1.1875-0.95312-3.875zm1.2031 0q0 2.3438 0.54688 3.125 0.5625 0.78125 1.3594 0.78125 0.8125 0 1.3594-0.78125 0.5625-0.78125 0.5625-3.125 0-2.3594-0.5625-3.125-0.54688-0.78125-1.3594-0.78125t-1.2969 0.6875q-0.60938 0.875-0.60938 3.2188z" fill="#000"/>
  <path id="path4922" d="m241.79 545.74h-24v22.772h24z" fill="#f4cccc" fill-rule="evenodd"/>
  <path id="path4924" d="m241.79 545.74h-24v22.772h24z" fill-rule="evenodd" stroke="#000" stroke-linecap="butt" stroke-linejoin="round"/>
  <path id="path4926" d="m227.33 557.22q0-1.6875 0.34375-2.7188 0.35937-1.0312 1.0469-1.5938t1.7188-0.5625q0.78125 0 1.3594 0.3125 0.57812 0.29688 0.95312 0.89063 0.375 0.57812 0.59375 1.4219 0.21875 0.82813 0.21875 2.25 0 1.6719-0.35937 2.7031-0.34375 1.0312-1.0312 1.5938-0.67188 0.5625-1.7344 0.5625-1.375 0-2.1562-0.98438-0.95312-1.1875-0.95312-3.875zm1.2031 0q0 2.3438 0.54688 3.125 0.5625 0.78125 1.3594 0.78125 0.8125 0 1.3594-0.78125 0.5625-0.78125 0.5625-3.125 0-2.3594-0.5625-3.125-0.54688-0.78125-1.3594-0.78125t-1.2969 0.6875q-0.60938 0.875-0.60938 3.2188z" fill="#000"/>
  <path id="path4928" d="m265.79 545.74h-24v22.772h24z" fill="#f4cccc" fill-rule="evenodd"/>
  <path id="path4930" d="m265.79 545.74h-24v22.772h24z" fill-rule="evenodd" stroke="#000" stroke-linecap="butt" stroke-linejoin="round"/>
  <path id="path4932" d="m251.33 557.22q0-1.6875 0.34375-2.7188 0.35937-1.0312 1.0469-1.5938t1.7188-0.5625q0.78125 0 1.3594 0.3125 0.57814 0.29688 0.95314 0.89063 0.375 0.57812 0.59375 1.4219 0.21875 0.82813 0.21875 2.25 0 1.6719-0.35937 2.7031-0.34375 1.0312-1.0312 1.5938-0.6719 0.5625-1.7344 0.5625-1.375 0-2.1562-0.98438-0.95312-1.1875-0.95312-3.875zm1.2031 0q0 2.3438 0.54688 3.125 0.5625 0.78125 1.3594 0.78125 0.8125 0 1.3594-0.78125 0.56252-0.78125 0.56252-3.125 0-2.3594-0.56252-3.125-0.54688-0.78125-1.3594-0.78125t-1.2969 0.6875q-0.60938 0.875-0.60938 3.2188z" fill="#000"/>
  <path id="path4934" d="m289.79 545.74h-24v22.772h24z" fill="#f4cccc" fill-rule="evenodd"/>
  <path id="path4936" d="m289.79 545.74h-24v22.772h24z" fill-rule="evenodd" stroke="#000" stroke-linecap="butt" stroke-linejoin="round"/>
  <path id="path4938" d="m275.33 557.22q0-1.6875 0.34375-2.7188 0.35937-1.0312 1.0469-1.5938t1.7188-0.5625q0.78125 0 1.3594 0.3125 0.57812 0.29688 0.95312 0.89063 0.375 0.57812 0.59375 1.4219 0.21875 0.82813 0.21875 2.25 0 1.6719-0.35937 2.7031-0.34375 1.0312-1.0312 1.5938-0.67188 0.5625-1.7344 0.5625-1.375 0-2.1562-0.98438-0.95312-1.1875-0.95312-3.875zm1.2031 0q0 2.3438 0.54688 3.125 0.5625 0.78125 1.3594 0.78125 0.8125 0 1.3594-0.78125 0.5625-0.78125 0.5625-3.125 0-2.3594-0.5625-3.125-0.54688-0.78125-1.3594-0.78125t-1.2969 0.6875q-0.60938 0.875-0.60938 3.2188z" fill="#000"/>
  <path id="path4940" d="m313.79 545.74h-24v22.772h24z" fill="#f4cccc" fill-rule="evenodd"/>
  <path id="path4942" d="m313.79 545.74h-24v22.772h24z" fill-rule="evenodd" stroke="#000" stroke-linecap="butt" stroke-linejoin="round"/>
  <path id="path4944" d="m299.33 557.22q0-1.6875 0.34375-2.7188 0.35937-1.0312 1.0469-1.5938t1.7188-0.5625q0.78125 0 1.3594 0.3125 0.57812 0.29688 0.95312 0.89063 0.375 0.57812 0.59375 1.4219 0.21875 0.82813 0.21875 2.25 0 1.6719-0.35937 2.7031-0.34375 1.0312-1.0312 1.5938-0.67188 0.5625-1.7344 0.5625-1.375 0-2.1562-0.98438-0.95312-1.1875-0.95312-3.875zm1.2031 0q0 2.3438 0.54688 3.125 0.5625 0.78125 1.3594 0.78125 0.8125 0 1.3594-0.78125 0.5625-0.78125 0.5625-3.125 0-2.3594-0.5625-3.125-0.54688-0.78125-1.3594-0.78125t-1.2969 0.6875q-0.60938 0.875-0.60938 3.2188z" fill="#000"/>
  <path id="path4946" d="m337.79 545.74h-24v22.772h24z" fill="#f4cccc" fill-rule="evenodd"/>
  <path id="path4948" d="m337.79 545.74h-24v22.772h24z" fill-rule="evenodd" stroke="#000" stroke-linecap="butt" stroke-linejoin="round"/>
  <path id="path4950" d="m323.33 557.22q0-1.6875 0.34375-2.7188 0.35937-1.0312 1.0469-1.5938t1.7188-0.5625q0.78125 0 1.3594 0.3125 0.57812 0.29688 0.95312 0.89063 0.375 0.57812 0.59375 1.4219 0.21875 0.82813 0.21875 2.25 0 1.6719-0.35937 2.7031-0.34375 1.0312-1.0312 1.5938-0.67188 0.5625-1.7344 0.5625-1.375 0-2.1562-0.98438-0.95312-1.1875-0.95312-3.875zm1.2031 0q0 2.3438 0.54688 3.125 0.5625 0.78125 1.3594 0.78125 0.8125 0 1.3594-0.78125 0.5625-0.78125 0.5625-3.125 0-2.3594-0.5625-3.125-0.54688-0.78125-1.3594-0.78125t-1.2969 0.6875q-0.60938 0.875-0.60938 3.2188z" fill="#000"/>
  <path id="path4952" d="m361.79 545.74h-24v22.772h24z" fill="#f4cccc" fill-rule="evenodd"/>
  <path id="path4954" d="m361.79 545.74h-24v22.772h24z" fill-rule="evenodd" stroke="#000" stroke-linecap="butt" stroke-linejoin="round"/>
  <path id="path4956" d="m347.33 557.22q0-1.6875 0.34375-2.7188 0.35937-1.0312 1.0469-1.5938t1.7188-0.5625q0.78125 0 1.3594 0.3125 0.57812 0.29688 0.95312 0.89063 0.375 0.57812 0.59375 1.4219 0.21875 0.82813 0.21875 2.25 0 1.6719-0.35937 2.7031-0.34375 1.0312-1.0312 1.5938-0.67188 0.5625-1.7344 0.5625-1.375 0-2.1562-0.98438-0.95312-1.1875-0.95312-3.875zm1.2031 0q0 2.3438 0.54688 3.125 0.5625 0.78125 1.3594 0.78125 0.8125 0 1.3594-0.78125 0.5625-0.78125 0.5625-3.125 0-2.3594-0.5625-3.125-0.54688-0.78125-1.3594-0.78125t-1.2969 0.6875q-0.60938 0.875-0.60938 3.2188z" fill="#000"/>
  <path id="path4958" d="m385.79 545.74h-24v22.772h24z" fill="#f4cccc" fill-rule="evenodd"/>
  <path id="path4960" d="m385.79 545.74h-24v22.772h24z" fill-rule="evenodd" stroke="#000" stroke-linecap="butt" stroke-linejoin="round"/>
  <path id="path4962" d="m371.33 557.22q0-1.6875 0.34375-2.7188 0.35937-1.0312 1.0469-1.5938t1.7188-0.5625q0.78125 0 1.3594 0.3125 0.57812 0.29688 0.95312 0.89063 0.375 0.57812 0.59375 1.4219 0.21875 0.82813 0.21875 2.25 0 1.6719-0.35937 2.7031-0.34375 1.0312-1.0312 1.5938-0.67188 0.5625-1.7344 0.5625-1.375 0-2.1562-0.98438-0.95312-1.1875-0.95312-3.875zm1.2031 0q0 2.3438 0.54688 3.125 0.5625 0.78125 1.3594 0.78125 0.8125 0 1.3594-0.78125 0.5625-0.78125 0.5625-3.125 0-2.3594-0.5625-3.125-0.54688-0.78125-1.3594-0.78125t-1.2969 0.6875q-0.60938 0.875-0.60938 3.2188z" fill="#000"/>
  <path id="path4964" d="m419.39 545.74h-24v22.772h24z" fill="#f4cccc" fill-rule="evenodd"/>
  <path id="path4966" d="m419.39 545.74h-24v22.772h24z" fill-rule="evenodd" stroke="#000" stroke-linecap="butt" stroke-linejoin="round"/>
  <path id="path4968" d="m404.94 557.22q0-1.6875 0.34375-2.7188 0.35938-1.0312 1.0469-1.5938t1.7188-0.5625q0.78125 0 1.3594 0.3125 0.57813 0.29688 0.95313 0.89063 0.375 0.57812 0.59375 1.4219 0.21875 0.82813 0.21875 2.25 0 1.6719-0.35938 2.7031-0.34375 1.0312-1.0312 1.5938-0.67187 0.5625-1.7344 0.5625-1.375 0-2.1562-0.98438-0.95313-1.1875-0.95313-3.875zm1.2031 0q0 2.3438 0.54687 3.125 0.5625 0.78125 1.3594 0.78125 0.8125 0 1.3594-0.78125 0.5625-0.78125 0.5625-3.125 0-2.3594-0.5625-3.125-0.54687-0.78125-1.3594-0.78125t-1.2969 0.6875q-0.60937 0.875-0.60937 3.2188z" fill="#000"/>
  <path id="path4970" d="m443.39 545.74h-24v22.772h24z" fill="#f4cccc" fill-rule="evenodd"/>
  <path id="path4972" d="m443.39 545.74h-24v22.772h24z" fill-rule="evenodd" stroke="#000" stroke-linecap="butt" stroke-linejoin="round"/>
  <path id="path4974" d="m428.94 557.22q0-1.6875 0.34375-2.7188 0.35938-1.0312 1.0469-1.5938t1.7188-0.5625q0.78125 0 1.3594 0.3125 0.57813 0.29688 0.95313 0.89063 0.375 0.57812 0.59375 1.4219 0.21875 0.82813 0.21875 2.25 0 1.6719-0.35938 2.7031-0.34375 1.0312-1.0312 1.5938-0.67187 0.5625-1.7344 0.5625-1.375 0-2.1562-0.98438-0.95313-1.1875-0.95313-3.875zm1.2031 0q0 2.3438 0.54687 3.125 0.5625 0.78125 1.3594 0.78125 0.8125 0 1.3594-0.78125 0.5625-0.78125 0.5625-3.125 0-2.3594-0.5625-3.125-0.54687-0.78125-1.3594-0.78125t-1.2969 0.6875q-0.60937 0.875-0.60937 3.2188z" fill="#000"/>
  <path id="path4976" d="m467.39 545.74h-24v22.772h24z" fill="#f4cccc" fill-rule="evenodd"/>
  <path id="path4978" d="m467.39 545.74h-24v22.772h24z" fill-rule="evenodd" stroke="#000" stroke-linecap="butt" stroke-linejoin="round"/>
  <path id="path4980" d="m452.94 557.22q0-1.6875 0.34375-2.7188 0.35938-1.0312 1.0469-1.5938t1.7188-0.5625q0.78125 0 1.3594 0.3125 0.57813 0.29688 0.95313 0.89063 0.375 0.57812 0.59375 1.4219 0.21875 0.82813 0.21875 2.25 0 1.6719-0.35938 2.7031-0.34375 1.0312-1.0312 1.5938-0.67187 0.5625-1.7344 0.5625-1.375 0-2.1562-0.98438-0.95313-1.1875-0.95313-3.875zm1.2031 0q0 2.3438 0.54687 3.125 0.5625 0.78125 1.3594 0.78125 0.8125 0 1.3594-0.78125 0.5625-0.78125 0.5625-3.125 0-2.3594-0.5625-3.125-0.54687-0.78125-1.3594-0.78125t-1.2969 0.6875q-0.60937 0.875-0.60937 3.2188z" fill="#000"/>
  <path id="path4982" d="m491.39 545.74h-24v22.772h24z" fill="#f4cccc" fill-rule="evenodd"/>
  <path id="path4984" d="m491.39 545.74h-24v22.772h24z" fill-rule="evenodd" stroke="#000" stroke-linecap="butt" stroke-linejoin="round"/>
  <path id="path4986" d="m476.94 557.22q0-1.6875 0.34375-2.7188 0.35938-1.0312 1.0469-1.5938t1.7188-0.5625q0.78125 0 1.3594 0.3125 0.57813 0.29688 0.95313 0.89063 0.375 0.57812 0.59375 1.4219 0.21875 0.82813 0.21875 2.25 0 1.6719-0.35938 2.7031-0.34375 1.0312-1.0312 1.5938-0.67187 0.5625-1.7344 0.5625-1.375 0-2.1562-0.98438-0.95313-1.1875-0.95313-3.875zm1.2031 0q0 2.3438 0.54687 3.125 0.5625 0.78125 1.3594 0.78125 0.8125 0 1.3594-0.78125 0.5625-0.78125 0.5625-3.125 0-2.3594-0.5625-3.125-0.54687-0.78125-1.3594-0.78125t-1.2969 0.6875q-0.60937 0.875-0.60937 3.2188z" fill="#000"/>
  <path id="path4988" d="m515.39 545.74h-24v22.772h24z" fill="#f4cccc" fill-rule="evenodd"/>
  <path id="path4990" d="m515.39 545.74h-24v22.772h24z" fill-rule="evenodd" stroke="#000" stroke-linecap="butt" stroke-linejoin="round"/>
  <path id="path4992" d="m500.94 557.22q0-1.6875 0.34375-2.7188 0.35938-1.0312 1.0469-1.5938t1.7188-0.5625q0.78125 0 1.3594 0.3125 0.57813 0.29688 0.95313 0.89063 0.375 0.57812 0.59375 1.4219 0.21875 0.82813 0.21875 2.25 0 1.6719-0.35938 2.7031-0.34375 1.0312-1.0312 1.5938-0.67187 0.5625-1.7344 0.5625-1.375 0-2.1562-0.98438-0.95313-1.1875-0.95313-3.875zm1.2031 0q0 2.3438 0.54687 3.125 0.5625 0.78125 1.3594 0.78125 0.8125 0 1.3594-0.78125 0.5625-0.78125 0.5625-3.125 0-2.3594-0.5625-3.125-0.54687-0.78125-1.3594-0.78125t-1.2969 0.6875q-0.60937 0.875-0.60937 3.2188z" fill="#000"/>
  <path id="path4994" d="m539.39 545.74h-24v22.772h24z" fill="#f4cccc" fill-rule="evenodd"/>
  <path id="path4996" d="m539.39 545.74h-24v22.772h24z" fill-rule="evenodd" stroke="#000" stroke-linecap="butt" stroke-linejoin="round"/>
  <path id="path4998" d="m524.94 557.22q0-1.6875 0.34375-2.7188 0.35937-1.0312 1.0469-1.5938t1.7188-0.5625q0.78125 0 1.3594 0.3125 0.57812 0.29688 0.95312 0.89063 0.375 0.57812 0.59375 1.4219 0.21875 0.82813 0.21875 2.25 0 1.6719-0.35937 2.7031-0.34375 1.0312-1.0312 1.5938-0.67188 0.5625-1.7344 0.5625-1.375 0-2.1562-0.98438-0.95312-1.1875-0.95312-3.875zm1.2031 0q0 2.3438 0.54688 3.125 0.5625 0.78125 1.3594 0.78125 0.8125 0 1.3594-0.78125 0.5625-0.78125 0.5625-3.125 0-2.3594-0.5625-3.125-0.54688-0.78125-1.3594-0.78125t-1.2969 0.6875q-0.60938 0.875-0.60938 3.2188z" fill="#000"/>
  <path id="path5000" d="m563.39 545.74h-24v22.772h24z" fill="#f4cccc" fill-rule="evenodd"/>
  <path id="path5002" d="m563.39 545.74h-24v22.772h24z" fill-rule="evenodd" stroke="#000" stroke-linecap="butt" stroke-linejoin="round"/>
  <path id="path5004" d="m548.94 557.22q0-1.6875 0.34375-2.7188 0.35937-1.0312 1.0469-1.5938t1.7188-0.5625q0.78125 0 1.3594 0.3125 0.57812 0.29688 0.95312 0.89063 0.375 0.57812 0.59375 1.4219 0.21875 0.82813 0.21875 2.25 0 1.6719-0.35937 2.7031-0.34375 1.0312-1.0312 1.5938-0.67188 0.5625-1.7344 0.5625-1.375 0-2.1562-0.98438-0.95312-1.1875-0.95312-3.875zm1.2031 0q0 2.3438 0.54688 3.125 0.5625 0.78125 1.3594 0.78125 0.8125 0 1.3594-0.78125 0.5625-0.78125 0.5625-3.125 0-2.3594-0.5625-3.125-0.54688-0.78125-1.3594-0.78125t-1.2969 0.6875q-0.60938 0.875-0.60938 3.2188z" fill="#000"/>
  <path id="path5006" d="m587.39 545.74h-24v22.772h24z" fill="#f4cccc" fill-rule="evenodd"/>
  <path id="path5008" d="m587.39 545.74h-24v22.772h24z" fill-rule="evenodd" stroke="#000" stroke-linecap="butt" stroke-linejoin="round"/>
  <path id="path5010" d="m572.94 557.22q0-1.6875 0.34375-2.7188 0.35937-1.0312 1.0469-1.5938t1.7188-0.5625q0.78125 0 1.3594 0.3125 0.57812 0.29688 0.95312 0.89063 0.375 0.57812 0.59375 1.4219 0.21875 0.82813 0.21875 2.25 0 1.6719-0.35937 2.7031-0.34375 1.0312-1.0312 1.5938-0.67188 0.5625-1.7344 0.5625-1.375 0-2.1562-0.98438-0.95312-1.1875-0.95312-3.875zm1.2031 0q0 2.3438 0.54688 3.125 0.5625 0.78125 1.3594 0.78125 0.8125 0 1.3594-0.78125 0.5625-0.78125 0.5625-3.125 0-2.3594-0.5625-3.125-0.54688-0.78125-1.3594-0.78125t-1.2969 0.6875q-0.60938 0.875-0.60938 3.2188z" fill="#000"/>
  <path id="path5012" d="m620.99 545.74h-24v22.772h24z" fill="#d9ead3" fill-rule="evenodd"/>
  <path id="path5014" d="m620.99 545.74h-24v22.772h24z" fill-rule="evenodd" stroke="#000" stroke-linecap="butt" stroke-linejoin="round"/>
  <path id="path5016" d="m607.08 561.93v-9.5469h6.4375v1.125h-5.1719v2.9688h4.4688v1.125h-4.4688v4.3281z" fill="#000"/>
  <path id="path5018" d="m644.99 545.74h-24v22.772h24z" fill="#d9ead3" fill-rule="evenodd"/>
  <path id="path5020" d="m644.99 545.74h-24v22.772h24z" fill-rule="evenodd" stroke="#000" stroke-linecap="butt" stroke-linejoin="round"/>
  <path id="path5022" d="m631.08 561.93v-9.5469h6.4375v1.125h-5.1719v2.9688h4.4688v1.125h-4.4688v4.3281z" fill="#000"/>
  <path id="path5024" d="m668.99 545.74h-24v22.772h24z" fill="#d9ead3" fill-rule="evenodd"/>
  <path id="path5026" d="m668.99 545.74h-24v22.772h24z" fill-rule="evenodd" stroke="#000" stroke-linecap="butt" stroke-linejoin="round"/>
  <path id="path5028" d="m655.08 561.93v-9.5469h6.4375v1.125h-5.1719v2.9688h4.4688v1.125h-4.4688v4.3281z" fill="#000"/>
  <path id="path5030" d="m692.99 545.74h-24v22.772h24z" fill="#d9ead3" fill-rule="evenodd"/>
  <path id="path5032" d="m692.99 545.74h-24v22.772h24z" fill-rule="evenodd" stroke="#000" stroke-linecap="butt" stroke-linejoin="round"/>
  <path id="path5034" d="m679.08 561.93v-9.5469h6.4375v1.125h-5.1719v2.9688h4.4688v1.125h-4.4688v4.3281z" fill="#000"/>
  <path id="path5036" d="m716.99 545.74h-24v22.772h24z" fill="#d9ead3" fill-rule="evenodd"/>
  <path id="path5038" d="m716.99 545.74h-24v22.772h24z" fill-rule="evenodd" stroke="#000" stroke-linecap="butt" stroke-linejoin="round"/>
  <path id="path5040" d="m703.08 561.93v-9.5469h6.4375v1.125h-5.1719v2.9688h4.4688v1.125h-4.4688v4.3281z" fill="#000"/>
  <path id="path5042" d="m740.99 545.74h-24v22.772h24z" fill="#d9ead3" fill-rule="evenodd"/>
  <path id="path5044" d="m740.99 545.74h-24v22.772h24z" fill-rule="evenodd" stroke="#000" stroke-linecap="butt" stroke-linejoin="round"/>
  <path id="path5046" d="m727.08 561.93v-9.5469h6.4375v1.125h-5.1719v2.9688h4.4688v1.125h-4.4688v4.3281z" fill="#000"/>
  <path id="path5048" d="m764.99 545.74h-24v22.772h24z" fill="#d9ead3" fill-rule="evenodd"/>
  <path id="path5050" d="m764.99 545.74h-24v22.772h24z" fill-rule="evenodd" stroke="#000" stroke-linecap="butt" stroke-linejoin="round"/>
  <path id="path5052" d="m751.08 561.93v-9.5469h6.4375v1.125h-5.1719v2.9688h4.4688v1.125h-4.4688v4.3281z" fill="#000"/>
  <path id="path5054" d="m788.99 545.74h-24v22.772h24z" fill="#d9ead3" fill-rule="evenodd"/>
  <path id="path5056" d="m788.99 545.74h-24v22.772h24z" fill-rule="evenodd" stroke="#000" stroke-linecap="butt" stroke-linejoin="round"/>
  <path id="path5058" d="m775.08 561.93v-9.5469h6.4375v1.125h-5.1719v2.9688h4.4688v1.125h-4.4688v4.3281z" fill="#000"/>
  <path id="path5060" d="m822.59 545.74h-24v22.772h24z" fill="#d9ead3" fill-rule="evenodd"/>
  <path id="path5062" d="m822.59 545.74h-24v22.772h24z" fill-rule="evenodd" stroke="#000" stroke-linecap="butt" stroke-linejoin="round"/>
  <path id="path5064" d="m808.68 561.93v-9.5469h6.4375v1.125h-5.1719v2.9688h4.4688v1.125h-4.4688v4.3281z" fill="#000"/>
  <path id="path5066" d="m846.59 545.74h-24v22.772h24z" fill="#d9ead3" fill-rule="evenodd"/>
  <path id="path5068" d="m846.59 545.74h-24v22.772h24z" fill-rule="evenodd" stroke="#000" stroke-linecap="butt" stroke-linejoin="round"/>
  <path id="path5070" d="m832.68 561.93v-9.5469h6.4375v1.125h-5.1719v2.9688h4.4688v1.125h-4.4688v4.3281z" fill="#000"/>
  <path id="path5072" d="m870.59 545.74h-24v22.772h24z" fill="#d9ead3" fill-rule="evenodd"/>
  <path id="path5074" d="m870.59 545.74h-24v22.772h24z" fill-rule="evenodd" stroke="#000" stroke-linecap="butt" stroke-linejoin="round"/>
  <path id="path5076" d="m856.68 561.93v-9.5469h6.4375v1.125h-5.1719v2.9688h4.4688v1.125h-4.4688v4.3281z" fill="#000"/>
  <path id="path5078" d="m894.59 545.74h-24v22.772h24z" fill="#d9ead3" fill-rule="evenodd"/>
  <path id="path5080" d="m894.59 545.74h-24v22.772h24z" fill-rule="evenodd" stroke="#000" stroke-linecap="butt" stroke-linejoin="round"/>
  <path id="path5082" d="m880.68 561.93v-9.5469h6.4375v1.125h-5.1719v2.9688h4.4688v1.125h-4.4688v4.3281z" fill="#000"/>
  <path id="path5084" d="m918.59 545.74h-24v22.772h24z" fill="#d9ead3" fill-rule="evenodd"/>
  <path id="path5086" d="m918.59 545.74h-24v22.772h24z" fill-rule="evenodd" stroke="#000" stroke-linecap="butt" stroke-linejoin="round"/>
  <path id="path5088" d="m904.68 561.93v-9.5469h6.4375v1.125h-5.1719v2.9688h4.4688v1.125h-4.4688v4.3281z" fill="#000"/>
  <path id="path5090" d="m942.59 545.74h-24v22.772h24z" fill="#d9ead3" fill-rule="evenodd"/>
  <path id="path5092" d="m942.59 545.74h-24v22.772h24z" fill-rule="evenodd" stroke="#000" stroke-linecap="butt" stroke-linejoin="round"/>
  <path id="path5094" d="m928.68 561.93v-9.5469h6.4375v1.125h-5.1719v2.9688h4.4688v1.125h-4.4688v4.3281z" fill="#000"/>
  <path id="path5096" d="m966.59 545.74h-24v22.772h24z" fill="#d9ead3" fill-rule="evenodd"/>
  <path id="path5098" d="m966.59 545.74h-24v22.772h24z" fill-rule="evenodd" stroke="#000" stroke-linecap="butt" stroke-linejoin="round"/>
  <path id="path5100" d="m952.68 561.93v-9.5469h6.4375v1.125h-5.1719v2.9688h4.4688v1.125h-4.4688v4.3281z" fill="#000"/>
  <path id="path5102" d="m990.59 545.74h-24v22.772h24z" fill="#d9ead3" fill-rule="evenodd"/>
  <path id="path5104" d="m990.59 545.74h-24v22.772h24z" fill-rule="evenodd" stroke="#000" stroke-linecap="butt" stroke-linejoin="round"/>
  <path id="path5106" d="m976.68 561.93v-9.5469h6.4375v1.125h-5.1719v2.9688h4.4688v1.125h-4.4688v4.3281z" fill="#000"/>
  <path id="path5108" d="m989.95 570.55c0 5.3054-4.3009 9.6063-9.6063 9.6063h-176.94c-5.3054 0-9.6063 4.3009-9.6063 9.6063 0-5.3054-4.3009-9.6063-9.6063-9.6063h-176.94c-5.3054 0-9.6063-4.3009-9.6063-9.6063z" fill="#000" fill-opacity="0" fill-rule="evenodd"/>
  <path id="path5110" d="m989.95 570.55c0 5.3054-4.3009 9.6063-9.6063 9.6063h-176.94c-5.3054 0-9.6063 4.3009-9.6063 9.6063 0-5.3054-4.3009-9.6063-9.6063-9.6063h-176.94c-5.3054 0-9.6063-4.3009-9.6063-9.6063" fill="#000" fill-opacity="0" fill-rule="evenodd"/>
  <path id="path5112" d="m989.95 570.55c0 5.3054-4.3009 9.6063-9.6063 9.6063h-176.94c-5.3054 0-9.6063 4.3009-9.6063 9.6063 0-5.3054-4.3009-9.6063-9.6063-9.6063h-176.94c-5.3054 0-9.6063-4.3009-9.6063-9.6063" fill-rule="evenodd" stroke="#000" stroke-linecap="butt" stroke-linejoin="round"/>
  <path id="path5114" d="m989.83 543.7c0-5.3054-4.3009-9.6063-9.6063-9.6063h-378.6c-5.3054 0-9.6063-4.3009-9.6063-9.6063 0 5.3054-4.3009 9.6063-9.6063 9.6063h-378.6c-5.3054 0-9.6063 4.3009-9.6063 9.6063z" fill="#000" fill-opacity="0" fill-rule="evenodd"/>
  <path id="path5116" d="m989.83 543.7c0-5.3054-4.3009-9.6063-9.6063-9.6063h-378.6c-5.3054 0-9.6063-4.3009-9.6063-9.6063 0 5.3054-4.3009 9.6063-9.6063 9.6063h-378.6c-5.3054 0-9.6063 4.3009-9.6063 9.6063" fill="#000" fill-opacity="0" fill-rule="evenodd"/>
  <path id="path5118" d="m989.83 543.7c0-5.3054-4.3009-9.6063-9.6063-9.6063h-378.6c-5.3054 0-9.6063-4.3009-9.6063-9.6063 0 5.3054-4.3009 9.6063-9.6063 9.6063h-378.6c-5.3054 0-9.6063 4.3009-9.6063 9.6063" fill-rule="evenodd" stroke="#000" stroke-linecap="butt" stroke-linejoin="round"/>
  <path id="path5120" d="m739.33 587.75h108.91v35.559h-108.91z" fill="#000" fill-opacity="0" fill-rule="evenodd"/>
  <path id="path5122" d="m774.6 609.55 3.6875-4.9688-3.25-4.5781h1.5l1.7344 2.4531q0.53125 0.76562 0.76562 1.1719 0.3125-0.51562 0.75-1.0938l1.9219-2.5312h1.375l-3.3594 4.5 3.625 5.0469h-1.5625l-2.4062-3.4062q-0.20312-0.29688-0.42187-0.64063-0.3125 0.53125-0.45313 0.71875l-2.3906 3.3281zm9.8116 0v-9.5469h1.9062l2.25 6.7656q0.3125 0.9375 0.46875 1.4062 0.15625-0.51563 0.5-1.5312l2.2812-6.6406h1.7031v9.5469h-1.2188v-7.9844l-2.7656 7.9844h-1.1406l-2.7656-8.125v8.125zm11.102 0v-9.5469h1.9062l2.25 6.7656q0.3125 0.9375 0.46875 1.4062 0.15625-0.51563 0.5-1.5312l2.2812-6.6406h1.7031v9.5469h-1.2188v-7.9844l-2.7656 7.9844h-1.1406l-2.7656-8.125v8.125zm15.087 0h-1.1719v-7.4688q-0.42188 0.40625-1.1094 0.8125t-1.2344 0.60937v-1.1406q0.98437-0.45313 1.7188-1.1094 0.73437-0.67187 1.0312-1.2812h0.76562z" fill="#000"/>
  <path id="path5124" d="m537.56 490.97h108.91v35.559h-108.91z" fill="#000" fill-opacity="0" fill-rule="evenodd"/>
  <path id="path5126" d="m576.49 512.77v-4.0469l-3.6875-5.5h1.5469l1.875 2.875q0.51562 0.8125 0.96875 1.625 0.4375-0.75 1.0469-1.6875l1.8438-2.8125h1.4688l-3.7969 5.5v4.0469zm6.1554 0v-9.5469h1.9062l2.25 6.7656q0.3125 0.9375 0.46875 1.4062 0.15625-0.51562 0.5-1.5312l2.2812-6.6406h1.7031v9.5469h-1.2188v-7.9844l-2.7656 7.9844h-1.1406l-2.7656-8.125v8.125zm11.102 0v-9.5469h1.9062l2.25 6.7656q0.3125 0.9375 0.46875 1.4062 0.15625-0.51562 0.5-1.5312l2.2812-6.6406h1.7031v9.5469h-1.2188v-7.9844l-2.7656 7.9844h-1.1406l-2.7656-8.125v8.125zm15.087 0h-1.1719v-7.4688q-0.42188 0.40625-1.1094 0.8125t-1.2344 0.60938v-1.1406q0.98437-0.45312 1.7188-1.1094 0.73437-0.67188 1.0312-1.2812h0.76562z" fill="#000"/>
  <path id="path5128" d="m217.79 413.4h-24v22.772h24z" fill="#f4cccc" fill-rule="evenodd"/>
  <path id="path5130" d="m217.79 413.4h-24v22.772h24z" fill-rule="evenodd" stroke="#000" stroke-linecap="butt" stroke-linejoin="round"/>
  <path id="path5132" d="m203.33 424.88q0-1.6875 0.34375-2.7188 0.35937-1.0312 1.0469-1.5938t1.7188-0.5625q0.78125 0 1.3594 0.3125 0.57812 0.29687 0.95312 0.89062 0.375 0.57813 0.59375 1.4219 0.21875 0.82812 0.21875 2.25 0 1.6719-0.35937 2.7031-0.34375 1.0312-1.0312 1.5938-0.67188 0.5625-1.7344 0.5625-1.375 0-2.1562-0.98437-0.95312-1.1875-0.95312-3.875zm1.2031 0q0 2.3438 0.54688 3.125 0.5625 0.78125 1.3594 0.78125 0.8125 0 1.3594-0.78125 0.5625-0.78125 0.5625-3.125 0-2.3594-0.5625-3.125-0.54688-0.78125-1.3594-0.78125t-1.2969 0.6875q-0.60938 0.875-0.60938 3.2188z" fill="#000"/>
  <path id="path5134" d="m241.79 413.4h-24v22.772h24z" fill="#f4cccc" fill-rule="evenodd"/>
  <path id="path5136" d="m241.79 413.4h-24v22.772h24z" fill-rule="evenodd" stroke="#000" stroke-linecap="butt" stroke-linejoin="round"/>
  <path id="path5138" d="m227.33 424.88q0-1.6875 0.34375-2.7188 0.35937-1.0312 1.0469-1.5938t1.7188-0.5625q0.78125 0 1.3594 0.3125 0.57812 0.29687 0.95312 0.89062 0.375 0.57813 0.59375 1.4219 0.21875 0.82812 0.21875 2.25 0 1.6719-0.35937 2.7031-0.34375 1.0312-1.0312 1.5938-0.67188 0.5625-1.7344 0.5625-1.375 0-2.1562-0.98437-0.95312-1.1875-0.95312-3.875zm1.2031 0q0 2.3438 0.54688 3.125 0.5625 0.78125 1.3594 0.78125 0.8125 0 1.3594-0.78125 0.5625-0.78125 0.5625-3.125 0-2.3594-0.5625-3.125-0.54688-0.78125-1.3594-0.78125t-1.2969 0.6875q-0.60938 0.875-0.60938 3.2188z" fill="#000"/>
  <path id="path5140" d="m265.79 413.4h-24v22.772h24z" fill="#f4cccc" fill-rule="evenodd"/>
  <path id="path5142" d="m265.79 413.4h-24v22.772h24z" fill-rule="evenodd" stroke="#000" stroke-linecap="butt" stroke-linejoin="round"/>
  <path id="path5144" d="m251.33 424.88q0-1.6875 0.34375-2.7188 0.35937-1.0312 1.0469-1.5938t1.7188-0.5625q0.78125 0 1.3594 0.3125 0.57814 0.29687 0.95314 0.89062 0.375 0.57813 0.59375 1.4219 0.21875 0.82812 0.21875 2.25 0 1.6719-0.35937 2.7031-0.34375 1.0312-1.0312 1.5938-0.6719 0.5625-1.7344 0.5625-1.375 0-2.1562-0.98437-0.95312-1.1875-0.95312-3.875zm1.2031 0q0 2.3438 0.54688 3.125 0.5625 0.78125 1.3594 0.78125 0.8125 0 1.3594-0.78125 0.56252-0.78125 0.56252-3.125 0-2.3594-0.56252-3.125-0.54688-0.78125-1.3594-0.78125t-1.2969 0.6875q-0.60938 0.875-0.60938 3.2188z" fill="#000"/>
  <path id="path5146" d="m289.79 413.4h-24v22.772h24z" fill="#f4cccc" fill-rule="evenodd"/>
  <path id="path5148" d="m289.79 413.4h-24v22.772h24z" fill-rule="evenodd" stroke="#000" stroke-linecap="butt" stroke-linejoin="round"/>
  <path id="path5150" d="m275.33 424.88q0-1.6875 0.34375-2.7188 0.35937-1.0312 1.0469-1.5938t1.7188-0.5625q0.78125 0 1.3594 0.3125 0.57812 0.29687 0.95312 0.89062 0.375 0.57813 0.59375 1.4219 0.21875 0.82812 0.21875 2.25 0 1.6719-0.35937 2.7031-0.34375 1.0312-1.0312 1.5938-0.67188 0.5625-1.7344 0.5625-1.375 0-2.1562-0.98437-0.95312-1.1875-0.95312-3.875zm1.2031 0q0 2.3438 0.54688 3.125 0.5625 0.78125 1.3594 0.78125 0.8125 0 1.3594-0.78125 0.5625-0.78125 0.5625-3.125 0-2.3594-0.5625-3.125-0.54688-0.78125-1.3594-0.78125t-1.2969 0.6875q-0.60938 0.875-0.60938 3.2188z" fill="#000"/>
  <path id="path5152" d="m313.79 413.4h-24v22.772h24z" fill="#f4cccc" fill-rule="evenodd"/>
  <path id="path5154" d="m313.79 413.4h-24v22.772h24z" fill-rule="evenodd" stroke="#000" stroke-linecap="butt" stroke-linejoin="round"/>
  <path id="path5156" d="m299.33 424.88q0-1.6875 0.34375-2.7188 0.35937-1.0312 1.0469-1.5938t1.7188-0.5625q0.78125 0 1.3594 0.3125 0.57812 0.29687 0.95312 0.89062 0.375 0.57813 0.59375 1.4219 0.21875 0.82812 0.21875 2.25 0 1.6719-0.35937 2.7031-0.34375 1.0312-1.0312 1.5938-0.67188 0.5625-1.7344 0.5625-1.375 0-2.1562-0.98437-0.95312-1.1875-0.95312-3.875zm1.2031 0q0 2.3438 0.54688 3.125 0.5625 0.78125 1.3594 0.78125 0.8125 0 1.3594-0.78125 0.5625-0.78125 0.5625-3.125 0-2.3594-0.5625-3.125-0.54688-0.78125-1.3594-0.78125t-1.2969 0.6875q-0.60938 0.875-0.60938 3.2188z" fill="#000"/>
  <path id="path5158" d="m337.79 413.4h-24v22.772h24z" fill="#f4cccc" fill-rule="evenodd"/>
  <path id="path5160" d="m337.79 413.4h-24v22.772h24z" fill-rule="evenodd" stroke="#000" stroke-linecap="butt" stroke-linejoin="round"/>
  <path id="path5162" d="m323.33 424.88q0-1.6875 0.34375-2.7188 0.35937-1.0312 1.0469-1.5938t1.7188-0.5625q0.78125 0 1.3594 0.3125 0.57812 0.29687 0.95312 0.89062 0.375 0.57813 0.59375 1.4219 0.21875 0.82812 0.21875 2.25 0 1.6719-0.35937 2.7031-0.34375 1.0312-1.0312 1.5938-0.67188 0.5625-1.7344 0.5625-1.375 0-2.1562-0.98437-0.95312-1.1875-0.95312-3.875zm1.2031 0q0 2.3438 0.54688 3.125 0.5625 0.78125 1.3594 0.78125 0.8125 0 1.3594-0.78125 0.5625-0.78125 0.5625-3.125 0-2.3594-0.5625-3.125-0.54688-0.78125-1.3594-0.78125t-1.2969 0.6875q-0.60938 0.875-0.60938 3.2188z" fill="#000"/>
  <path id="path5164" d="m361.79 413.4h-24v22.772h24z" fill="#f4cccc" fill-rule="evenodd"/>
  <path id="path5166" d="m361.79 413.4h-24v22.772h24z" fill-rule="evenodd" stroke="#000" stroke-linecap="butt" stroke-linejoin="round"/>
  <path id="path5168" d="m347.33 424.88q0-1.6875 0.34375-2.7188 0.35937-1.0312 1.0469-1.5938t1.7188-0.5625q0.78125 0 1.3594 0.3125 0.57812 0.29687 0.95312 0.89062 0.375 0.57813 0.59375 1.4219 0.21875 0.82812 0.21875 2.25 0 1.6719-0.35937 2.7031-0.34375 1.0312-1.0312 1.5938-0.67188 0.5625-1.7344 0.5625-1.375 0-2.1562-0.98437-0.95312-1.1875-0.95312-3.875zm1.2031 0q0 2.3438 0.54688 3.125 0.5625 0.78125 1.3594 0.78125 0.8125 0 1.3594-0.78125 0.5625-0.78125 0.5625-3.125 0-2.3594-0.5625-3.125-0.54688-0.78125-1.3594-0.78125t-1.2969 0.6875q-0.60938 0.875-0.60938 3.2188z" fill="#000"/>
  <path id="path5170" d="m385.79 413.4h-24v22.772h24z" fill="#f4cccc" fill-rule="evenodd"/>
  <path id="path5172" d="m385.79 413.4h-24v22.772h24z" fill-rule="evenodd" stroke="#000" stroke-linecap="butt" stroke-linejoin="round"/>
  <path id="path5174" d="m371.33 424.88q0-1.6875 0.34375-2.7188 0.35937-1.0312 1.0469-1.5938t1.7188-0.5625q0.78125 0 1.3594 0.3125 0.57812 0.29687 0.95312 0.89062 0.375 0.57813 0.59375 1.4219 0.21875 0.82812 0.21875 2.25 0 1.6719-0.35937 2.7031-0.34375 1.0312-1.0312 1.5938-0.67188 0.5625-1.7344 0.5625-1.375 0-2.1562-0.98437-0.95312-1.1875-0.95312-3.875zm1.2031 0q0 2.3438 0.54688 3.125 0.5625 0.78125 1.3594 0.78125 0.8125 0 1.3594-0.78125 0.5625-0.78125 0.5625-3.125 0-2.3594-0.5625-3.125-0.54688-0.78125-1.3594-0.78125t-1.2969 0.6875q-0.60938 0.875-0.60938 3.2188z" fill="#000"/>
  <path id="path5176" d="m419.39 413.4h-24v22.772h24z" fill="#f4cccc" fill-rule="evenodd"/>
  <path id="path5178" d="m419.39 413.4h-24v22.772h24z" fill-rule="evenodd" stroke="#000" stroke-linecap="butt" stroke-linejoin="round"/>
  <path id="path5180" d="m404.94 424.88q0-1.6875 0.34375-2.7188 0.35938-1.0312 1.0469-1.5938t1.7188-0.5625q0.78125 0 1.3594 0.3125 0.57813 0.29687 0.95313 0.89062 0.375 0.57813 0.59375 1.4219 0.21875 0.82812 0.21875 2.25 0 1.6719-0.35938 2.7031-0.34375 1.0312-1.0312 1.5938-0.67187 0.5625-1.7344 0.5625-1.375 0-2.1562-0.98437-0.95313-1.1875-0.95313-3.875zm1.2031 0q0 2.3438 0.54687 3.125 0.5625 0.78125 1.3594 0.78125 0.8125 0 1.3594-0.78125 0.5625-0.78125 0.5625-3.125 0-2.3594-0.5625-3.125-0.54687-0.78125-1.3594-0.78125t-1.2969 0.6875q-0.60937 0.875-0.60937 3.2188z" fill="#000"/>
  <path id="path5182" d="m443.39 413.4h-24v22.772h24z" fill="#f4cccc" fill-rule="evenodd"/>
  <path id="path5184" d="m443.39 413.4h-24v22.772h24z" fill-rule="evenodd" stroke="#000" stroke-linecap="butt" stroke-linejoin="round"/>
  <path id="path5186" d="m428.94 424.88q0-1.6875 0.34375-2.7188 0.35938-1.0312 1.0469-1.5938t1.7188-0.5625q0.78125 0 1.3594 0.3125 0.57813 0.29687 0.95313 0.89062 0.375 0.57813 0.59375 1.4219 0.21875 0.82812 0.21875 2.25 0 1.6719-0.35938 2.7031-0.34375 1.0312-1.0312 1.5938-0.67187 0.5625-1.7344 0.5625-1.375 0-2.1562-0.98437-0.95313-1.1875-0.95313-3.875zm1.2031 0q0 2.3438 0.54687 3.125 0.5625 0.78125 1.3594 0.78125 0.8125 0 1.3594-0.78125 0.5625-0.78125 0.5625-3.125 0-2.3594-0.5625-3.125-0.54687-0.78125-1.3594-0.78125t-1.2969 0.6875q-0.60937 0.875-0.60937 3.2188z" fill="#000"/>
  <path id="path5188" d="m467.39 413.4h-24v22.772h24z" fill="#f4cccc" fill-rule="evenodd"/>
  <path id="path5190" d="m467.39 413.4h-24v22.772h24z" fill-rule="evenodd" stroke="#000" stroke-linecap="butt" stroke-linejoin="round"/>
  <path id="path5192" d="m452.94 424.88q0-1.6875 0.34375-2.7188 0.35938-1.0312 1.0469-1.5938t1.7188-0.5625q0.78125 0 1.3594 0.3125 0.57813 0.29687 0.95313 0.89062 0.375 0.57813 0.59375 1.4219 0.21875 0.82812 0.21875 2.25 0 1.6719-0.35938 2.7031-0.34375 1.0312-1.0312 1.5938-0.67187 0.5625-1.7344 0.5625-1.375 0-2.1562-0.98437-0.95313-1.1875-0.95313-3.875zm1.2031 0q0 2.3438 0.54687 3.125 0.5625 0.78125 1.3594 0.78125 0.8125 0 1.3594-0.78125 0.5625-0.78125 0.5625-3.125 0-2.3594-0.5625-3.125-0.54687-0.78125-1.3594-0.78125t-1.2969 0.6875q-0.60937 0.875-0.60937 3.2188z" fill="#000"/>
  <path id="path5194" d="m491.39 413.4h-24v22.772h24z" fill="#f4cccc" fill-rule="evenodd"/>
  <path id="path5196" d="m491.39 413.4h-24v22.772h24z" fill-rule="evenodd" stroke="#000" stroke-linecap="butt" stroke-linejoin="round"/>
  <path id="path5198" d="m476.94 424.88q0-1.6875 0.34375-2.7188 0.35938-1.0312 1.0469-1.5938t1.7188-0.5625q0.78125 0 1.3594 0.3125 0.57813 0.29687 0.95313 0.89062 0.375 0.57813 0.59375 1.4219 0.21875 0.82812 0.21875 2.25 0 1.6719-0.35938 2.7031-0.34375 1.0312-1.0312 1.5938-0.67187 0.5625-1.7344 0.5625-1.375 0-2.1562-0.98437-0.95313-1.1875-0.95313-3.875zm1.2031 0q0 2.3438 0.54687 3.125 0.5625 0.78125 1.3594 0.78125 0.8125 0 1.3594-0.78125 0.5625-0.78125 0.5625-3.125 0-2.3594-0.5625-3.125-0.54687-0.78125-1.3594-0.78125t-1.2969 0.6875q-0.60937 0.875-0.60937 3.2188z" fill="#000"/>
  <path id="path5200" d="m515.39 413.4h-24v22.772h24z" fill="#d9ead3" fill-rule="evenodd"/>
  <path id="path5202" d="m515.39 413.4h-24v22.772h24z" fill-rule="evenodd" stroke="#000" stroke-linecap="butt" stroke-linejoin="round"/>
  <path id="path5204" d="m501.48 429.58v-9.5469h6.4375v1.125h-5.1719v2.9688h4.4688v1.125h-4.4688v4.3281z" fill="#000"/>
  <path id="path5206" d="m539.39 413.4h-24v22.772h24z" fill="#d9ead3" fill-rule="evenodd"/>
  <path id="path5208" d="m539.39 413.4h-24v22.772h24z" fill-rule="evenodd" stroke="#000" stroke-linecap="butt" stroke-linejoin="round"/>
  <path id="path5210" d="m525.48 429.58v-9.5469h6.4375v1.125h-5.1719v2.9688h4.4688v1.125h-4.4688v4.3281z" fill="#000"/>
  <path id="path5212" d="m563.39 413.4h-24v22.772h24z" fill="#d9ead3" fill-rule="evenodd"/>
  <path id="path5214" d="m563.39 413.4h-24v22.772h24z" fill-rule="evenodd" stroke="#000" stroke-linecap="butt" stroke-linejoin="round"/>
  <path id="path5216" d="m549.48 429.58v-9.5469h6.4375v1.125h-5.1719v2.9688h4.4688v1.125h-4.4688v4.3281z" fill="#000"/>
  <path id="path5218" d="m587.39 413.4h-24v22.772h24z" fill="#d9ead3" fill-rule="evenodd"/>
  <path id="path5220" d="m587.39 413.4h-24v22.772h24z" fill-rule="evenodd" stroke="#000" stroke-linecap="butt" stroke-linejoin="round"/>
  <path id="path5222" d="m573.48 429.58v-9.5469h6.4375v1.125h-5.1719v2.9688h4.4688v1.125h-4.4688v4.3281z" fill="#000"/>
  <path id="path5224" d="m620.99 413.4h-24v22.772h24z" fill="#d9ead3" fill-rule="evenodd"/>
  <path id="path5226" d="m620.99 413.4h-24v22.772h24z" fill-rule="evenodd" stroke="#000" stroke-linecap="butt" stroke-linejoin="round"/>
  <path id="path5228" d="m607.08 429.58v-9.5469h6.4375v1.125h-5.1719v2.9688h4.4688v1.125h-4.4688v4.3281z" fill="#000"/>
  <path id="path5230" d="m644.99 413.4h-24v22.772h24z" fill="#d9ead3" fill-rule="evenodd"/>
  <path id="path5232" d="m644.99 413.4h-24v22.772h24z" fill-rule="evenodd" stroke="#000" stroke-linecap="butt" stroke-linejoin="round"/>
  <path id="path5234" d="m631.08 429.58v-9.5469h6.4375v1.125h-5.1719v2.9688h4.4688v1.125h-4.4688v4.3281z" fill="#000"/>
  <path id="path5236" d="m668.99 413.4h-24v22.772h24z" fill="#d9ead3" fill-rule="evenodd"/>
  <path id="path5238" d="m668.99 413.4h-24v22.772h24z" fill-rule="evenodd" stroke="#000" stroke-linecap="butt" stroke-linejoin="round"/>
  <path id="path5240" d="m655.08 429.58v-9.5469h6.4375v1.125h-5.1719v2.9688h4.4688v1.125h-4.4688v4.3281z" fill="#000"/>
  <path id="path5242" d="m692.99 413.4h-24v22.772h24z" fill="#d9ead3" fill-rule="evenodd"/>
  <path id="path5244" d="m692.99 413.4h-24v22.772h24z" fill-rule="evenodd" stroke="#000" stroke-linecap="butt" stroke-linejoin="round"/>
  <path id="path5246" d="m679.08 429.58v-9.5469h6.4375v1.125h-5.1719v2.9688h4.4688v1.125h-4.4688v4.3281z" fill="#000"/>
  <path id="path5248" d="m716.99 413.4h-24v22.772h24z" fill="#d9ead3" fill-rule="evenodd"/>
  <path id="path5250" d="m716.99 413.4h-24v22.772h24z" fill-rule="evenodd" stroke="#000" stroke-linecap="butt" stroke-linejoin="round"/>
  <path id="path5252" d="m703.08 429.58v-9.5469h6.4375v1.125h-5.1719v2.9688h4.4688v1.125h-4.4688v4.3281z" fill="#000"/>
  <path id="path5254" d="m740.99 413.4h-24v22.772h24z" fill="#d9ead3" fill-rule="evenodd"/>
  <path id="path5256" d="m740.99 413.4h-24v22.772h24z" fill-rule="evenodd" stroke="#000" stroke-linecap="butt" stroke-linejoin="round"/>
  <path id="path5258" d="m727.08 429.58v-9.5469h6.4375v1.125h-5.1719v2.9688h4.4688v1.125h-4.4688v4.3281z" fill="#000"/>
  <path id="path5260" d="m764.99 413.4h-24v22.772h24z" fill="#d9ead3" fill-rule="evenodd"/>
  <path id="path5262" d="m764.99 413.4h-24v22.772h24z" fill-rule="evenodd" stroke="#000" stroke-linecap="butt" stroke-linejoin="round"/>
  <path id="path5264" d="m751.08 429.58v-9.5469h6.4375v1.125h-5.1719v2.9688h4.4688v1.125h-4.4688v4.3281z" fill="#000"/>
  <path id="path5266" d="m788.99 413.4h-24v22.772h24z" fill="#d9ead3" fill-rule="evenodd"/>
  <path id="path5268" d="m788.99 413.4h-24v22.772h24z" fill-rule="evenodd" stroke="#000" stroke-linecap="butt" stroke-linejoin="round"/>
  <path id="path5270" d="m775.08 429.58v-9.5469h6.4375v1.125h-5.1719v2.9688h4.4688v1.125h-4.4688v4.3281z" fill="#000"/>
  <path id="path5272" d="m822.59 413.4h-24v22.772h24z" fill="#d9ead3" fill-rule="evenodd"/>
  <path id="path5274" d="m822.59 413.4h-24v22.772h24z" fill-rule="evenodd" stroke="#000" stroke-linecap="butt" stroke-linejoin="round"/>
  <path id="path5276" d="m808.68 429.58v-9.5469h6.4375v1.125h-5.1719v2.9688h4.4688v1.125h-4.4688v4.3281z" fill="#000"/>
  <path id="path5278" d="m846.59 413.4h-24v22.772h24z" fill="#d9ead3" fill-rule="evenodd"/>
  <path id="path5280" d="m846.59 413.4h-24v22.772h24z" fill-rule="evenodd" stroke="#000" stroke-linecap="butt" stroke-linejoin="round"/>
  <path id="path5282" d="m832.68 429.58v-9.5469h6.4375v1.125h-5.1719v2.9688h4.4688v1.125h-4.4688v4.3281z" fill="#000"/>
  <path id="path5284" d="m870.59 413.4h-24v22.772h24z" fill="#d9ead3" fill-rule="evenodd"/>
  <path id="path5286" d="m870.59 413.4h-24v22.772h24z" fill-rule="evenodd" stroke="#000" stroke-linecap="butt" stroke-linejoin="round"/>
  <path id="path5288" d="m856.68 429.58v-9.5469h6.4375v1.125h-5.1719v2.9688h4.4688v1.125h-4.4688v4.3281z" fill="#000"/>
  <path id="path5290" d="m894.59 413.4h-24v22.772h24z" fill="#d9ead3" fill-rule="evenodd"/>
  <path id="path5292" d="m894.59 413.4h-24v22.772h24z" fill-rule="evenodd" stroke="#000" stroke-linecap="butt" stroke-linejoin="round"/>
  <path id="path5294" d="m880.68 429.58v-9.5469h6.4375v1.125h-5.1719v2.9688h4.4688v1.125h-4.4688v4.3281z" fill="#000"/>
  <path id="path5296" d="m918.59 413.4h-24v22.772h24z" fill="#d9ead3" fill-rule="evenodd"/>
  <path id="path5298" d="m918.59 413.4h-24v22.772h24z" fill-rule="evenodd" stroke="#000" stroke-linecap="butt" stroke-linejoin="round"/>
  <path id="path5300" d="m904.68 429.58v-9.5469h6.4375v1.125h-5.1719v2.9688h4.4688v1.125h-4.4688v4.3281z" fill="#000"/>
  <path id="path5302" d="m942.59 413.4h-24v22.772h24z" fill="#d9ead3" fill-rule="evenodd"/>
  <path id="path5304" d="m942.59 413.4h-24v22.772h24z" fill-rule="evenodd" stroke="#000" stroke-linecap="butt" stroke-linejoin="round"/>
  <path id="path5306" d="m928.68 429.58v-9.5469h6.4375v1.125h-5.1719v2.9688h4.4688v1.125h-4.4688v4.3281z" fill="#000"/>
  <path id="path5308" d="m966.59 413.4h-24v22.772h24z" fill="#d9ead3" fill-rule="evenodd"/>
  <path id="path5310" d="m966.59 413.4h-24v22.772h24z" fill-rule="evenodd" stroke="#000" stroke-linecap="butt" stroke-linejoin="round"/>
  <path id="path5312" d="m952.68 429.58v-9.5469h6.4375v1.125h-5.1719v2.9688h4.4688v1.125h-4.4688v4.3281z" fill="#000"/>
  <path id="path5314" d="m990.59 413.4h-24v22.772h24z" fill="#d9ead3" fill-rule="evenodd"/>
  <path id="path5316" d="m990.59 413.4h-24v22.772h24z" fill-rule="evenodd" stroke="#000" stroke-linecap="butt" stroke-linejoin="round"/>
  <path id="path5318" d="m976.68 429.58v-9.5469h6.4375v1.125h-5.1719v2.9688h4.4688v1.125h-4.4688v4.3281z" fill="#000"/>
  <path id="path5320" d="m989.95 438.21c0 5.3054-4.3009 9.6063-9.6063 9.6063h-176.94c-5.3054 0-9.6063 4.3009-9.6063 9.6063 0-5.3054-4.3009-9.6063-9.6063-9.6063h-176.94c-5.3054 0-9.6063-4.3009-9.6063-9.6063z" fill="#000" fill-opacity="0" fill-rule="evenodd"/>
  <path id="path5322" d="m989.95 438.21c0 5.3054-4.3009 9.6063-9.6063 9.6063h-176.94c-5.3054 0-9.6063 4.3009-9.6063 9.6063 0-5.3054-4.3009-9.6063-9.6063-9.6063h-176.94c-5.3054 0-9.6063-4.3009-9.6063-9.6063" fill="#000" fill-opacity="0" fill-rule="evenodd"/>
  <path id="path5324" d="m989.95 438.21c0 5.3054-4.3009 9.6063-9.6063 9.6063h-176.94c-5.3054 0-9.6063 4.3009-9.6063 9.6063 0-5.3054-4.3009-9.6063-9.6063-9.6063h-176.94c-5.3054 0-9.6063-4.3009-9.6063-9.6063" fill-rule="evenodd" stroke="#000" stroke-linecap="butt" stroke-linejoin="round"/>
  <path id="path5326" d="m989.83 411.36c0-5.3054-4.3009-9.6063-9.6063-9.6063h-378.6c-5.3054 0-9.6063-4.3009-9.6063-9.6063 0 5.3054-4.3009 9.6063-9.6063 9.6063h-378.6c-5.3054 0-9.6063 4.3009-9.6063 9.6063z" fill="#000" fill-opacity="0" fill-rule="evenodd"/>
  <path id="path5328" d="m989.83 411.36c0-5.3054-4.3009-9.6063-9.6063-9.6063h-378.6c-5.3054 0-9.6063-4.3009-9.6063-9.6063 0 5.3054-4.3009 9.6063-9.6063 9.6063h-378.6c-5.3054 0-9.6063 4.3009-9.6063 9.6063" fill="#000" fill-opacity="0" fill-rule="evenodd"/>
  <path id="path5330" d="m989.83 411.36c0-5.3054-4.3009-9.6063-9.6063-9.6063h-378.6c-5.3054 0-9.6063-4.3009-9.6063-9.6063 0 5.3054-4.3009 9.6063-9.6063 9.6063h-378.6c-5.3054 0-9.6063 4.3009-9.6063 9.6063" fill-rule="evenodd" stroke="#000" stroke-linecap="butt" stroke-linejoin="round"/>
  <path id="path5332" d="m739.33 455.41h108.91v35.559h-108.91z" fill="#000" fill-opacity="0" fill-rule="evenodd"/>
  <path id="path5334" d="m774.6 477.21 3.6875-4.9688-3.25-4.5781h1.5l1.7344 2.4531q0.53125 0.76562 0.76562 1.1719 0.3125-0.51562 0.75-1.0938l1.9219-2.5312h1.375l-3.3594 4.5 3.625 5.0469h-1.5625l-2.4062-3.4062q-0.20312-0.29688-0.42187-0.64063-0.3125 0.53125-0.45313 0.71875l-2.3906 3.3281zm9.8116 0v-9.5469h1.9062l2.25 6.7656q0.3125 0.9375 0.46875 1.4062 0.15625-0.51563 0.5-1.5312l2.2812-6.6406h1.7031v9.5469h-1.2188v-7.9844l-2.7656 7.9844h-1.1406l-2.7656-8.125v8.125zm11.102 0v-9.5469h1.9062l2.25 6.7656q0.3125 0.9375 0.46875 1.4062 0.15625-0.51563 0.5-1.5312l2.2812-6.6406h1.7031v9.5469h-1.2188v-7.9844l-2.7656 7.9844h-1.1406l-2.7656-8.125v8.125zm15.087 0h-1.1719v-7.4688q-0.42188 0.40625-1.1094 0.8125t-1.2344 0.60937v-1.1406q0.98437-0.45313 1.7188-1.1094 0.73437-0.67187 1.0312-1.2812h0.76562z" fill="#000"/>
  <path id="path5336" d="m537.56 358.63h108.91v35.559h-108.91z" fill="#000" fill-opacity="0" fill-rule="evenodd"/>
  <path id="path5338" d="m576.49 380.43v-4.0469l-3.6875-5.5h1.5469l1.875 2.875q0.51562 0.8125 0.96875 1.625 0.4375-0.75 1.0469-1.6875l1.8438-2.8125h1.4688l-3.7969 5.5v4.0469zm6.1554 0v-9.5469h1.9062l2.25 6.7656q0.3125 0.9375 0.46875 1.4062 0.15625-0.51563 0.5-1.5312l2.2812-6.6406h1.7031v9.5469h-1.2188v-7.9844l-2.7656 7.9844h-1.1406l-2.7656-8.125v8.125zm11.102 0v-9.5469h1.9062l2.25 6.7656q0.3125 0.9375 0.46875 1.4062 0.15625-0.51563 0.5-1.5312l2.2812-6.6406h1.7031v9.5469h-1.2188v-7.9844l-2.7656 7.9844h-1.1406l-2.7656-8.125v8.125zm15.087 0h-1.1719v-7.4688q-0.42188 0.40625-1.1094 0.8125t-1.2344 0.60937v-1.1406q0.98437-0.45313 1.7188-1.1094 0.73437-0.67187 1.0312-1.2812h0.76562z" fill="#000"/>
 </g>
</svg>
