<?xml version="1.0" encoding="UTF-8"?>
<svg id="svg2931" width="797.8" height="132.34" fill="none" stroke-linecap="square" stroke-miterlimit="10" version="1.1" viewBox="0 0 797.8 132.34" xmlns="http://www.w3.org/2000/svg">
 <clipPath id="p.0">
  <path id="path2712" d="m0 0h1152v864h-1152z"/>
 </clipPath>
 <g id="g2929" transform="translate(-177.1 -354.43)" clip-path="url(#p.0)">
  <path id="path2717" d="m201.6 409.2h-24v22.772h24z" fill="#cfe2f3" fill-rule="evenodd"/>
  <path id="path2719" d="m201.6 409.2h-24v22.772h24z" fill-rule="evenodd" stroke="#000" stroke-linecap="butt" stroke-linejoin="round"/>
  <path id="path2721" d="m187.15 420.68q0-1.6875 0.34375-2.7188 0.35937-1.0312 1.0469-1.5938t1.7188-0.5625q0.78125 0 1.3594 0.3125 0.57812 0.29687 0.95312 0.89062 0.375 0.57813 0.59375 1.4219 0.21875 0.82812 0.21875 2.25 0 1.6719-0.35937 2.7031-0.34375 1.0312-1.0312 1.5938-0.67188 0.5625-1.7344 0.5625-1.375 0-2.1562-0.98437-0.95312-1.1875-0.95312-3.875zm1.2031 0q0 2.3438 0.54688 3.125 0.5625 0.78125 1.3594 0.78125 0.8125 0 1.3594-0.78125 0.5625-0.78125 0.5625-3.125 0-2.3594-0.5625-3.125-0.54688-0.78125-1.3594-0.78125t-1.2969 0.6875q-0.60938 0.875-0.60938 3.2188z" fill="#000"/>
  <path id="path2723" d="m225.6 409.2h-24v22.772h24z" fill="#cfe2f3" fill-rule="evenodd"/>
  <path id="path2725" d="m225.6 409.2h-24v22.772h24z" fill-rule="evenodd" stroke="#000" stroke-linecap="butt" stroke-linejoin="round"/>
  <path id="path2727" d="m211.15 420.68q0-1.6875 0.34375-2.7188 0.35937-1.0312 1.0469-1.5938t1.7188-0.5625q0.78125 0 1.3594 0.3125 0.57812 0.29687 0.95312 0.89062 0.375 0.57813 0.59375 1.4219 0.21875 0.82812 0.21875 2.25 0 1.6719-0.35937 2.7031-0.34375 1.0312-1.0312 1.5938-0.67188 0.5625-1.7344 0.5625-1.375 0-2.1562-0.98437-0.95312-1.1875-0.95312-3.875zm1.2031 0q0 2.3438 0.54688 3.125 0.5625 0.78125 1.3594 0.78125 0.8125 0 1.3594-0.78125 0.5625-0.78125 0.5625-3.125 0-2.3594-0.5625-3.125-0.54688-0.78125-1.3594-0.78125t-1.2969 0.6875q-0.60938 0.875-0.60938 3.2188z" fill="#000"/>
  <path id="path2729" d="m249.6 409.2h-24v22.772h24z" fill="#cfe2f3" fill-rule="evenodd"/>
  <path id="path2731" d="m249.6 409.2h-24v22.772h24z" fill-rule="evenodd" stroke="#000" stroke-linecap="butt" stroke-linejoin="round"/>
  <path id="path2733" d="m235.15 420.68q0-1.6875 0.34375-2.7188 0.35937-1.0312 1.0469-1.5938t1.7188-0.5625q0.78125 0 1.3594 0.3125 0.57812 0.29687 0.95312 0.89062 0.375 0.57813 0.59375 1.4219 0.21875 0.82812 0.21875 2.25 0 1.6719-0.35937 2.7031-0.34375 1.0312-1.0312 1.5938-0.67188 0.5625-1.7344 0.5625-1.375 0-2.1562-0.98437-0.95312-1.1875-0.95312-3.875zm1.2031 0q0 2.3438 0.54688 3.125 0.5625 0.78125 1.3594 0.78125 0.8125 0 1.3594-0.78125 0.5625-0.78125 0.5625-3.125 0-2.3594-0.5625-3.125-0.54688-0.78125-1.3594-0.78125t-1.2969 0.6875q-0.60938 0.875-0.60938 3.2188z" fill="#000"/>
  <path id="path2735" d="m273.6 409.2h-24v22.772h24z" fill="#cfe2f3" fill-rule="evenodd"/>
  <path id="path2737" d="m273.6 409.2h-24v22.772h24z" fill-rule="evenodd" stroke="#000" stroke-linecap="butt" stroke-linejoin="round"/>
  <path id="path2739" d="m259.15 420.68q0-1.6875 0.34375-2.7188 0.35938-1.0312 1.0469-1.5938t1.7188-0.5625q0.78125 0 1.3594 0.3125 0.57813 0.29687 0.95313 0.89062 0.375 0.57813 0.59375 1.4219 0.21875 0.82812 0.21875 2.25 0 1.6719-0.35938 2.7031-0.34375 1.0312-1.0312 1.5938-0.67187 0.5625-1.7344 0.5625-1.375 0-2.1562-0.98437-0.95313-1.1875-0.95313-3.875zm1.2031 0q0 2.3438 0.54687 3.125 0.5625 0.78125 1.3594 0.78125 0.8125 0 1.3594-0.78125 0.5625-0.78125 0.5625-3.125 0-2.3594-0.5625-3.125-0.54687-0.78125-1.3594-0.78125t-1.2969 0.6875q-0.60937 0.875-0.60937 3.2188z" fill="#000"/>
  <path id="path2741" d="m297.6 409.2h-24v22.772h24z" fill="#cfe2f3" fill-rule="evenodd"/>
  <path id="path2743" d="m297.6 409.2h-24v22.772h24z" fill-rule="evenodd" stroke="#000" stroke-linecap="butt" stroke-linejoin="round"/>
  <path id="path2745" d="m283.15 420.68q0-1.6875 0.34375-2.7188 0.35938-1.0312 1.0469-1.5938t1.7188-0.5625q0.78125 0 1.3594 0.3125 0.57813 0.29687 0.95313 0.89062 0.375 0.57813 0.59375 1.4219 0.21875 0.82812 0.21875 2.25 0 1.6719-0.35938 2.7031-0.34375 1.0312-1.0312 1.5938-0.67187 0.5625-1.7344 0.5625-1.375 0-2.1562-0.98437-0.95313-1.1875-0.95313-3.875zm1.2031 0q0 2.3438 0.54687 3.125 0.5625 0.78125 1.3594 0.78125 0.8125 0 1.3594-0.78125 0.5625-0.78125 0.5625-3.125 0-2.3594-0.5625-3.125-0.54687-0.78125-1.3594-0.78125t-1.2969 0.6875q-0.60937 0.875-0.60937 3.2188z" fill="#000"/>
  <path id="path2747" d="m321.6 409.2h-24v22.772h24z" fill="#cfe2f3" fill-rule="evenodd"/>
  <path id="path2749" d="m321.6 409.2h-24v22.772h24z" fill-rule="evenodd" stroke="#000" stroke-linecap="butt" stroke-linejoin="round"/>
  <path id="path2751" d="m307.15 420.68q0-1.6875 0.34375-2.7188 0.35938-1.0312 1.0469-1.5938t1.7188-0.5625q0.78125 0 1.3594 0.3125 0.57813 0.29687 0.95313 0.89062 0.375 0.57813 0.59375 1.4219 0.21875 0.82812 0.21875 2.25 0 1.6719-0.35938 2.7031-0.34375 1.0312-1.0312 1.5938-0.67187 0.5625-1.7344 0.5625-1.375 0-2.1562-0.98437-0.95313-1.1875-0.95313-3.875zm1.2031 0q0 2.3438 0.54687 3.125 0.5625 0.78125 1.3594 0.78125 0.8125 0 1.3594-0.78125 0.5625-0.78125 0.5625-3.125 0-2.3594-0.5625-3.125-0.54687-0.78125-1.3594-0.78125t-1.2969 0.6875q-0.60937 0.875-0.60937 3.2188z" fill="#000"/>
  <path id="path2753" d="m345.6 409.2h-24v22.772h24z" fill="#cfe2f3" fill-rule="evenodd"/>
  <path id="path2755" d="m345.6 409.2h-24v22.772h24z" fill-rule="evenodd" stroke="#000" stroke-linecap="butt" stroke-linejoin="round"/>
  <path id="path2757" d="m331.15 420.68q0-1.6875 0.34375-2.7188 0.35938-1.0312 1.0469-1.5938t1.7188-0.5625q0.78125 0 1.3594 0.3125 0.57813 0.29687 0.95313 0.89062 0.375 0.57813 0.59375 1.4219 0.21875 0.82812 0.21875 2.25 0 1.6719-0.35938 2.7031-0.34375 1.0312-1.0312 1.5938-0.67187 0.5625-1.7344 0.5625-1.375 0-2.1562-0.98437-0.95313-1.1875-0.95313-3.875zm1.2031 0q0 2.3438 0.54687 3.125 0.5625 0.78125 1.3594 0.78125 0.8125 0 1.3594-0.78125 0.5625-0.78125 0.5625-3.125 0-2.3594-0.5625-3.125-0.54687-0.78125-1.3594-0.78125t-1.2969 0.6875q-0.60937 0.875-0.60937 3.2188z" fill="#000"/>
  <path id="path2759" d="m369.6 409.2h-24v22.772h24z" fill="#cfe2f3" fill-rule="evenodd"/>
  <path id="path2761" d="m369.6 409.2h-24v22.772h24z" fill-rule="evenodd" stroke="#000" stroke-linecap="butt" stroke-linejoin="round"/>
  <path id="path2763" d="m355.15 420.68q0-1.6875 0.34375-2.7188 0.35938-1.0312 1.0469-1.5938t1.7188-0.5625q0.78125 0 1.3594 0.3125 0.57813 0.29687 0.95313 0.89062 0.375 0.57813 0.59375 1.4219 0.21875 0.82812 0.21875 2.25 0 1.6719-0.35938 2.7031-0.34375 1.0312-1.0312 1.5938-0.67187 0.5625-1.7344 0.5625-1.375 0-2.1562-0.98437-0.95313-1.1875-0.95313-3.875zm1.2031 0q0 2.3438 0.54687 3.125 0.5625 0.78125 1.3594 0.78125 0.8125 0 1.3594-0.78125 0.5625-0.78125 0.5625-3.125 0-2.3594-0.5625-3.125-0.54687-0.78125-1.3594-0.78125t-1.2969 0.6875q-0.60937 0.875-0.60937 3.2188z" fill="#000"/>
  <path id="path2765" d="m403.2 409.2h-24v22.772h24z" fill="#cfe2f3" fill-rule="evenodd"/>
  <path id="path2767" d="m403.2 409.2h-24v22.772h24z" fill-rule="evenodd" stroke="#000" stroke-linecap="butt" stroke-linejoin="round"/>
  <path id="path2769" d="m388.75 420.68q0-1.6875 0.34375-2.7188 0.35937-1.0312 1.0469-1.5938t1.7188-0.5625q0.78125 0 1.3594 0.3125 0.57812 0.29687 0.95312 0.89062 0.375 0.57813 0.59375 1.4219 0.21875 0.82812 0.21875 2.25 0 1.6719-0.35937 2.7031-0.34375 1.0312-1.0312 1.5938-0.67188 0.5625-1.7344 0.5625-1.375 0-2.1562-0.98437-0.95312-1.1875-0.95312-3.875zm1.2031 0q0 2.3438 0.54688 3.125 0.5625 0.78125 1.3594 0.78125 0.8125 0 1.3594-0.78125 0.5625-0.78125 0.5625-3.125 0-2.3594-0.5625-3.125-0.54688-0.78125-1.3594-0.78125t-1.2969 0.6875q-0.60938 0.875-0.60938 3.2188z" fill="#000"/>
  <path id="path2771" d="m427.2 409.2h-24v22.772h24z" fill="#cfe2f3" fill-rule="evenodd"/>
  <path id="path2773" d="m427.2 409.2h-24v22.772h24z" fill-rule="evenodd" stroke="#000" stroke-linecap="butt" stroke-linejoin="round"/>
  <path id="path2775" d="m412.75 420.68q0-1.6875 0.34375-2.7188 0.35937-1.0312 1.0469-1.5938t1.7188-0.5625q0.78125 0 1.3594 0.3125 0.57812 0.29687 0.95312 0.89062 0.375 0.57813 0.59375 1.4219 0.21875 0.82812 0.21875 2.25 0 1.6719-0.35937 2.7031-0.34375 1.0312-1.0312 1.5938-0.67188 0.5625-1.7344 0.5625-1.375 0-2.1562-0.98437-0.95312-1.1875-0.95312-3.875zm1.2031 0q0 2.3438 0.54688 3.125 0.5625 0.78125 1.3594 0.78125 0.8125 0 1.3594-0.78125 0.5625-0.78125 0.5625-3.125 0-2.3594-0.5625-3.125-0.54688-0.78125-1.3594-0.78125t-1.2969 0.6875q-0.60938 0.875-0.60938 3.2188z" fill="#000"/>
  <path id="path2777" d="m451.2 409.2h-24v22.772h24z" fill="#cfe2f3" fill-rule="evenodd"/>
  <path id="path2779" d="m451.2 409.2h-24v22.772h24z" fill-rule="evenodd" stroke="#000" stroke-linecap="butt" stroke-linejoin="round"/>
  <path id="path2781" d="m436.75 420.68q0-1.6875 0.34375-2.7188 0.35937-1.0312 1.0469-1.5938t1.7188-0.5625q0.78125 0 1.3594 0.3125 0.57812 0.29687 0.95312 0.89062 0.375 0.57813 0.59375 1.4219 0.21875 0.82812 0.21875 2.25 0 1.6719-0.35937 2.7031-0.34375 1.0312-1.0312 1.5938-0.67188 0.5625-1.7344 0.5625-1.375 0-2.1562-0.98437-0.95312-1.1875-0.95312-3.875zm1.2031 0q0 2.3438 0.54688 3.125 0.5625 0.78125 1.3594 0.78125 0.8125 0 1.3594-0.78125 0.5625-0.78125 0.5625-3.125 0-2.3594-0.5625-3.125-0.54688-0.78125-1.3594-0.78125t-1.2969 0.6875q-0.60938 0.875-0.60938 3.2188z" fill="#000"/>
  <path id="path2783" d="m475.2 409.2h-24v22.772h24z" fill="#cfe2f3" fill-rule="evenodd"/>
  <path id="path2785" d="m475.2 409.2h-24v22.772h24z" fill-rule="evenodd" stroke="#000" stroke-linecap="butt" stroke-linejoin="round"/>
  <path id="path2787" d="m460.75 420.68q0-1.6875 0.34375-2.7188 0.35937-1.0312 1.0469-1.5938t1.7188-0.5625q0.78125 0 1.3594 0.3125 0.57812 0.29687 0.95312 0.89062 0.375 0.57813 0.59375 1.4219 0.21875 0.82812 0.21875 2.25 0 1.6719-0.35937 2.7031-0.34375 1.0312-1.0312 1.5938-0.67188 0.5625-1.7344 0.5625-1.375 0-2.1562-0.98437-0.95312-1.1875-0.95312-3.875zm1.2031 0q0 2.3438 0.54688 3.125 0.5625 0.78125 1.3594 0.78125 0.8125 0 1.3594-0.78125 0.5625-0.78125 0.5625-3.125 0-2.3594-0.5625-3.125-0.54688-0.78125-1.3594-0.78125t-1.2969 0.6875q-0.60938 0.875-0.60938 3.2188z" fill="#000"/>
  <path id="path2789" d="m499.2 409.2h-24v22.772h24z" fill="#cfe2f3" fill-rule="evenodd"/>
  <path id="path2791" d="m499.2 409.2h-24v22.772h24z" fill-rule="evenodd" stroke="#000" stroke-linecap="butt" stroke-linejoin="round"/>
  <path id="path2793" d="m484.75 420.68q0-1.6875 0.34375-2.7188 0.35937-1.0312 1.0469-1.5938t1.7188-0.5625q0.78125 0 1.3594 0.3125 0.57812 0.29687 0.95312 0.89062 0.375 0.57813 0.59375 1.4219 0.21875 0.82812 0.21875 2.25 0 1.6719-0.35937 2.7031-0.34375 1.0312-1.0312 1.5938-0.67188 0.5625-1.7344 0.5625-1.375 0-2.1562-0.98437-0.95312-1.1875-0.95312-3.875zm1.2031 0q0 2.3438 0.54688 3.125 0.5625 0.78125 1.3594 0.78125 0.8125 0 1.3594-0.78125 0.5625-0.78125 0.5625-3.125 0-2.3594-0.5625-3.125-0.54688-0.78125-1.3594-0.78125t-1.2969 0.6875q-0.60938 0.875-0.60938 3.2188z" fill="#000"/>
  <path id="path2795" d="m523.2 409.2h-24v22.772h24z" fill="#cfe2f3" fill-rule="evenodd"/>
  <path id="path2797" d="m523.2 409.2h-24v22.772h24z" fill-rule="evenodd" stroke="#000" stroke-linecap="butt" stroke-linejoin="round"/>
  <path id="path2799" d="m508.75 420.68q0-1.6875 0.34375-2.7188 0.35937-1.0312 1.0469-1.5938t1.7188-0.5625q0.78125 0 1.3594 0.3125 0.57812 0.29687 0.95312 0.89062 0.375 0.57813 0.59375 1.4219 0.21875 0.82812 0.21875 2.25 0 1.6719-0.35937 2.7031-0.34375 1.0312-1.0312 1.5938-0.67188 0.5625-1.7344 0.5625-1.375 0-2.1562-0.98437-0.95312-1.1875-0.95312-3.875zm1.2031 0q0 2.3438 0.54688 3.125 0.5625 0.78125 1.3594 0.78125 0.8125 0 1.3594-0.78125 0.5625-0.78125 0.5625-3.125 0-2.3594-0.5625-3.125-0.54688-0.78125-1.3594-0.78125t-1.2969 0.6875q-0.60938 0.875-0.60938 3.2188z" fill="#000"/>
  <path id="path2801" d="m547.2 409.2h-24v22.772h24z" fill="#cfe2f3" fill-rule="evenodd"/>
  <path id="path2803" d="m547.2 409.2h-24v22.772h24z" fill-rule="evenodd" stroke="#000" stroke-linecap="butt" stroke-linejoin="round"/>
  <path id="path2805" d="m532.75 420.68q0-1.6875 0.34375-2.7188 0.35938-1.0312 1.0469-1.5938t1.7188-0.5625q0.78125 0 1.3594 0.3125 0.57813 0.29687 0.95313 0.89062 0.375 0.57813 0.59375 1.4219 0.21875 0.82812 0.21875 2.25 0 1.6719-0.35938 2.7031-0.34375 1.0312-1.0312 1.5938-0.67187 0.5625-1.7344 0.5625-1.375 0-2.1562-0.98437-0.95313-1.1875-0.95313-3.875zm1.2031 0q0 2.3438 0.54687 3.125 0.5625 0.78125 1.3594 0.78125 0.8125 0 1.3594-0.78125 0.5625-0.78125 0.5625-3.125 0-2.3594-0.5625-3.125-0.54687-0.78125-1.3594-0.78125t-1.2969 0.6875q-0.60937 0.875-0.60937 3.2188z" fill="#000"/>
  <path id="path2807" d="m571.2 409.2h-24v22.772h24z" fill="#cfe2f3" fill-rule="evenodd"/>
  <path id="path2809" d="m571.2 409.2h-24v22.772h24z" fill-rule="evenodd" stroke="#000" stroke-linecap="butt" stroke-linejoin="round"/>
  <path id="path2811" d="m556.75 420.68q0-1.6875 0.34375-2.7188 0.35938-1.0312 1.0469-1.5938t1.7188-0.5625q0.78125 0 1.3594 0.3125 0.57813 0.29687 0.95313 0.89062 0.375 0.57813 0.59375 1.4219 0.21875 0.82812 0.21875 2.25 0 1.6719-0.35938 2.7031-0.34375 1.0312-1.0312 1.5938-0.67187 0.5625-1.7344 0.5625-1.375 0-2.1562-0.98437-0.95313-1.1875-0.95313-3.875zm1.2031 0q0 2.3438 0.54687 3.125 0.5625 0.78125 1.3594 0.78125 0.8125 0 1.3594-0.78125 0.5625-0.78125 0.5625-3.125 0-2.3594-0.5625-3.125-0.54687-0.78125-1.3594-0.78125t-1.2969 0.6875q-0.60937 0.875-0.60937 3.2188z" fill="#000"/>
  <path id="path2813" d="m604.8 409.2h-24v22.772h24z" fill="#cfe2f3" fill-rule="evenodd"/>
  <path id="path2815" d="m604.8 409.2h-24v22.772h24z" fill-rule="evenodd" stroke="#000" stroke-linecap="butt" stroke-linejoin="round"/>
  <path id="path2817" d="m590.35 420.68q0-1.6875 0.34375-2.7188 0.35937-1.0312 1.0469-1.5938t1.7188-0.5625q0.78125 0 1.3594 0.3125 0.57812 0.29687 0.95312 0.89062 0.375 0.57813 0.59375 1.4219 0.21875 0.82812 0.21875 2.25 0 1.6719-0.35937 2.7031-0.34375 1.0312-1.0312 1.5938-0.67188 0.5625-1.7344 0.5625-1.375 0-2.1562-0.98437-0.95312-1.1875-0.95312-3.875zm1.2031 0q0 2.3438 0.54688 3.125 0.5625 0.78125 1.3594 0.78125 0.8125 0 1.3594-0.78125 0.5625-0.78125 0.5625-3.125 0-2.3594-0.5625-3.125-0.54688-0.78125-1.3594-0.78125t-1.2969 0.6875q-0.60938 0.875-0.60938 3.2188z" fill="#000"/>
  <path id="path2819" d="m628.8 409.2h-24v22.772h24z" fill="#cfe2f3" fill-rule="evenodd"/>
  <path id="path2821" d="m628.8 409.2h-24v22.772h24z" fill-rule="evenodd" stroke="#000" stroke-linecap="butt" stroke-linejoin="round"/>
  <path id="path2823" d="m614.35 420.68q0-1.6875 0.34375-2.7188 0.35937-1.0312 1.0469-1.5938t1.7188-0.5625q0.78125 0 1.3594 0.3125 0.57812 0.29687 0.95312 0.89062 0.375 0.57813 0.59375 1.4219 0.21875 0.82812 0.21875 2.25 0 1.6719-0.35937 2.7031-0.34375 1.0312-1.0312 1.5938-0.67188 0.5625-1.7344 0.5625-1.375 0-2.1562-0.98437-0.95312-1.1875-0.95312-3.875zm1.2031 0q0 2.3438 0.54688 3.125 0.5625 0.78125 1.3594 0.78125 0.8125 0 1.3594-0.78125 0.5625-0.78125 0.5625-3.125 0-2.3594-0.5625-3.125-0.54688-0.78125-1.3594-0.78125t-1.2969 0.6875q-0.60938 0.875-0.60938 3.2188z" fill="#000"/>
  <path id="path2825" d="m652.8 409.2h-24v22.772h24z" fill="#cfe2f3" fill-rule="evenodd"/>
  <path id="path2827" d="m652.8 409.2h-24v22.772h24z" fill-rule="evenodd" stroke="#000" stroke-linecap="butt" stroke-linejoin="round"/>
  <path id="path2829" d="m638.35 420.68q0-1.6875 0.34375-2.7188 0.35937-1.0312 1.0469-1.5938t1.7188-0.5625q0.78125 0 1.3594 0.3125 0.57812 0.29687 0.95312 0.89062 0.375 0.57813 0.59375 1.4219 0.21875 0.82812 0.21875 2.25 0 1.6719-0.35937 2.7031-0.34375 1.0312-1.0312 1.5938-0.67188 0.5625-1.7344 0.5625-1.375 0-2.1562-0.98437-0.95312-1.1875-0.95312-3.875zm1.2031 0q0 2.3438 0.54688 3.125 0.5625 0.78125 1.3594 0.78125 0.8125 0 1.3594-0.78125 0.5625-0.78125 0.5625-3.125 0-2.3594-0.5625-3.125-0.54688-0.78125-1.3594-0.78125t-1.2969 0.6875q-0.60938 0.875-0.60938 3.2188z" fill="#000"/>
  <path id="path2831" d="m676.8 409.2h-24v22.772h24z" fill="#cfe2f3" fill-rule="evenodd"/>
  <path id="path2833" d="m676.8 409.2h-24v22.772h24z" fill-rule="evenodd" stroke="#000" stroke-linecap="butt" stroke-linejoin="round"/>
  <path id="path2835" d="m662.35 420.68q0-1.6875 0.34375-2.7188 0.35937-1.0312 1.0469-1.5938t1.7188-0.5625q0.78125 0 1.3594 0.3125 0.57812 0.29687 0.95312 0.89062 0.375 0.57813 0.59375 1.4219 0.21875 0.82812 0.21875 2.25 0 1.6719-0.35937 2.7031-0.34375 1.0312-1.0312 1.5938-0.67188 0.5625-1.7344 0.5625-1.375 0-2.1562-0.98437-0.95312-1.1875-0.95312-3.875zm1.2031 0q0 2.3438 0.54688 3.125 0.5625 0.78125 1.3594 0.78125 0.8125 0 1.3594-0.78125 0.5625-0.78125 0.5625-3.125 0-2.3594-0.5625-3.125-0.54688-0.78125-1.3594-0.78125t-1.2969 0.6875q-0.60938 0.875-0.60938 3.2188z" fill="#000"/>
  <path id="path2837" d="m700.8 409.2h-24v22.772h24z" fill="#cfe2f3" fill-rule="evenodd"/>
  <path id="path2839" d="m700.8 409.2h-24v22.772h24z" fill-rule="evenodd" stroke="#000" stroke-linecap="butt" stroke-linejoin="round"/>
  <path id="path2841" d="m686.35 420.68q0-1.6875 0.34375-2.7188 0.35937-1.0312 1.0469-1.5938t1.7188-0.5625q0.78125 0 1.3594 0.3125 0.57812 0.29687 0.95312 0.89062 0.375 0.57813 0.59375 1.4219 0.21875 0.82812 0.21875 2.25 0 1.6719-0.35937 2.7031-0.34375 1.0312-1.0312 1.5938-0.67188 0.5625-1.7344 0.5625-1.375 0-2.1562-0.98437-0.95312-1.1875-0.95312-3.875zm1.2031 0q0 2.3438 0.54688 3.125 0.5625 0.78125 1.3594 0.78125 0.8125 0 1.3594-0.78125 0.5625-0.78125 0.5625-3.125 0-2.3594-0.5625-3.125-0.54688-0.78125-1.3594-0.78125t-1.2969 0.6875q-0.60938 0.875-0.60938 3.2188z" fill="#000"/>
  <path id="path2843" d="m724.8 409.2h-24v22.772h24z" fill="#cfe2f3" fill-rule="evenodd"/>
  <path id="path2845" d="m724.8 409.2h-24v22.772h24z" fill-rule="evenodd" stroke="#000" stroke-linecap="butt" stroke-linejoin="round"/>
  <path id="path2847" d="m710.35 420.68q0-1.6875 0.34375-2.7188 0.35937-1.0312 1.0469-1.5938t1.7188-0.5625q0.78125 0 1.3594 0.3125 0.57812 0.29687 0.95312 0.89062 0.375 0.57813 0.59375 1.4219 0.21875 0.82812 0.21875 2.25 0 1.6719-0.35937 2.7031-0.34375 1.0312-1.0312 1.5938-0.67188 0.5625-1.7344 0.5625-1.375 0-2.1562-0.98437-0.95312-1.1875-0.95312-3.875zm1.2031 0q0 2.3438 0.54688 3.125 0.5625 0.78125 1.3594 0.78125 0.8125 0 1.3594-0.78125 0.5625-0.78125 0.5625-3.125 0-2.3594-0.5625-3.125-0.54688-0.78125-1.3594-0.78125t-1.2969 0.6875q-0.60938 0.875-0.60938 3.2188z" fill="#000"/>
  <path id="path2849" d="m748.8 409.2h-24v22.772h24z" fill="#cfe2f3" fill-rule="evenodd"/>
  <path id="path2851" d="m748.8 409.2h-24v22.772h24z" fill-rule="evenodd" stroke="#000" stroke-linecap="butt" stroke-linejoin="round"/>
  <path id="path2853" d="m734.35 420.68q0-1.6875 0.34375-2.7188 0.35937-1.0312 1.0469-1.5938t1.7188-0.5625q0.78125 0 1.3594 0.3125 0.57812 0.29687 0.95312 0.89062 0.375 0.57813 0.59375 1.4219 0.21875 0.82812 0.21875 2.25 0 1.6719-0.35937 2.7031-0.34375 1.0312-1.0312 1.5938-0.67188 0.5625-1.7344 0.5625-1.375 0-2.1562-0.98437-0.95312-1.1875-0.95312-3.875zm1.2031 0q0 2.3438 0.54688 3.125 0.5625 0.78125 1.3594 0.78125 0.8125 0 1.3594-0.78125 0.5625-0.78125 0.5625-3.125 0-2.3594-0.5625-3.125-0.54688-0.78125-1.3594-0.78125t-1.2969 0.6875q-0.60938 0.875-0.60938 3.2188z" fill="#000"/>
  <path id="path2855" d="m772.8 409.2h-24v22.772h24z" fill="#cfe2f3" fill-rule="evenodd"/>
  <path id="path2857" d="m772.8 409.2h-24v22.772h24z" fill-rule="evenodd" stroke="#000" stroke-linecap="butt" stroke-linejoin="round"/>
  <path id="path2859" d="m758.35 420.68q0-1.6875 0.34375-2.7188 0.35937-1.0312 1.0469-1.5938t1.7188-0.5625q0.78125 0 1.3594 0.3125 0.57812 0.29687 0.95312 0.89062 0.375 0.57813 0.59375 1.4219 0.21875 0.82812 0.21875 2.25 0 1.6719-0.35937 2.7031-0.34375 1.0312-1.0312 1.5938-0.67188 0.5625-1.7344 0.5625-1.375 0-2.1562-0.98437-0.95312-1.1875-0.95312-3.875zm1.2031 0q0 2.3438 0.54688 3.125 0.5625 0.78125 1.3594 0.78125 0.8125 0 1.3594-0.78125 0.5625-0.78125 0.5625-3.125 0-2.3594-0.5625-3.125-0.54688-0.78125-1.3594-0.78125t-1.2969 0.6875q-0.60938 0.875-0.60938 3.2188z" fill="#000"/>
  <path id="path2861" d="m806.4 409.2h-24v22.772h24z" fill="#cfe2f3" fill-rule="evenodd"/>
  <path id="path2863" d="m806.4 409.2h-24v22.772h24z" fill-rule="evenodd" stroke="#000" stroke-linecap="butt" stroke-linejoin="round"/>
  <path id="path2865" d="m791.95 420.68q0-1.6875 0.34375-2.7188 0.35937-1.0312 1.0469-1.5938t1.7188-0.5625q0.78125 0 1.3594 0.3125 0.57812 0.29687 0.95312 0.89062 0.375 0.57813 0.59375 1.4219 0.21875 0.82812 0.21875 2.25 0 1.6719-0.35937 2.7031-0.34375 1.0312-1.0312 1.5938-0.67188 0.5625-1.7344 0.5625-1.375 0-2.1562-0.98437-0.95312-1.1875-0.95312-3.875zm1.2031 0q0 2.3438 0.54688 3.125 0.5625 0.78125 1.3594 0.78125 0.8125 0 1.3594-0.78125 0.5625-0.78125 0.5625-3.125 0-2.3594-0.5625-3.125-0.54688-0.78125-1.3594-0.78125t-1.2969 0.6875q-0.60938 0.875-0.60938 3.2188z" fill="#000"/>
  <path id="path2867" d="m830.4 409.2h-24v22.772h24z" fill="#cfe2f3" fill-rule="evenodd"/>
  <path id="path2869" d="m830.4 409.2h-24v22.772h24z" fill-rule="evenodd" stroke="#000" stroke-linecap="butt" stroke-linejoin="round"/>
  <path id="path2871" d="m815.95 420.68q0-1.6875 0.34375-2.7188 0.35937-1.0312 1.0469-1.5938t1.7188-0.5625q0.78125 0 1.3594 0.3125 0.57812 0.29687 0.95312 0.89062 0.375 0.57813 0.59375 1.4219 0.21875 0.82812 0.21875 2.25 0 1.6719-0.35937 2.7031-0.34375 1.0312-1.0312 1.5938-0.67188 0.5625-1.7344 0.5625-1.375 0-2.1562-0.98437-0.95312-1.1875-0.95312-3.875zm1.2031 0q0 2.3438 0.54688 3.125 0.5625 0.78125 1.3594 0.78125 0.8125 0 1.3594-0.78125 0.5625-0.78125 0.5625-3.125 0-2.3594-0.5625-3.125-0.54688-0.78125-1.3594-0.78125t-1.2969 0.6875q-0.60938 0.875-0.60938 3.2188z" fill="#000"/>
  <path id="path2873" d="m854.4 409.2h-24v22.772h24z" fill="#cfe2f3" fill-rule="evenodd"/>
  <path id="path2875" d="m854.4 409.2h-24v22.772h24z" fill-rule="evenodd" stroke="#000" stroke-linecap="butt" stroke-linejoin="round"/>
  <path id="path2877" d="m839.95 420.68q0-1.6875 0.34375-2.7188 0.35937-1.0312 1.0469-1.5938t1.7188-0.5625q0.78125 0 1.3594 0.3125 0.57812 0.29687 0.95312 0.89062 0.375 0.57813 0.59375 1.4219 0.21875 0.82812 0.21875 2.25 0 1.6719-0.35937 2.7031-0.34375 1.0312-1.0312 1.5938-0.67188 0.5625-1.7344 0.5625-1.375 0-2.1562-0.98437-0.95312-1.1875-0.95312-3.875zm1.2031 0q0 2.3438 0.54688 3.125 0.5625 0.78125 1.3594 0.78125 0.8125 0 1.3594-0.78125 0.5625-0.78125 0.5625-3.125 0-2.3594-0.5625-3.125-0.54688-0.78125-1.3594-0.78125t-1.2969 0.6875q-0.60938 0.875-0.60938 3.2188z" fill="#000"/>
  <path id="path2879" d="m878.4 409.2h-24v22.772h24z" fill="#cfe2f3" fill-rule="evenodd"/>
  <path id="path2881" d="m878.4 409.2h-24v22.772h24z" fill-rule="evenodd" stroke="#000" stroke-linecap="butt" stroke-linejoin="round"/>
  <path id="path2883" d="m863.95 420.68q0-1.6875 0.34375-2.7188 0.35937-1.0312 1.0469-1.5938t1.7188-0.5625q0.78125 0 1.3594 0.3125 0.57812 0.29687 0.95312 0.89062 0.375 0.57813 0.59375 1.4219 0.21875 0.82812 0.21875 2.25 0 1.6719-0.35937 2.7031-0.34375 1.0312-1.0312 1.5938-0.67188 0.5625-1.7344 0.5625-1.375 0-2.1562-0.98437-0.95312-1.1875-0.95312-3.875zm1.2031 0q0 2.3438 0.54688 3.125 0.5625 0.78125 1.3594 0.78125 0.8125 0 1.3594-0.78125 0.5625-0.78125 0.5625-3.125 0-2.3594-0.5625-3.125-0.54688-0.78125-1.3594-0.78125t-1.2969 0.6875q-0.60938 0.875-0.60938 3.2188z" fill="#000"/>
  <path id="path2885" d="m902.4 409.2h-24v22.772h24z" fill="#cfe2f3" fill-rule="evenodd"/>
  <path id="path2887" d="m902.4 409.2h-24v22.772h24z" fill-rule="evenodd" stroke="#000" stroke-linecap="butt" stroke-linejoin="round"/>
  <path id="path2889" d="m887.95 420.68q0-1.6875 0.34375-2.7188 0.35937-1.0312 1.0469-1.5938t1.7188-0.5625q0.78125 0 1.3594 0.3125 0.57812 0.29687 0.95312 0.89062 0.375 0.57813 0.59375 1.4219 0.21875 0.82812 0.21875 2.25 0 1.6719-0.35937 2.7031-0.34375 1.0312-1.0312 1.5938-0.67188 0.5625-1.7344 0.5625-1.375 0-2.1562-0.98437-0.95312-1.1875-0.95312-3.875zm1.2031 0q0 2.3438 0.54688 3.125 0.5625 0.78125 1.3594 0.78125 0.8125 0 1.3594-0.78125 0.5625-0.78125 0.5625-3.125 0-2.3594-0.5625-3.125-0.54688-0.78125-1.3594-0.78125t-1.2969 0.6875q-0.60938 0.875-0.60938 3.2188z" fill="#000"/>
  <path id="path2891" d="m926.4 409.2h-24v22.772h24z" fill="#cfe2f3" fill-rule="evenodd"/>
  <path id="path2893" d="m926.4 409.2h-24v22.772h24z" fill-rule="evenodd" stroke="#000" stroke-linecap="butt" stroke-linejoin="round"/>
  <path id="path2895" d="m911.95 420.68q0-1.6875 0.34375-2.7188 0.35937-1.0312 1.0469-1.5938t1.7188-0.5625q0.78125 0 1.3594 0.3125 0.57812 0.29687 0.95312 0.89062 0.375 0.57813 0.59375 1.4219 0.21875 0.82812 0.21875 2.25 0 1.6719-0.35937 2.7031-0.34375 1.0312-1.0312 1.5938-0.67188 0.5625-1.7344 0.5625-1.375 0-2.1562-0.98437-0.95312-1.1875-0.95312-3.875zm1.2031 0q0 2.3438 0.54688 3.125 0.5625 0.78125 1.3594 0.78125 0.8125 0 1.3594-0.78125 0.5625-0.78125 0.5625-3.125 0-2.3594-0.5625-3.125-0.54688-0.78125-1.3594-0.78125t-1.2969 0.6875q-0.60938 0.875-0.60938 3.2188z" fill="#000"/>
  <path id="path2897" d="m950.4 409.2h-24v22.772h24z" fill="#cfe2f3" fill-rule="evenodd"/>
  <path id="path2899" d="m950.4 409.2h-24v22.772h24z" fill-rule="evenodd" stroke="#000" stroke-linecap="butt" stroke-linejoin="round"/>
  <path id="path2901" d="m935.95 420.68q0-1.6875 0.34375-2.7188 0.35937-1.0312 1.0469-1.5938t1.7188-0.5625q0.78125 0 1.3594 0.3125 0.57812 0.29687 0.95312 0.89062 0.375 0.57813 0.59375 1.4219 0.21875 0.82812 0.21875 2.25 0 1.6719-0.35937 2.7031-0.34375 1.0312-1.0312 1.5938-0.67188 0.5625-1.7344 0.5625-1.375 0-2.1562-0.98437-0.95312-1.1875-0.95312-3.875zm1.2031 0q0 2.3438 0.54688 3.125 0.5625 0.78125 1.3594 0.78125 0.8125 0 1.3594-0.78125 0.5625-0.78125 0.5625-3.125 0-2.3594-0.5625-3.125-0.54688-0.78125-1.3594-0.78125t-1.2969 0.6875q-0.60938 0.875-0.60938 3.2188z" fill="#000"/>
  <path id="path2903" d="m974.4 409.2h-24v22.772h24z" fill="#cfe2f3" fill-rule="evenodd"/>
  <path id="path2905" d="m974.4 409.2h-24v22.772h24z" fill-rule="evenodd" stroke="#000" stroke-linecap="butt" stroke-linejoin="round"/>
  <path id="path2907" d="m959.95 420.68q0-1.6875 0.34375-2.7188 0.35937-1.0312 1.0469-1.5938t1.7188-0.5625q0.78125 0 1.3594 0.3125 0.57812 0.29687 0.95312 0.89062 0.375 0.57813 0.59375 1.4219 0.21875 0.82812 0.21875 2.25 0 1.6719-0.35937 2.7031-0.34375 1.0312-1.0312 1.5938-0.67188 0.5625-1.7344 0.5625-1.375 0-2.1562-0.98437-0.95312-1.1875-0.95312-3.875zm1.2031 0q0 2.3438 0.54688 3.125 0.5625 0.78125 1.3594 0.78125 0.8125 0 1.3594-0.78125 0.5625-0.78125 0.5625-3.125 0-2.3594-0.5625-3.125-0.54688-0.78125-1.3594-0.78125t-1.2969 0.6875q-0.60938 0.875-0.60938 3.2188z" fill="#000"/>
  <path id="path2909" d="m973.76 434.01c0 5.3054-4.3009 9.6063-9.6063 9.6063h-176.94c-5.3054 0-9.6063 4.3009-9.6063 9.6063 0-5.3054-4.3009-9.6063-9.6063-9.6063h-176.94c-5.3054 0-9.6063-4.3009-9.6063-9.6063z" fill="#000" fill-opacity="0" fill-rule="evenodd"/>
  <path id="path2911" d="m973.76 434.01c0 5.3054-4.3009 9.6063-9.6063 9.6063h-176.94c-5.3054 0-9.6063 4.3009-9.6063 9.6063 0-5.3054-4.3009-9.6063-9.6063-9.6063h-176.94c-5.3054 0-9.6063-4.3009-9.6063-9.6063" fill="#000" fill-opacity="0" fill-rule="evenodd"/>
  <path id="path2913" d="m973.76 434.01c0 5.3054-4.3009 9.6063-9.6063 9.6063h-176.94c-5.3054 0-9.6063 4.3009-9.6063 9.6063 0-5.3054-4.3009-9.6063-9.6063-9.6063h-176.94c-5.3054 0-9.6063-4.3009-9.6063-9.6063" fill-rule="evenodd" stroke="#000" stroke-linecap="butt" stroke-linejoin="round"/>
  <path id="path2915" d="m973.64 407.16c0-5.3054-4.3009-9.6063-9.6063-9.6063h-378.6c-5.3054 0-9.6063-4.3009-9.6063-9.6063 0 5.3054-4.3009 9.6063-9.6063 9.6063h-378.6c-5.3054 0-9.6063 4.3009-9.6063 9.6063z" fill="#000" fill-opacity="0" fill-rule="evenodd"/>
  <path id="path2917" d="m973.64 407.16c0-5.3054-4.3009-9.6063-9.6063-9.6063h-378.6c-5.3054 0-9.6063-4.3009-9.6063-9.6063 0 5.3054-4.3009 9.6063-9.6063 9.6063h-378.6c-5.3054 0-9.6063 4.3009-9.6063 9.6063" fill="#000" fill-opacity="0" fill-rule="evenodd"/>
  <path id="path2919" d="m973.64 407.16c0-5.3054-4.3009-9.6063-9.6063-9.6063h-378.6c-5.3054 0-9.6063-4.3009-9.6063-9.6063 0 5.3054-4.3009 9.6063-9.6063 9.6063h-378.6c-5.3054 0-9.6063 4.3009-9.6063 9.6063" fill-rule="evenodd" stroke="#000" stroke-linecap="butt" stroke-linejoin="round"/>
  <path id="path2921" d="m723.14 451.21h108.91v35.559h-108.91z" fill="#000" fill-opacity="0" fill-rule="evenodd"/>
  <path id="path2923" d="m758.41 473.01 3.6875-4.9688-3.25-4.5781h1.5l1.7344 2.4531q0.53125 0.76563 0.76563 1.1719 0.3125-0.51563 0.75-1.0938l1.9219-2.5312h1.375l-3.3594 4.5 3.625 5.0469h-1.5625l-2.4062-3.4062q-0.20313-0.29687-0.42188-0.64062-0.3125 0.53125-0.45312 0.71875l-2.3906 3.3281zm9.8116 0v-9.5469h1.9062l2.25 6.7656q0.3125 0.9375 0.46875 1.4062 0.15625-0.51562 0.5-1.5312l2.2812-6.6406h1.7031v9.5469h-1.2188v-7.9844l-2.7656 7.9844h-1.1406l-2.7656-8.125v8.125zm11.102 0v-9.5469h1.9062l2.25 6.7656q0.3125 0.9375 0.46875 1.4062 0.15625-0.51562 0.5-1.5312l2.2812-6.6406h1.7031v9.5469h-1.2188v-7.9844l-2.7656 7.9844h-1.1406l-2.7656-8.125v8.125zm10.665-4.7031q0-1.6875 0.34375-2.7188 0.35938-1.0312 1.0469-1.5938t1.7188-0.5625q0.78125 0 1.3594 0.3125 0.57813 0.29687 0.95313 0.89062 0.375 0.57813 0.59375 1.4219 0.21875 0.82812 0.21875 2.25 0 1.6719-0.35938 2.7031-0.34375 1.0312-1.0312 1.5938-0.67187 0.5625-1.7344 0.5625-1.375 0-2.1562-0.98437-0.95313-1.1875-0.95313-3.875zm1.2031 0q0 2.3438 0.54687 3.125 0.5625 0.78125 1.3594 0.78125 0.8125 0 1.3594-0.78125 0.5625-0.78125 0.5625-3.125 0-2.3594-0.5625-3.125-0.54687-0.78125-1.3594-0.78125t-1.2969 0.6875q-0.60937 0.875-0.60937 3.2188z" fill="#000"/>
  <path id="path2925" d="m521.38 354.43h108.91v35.559h-108.91z" fill="#000" fill-opacity="0" fill-rule="evenodd"/>
  <path id="path2927" d="m560.3 376.23v-4.0469l-3.6875-5.5h1.5469l1.875 2.875q0.51563 0.8125 0.96875 1.625 0.4375-0.75 1.0469-1.6875l1.8438-2.8125h1.4688l-3.7969 5.5v4.0469zm6.1553 0v-9.5469h1.9062l2.25 6.7656q0.3125 0.9375 0.46875 1.4062 0.15625-0.51563 0.5-1.5312l2.2812-6.6406h1.7031v9.5469h-1.2188v-7.9844l-2.7656 7.9844h-1.1406l-2.7656-8.125v8.125zm11.102 0v-9.5469h1.9062l2.25 6.7656q0.3125 0.9375 0.46875 1.4062 0.15625-0.51563 0.5-1.5312l2.2812-6.6406h1.7031v9.5469h-1.2188v-7.9844l-2.7656 7.9844h-1.1406l-2.7656-8.125v8.125zm10.665-4.7031q0-1.6875 0.34375-2.7188 0.35937-1.0312 1.0469-1.5938t1.7188-0.5625q0.78125 0 1.3594 0.3125 0.57812 0.29688 0.95312 0.89063 0.375 0.57812 0.59375 1.4219 0.21875 0.82813 0.21875 2.25 0 1.6719-0.35937 2.7031-0.34375 1.0312-1.0312 1.5938-0.67188 0.5625-1.7344 0.5625-1.375 0-2.1562-0.98438-0.95312-1.1875-0.95312-3.875zm1.2031 0q0 2.3438 0.54688 3.125 0.5625 0.78125 1.3594 0.78125 0.8125 0 1.3594-0.78125 0.5625-0.78125 0.5625-3.125 0-2.3594-0.5625-3.125-0.54688-0.78125-1.3594-0.78125t-1.2969 0.6875q-0.60938 0.875-0.60938 3.2188z" fill="#000"/>
 </g>
</svg>
