<?xml version="1.0" encoding="UTF-8"?>
<svg id="svg3039" width="798.24" height="425.98" fill="none" stroke-linecap="square" stroke-miterlimit="10" version="1.1" viewBox="0 0 798.24 425.98" xmlns="http://www.w3.org/2000/svg">
 <clipPath id="p.0">
  <path id="path2400" d="m0 0h1152v864h-1152z"/>
 </clipPath>
 <g id="g3037" transform="translate(-176.85 -212.95)" clip-path="url(#p.0)">
  <path id="path2405" d="m201.79 397.4h-24v22.772h24z" fill="#f4cccc" fill-rule="evenodd"/>
  <path id="path2407" d="m201.79 397.4h-24v22.772h24z" fill-rule="evenodd" stroke="#000" stroke-linecap="butt" stroke-linejoin="round"/>
  <path id="path2409" d="m187.33 408.88q0-1.6875 0.34375-2.7188 0.35937-1.0312 1.0469-1.5938t1.7188-0.5625q0.78125 0 1.3594 0.3125 0.57812 0.29687 0.95312 0.89062 0.375 0.57813 0.59375 1.4219 0.21875 0.82812 0.21875 2.25 0 1.6719-0.35937 2.7031-0.34375 1.0312-1.0312 1.5938-0.67188 0.5625-1.7344 0.5625-1.375 0-2.1562-0.98437-0.95312-1.1875-0.95312-3.875zm1.2031 0q0 2.3438 0.54688 3.125 0.5625 0.78125 1.3594 0.78125 0.8125 0 1.3594-0.78125 0.5625-0.78125 0.5625-3.125 0-2.3594-0.5625-3.125-0.54688-0.78125-1.3594-0.78125t-1.2969 0.6875q-0.60938 0.875-0.60938 3.2188z" fill="#000"/>
  <path id="path2411" d="m225.79 397.4h-24v22.772h24z" fill="#f4cccc" fill-rule="evenodd"/>
  <path id="path2413" d="m225.79 397.4h-24v22.772h24z" fill-rule="evenodd" stroke="#000" stroke-linecap="butt" stroke-linejoin="round"/>
  <path id="path2415" d="m211.33 408.88q0-1.6875 0.34375-2.7188 0.35937-1.0312 1.0469-1.5938t1.7188-0.5625q0.78125 0 1.3594 0.3125 0.57812 0.29687 0.95312 0.89062 0.375 0.57813 0.59375 1.4219 0.21875 0.82812 0.21875 2.25 0 1.6719-0.35937 2.7031-0.34375 1.0312-1.0312 1.5938-0.67188 0.5625-1.7344 0.5625-1.375 0-2.1562-0.98437-0.95312-1.1875-0.95312-3.875zm1.2031 0q0 2.3438 0.54688 3.125 0.5625 0.78125 1.3594 0.78125 0.8125 0 1.3594-0.78125 0.5625-0.78125 0.5625-3.125 0-2.3594-0.5625-3.125-0.54688-0.78125-1.3594-0.78125t-1.2969 0.6875q-0.60938 0.875-0.60938 3.2188z" fill="#000"/>
  <path id="path2417" d="m249.79 397.4h-24v22.772h24z" fill="#f4cccc" fill-rule="evenodd"/>
  <path id="path2419" d="m249.79 397.4h-24v22.772h24z" fill-rule="evenodd" stroke="#000" stroke-linecap="butt" stroke-linejoin="round"/>
  <path id="path2421" d="m235.33 408.88q0-1.6875 0.34375-2.7188 0.35937-1.0312 1.0469-1.5938t1.7188-0.5625q0.78125 0 1.3594 0.3125 0.57812 0.29687 0.95312 0.89062 0.375 0.57813 0.59375 1.4219 0.21875 0.82812 0.21875 2.25 0 1.6719-0.35937 2.7031-0.34375 1.0312-1.0312 1.5938-0.67188 0.5625-1.7344 0.5625-1.375 0-2.1562-0.98437-0.95312-1.1875-0.95312-3.875zm1.2031 0q0 2.3438 0.54688 3.125 0.5625 0.78125 1.3594 0.78125 0.8125 0 1.3594-0.78125 0.5625-0.78125 0.5625-3.125 0-2.3594-0.5625-3.125-0.54688-0.78125-1.3594-0.78125t-1.2969 0.6875q-0.60938 0.875-0.60938 3.2188z" fill="#000"/>
  <path id="path2423" d="m273.79 397.4h-24v22.772h24z" fill="#f4cccc" fill-rule="evenodd"/>
  <path id="path2425" d="m273.79 397.4h-24v22.772h24z" fill-rule="evenodd" stroke="#000" stroke-linecap="butt" stroke-linejoin="round"/>
  <path id="path2427" d="m259.33 408.88q0-1.6875 0.34375-2.7188 0.35937-1.0312 1.0469-1.5938t1.7188-0.5625q0.78125 0 1.3594 0.3125 0.57812 0.29687 0.95312 0.89062 0.375 0.57813 0.59375 1.4219 0.21875 0.82812 0.21875 2.25 0 1.6719-0.35937 2.7031-0.34375 1.0312-1.0312 1.5938-0.67188 0.5625-1.7344 0.5625-1.375 0-2.1562-0.98437-0.95312-1.1875-0.95312-3.875zm1.2031 0q0 2.3438 0.54688 3.125 0.5625 0.78125 1.3594 0.78125 0.8125 0 1.3594-0.78125 0.5625-0.78125 0.5625-3.125 0-2.3594-0.5625-3.125-0.54688-0.78125-1.3594-0.78125t-1.2969 0.6875q-0.60938 0.875-0.60938 3.2188z" fill="#000"/>
  <path id="path2429" d="m297.79 397.4h-24v22.772h24z" fill="#f4cccc" fill-rule="evenodd"/>
  <path id="path2431" d="m297.79 397.4h-24v22.772h24z" fill-rule="evenodd" stroke="#000" stroke-linecap="butt" stroke-linejoin="round"/>
  <path id="path2433" d="m283.33 408.88q0-1.6875 0.34375-2.7188 0.35937-1.0312 1.0469-1.5938t1.7188-0.5625q0.78125 0 1.3594 0.3125 0.57812 0.29687 0.95312 0.89062 0.375 0.57813 0.59375 1.4219 0.21875 0.82812 0.21875 2.25 0 1.6719-0.35937 2.7031-0.34375 1.0312-1.0312 1.5938-0.67188 0.5625-1.7344 0.5625-1.375 0-2.1562-0.98437-0.95312-1.1875-0.95312-3.875zm1.2031 0q0 2.3438 0.54688 3.125 0.5625 0.78125 1.3594 0.78125 0.8125 0 1.3594-0.78125 0.5625-0.78125 0.5625-3.125 0-2.3594-0.5625-3.125-0.54688-0.78125-1.3594-0.78125t-1.2969 0.6875q-0.60938 0.875-0.60938 3.2188z" fill="#000"/>
  <path id="path2435" d="m321.79 397.4h-24v22.772h24z" fill="#f4cccc" fill-rule="evenodd"/>
  <path id="path2437" d="m321.79 397.4h-24v22.772h24z" fill-rule="evenodd" stroke="#000" stroke-linecap="butt" stroke-linejoin="round"/>
  <path id="path2439" d="m307.33 408.88q0-1.6875 0.34375-2.7188 0.35937-1.0312 1.0469-1.5938t1.7188-0.5625q0.78125 0 1.3594 0.3125 0.57812 0.29687 0.95312 0.89062 0.375 0.57813 0.59375 1.4219 0.21875 0.82812 0.21875 2.25 0 1.6719-0.35937 2.7031-0.34375 1.0312-1.0312 1.5938-0.67188 0.5625-1.7344 0.5625-1.375 0-2.1562-0.98437-0.95312-1.1875-0.95312-3.875zm1.2031 0q0 2.3438 0.54688 3.125 0.5625 0.78125 1.3594 0.78125 0.8125 0 1.3594-0.78125 0.5625-0.78125 0.5625-3.125 0-2.3594-0.5625-3.125-0.54688-0.78125-1.3594-0.78125t-1.2969 0.6875q-0.60938 0.875-0.60938 3.2188z" fill="#000"/>
  <path id="path2441" d="m345.79 397.4h-24v22.772h24z" fill="#f4cccc" fill-rule="evenodd"/>
  <path id="path2443" d="m345.79 397.4h-24v22.772h24z" fill-rule="evenodd" stroke="#000" stroke-linecap="butt" stroke-linejoin="round"/>
  <path id="path2445" d="m331.33 408.88q0-1.6875 0.34375-2.7188 0.35937-1.0312 1.0469-1.5938t1.7188-0.5625q0.78125 0 1.3594 0.3125 0.57812 0.29687 0.95312 0.89062 0.375 0.57813 0.59375 1.4219 0.21875 0.82812 0.21875 2.25 0 1.6719-0.35937 2.7031-0.34375 1.0312-1.0312 1.5938-0.67188 0.5625-1.7344 0.5625-1.375 0-2.1562-0.98437-0.95312-1.1875-0.95312-3.875zm1.2031 0q0 2.3438 0.54688 3.125 0.5625 0.78125 1.3594 0.78125 0.8125 0 1.3594-0.78125 0.5625-0.78125 0.5625-3.125 0-2.3594-0.5625-3.125-0.54688-0.78125-1.3594-0.78125t-1.2969 0.6875q-0.60938 0.875-0.60938 3.2188z" fill="#000"/>
  <path id="path2447" d="m369.79 397.4h-24v22.772h24z" fill="#f4cccc" fill-rule="evenodd"/>
  <path id="path2449" d="m369.79 397.4h-24v22.772h24z" fill-rule="evenodd" stroke="#000" stroke-linecap="butt" stroke-linejoin="round"/>
  <path id="path2451" d="m355.33 408.88q0-1.6875 0.34375-2.7188 0.35937-1.0312 1.0469-1.5938t1.7188-0.5625q0.78125 0 1.3594 0.3125 0.57812 0.29687 0.95312 0.89062 0.375 0.57813 0.59375 1.4219 0.21875 0.82812 0.21875 2.25 0 1.6719-0.35937 2.7031-0.34375 1.0312-1.0312 1.5938-0.67188 0.5625-1.7344 0.5625-1.375 0-2.1562-0.98437-0.95312-1.1875-0.95312-3.875zm1.2031 0q0 2.3438 0.54688 3.125 0.5625 0.78125 1.3594 0.78125 0.8125 0 1.3594-0.78125 0.5625-0.78125 0.5625-3.125 0-2.3594-0.5625-3.125-0.54688-0.78125-1.3594-0.78125t-1.2969 0.6875q-0.60938 0.875-0.60938 3.2188z" fill="#000"/>
  <path id="path2453" d="m403.39 397.4h-24v22.772h24z" fill="#f4cccc" fill-rule="evenodd"/>
  <path id="path2455" d="m403.39 397.4h-24v22.772h24z" fill-rule="evenodd" stroke="#000" stroke-linecap="butt" stroke-linejoin="round"/>
  <path id="path2457" d="m388.94 408.88q0-1.6875 0.34375-2.7188 0.35938-1.0312 1.0469-1.5938t1.7188-0.5625q0.78125 0 1.3594 0.3125 0.57813 0.29687 0.95313 0.89062 0.375 0.57813 0.59375 1.4219 0.21875 0.82812 0.21875 2.25 0 1.6719-0.35938 2.7031-0.34375 1.0312-1.0312 1.5938-0.67187 0.5625-1.7344 0.5625-1.375 0-2.1562-0.98437-0.95313-1.1875-0.95313-3.875zm1.2031 0q0 2.3438 0.54687 3.125 0.5625 0.78125 1.3594 0.78125 0.8125 0 1.3594-0.78125 0.5625-0.78125 0.5625-3.125 0-2.3594-0.5625-3.125-0.54687-0.78125-1.3594-0.78125t-1.2969 0.6875q-0.60937 0.875-0.60937 3.2188z" fill="#000"/>
  <path id="path2459" d="m427.39 397.4h-24v22.772h24z" fill="#f4cccc" fill-rule="evenodd"/>
  <path id="path2461" d="m427.39 397.4h-24v22.772h24z" fill-rule="evenodd" stroke="#000" stroke-linecap="butt" stroke-linejoin="round"/>
  <path id="path2463" d="m412.94 408.88q0-1.6875 0.34375-2.7188 0.35938-1.0312 1.0469-1.5938t1.7188-0.5625q0.78125 0 1.3594 0.3125 0.57813 0.29687 0.95313 0.89062 0.375 0.57813 0.59375 1.4219 0.21875 0.82812 0.21875 2.25 0 1.6719-0.35938 2.7031-0.34375 1.0312-1.0312 1.5938-0.67187 0.5625-1.7344 0.5625-1.375 0-2.1562-0.98437-0.95313-1.1875-0.95313-3.875zm1.2031 0q0 2.3438 0.54687 3.125 0.5625 0.78125 1.3594 0.78125 0.8125 0 1.3594-0.78125 0.5625-0.78125 0.5625-3.125 0-2.3594-0.5625-3.125-0.54687-0.78125-1.3594-0.78125t-1.2969 0.6875q-0.60937 0.875-0.60937 3.2188z" fill="#000"/>
  <path id="path2465" d="m451.39 397.4h-24v22.772h24z" fill="#f4cccc" fill-rule="evenodd"/>
  <path id="path2467" d="m451.39 397.4h-24v22.772h24z" fill-rule="evenodd" stroke="#000" stroke-linecap="butt" stroke-linejoin="round"/>
  <path id="path2469" d="m436.94 408.88q0-1.6875 0.34375-2.7188 0.35938-1.0312 1.0469-1.5938t1.7188-0.5625q0.78125 0 1.3594 0.3125 0.57813 0.29687 0.95313 0.89062 0.375 0.57813 0.59375 1.4219 0.21875 0.82812 0.21875 2.25 0 1.6719-0.35938 2.7031-0.34375 1.0312-1.0312 1.5938-0.67187 0.5625-1.7344 0.5625-1.375 0-2.1562-0.98437-0.95313-1.1875-0.95313-3.875zm1.2031 0q0 2.3438 0.54687 3.125 0.5625 0.78125 1.3594 0.78125 0.8125 0 1.3594-0.78125 0.5625-0.78125 0.5625-3.125 0-2.3594-0.5625-3.125-0.54687-0.78125-1.3594-0.78125t-1.2969 0.6875q-0.60937 0.875-0.60937 3.2188z" fill="#000"/>
  <path id="path2471" d="m475.39 397.4h-24v22.772h24z" fill="#f4cccc" fill-rule="evenodd"/>
  <path id="path2473" d="m475.39 397.4h-24v22.772h24z" fill-rule="evenodd" stroke="#000" stroke-linecap="butt" stroke-linejoin="round"/>
  <path id="path2475" d="m460.94 408.88q0-1.6875 0.34375-2.7188 0.35938-1.0312 1.0469-1.5938t1.7188-0.5625q0.78125 0 1.3594 0.3125 0.57813 0.29687 0.95313 0.89062 0.375 0.57813 0.59375 1.4219 0.21875 0.82812 0.21875 2.25 0 1.6719-0.35938 2.7031-0.34375 1.0312-1.0312 1.5938-0.67187 0.5625-1.7344 0.5625-1.375 0-2.1562-0.98437-0.95313-1.1875-0.95313-3.875zm1.2031 0q0 2.3438 0.54687 3.125 0.5625 0.78125 1.3594 0.78125 0.8125 0 1.3594-0.78125 0.5625-0.78125 0.5625-3.125 0-2.3594-0.5625-3.125-0.54687-0.78125-1.3594-0.78125t-1.2969 0.6875q-0.60937 0.875-0.60937 3.2188z" fill="#000"/>
  <path id="path2477" d="m499.39 397.4h-24v22.772h24z" fill="#d9ead3" fill-rule="evenodd"/>
  <path id="path2479" d="m499.39 397.4h-24v22.772h24z" fill-rule="evenodd" stroke="#000" stroke-linecap="butt" stroke-linejoin="round"/>
  <path id="path2481" d="m485.48 413.58v-9.5469h6.4375v1.125h-5.1719v2.9688h4.4688v1.125h-4.4688v4.3281z" fill="#000"/>
  <path id="path2483" d="m523.39 397.4h-24v22.772h24z" fill="#d9ead3" fill-rule="evenodd"/>
  <path id="path2485" d="m523.39 397.4h-24v22.772h24z" fill-rule="evenodd" stroke="#000" stroke-linecap="butt" stroke-linejoin="round"/>
  <path id="path2487" d="m509.48 413.58v-9.5469h6.4375v1.125h-5.1718v2.9688h4.4687v1.125h-4.4687v4.3281z" fill="#000"/>
  <path id="path2489" d="m547.39 397.4h-24v22.772h24z" fill="#d9ead3" fill-rule="evenodd"/>
  <path id="path2491" d="m547.39 397.4h-24v22.772h24z" fill-rule="evenodd" stroke="#000" stroke-linecap="butt" stroke-linejoin="round"/>
  <path id="path2493" d="m533.48 413.58v-9.5469h6.4375v1.125h-5.1719v2.9688h4.4688v1.125h-4.4688v4.3281z" fill="#000"/>
  <path id="path2495" d="m571.39 397.4h-24v22.772h24z" fill="#d9ead3" fill-rule="evenodd"/>
  <path id="path2497" d="m571.39 397.4h-24v22.772h24z" fill-rule="evenodd" stroke="#000" stroke-linecap="butt" stroke-linejoin="round"/>
  <path id="path2499" d="m557.48 413.58v-9.5469h6.4375v1.125h-5.1719v2.9688h4.4688v1.125h-4.4688v4.3281z" fill="#000"/>
  <path id="path2501" d="m604.99 397.4h-24v22.772h24z" fill="#d9ead3" fill-rule="evenodd"/>
  <path id="path2503" d="m604.99 397.4h-24v22.772h24z" fill-rule="evenodd" stroke="#000" stroke-linecap="butt" stroke-linejoin="round"/>
  <path id="path2505" d="m591.08 413.58v-9.5469h6.4375v1.125h-5.1719v2.9688h4.4688v1.125h-4.4688v4.3281z" fill="#000"/>
  <path id="path2507" d="m628.99 397.4h-24v22.772h24z" fill="#d9ead3" fill-rule="evenodd"/>
  <path id="path2509" d="m628.99 397.4h-24v22.772h24z" fill-rule="evenodd" stroke="#000" stroke-linecap="butt" stroke-linejoin="round"/>
  <path id="path2511" d="m615.08 413.58v-9.5469h6.4375v1.125h-5.1719v2.9688h4.4688v1.125h-4.4688v4.3281z" fill="#000"/>
  <path id="path2513" d="m652.99 397.4h-24v22.772h24z" fill="#d9ead3" fill-rule="evenodd"/>
  <path id="path2515" d="m652.99 397.4h-24v22.772h24z" fill-rule="evenodd" stroke="#000" stroke-linecap="butt" stroke-linejoin="round"/>
  <path id="path2517" d="m639.08 413.58v-9.5469h6.4375v1.125h-5.1719v2.9688h4.4688v1.125h-4.4688v4.3281z" fill="#000"/>
  <path id="path2519" d="m676.99 397.4h-24v22.772h24z" fill="#d9ead3" fill-rule="evenodd"/>
  <path id="path2521" d="m676.99 397.4h-24v22.772h24z" fill-rule="evenodd" stroke="#000" stroke-linecap="butt" stroke-linejoin="round"/>
  <path id="path2523" d="m663.08 413.58v-9.5469h6.4375v1.125h-5.1719v2.9688h4.4688v1.125h-4.4688v4.3281z" fill="#000"/>
  <path id="path2525" d="m700.99 397.4h-24v22.772h24z" fill="#d9ead3" fill-rule="evenodd"/>
  <path id="path2527" d="m700.99 397.4h-24v22.772h24z" fill-rule="evenodd" stroke="#000" stroke-linecap="butt" stroke-linejoin="round"/>
  <path id="path2529" d="m687.08 413.58v-9.5469h6.4375v1.125h-5.1719v2.9688h4.4688v1.125h-4.4688v4.3281z" fill="#000"/>
  <path id="path2531" d="m724.99 397.4h-24v22.772h24z" fill="#d9ead3" fill-rule="evenodd"/>
  <path id="path2533" d="m724.99 397.4h-24v22.772h24z" fill-rule="evenodd" stroke="#000" stroke-linecap="butt" stroke-linejoin="round"/>
  <path id="path2535" d="m711.08 413.58v-9.5469h6.4375v1.125h-5.1719v2.9688h4.4688v1.125h-4.4688v4.3281z" fill="#000"/>
  <path id="path2537" d="m748.99 397.4h-24v22.772h24z" fill="#d9ead3" fill-rule="evenodd"/>
  <path id="path2539" d="m748.99 397.4h-24v22.772h24z" fill-rule="evenodd" stroke="#000" stroke-linecap="butt" stroke-linejoin="round"/>
  <path id="path2541" d="m735.08 413.58v-9.5469h6.4375v1.125h-5.1719v2.9688h4.4688v1.125h-4.4688v4.3281z" fill="#000"/>
  <path id="path2543" d="m772.99 397.4h-24v22.772h24z" fill="#d9ead3" fill-rule="evenodd"/>
  <path id="path2545" d="m772.99 397.4h-24v22.772h24z" fill-rule="evenodd" stroke="#000" stroke-linecap="butt" stroke-linejoin="round"/>
  <path id="path2547" d="m759.08 413.58v-9.5469h6.4375v1.125h-5.1719v2.9688h4.4688v1.125h-4.4688v4.3281z" fill="#000"/>
  <path id="path2549" d="m806.59 397.4h-24v22.772h24z" fill="#d9ead3" fill-rule="evenodd"/>
  <path id="path2551" d="m806.59 397.4h-24v22.772h24z" fill-rule="evenodd" stroke="#000" stroke-linecap="butt" stroke-linejoin="round"/>
  <path id="path2553" d="m792.68 413.58v-9.5469h6.4375v1.125h-5.1719v2.9688h4.4688v1.125h-4.4688v4.3281z" fill="#000"/>
  <path id="path2555" d="m830.59 397.4h-24v22.772h24z" fill="#d9ead3" fill-rule="evenodd"/>
  <path id="path2557" d="m830.59 397.4h-24v22.772h24z" fill-rule="evenodd" stroke="#000" stroke-linecap="butt" stroke-linejoin="round"/>
  <path id="path2559" d="m816.68 413.58v-9.5469h6.4375v1.125h-5.1719v2.9688h4.4688v1.125h-4.4688v4.3281z" fill="#000"/>
  <path id="path2561" d="m854.59 397.4h-24v22.772h24z" fill="#d9ead3" fill-rule="evenodd"/>
  <path id="path2563" d="m854.59 397.4h-24v22.772h24z" fill-rule="evenodd" stroke="#000" stroke-linecap="butt" stroke-linejoin="round"/>
  <path id="path2565" d="m840.68 413.58v-9.5469h6.4375v1.125h-5.1719v2.9688h4.4688v1.125h-4.4688v4.3281z" fill="#000"/>
  <path id="path2567" d="m878.59 397.4h-24v22.772h24z" fill="#d9ead3" fill-rule="evenodd"/>
  <path id="path2569" d="m878.59 397.4h-24v22.772h24z" fill-rule="evenodd" stroke="#000" stroke-linecap="butt" stroke-linejoin="round"/>
  <path id="path2571" d="m864.68 413.58v-9.5469h6.4375v1.125h-5.1719v2.9688h4.4688v1.125h-4.4688v4.3281z" fill="#000"/>
  <path id="path2573" d="m902.59 397.4h-24v22.772h24z" fill="#d9ead3" fill-rule="evenodd"/>
  <path id="path2575" d="m902.59 397.4h-24v22.772h24z" fill-rule="evenodd" stroke="#000" stroke-linecap="butt" stroke-linejoin="round"/>
  <path id="path2577" d="m888.68 413.58v-9.5469h6.4375v1.125h-5.1719v2.9688h4.4688v1.125h-4.4688v4.3281z" fill="#000"/>
  <path id="path2579" d="m926.59 397.4h-24v22.772h24z" fill="#d9ead3" fill-rule="evenodd"/>
  <path id="path2581" d="m926.59 397.4h-24v22.772h24z" fill-rule="evenodd" stroke="#000" stroke-linecap="butt" stroke-linejoin="round"/>
  <path id="path2583" d="m912.68 413.58v-9.5469h6.4375v1.125h-5.1719v2.9688h4.4688v1.125h-4.4688v4.3281z" fill="#000"/>
  <path id="path2585" d="m950.59 397.4h-24v22.772h24z" fill="#d9ead3" fill-rule="evenodd"/>
  <path id="path2587" d="m950.59 397.4h-24v22.772h24z" fill-rule="evenodd" stroke="#000" stroke-linecap="butt" stroke-linejoin="round"/>
  <path id="path2589" d="m936.68 413.58v-9.5469h6.4375v1.125h-5.1719v2.9688h4.4688v1.125h-4.4688v4.3281z" fill="#000"/>
  <path id="path2591" d="m974.59 397.4h-24v22.772h24z" fill="#d9ead3" fill-rule="evenodd"/>
  <path id="path2593" d="m974.59 397.4h-24v22.772h24z" fill-rule="evenodd" stroke="#000" stroke-linecap="butt" stroke-linejoin="round"/>
  <path id="path2595" d="m960.68 413.58v-9.5469h6.4375v1.125h-5.1719v2.9688h4.4688v1.125h-4.4688v4.3281z" fill="#000"/>
  <path id="path2597" d="m973.95 422.21c0 5.3054-4.3009 9.6063-9.6063 9.6063h-176.94c-5.3054 0-9.6063 4.3009-9.6063 9.6063 0-5.3054-4.3009-9.6063-9.6063-9.6063h-176.94c-5.3054 0-9.6063-4.3009-9.6063-9.6063z" fill="#000" fill-opacity="0" fill-rule="evenodd"/>
  <path id="path2599" d="m973.95 422.21c0 5.3054-4.3009 9.6063-9.6063 9.6063h-176.94c-5.3054 0-9.6063 4.3009-9.6063 9.6063 0-5.3054-4.3009-9.6063-9.6063-9.6063h-176.94c-5.3054 0-9.6063-4.3009-9.6063-9.6063" fill="#000" fill-opacity="0" fill-rule="evenodd"/>
  <path id="path2601" d="m973.95 422.21c0 5.3054-4.3009 9.6063-9.6063 9.6063h-176.94c-5.3054 0-9.6063 4.3009-9.6063 9.6063 0-5.3054-4.3009-9.6063-9.6063-9.6063h-176.94c-5.3054 0-9.6063-4.3009-9.6063-9.6063" fill-rule="evenodd" stroke="#000" stroke-linecap="butt" stroke-linejoin="round"/>
  <path id="path2603" d="m973.83 395.36c0-5.3054-4.3009-9.6063-9.6063-9.6063h-378.6c-5.3054 0-9.6063-4.3009-9.6063-9.6063 0 5.3054-4.3009 9.6063-9.6063 9.6063h-378.6c-5.3054 0-9.6063 4.3009-9.6063 9.6063z" fill="#000" fill-opacity="0" fill-rule="evenodd"/>
  <path id="path2605" d="m973.83 395.36c0-5.3054-4.3009-9.6063-9.6063-9.6063h-378.6c-5.3054 0-9.6063-4.3009-9.6063-9.6063 0 5.3054-4.3009 9.6063-9.6063 9.6063h-378.6c-5.3054 0-9.6063 4.3009-9.6063 9.6063" fill="#000" fill-opacity="0" fill-rule="evenodd"/>
  <path id="path2607" d="m973.83 395.36c0-5.3054-4.3009-9.6063-9.6063-9.6063h-378.6c-5.3054 0-9.6063-4.3009-9.6063-9.6063 0 5.3054-4.3009 9.6063-9.6063 9.6063h-378.6c-5.3054 0-9.6063 4.3009-9.6063 9.6063" fill-rule="evenodd" stroke="#000" stroke-linecap="butt" stroke-linejoin="round"/>
  <path id="path2609" d="m723.33 439.41h108.91v35.559h-108.91z" fill="#000" fill-opacity="0" fill-rule="evenodd"/>
  <path id="path2611" d="m758.6 461.21 3.6875-4.9688-3.25-4.5781h1.5l1.7344 2.4531q0.53125 0.76562 0.76562 1.1719 0.3125-0.51562 0.75-1.0938l1.9219-2.5312h1.375l-3.3594 4.5 3.625 5.0469h-1.5625l-2.4062-3.4062q-0.20312-0.29688-0.42187-0.64063-0.3125 0.53125-0.45313 0.71875l-2.3906 3.3281zm9.8116 0v-9.5469h1.9062l2.25 6.7656q0.3125 0.9375 0.46875 1.4062 0.15625-0.51563 0.5-1.5312l2.2812-6.6406h1.7031v9.5469h-1.2188v-7.9844l-2.7656 7.9844h-1.1406l-2.7656-8.125v8.125zm11.102 0v-9.5469h1.9062l2.25 6.7656q0.3125 0.9375 0.46875 1.4062 0.15625-0.51563 0.5-1.5312l2.2812-6.6406h1.7031v9.5469h-1.2188v-7.9844l-2.7656 7.9844h-1.1406l-2.7656-8.125v8.125zm15.087 0h-1.1719v-7.4688q-0.42188 0.40625-1.1094 0.8125t-1.2344 0.60937v-1.1406q0.98437-0.45313 1.7188-1.1094 0.73437-0.67187 1.0312-1.2812h0.76562z" fill="#000"/>
  <path id="path2613" d="m521.56 342.63h108.91v35.559h-108.91z" fill="#000" fill-opacity="0" fill-rule="evenodd"/>
  <path id="path2615" d="m560.49 364.43v-4.0469l-3.6875-5.5h1.5469l1.875 2.875q0.51562 0.8125 0.96875 1.625 0.4375-0.75 1.0469-1.6875l1.8438-2.8125h1.4688l-3.7969 5.5v4.0469zm6.1554 0v-9.5469h1.9062l2.25 6.7656q0.3125 0.9375 0.46875 1.4062 0.15625-0.51563 0.5-1.5312l2.2812-6.6406h1.7031v9.5469h-1.2188v-7.9844l-2.7656 7.9844h-1.1406l-2.7656-8.125v8.125zm11.102 0v-9.5469h1.9062l2.25 6.7656q0.3125 0.9375 0.46875 1.4062 0.15625-0.51563 0.5-1.5312l2.2812-6.6406h1.7031v9.5469h-1.2188v-7.9844l-2.7656 7.9844h-1.1406l-2.7656-8.125v8.125zm15.087 0h-1.1719v-7.4688q-0.42188 0.40625-1.1094 0.8125t-1.2344 0.60937v-1.1406q0.98437-0.45313 1.7188-1.1094 0.73437-0.67187 1.0312-1.2812h0.76562z" fill="#000"/>
  <path id="path2617" d="m201.79 270.91h-24v22.772h24z" fill="#cfe2f3" fill-rule="evenodd"/>
  <path id="path2619" d="m201.79 270.91h-24v22.772h24z" fill-rule="evenodd" stroke="#000" stroke-linecap="butt" stroke-linejoin="round"/>
  <path id="path2621" d="m187.85 287.09v-9.5469h1.2656v3.9219h4.9531v-3.9219h1.2656v9.5469h-1.2656v-4.5h-4.9531v4.5z" fill="#000"/>
  <path id="path2623" d="m225.79 270.91h-24v22.772h24z" fill="#cfe2f3" fill-rule="evenodd"/>
  <path id="path2625" d="m225.79 270.91h-24v22.772h24z" fill-rule="evenodd" stroke="#000" stroke-linecap="butt" stroke-linejoin="round"/>
  <path id="path2627" d="m216.4 284.88 1.2031 0.14062q-0.28125 1.0625-1.0625 1.6562-0.76562 0.57813-1.9688 0.57813-1.5156 0-2.4062-0.9375-0.89062-0.9375-0.89062-2.6094 0-1.75 0.89062-2.7031 0.90625-0.96875 2.3438-0.96875 1.3906 0 2.2656 0.9375t0.875 2.6562q0 0.10937 0 0.3125h-5.1562q0.0625 1.1406 0.64062 1.75 0.57813 0.59375 1.4375 0.59375 0.65625 0 1.1094-0.32813 0.45312-0.34375 0.71875-1.0781zm-3.8438-1.9062h3.8594q-0.0781-0.85938-0.4375-1.2969-0.5625-0.6875-1.4531-0.6875-0.8125 0-1.3594 0.54688-0.54687 0.53125-0.60937 1.4375z" fill="#000"/>
  <path id="path2629" d="m249.79 270.91h-24v22.772h24z" fill="#cfe2f3" fill-rule="evenodd"/>
  <path id="path2631" d="m249.79 270.91h-24v22.772h24z" fill-rule="evenodd" stroke="#000" stroke-linecap="butt" stroke-linejoin="round"/>
  <path id="path2633" d="m237.17 287.09v-9.5469h1.1719v9.5469z" fill="#000"/>
  <path id="path2635" d="m273.79 270.91h-24v22.772h24z" fill="#cfe2f3" fill-rule="evenodd"/>
  <path id="path2637" d="m273.79 270.91h-24v22.772h24z" fill-rule="evenodd" stroke="#000" stroke-linecap="butt" stroke-linejoin="round"/>
  <path id="path2639" d="m261.17 287.09v-9.5469h1.1719v9.5469z" fill="#000"/>
  <path id="path2641" d="m297.79 270.91h-24v22.772h24z" fill="#cfe2f3" fill-rule="evenodd"/>
  <path id="path2643" d="m297.79 270.91h-24v22.772h24z" fill-rule="evenodd" stroke="#000" stroke-linecap="butt" stroke-linejoin="round"/>
  <path id="path2645" d="m283.22 283.64q0-1.9219 1.0781-2.8438 0.89063-0.76562 2.1719-0.76562 1.4219 0 2.3281 0.9375 0.90625 0.92187 0.90625 2.5781 0 1.3281-0.40625 2.0938-0.39062 0.76563-1.1562 1.1875-0.76562 0.42188-1.6719 0.42188-1.4531 0-2.3594-0.92188-0.89062-0.9375-0.89062-2.6875zm1.2031 0q0 1.3281 0.57813 1.9844 0.59375 0.65625 1.4688 0.65625t1.4531-0.65625q0.57813-0.67188 0.57813-2.0312 0-1.2812-0.59375-1.9375-0.57813-0.65625-1.4375-0.65625-0.875 0-1.4688 0.65625-0.57813 0.65625-0.57813 1.9844z" fill="#000"/>
  <path id="path2647" d="m321.79 270.91h-24v22.772h24z" fill="#cfe2f3" fill-rule="evenodd"/>
  <path id="path2649" d="m321.79 270.91h-24v22.772h24z" fill-rule="evenodd" stroke="#000" stroke-linecap="butt" stroke-linejoin="round"/>
  <path id="path2651" d="m345.79 270.91h-24v22.772h24z" fill="#cfe2f3" fill-rule="evenodd"/>
  <path id="path2653" d="m345.79 270.91h-24v22.772h24z" fill-rule="evenodd" stroke="#000" stroke-linecap="butt" stroke-linejoin="round"/>
  <path id="path2655" d="m332.94 287.09-2.125-6.9062h1.2188l1.0938 3.9844 0.42188 1.4844q0.0156-0.10938 0.35937-1.4219l1.0938-4.0469h1.2031l1.0312 4 0.34375 1.3281 0.40625-1.3438 1.1719-3.9844h1.1406l-2.1562 6.9062h-1.2188l-1.0938-4.1406-0.26563-1.1719-1.4062 5.3125z" fill="#000"/>
  <path id="path2657" d="m369.79 270.91h-24v22.772h24z" fill="#cfe2f3" fill-rule="evenodd"/>
  <path id="path2659" d="m369.79 270.91h-24v22.772h24z" fill-rule="evenodd" stroke="#000" stroke-linecap="butt" stroke-linejoin="round"/>
  <path id="path2661" d="m355.22 283.64q0-1.9219 1.0781-2.8438 0.89063-0.76562 2.1719-0.76562 1.4219 0 2.3281 0.9375 0.90625 0.92187 0.90625 2.5781 0 1.3281-0.40625 2.0938-0.39062 0.76563-1.1562 1.1875-0.76562 0.42188-1.6719 0.42188-1.4531 0-2.3594-0.92188-0.89062-0.9375-0.89062-2.6875zm1.2031 0q0 1.3281 0.57813 1.9844 0.59375 0.65625 1.4688 0.65625t1.4531-0.65625q0.57813-0.67188 0.57813-2.0312 0-1.2812-0.59375-1.9375-0.57813-0.65625-1.4375-0.65625-0.875 0-1.4688 0.65625-0.57813 0.65625-0.57813 1.9844z" fill="#000"/>
  <path id="path2663" d="m403.39 270.91h-24v22.772h24z" fill="#cfe2f3" fill-rule="evenodd"/>
  <path id="path2665" d="m403.39 270.91h-24v22.772h24z" fill-rule="evenodd" stroke="#000" stroke-linecap="butt" stroke-linejoin="round"/>
  <path id="path2667" d="m390.03 287.09v-6.9062h1.0625v1.0469q0.40625-0.73437 0.73437-0.96875 0.34375-0.23437 0.76563-0.23437 0.59375 0 1.2031 0.375l-0.40625 1.0781q-0.4375-0.25-0.85937-0.25-0.39063 0-0.70313 0.23438-0.29687 0.23437-0.42187 0.64062-0.20313 0.625-0.20313 1.3594v3.625z" fill="#000"/>
  <path id="path2669" d="m427.39 270.91h-24v22.772h24z" fill="#cfe2f3" fill-rule="evenodd"/>
  <path id="path2671" d="m427.39 270.91h-24v22.772h24z" fill-rule="evenodd" stroke="#000" stroke-linecap="butt" stroke-linejoin="round"/>
  <path id="path2673" d="m414.77 287.09v-9.5469h1.1719v9.5469z" fill="#000"/>
  <path id="path2675" d="m451.39 270.91h-24v22.772h24z" fill="#cfe2f3" fill-rule="evenodd"/>
  <path id="path2677" d="m451.39 270.91h-24v22.772h24z" fill-rule="evenodd" stroke="#000" stroke-linecap="butt" stroke-linejoin="round"/>
  <path id="path2679" d="m441.75 287.09v-0.875q-0.65625 1.0312-1.9375 1.0312-0.8125 0-1.5156-0.45313-0.6875-0.45312-1.0781-1.2656-0.375-0.82813-0.375-1.8906 0-1.0312 0.34375-1.875t1.0312-1.2812q0.70313-0.45312 1.5469-0.45312 0.625 0 1.1094 0.26562 0.5 0.25 0.79688 0.67188v-3.4219h1.1719v9.5469zm-3.7031-3.4531q0 1.3281 0.5625 1.9844t1.3281 0.65625q0.76563 0 1.2969-0.625t0.53125-1.9062q0-1.4219-0.54688-2.0781-0.54687-0.67187-1.3438-0.67187-0.78125 0-1.3125 0.64062-0.51562 0.625-0.51562 2z" fill="#000"/>
  <path id="path2681" d="m475.39 270.91h-24v22.772h24z" fill="#cfe2f3" fill-rule="evenodd"/>
  <path id="path2683" d="m475.39 270.91h-24v22.772h24z" fill-rule="evenodd" stroke="#000" stroke-linecap="butt" stroke-linejoin="round"/>
  <path id="path2685" d="m463.04 284.72-0.35937-5.0469v-2.125h1.4531v2.125l-0.32812 5.0469zm-0.29687 2.375v-1.3281h1.3438v1.3281z" fill="#000"/>
  <path id="path2687" d="m499.39 270.91h-24v22.772h24z" fill="#cfe2f3" fill-rule="evenodd"/>
  <path id="path2689" d="m499.39 270.91h-24v22.772h24z" fill-rule="evenodd" stroke="#000" stroke-linecap="butt" stroke-linejoin="round"/>
  <path id="path2691" d="m484.94 282.39q0-1.6875 0.34375-2.7188 0.35938-1.0312 1.0469-1.5938t1.7188-0.5625q0.78125 0 1.3594 0.3125 0.57813 0.29688 0.95313 0.89063 0.375 0.57812 0.59375 1.4219 0.21875 0.82813 0.21875 2.25 0 1.6719-0.35938 2.7031-0.34375 1.0312-1.0312 1.5938-0.67187 0.5625-1.7344 0.5625-1.375 0-2.1562-0.98438-0.95313-1.1875-0.95313-3.875zm1.2031 0q0 2.3438 0.54687 3.125 0.5625 0.78125 1.3594 0.78125 0.8125 0 1.3594-0.78125 0.5625-0.78125 0.5625-3.125 0-2.3594-0.5625-3.125-0.54687-0.78125-1.3594-0.78125t-1.2969 0.6875q-0.60937 0.875-0.60937 3.2188z" fill="#000"/>
  <path id="path2693" d="m523.39 270.91h-24v22.772h24z" fill="#cfe2f3" fill-rule="evenodd"/>
  <path id="path2695" d="m523.39 270.91h-24v22.772h24z" fill-rule="evenodd" stroke="#000" stroke-linecap="butt" stroke-linejoin="round"/>
  <path id="path2697" d="m508.94 282.39q0-1.6875 0.34375-2.7188 0.35938-1.0312 1.0469-1.5938t1.7187-0.5625q0.78125 0 1.3594 0.3125 0.57812 0.29688 0.95312 0.89063 0.375 0.57812 0.59375 1.4219 0.21875 0.82813 0.21875 2.25 0 1.6719-0.35937 2.7031-0.34375 1.0312-1.0312 1.5938-0.67188 0.5625-1.7344 0.5625-1.375 0-2.1562-0.98438-0.95313-1.1875-0.95313-3.875zm1.2031 0q0 2.3438 0.54687 3.125 0.5625 0.78125 1.3593 0.78125 0.8125 0 1.3594-0.78125 0.5625-0.78125 0.5625-3.125 0-2.3594-0.5625-3.125-0.54688-0.78125-1.3594-0.78125-0.81246 0-1.2968 0.6875-0.60937 0.875-0.60937 3.2188z" fill="#000"/>
  <path id="path2699" d="m547.39 270.91h-24v22.772h24z" fill="#cfe2f3" fill-rule="evenodd"/>
  <path id="path2701" d="m547.39 270.91h-24v22.772h24z" fill-rule="evenodd" stroke="#000" stroke-linecap="butt" stroke-linejoin="round"/>
  <path id="path2703" d="m532.94 282.39q0-1.6875 0.34375-2.7188 0.35937-1.0312 1.0469-1.5938t1.7188-0.5625q0.78125 0 1.3594 0.3125 0.57812 0.29688 0.95312 0.89063 0.375 0.57812 0.59375 1.4219 0.21875 0.82813 0.21875 2.25 0 1.6719-0.35937 2.7031-0.34375 1.0312-1.0312 1.5938-0.67188 0.5625-1.7344 0.5625-1.375 0-2.1562-0.98438-0.95312-1.1875-0.95312-3.875zm1.2031 0q0 2.3438 0.54688 3.125 0.5625 0.78125 1.3594 0.78125 0.8125 0 1.3594-0.78125 0.5625-0.78125 0.5625-3.125 0-2.3594-0.5625-3.125-0.54688-0.78125-1.3594-0.78125t-1.2969 0.6875q-0.60938 0.875-0.60938 3.2188z" fill="#000"/>
  <path id="path2705" d="m571.39 270.91h-24v22.772h24z" fill="#cfe2f3" fill-rule="evenodd"/>
  <path id="path2707" d="m571.39 270.91h-24v22.772h24z" fill-rule="evenodd" stroke="#000" stroke-linecap="butt" stroke-linejoin="round"/>
  <path id="path2709" d="m556.94 282.39q0-1.6875 0.34375-2.7188 0.35937-1.0312 1.0469-1.5938t1.7188-0.5625q0.78125 0 1.3594 0.3125 0.57812 0.29688 0.95312 0.89063 0.375 0.57812 0.59375 1.4219 0.21875 0.82813 0.21875 2.25 0 1.6719-0.35937 2.7031-0.34375 1.0312-1.0312 1.5938-0.67188 0.5625-1.7344 0.5625-1.375 0-2.1562-0.98438-0.95312-1.1875-0.95312-3.875zm1.2031 0q0 2.3438 0.54688 3.125 0.5625 0.78125 1.3594 0.78125 0.8125 0 1.3594-0.78125 0.5625-0.78125 0.5625-3.125 0-2.3594-0.5625-3.125-0.54688-0.78125-1.3594-0.78125t-1.2969 0.6875q-0.60938 0.875-0.60938 3.2188z" fill="#000"/>
  <path id="path2711" d="m604.99 270.91h-24v22.772h24z" fill="#cfe2f3" fill-rule="evenodd"/>
  <path id="path2713" d="m604.99 270.91h-24v22.772h24z" fill-rule="evenodd" stroke="#000" stroke-linecap="butt" stroke-linejoin="round"/>
  <path id="path2715" d="m590.54 282.39q0-1.6875 0.34375-2.7188 0.35937-1.0312 1.0469-1.5938t1.7188-0.5625q0.78125 0 1.3594 0.3125 0.57812 0.29688 0.95312 0.89063 0.375 0.57812 0.59375 1.4219 0.21875 0.82813 0.21875 2.25 0 1.6719-0.35937 2.7031-0.34375 1.0312-1.0312 1.5938-0.67188 0.5625-1.7344 0.5625-1.375 0-2.1562-0.98438-0.95312-1.1875-0.95312-3.875zm1.2031 0q0 2.3438 0.54688 3.125 0.5625 0.78125 1.3594 0.78125 0.8125 0 1.3594-0.78125 0.5625-0.78125 0.5625-3.125 0-2.3594-0.5625-3.125-0.54688-0.78125-1.3594-0.78125t-1.2969 0.6875q-0.60938 0.875-0.60938 3.2188z" fill="#000"/>
  <path id="path2717" d="m628.99 270.91h-24v22.772h24z" fill="#cfe2f3" fill-rule="evenodd"/>
  <path id="path2719" d="m628.99 270.91h-24v22.772h24z" fill-rule="evenodd" stroke="#000" stroke-linecap="butt" stroke-linejoin="round"/>
  <path id="path2721" d="m614.54 282.39q0-1.6875 0.34375-2.7188 0.35937-1.0312 1.0469-1.5938t1.7188-0.5625q0.78125 0 1.3594 0.3125 0.57812 0.29688 0.95312 0.89063 0.375 0.57812 0.59375 1.4219 0.21875 0.82813 0.21875 2.25 0 1.6719-0.35937 2.7031-0.34375 1.0312-1.0312 1.5938-0.67188 0.5625-1.7344 0.5625-1.375 0-2.1562-0.98438-0.95312-1.1875-0.95312-3.875zm1.2031 0q0 2.3438 0.54688 3.125 0.5625 0.78125 1.3594 0.78125 0.8125 0 1.3594-0.78125 0.5625-0.78125 0.5625-3.125 0-2.3594-0.5625-3.125-0.54688-0.78125-1.3594-0.78125t-1.2969 0.6875q-0.60938 0.875-0.60938 3.2188z" fill="#000"/>
  <path id="path2723" d="m652.99 270.91h-24v22.772h24z" fill="#cfe2f3" fill-rule="evenodd"/>
  <path id="path2725" d="m652.99 270.91h-24v22.772h24z" fill-rule="evenodd" stroke="#000" stroke-linecap="butt" stroke-linejoin="round"/>
  <path id="path2727" d="m638.54 282.39q0-1.6875 0.34375-2.7188 0.35937-1.0312 1.0469-1.5938t1.7188-0.5625q0.78125 0 1.3594 0.3125 0.57812 0.29688 0.95312 0.89063 0.375 0.57812 0.59375 1.4219 0.21875 0.82813 0.21875 2.25 0 1.6719-0.35937 2.7031-0.34375 1.0312-1.0312 1.5938-0.67188 0.5625-1.7344 0.5625-1.375 0-2.1562-0.98438-0.95312-1.1875-0.95312-3.875zm1.2031 0q0 2.3438 0.54688 3.125 0.5625 0.78125 1.3594 0.78125 0.8125 0 1.3594-0.78125 0.5625-0.78125 0.5625-3.125 0-2.3594-0.5625-3.125-0.54688-0.78125-1.3594-0.78125t-1.2969 0.6875q-0.60938 0.875-0.60938 3.2188z" fill="#000"/>
  <path id="path2729" d="m676.99 270.91h-24v22.772h24z" fill="#cfe2f3" fill-rule="evenodd"/>
  <path id="path2731" d="m676.99 270.91h-24v22.772h24z" fill-rule="evenodd" stroke="#000" stroke-linecap="butt" stroke-linejoin="round"/>
  <path id="path2733" d="m662.54 282.39q0-1.6875 0.34375-2.7188 0.35937-1.0312 1.0469-1.5938t1.7188-0.5625q0.78125 0 1.3594 0.3125 0.57812 0.29688 0.95312 0.89063 0.375 0.57812 0.59375 1.4219 0.21875 0.82813 0.21875 2.25 0 1.6719-0.35937 2.7031-0.34375 1.0312-1.0312 1.5938-0.67188 0.5625-1.7344 0.5625-1.375 0-2.1562-0.98438-0.95312-1.1875-0.95312-3.875zm1.2031 0q0 2.3438 0.54688 3.125 0.5625 0.78125 1.3594 0.78125 0.8125 0 1.3594-0.78125 0.5625-0.78125 0.5625-3.125 0-2.3594-0.5625-3.125-0.54688-0.78125-1.3594-0.78125t-1.2969 0.6875q-0.60938 0.875-0.60938 3.2188z" fill="#000"/>
  <path id="path2735" d="m700.99 270.91h-24v22.772h24z" fill="#cfe2f3" fill-rule="evenodd"/>
  <path id="path2737" d="m700.99 270.91h-24v22.772h24z" fill-rule="evenodd" stroke="#000" stroke-linecap="butt" stroke-linejoin="round"/>
  <path id="path2739" d="m686.54 282.39q0-1.6875 0.34375-2.7188 0.35937-1.0312 1.0469-1.5938t1.7188-0.5625q0.78125 0 1.3594 0.3125 0.57812 0.29688 0.95312 0.89063 0.375 0.57812 0.59375 1.4219 0.21875 0.82813 0.21875 2.25 0 1.6719-0.35937 2.7031-0.34375 1.0312-1.0312 1.5938-0.67188 0.5625-1.7344 0.5625-1.375 0-2.1562-0.98438-0.95312-1.1875-0.95312-3.875zm1.2031 0q0 2.3438 0.54688 3.125 0.5625 0.78125 1.3594 0.78125 0.8125 0 1.3594-0.78125 0.5625-0.78125 0.5625-3.125 0-2.3594-0.5625-3.125-0.54688-0.78125-1.3594-0.78125t-1.2969 0.6875q-0.60938 0.875-0.60938 3.2188z" fill="#000"/>
  <path id="path2741" d="m724.99 270.91h-24v22.772h24z" fill="#cfe2f3" fill-rule="evenodd"/>
  <path id="path2743" d="m724.99 270.91h-24v22.772h24z" fill-rule="evenodd" stroke="#000" stroke-linecap="butt" stroke-linejoin="round"/>
  <path id="path2745" d="m710.54 282.39q0-1.6875 0.34375-2.7188 0.35937-1.0312 1.0469-1.5938t1.7188-0.5625q0.78125 0 1.3594 0.3125 0.57812 0.29688 0.95312 0.89063 0.375 0.57812 0.59375 1.4219 0.21875 0.82813 0.21875 2.25 0 1.6719-0.35937 2.7031-0.34375 1.0312-1.0312 1.5938-0.67188 0.5625-1.7344 0.5625-1.375 0-2.1562-0.98438-0.95312-1.1875-0.95312-3.875zm1.2031 0q0 2.3438 0.54688 3.125 0.5625 0.78125 1.3594 0.78125 0.8125 0 1.3594-0.78125 0.5625-0.78125 0.5625-3.125 0-2.3594-0.5625-3.125-0.54688-0.78125-1.3594-0.78125t-1.2969 0.6875q-0.60938 0.875-0.60938 3.2188z" fill="#000"/>
  <path id="path2747" d="m748.99 270.91h-24v22.772h24z" fill="#cfe2f3" fill-rule="evenodd"/>
  <path id="path2749" d="m748.99 270.91h-24v22.772h24z" fill-rule="evenodd" stroke="#000" stroke-linecap="butt" stroke-linejoin="round"/>
  <path id="path2751" d="m734.54 282.39q0-1.6875 0.34375-2.7188 0.35937-1.0312 1.0469-1.5938t1.7188-0.5625q0.78125 0 1.3594 0.3125 0.57812 0.29688 0.95312 0.89063 0.375 0.57812 0.59375 1.4219 0.21875 0.82813 0.21875 2.25 0 1.6719-0.35937 2.7031-0.34375 1.0312-1.0312 1.5938-0.67188 0.5625-1.7344 0.5625-1.375 0-2.1562-0.98438-0.95312-1.1875-0.95312-3.875zm1.2031 0q0 2.3438 0.54688 3.125 0.5625 0.78125 1.3594 0.78125 0.8125 0 1.3594-0.78125 0.5625-0.78125 0.5625-3.125 0-2.3594-0.5625-3.125-0.54688-0.78125-1.3594-0.78125t-1.2969 0.6875q-0.60938 0.875-0.60938 3.2188z" fill="#000"/>
  <path id="path2753" d="m772.99 270.91h-24v22.772h24z" fill="#cfe2f3" fill-rule="evenodd"/>
  <path id="path2755" d="m772.99 270.91h-24v22.772h24z" fill-rule="evenodd" stroke="#000" stroke-linecap="butt" stroke-linejoin="round"/>
  <path id="path2757" d="m758.54 282.39q0-1.6875 0.34375-2.7188 0.35937-1.0312 1.0469-1.5938t1.7188-0.5625q0.78125 0 1.3594 0.3125 0.57812 0.29688 0.95312 0.89063 0.375 0.57812 0.59375 1.4219 0.21875 0.82813 0.21875 2.25 0 1.6719-0.35937 2.7031-0.34375 1.0312-1.0312 1.5938-0.67188 0.5625-1.7344 0.5625-1.375 0-2.1562-0.98438-0.95312-1.1875-0.95312-3.875zm1.2031 0q0 2.3438 0.54688 3.125 0.5625 0.78125 1.3594 0.78125 0.8125 0 1.3594-0.78125 0.5625-0.78125 0.5625-3.125 0-2.3594-0.5625-3.125-0.54688-0.78125-1.3594-0.78125t-1.2969 0.6875q-0.60938 0.875-0.60938 3.2188z" fill="#000"/>
  <path id="path2759" d="m806.59 270.91h-24v22.772h24z" fill="#cfe2f3" fill-rule="evenodd"/>
  <path id="path2761" d="m806.59 270.91h-24v22.772h24z" fill-rule="evenodd" stroke="#000" stroke-linecap="butt" stroke-linejoin="round"/>
  <path id="path2763" d="m792.14 282.39q0-1.6875 0.34375-2.7188 0.35937-1.0312 1.0469-1.5938t1.7188-0.5625q0.78125 0 1.3594 0.3125 0.57812 0.29688 0.95312 0.89063 0.375 0.57812 0.59375 1.4219 0.21875 0.82813 0.21875 2.25 0 1.6719-0.35937 2.7031-0.34375 1.0312-1.0312 1.5938-0.67188 0.5625-1.7344 0.5625-1.375 0-2.1562-0.98438-0.95312-1.1875-0.95312-3.875zm1.2031 0q0 2.3438 0.54688 3.125 0.5625 0.78125 1.3594 0.78125 0.8125 0 1.3594-0.78125 0.5625-0.78125 0.5625-3.125 0-2.3594-0.5625-3.125-0.54688-0.78125-1.3594-0.78125t-1.2969 0.6875q-0.60938 0.875-0.60938 3.2188z" fill="#000"/>
  <path id="path2765" d="m830.59 270.91h-24v22.772h24z" fill="#cfe2f3" fill-rule="evenodd"/>
  <path id="path2767" d="m830.59 270.91h-24v22.772h24z" fill-rule="evenodd" stroke="#000" stroke-linecap="butt" stroke-linejoin="round"/>
  <path id="path2769" d="m816.14 282.39q0-1.6875 0.34375-2.7188 0.35937-1.0312 1.0469-1.5938t1.7188-0.5625q0.78125 0 1.3594 0.3125 0.57812 0.29688 0.95312 0.89063 0.375 0.57812 0.59375 1.4219 0.21875 0.82813 0.21875 2.25 0 1.6719-0.35937 2.7031-0.34375 1.0312-1.0312 1.5938-0.67188 0.5625-1.7344 0.5625-1.375 0-2.1562-0.98438-0.95312-1.1875-0.95312-3.875zm1.2031 0q0 2.3438 0.54688 3.125 0.5625 0.78125 1.3594 0.78125 0.8125 0 1.3594-0.78125 0.5625-0.78125 0.5625-3.125 0-2.3594-0.5625-3.125-0.54688-0.78125-1.3594-0.78125t-1.2969 0.6875q-0.60938 0.875-0.60938 3.2188z" fill="#000"/>
  <path id="path2771" d="m854.59 270.91h-24v22.772h24z" fill="#cfe2f3" fill-rule="evenodd"/>
  <path id="path2773" d="m854.59 270.91h-24v22.772h24z" fill-rule="evenodd" stroke="#000" stroke-linecap="butt" stroke-linejoin="round"/>
  <path id="path2775" d="m840.14 282.39q0-1.6875 0.34375-2.7188 0.35937-1.0312 1.0469-1.5938t1.7188-0.5625q0.78125 0 1.3594 0.3125 0.57812 0.29688 0.95312 0.89063 0.375 0.57812 0.59375 1.4219 0.21875 0.82813 0.21875 2.25 0 1.6719-0.35937 2.7031-0.34375 1.0312-1.0312 1.5938-0.67188 0.5625-1.7344 0.5625-1.375 0-2.1562-0.98438-0.95312-1.1875-0.95312-3.875zm1.2031 0q0 2.3438 0.54688 3.125 0.5625 0.78125 1.3594 0.78125 0.8125 0 1.3594-0.78125 0.5625-0.78125 0.5625-3.125 0-2.3594-0.5625-3.125-0.54688-0.78125-1.3594-0.78125t-1.2969 0.6875q-0.60938 0.875-0.60938 3.2188z" fill="#000"/>
  <path id="path2777" d="m878.59 270.91h-24v22.772h24z" fill="#cfe2f3" fill-rule="evenodd"/>
  <path id="path2779" d="m878.59 270.91h-24v22.772h24z" fill-rule="evenodd" stroke="#000" stroke-linecap="butt" stroke-linejoin="round"/>
  <path id="path2781" d="m864.14 282.39q0-1.6875 0.34375-2.7188 0.35937-1.0312 1.0469-1.5938t1.7188-0.5625q0.78125 0 1.3594 0.3125 0.57812 0.29688 0.95312 0.89063 0.375 0.57812 0.59375 1.4219 0.21875 0.82813 0.21875 2.25 0 1.6719-0.35937 2.7031-0.34375 1.0312-1.0312 1.5938-0.67188 0.5625-1.7344 0.5625-1.375 0-2.1562-0.98438-0.95312-1.1875-0.95312-3.875zm1.2031 0q0 2.3438 0.54688 3.125 0.5625 0.78125 1.3594 0.78125 0.8125 0 1.3594-0.78125 0.5625-0.78125 0.5625-3.125 0-2.3594-0.5625-3.125-0.54688-0.78125-1.3594-0.78125t-1.2969 0.6875q-0.60938 0.875-0.60938 3.2188z" fill="#000"/>
  <path id="path2783" d="m902.59 270.91h-24v22.772h24z" fill="#cfe2f3" fill-rule="evenodd"/>
  <path id="path2785" d="m902.59 270.91h-24v22.772h24z" fill-rule="evenodd" stroke="#000" stroke-linecap="butt" stroke-linejoin="round"/>
  <path id="path2787" d="m888.14 282.39q0-1.6875 0.34375-2.7188 0.35937-1.0312 1.0469-1.5938t1.7188-0.5625q0.78125 0 1.3594 0.3125 0.57812 0.29688 0.95312 0.89063 0.375 0.57812 0.59375 1.4219 0.21875 0.82813 0.21875 2.25 0 1.6719-0.35937 2.7031-0.34375 1.0312-1.0312 1.5938-0.67188 0.5625-1.7344 0.5625-1.375 0-2.1562-0.98438-0.95312-1.1875-0.95312-3.875zm1.2031 0q0 2.3438 0.54688 3.125 0.5625 0.78125 1.3594 0.78125 0.8125 0 1.3594-0.78125 0.5625-0.78125 0.5625-3.125 0-2.3594-0.5625-3.125-0.54688-0.78125-1.3594-0.78125t-1.2969 0.6875q-0.60938 0.875-0.60938 3.2188z" fill="#000"/>
  <path id="path2789" d="m926.59 270.91h-24v22.772h24z" fill="#cfe2f3" fill-rule="evenodd"/>
  <path id="path2791" d="m926.59 270.91h-24v22.772h24z" fill-rule="evenodd" stroke="#000" stroke-linecap="butt" stroke-linejoin="round"/>
  <path id="path2793" d="m912.14 282.39q0-1.6875 0.34375-2.7188 0.35937-1.0312 1.0469-1.5938t1.7188-0.5625q0.78125 0 1.3594 0.3125 0.57812 0.29688 0.95312 0.89063 0.375 0.57812 0.59375 1.4219 0.21875 0.82813 0.21875 2.25 0 1.6719-0.35937 2.7031-0.34375 1.0312-1.0312 1.5938-0.67188 0.5625-1.7344 0.5625-1.375 0-2.1562-0.98438-0.95312-1.1875-0.95312-3.875zm1.2031 0q0 2.3438 0.54688 3.125 0.5625 0.78125 1.3594 0.78125 0.8125 0 1.3594-0.78125 0.5625-0.78125 0.5625-3.125 0-2.3594-0.5625-3.125-0.54688-0.78125-1.3594-0.78125t-1.2969 0.6875q-0.60938 0.875-0.60938 3.2188z" fill="#000"/>
  <path id="path2795" d="m950.59 270.91h-24v22.772h24z" fill="#cfe2f3" fill-rule="evenodd"/>
  <path id="path2797" d="m950.59 270.91h-24v22.772h24z" fill-rule="evenodd" stroke="#000" stroke-linecap="butt" stroke-linejoin="round"/>
  <path id="path2799" d="m936.14 282.39q0-1.6875 0.34375-2.7188 0.35937-1.0312 1.0469-1.5938t1.7188-0.5625q0.78125 0 1.3594 0.3125 0.57812 0.29688 0.95312 0.89063 0.375 0.57812 0.59375 1.4219 0.21875 0.82813 0.21875 2.25 0 1.6719-0.35937 2.7031-0.34375 1.0312-1.0312 1.5938-0.67188 0.5625-1.7344 0.5625-1.375 0-2.1562-0.98438-0.95312-1.1875-0.95312-3.875zm1.2031 0q0 2.3438 0.54688 3.125 0.5625 0.78125 1.3594 0.78125 0.8125 0 1.3594-0.78125 0.5625-0.78125 0.5625-3.125 0-2.3594-0.5625-3.125-0.54688-0.78125-1.3594-0.78125t-1.2969 0.6875q-0.60938 0.875-0.60938 3.2188z" fill="#000"/>
  <path id="path2801" d="m974.59 270.91h-24v22.772h24z" fill="#cfe2f3" fill-rule="evenodd"/>
  <path id="path2803" d="m974.59 270.91h-24v22.772h24z" fill-rule="evenodd" stroke="#000" stroke-linecap="butt" stroke-linejoin="round"/>
  <path id="path2805" d="m960.14 282.39q0-1.6875 0.34375-2.7188 0.35937-1.0312 1.0469-1.5938t1.7188-0.5625q0.78125 0 1.3594 0.3125 0.57812 0.29688 0.95312 0.89063 0.375 0.57812 0.59375 1.4219 0.21875 0.82813 0.21875 2.25 0 1.6719-0.35937 2.7031-0.34375 1.0312-1.0312 1.5938-0.67188 0.5625-1.7344 0.5625-1.375 0-2.1562-0.98438-0.95312-1.1875-0.95312-3.875zm1.2031 0q0 2.3438 0.54688 3.125 0.5625 0.78125 1.3594 0.78125 0.8125 0 1.3594-0.78125 0.5625-0.78125 0.5625-3.125 0-2.3594-0.5625-3.125-0.54688-0.78125-1.3594-0.78125t-1.2969 0.6875q-0.60938 0.875-0.60938 3.2188z" fill="#000"/>
  <path id="path2807" d="m973.83 265.69c0-5.3054-4.3009-9.6063-9.6063-9.6063h-378.6c-5.3054 0-9.6063-4.3009-9.6063-9.6063 0 5.3054-4.3009 9.6063-9.6063 9.6063h-378.6c-5.3054 0-9.6063 4.3009-9.6063 9.6063z" fill="#000" fill-opacity="0" fill-rule="evenodd"/>
  <path id="path2809" d="m973.83 265.69c0-5.3054-4.3009-9.6063-9.6063-9.6063h-378.6c-5.3054 0-9.6063-4.3009-9.6063-9.6063 0 5.3054-4.3009 9.6063-9.6063 9.6063h-378.6c-5.3054 0-9.6063 4.3009-9.6063 9.6063" fill="#000" fill-opacity="0" fill-rule="evenodd"/>
  <path id="path2811" d="m973.83 265.69c0-5.3054-4.3009-9.6063-9.6063-9.6063h-378.6c-5.3054 0-9.6063-4.3009-9.6063-9.6063 0 5.3054-4.3009 9.6063-9.6063 9.6063h-378.6c-5.3054 0-9.6063 4.3009-9.6063 9.6063" fill-rule="evenodd" stroke="#000" stroke-linecap="butt" stroke-linejoin="round"/>
  <path id="path2813" d="m521.56 212.95h108.91v35.559h-108.91z" fill="#000" fill-opacity="0" fill-rule="evenodd"/>
  <path id="path2815" d="m561.75 237.41v-12.203h2.5781v0.96875h-1.4062v10.25h1.4062v0.98438zm3.8436-2.6562v-9.5469h4.2344q1.2656 0 1.9219 0.26563 0.67187 0.25 1.0625 0.90625 0.40625 0.65625 0.40625 1.4375 0 1.0156-0.65625 1.7188-0.65625 0.6875-2.0312 0.875 0.5 0.25 0.76562 0.48437 0.54688 0.5 1.0469 1.2656l1.6562 2.5938h-1.5781l-1.2656-1.9844q-0.5625-0.85937-0.92188-1.3125-0.34375-0.45312-0.64062-0.64062-0.28125-0.1875-0.5625-0.25-0.21875-0.0469-0.70313-0.0469h-1.4688v4.2344zm1.2656-5.3281h2.7188q0.85938 0 1.3438-0.17187 0.48438-0.1875 0.73438-0.57813 0.26562-0.39062 0.26562-0.85937 0-0.67188-0.5-1.1094-0.48437-0.4375-1.5469-0.4375h-3.0156zm8.3439 5.3281v-9.5469h3.2812q1.1094 0 1.7031 0.14063 0.8125 0.1875 1.3906 0.6875 0.76562 0.64062 1.1406 1.6406 0.375 0.98438 0.375 2.25 0 1.0938-0.26562 1.9375-0.25 0.82813-0.65625 1.3906-0.39063 0.54687-0.85938 0.85937t-1.1406 0.48438q-0.65625 0.15625-1.5312 0.15625zm1.2656-1.125h2.0312q0.9375 0 1.4688-0.17188 0.54688-0.1875 0.875-0.5 0.4375-0.45312 0.6875-1.2031 0.25-0.76563 0.25-1.8438 0-1.5-0.5-2.2969-0.48437-0.8125-1.1875-1.0781-0.5-0.20313-1.625-0.20313h-2zm8.5783 1.125v-9.5469h1.25v9.5469zm5.2967 2.6562h-2.5938v-0.98438h1.4219v-10.25h-1.4219v-0.96875h2.5938z" fill="#000"/>
  <path id="path2817" d="m604.55 581.87h-24v22.772h24z" fill="#d9ead3" fill-rule="evenodd"/>
  <path id="path2819" d="m604.55 581.87h-24v22.772h24z" fill-rule="evenodd" stroke="#000" stroke-linecap="butt" stroke-linejoin="round"/>
  <path id="path2821" d="m594.52 598.06h-1.1719v-7.4688q-0.42188 0.40625-1.1094 0.8125t-1.2344 0.60937v-1.1406q0.98437-0.45313 1.7188-1.1094 0.73437-0.67187 1.0312-1.2812h0.76562z" fill="#000"/>
  <path id="path2823" d="m628.55 581.87h-24v22.772h24z" fill="#d9ead3" fill-rule="evenodd"/>
  <path id="path2825" d="m628.55 581.87h-24v22.772h24z" fill-rule="evenodd" stroke="#000" stroke-linecap="butt" stroke-linejoin="round"/>
  <path id="path2827" d="m618.52 598.06h-1.1719v-7.4688q-0.42188 0.40625-1.1094 0.8125t-1.2344 0.60937v-1.1406q0.98437-0.45313 1.7188-1.1094 0.73437-0.67187 1.0312-1.2812h0.76562z" fill="#000"/>
  <path id="path2829" d="m652.55 581.87h-24v22.772h24z" fill="#d9ead3" fill-rule="evenodd"/>
  <path id="path2831" d="m652.55 581.87h-24v22.772h24z" fill-rule="evenodd" stroke="#000" stroke-linecap="butt" stroke-linejoin="round"/>
  <path id="path2833" d="m642.52 598.06h-1.1719v-7.4688q-0.42188 0.40625-1.1094 0.8125t-1.2344 0.60937v-1.1406q0.98437-0.45313 1.7188-1.1094 0.73437-0.67187 1.0312-1.2812h0.76562z" fill="#000"/>
  <path id="path2835" d="m676.55 581.87h-24v22.772h24z" fill="#d9ead3" fill-rule="evenodd"/>
  <path id="path2837" d="m676.55 581.87h-24v22.772h24z" fill-rule="evenodd" stroke="#000" stroke-linecap="butt" stroke-linejoin="round"/>
  <path id="path2839" d="m666.52 598.06h-1.1719v-7.4688q-0.42188 0.40625-1.1094 0.8125t-1.2344 0.60937v-1.1406q0.98437-0.45313 1.7188-1.1094 0.73437-0.67187 1.0312-1.2812h0.76562z" fill="#000"/>
  <path id="path2841" d="m700.55 581.87h-24v22.772h24z" fill="#d9ead3" fill-rule="evenodd"/>
  <path id="path2843" d="m700.55 581.87h-24v22.772h24z" fill-rule="evenodd" stroke="#000" stroke-linecap="butt" stroke-linejoin="round"/>
  <path id="path2845" d="m690.52 598.06h-1.1719v-7.4688q-0.42188 0.40625-1.1094 0.8125t-1.2344 0.60937v-1.1406q0.98437-0.45313 1.7188-1.1094 0.73437-0.67187 1.0312-1.2812h0.76562z" fill="#000"/>
  <path id="path2847" d="m724.55 581.87h-24v22.772h24z" fill="#d9ead3" fill-rule="evenodd"/>
  <path id="path2849" d="m724.55 581.87h-24v22.772h24z" fill-rule="evenodd" stroke="#000" stroke-linecap="butt" stroke-linejoin="round"/>
  <path id="path2851" d="m714.52 598.06h-1.1719v-7.4688q-0.42188 0.40625-1.1094 0.8125t-1.2344 0.60937v-1.1406q0.98437-0.45313 1.7188-1.1094 0.73437-0.67187 1.0312-1.2812h0.76562z" fill="#000"/>
  <path id="path2853" d="m748.55 581.87h-24v22.772h24z" fill="#d9ead3" fill-rule="evenodd"/>
  <path id="path2855" d="m748.55 581.87h-24v22.772h24z" fill-rule="evenodd" stroke="#000" stroke-linecap="butt" stroke-linejoin="round"/>
  <path id="path2857" d="m738.52 598.06h-1.1719v-7.4688q-0.42188 0.40625-1.1094 0.8125t-1.2344 0.60937v-1.1406q0.98437-0.45313 1.7188-1.1094 0.73437-0.67187 1.0312-1.2812h0.76562z" fill="#000"/>
  <path id="path2859" d="m772.55 581.87h-24v22.772h24z" fill="#d9ead3" fill-rule="evenodd"/>
  <path id="path2861" d="m772.55 581.87h-24v22.772h24z" fill-rule="evenodd" stroke="#000" stroke-linecap="butt" stroke-linejoin="round"/>
  <path id="path2863" d="m762.52 598.06h-1.1719v-7.4688q-0.42188 0.40625-1.1094 0.8125t-1.2344 0.60937v-1.1406q0.98437-0.45313 1.7188-1.1094 0.73437-0.67187 1.0312-1.2812h0.76562z" fill="#000"/>
  <path id="path2865" d="m806.15 581.87h-24v22.772h24z" fill="#d9ead3" fill-rule="evenodd"/>
  <path id="path2867" d="m806.15 581.87h-24v22.772h24z" fill-rule="evenodd" stroke="#000" stroke-linecap="butt" stroke-linejoin="round"/>
  <path id="path2869" d="m796.12 598.06h-1.1719v-7.4688q-0.42187 0.40625-1.1094 0.8125t-1.2344 0.60937v-1.1406q0.98438-0.45313 1.7188-1.1094 0.73438-0.67187 1.0312-1.2812h0.76563z" fill="#000"/>
  <path id="path2871" d="m830.15 581.87h-24v22.772h24z" fill="#d9ead3" fill-rule="evenodd"/>
  <path id="path2873" d="m830.15 581.87h-24v22.772h24z" fill-rule="evenodd" stroke="#000" stroke-linecap="butt" stroke-linejoin="round"/>
  <path id="path2875" d="m820.12 598.06h-1.1719v-7.4688q-0.42187 0.40625-1.1094 0.8125t-1.2344 0.60937v-1.1406q0.98438-0.45313 1.7188-1.1094 0.73438-0.67187 1.0312-1.2812h0.76563z" fill="#000"/>
  <path id="path2877" d="m854.15 581.87h-24v22.772h24z" fill="#d9ead3" fill-rule="evenodd"/>
  <path id="path2879" d="m854.15 581.87h-24v22.772h24z" fill-rule="evenodd" stroke="#000" stroke-linecap="butt" stroke-linejoin="round"/>
  <path id="path2881" d="m844.12 598.06h-1.1719v-7.4688q-0.42187 0.40625-1.1094 0.8125t-1.2344 0.60937v-1.1406q0.98438-0.45313 1.7188-1.1094 0.73438-0.67187 1.0312-1.2812h0.76563z" fill="#000"/>
  <path id="path2883" d="m878.15 581.87h-24v22.772h24z" fill="#d9ead3" fill-rule="evenodd"/>
  <path id="path2885" d="m878.15 581.87h-24v22.772h24z" fill-rule="evenodd" stroke="#000" stroke-linecap="butt" stroke-linejoin="round"/>
  <path id="path2887" d="m868.12 598.06h-1.1719v-7.4688q-0.42187 0.40625-1.1094 0.8125t-1.2344 0.60937v-1.1406q0.98438-0.45313 1.7188-1.1094 0.73438-0.67187 1.0312-1.2812h0.76563z" fill="#000"/>
  <path id="path2889" d="m902.15 581.87h-24v22.772h24z" fill="#d9ead3" fill-rule="evenodd"/>
  <path id="path2891" d="m902.15 581.87h-24v22.772h24z" fill-rule="evenodd" stroke="#000" stroke-linecap="butt" stroke-linejoin="round"/>
  <path id="path2893" d="m892.12 598.06h-1.1719v-7.4688q-0.42187 0.40625-1.1094 0.8125t-1.2344 0.60937v-1.1406q0.98438-0.45313 1.7188-1.1094 0.73438-0.67187 1.0312-1.2812h0.76563z" fill="#000"/>
  <path id="path2895" d="m926.15 581.87h-24v22.772h24z" fill="#d9ead3" fill-rule="evenodd"/>
  <path id="path2897" d="m926.15 581.87h-24v22.772h24z" fill-rule="evenodd" stroke="#000" stroke-linecap="butt" stroke-linejoin="round"/>
  <path id="path2899" d="m916.12 598.06h-1.1719v-7.4688q-0.42187 0.40625-1.1094 0.8125t-1.2344 0.60937v-1.1406q0.98438-0.45313 1.7188-1.1094 0.73438-0.67187 1.0312-1.2812h0.76563z" fill="#000"/>
  <path id="path2901" d="m950.15 581.87h-24v22.772h24z" fill="#d9ead3" fill-rule="evenodd"/>
  <path id="path2903" d="m950.15 581.87h-24v22.772h24z" fill-rule="evenodd" stroke="#000" stroke-linecap="butt" stroke-linejoin="round"/>
  <path id="path2905" d="m940.12 598.06h-1.1719v-7.4688q-0.42187 0.40625-1.1094 0.8125t-1.2344 0.60937v-1.1406q0.98438-0.45313 1.7188-1.1094 0.73438-0.67187 1.0312-1.2812h0.76563z" fill="#000"/>
  <path id="path2907" d="m974.15 581.87h-24v22.772h24z" fill="#d9ead3" fill-rule="evenodd"/>
  <path id="path2909" d="m974.15 581.87h-24v22.772h24z" fill-rule="evenodd" stroke="#000" stroke-linecap="butt" stroke-linejoin="round"/>
  <path id="path2911" d="m964.12 598.06h-1.1719v-7.4688q-0.42187 0.40625-1.1094 0.8125t-1.2344 0.60937v-1.1406q0.98438-0.45313 1.7188-1.1094 0.73438-0.67187 1.0312-1.2812h0.76563z" fill="#000"/>
  <path id="path2913" d="m973.39 576.65c0-5.3054-4.3008-9.6063-9.6063-9.6063h-378.6c-5.3054 0-9.6063-4.3009-9.6063-9.6063 0 5.3054-4.3009 9.6063-9.6063 9.6063h-378.6c-5.3054 0-9.6063 4.3009-9.6063 9.6063z" fill="#000" fill-opacity="0" fill-rule="evenodd"/>
  <path id="path2915" d="m973.39 576.65c0-5.3054-4.3008-9.6063-9.6063-9.6063h-378.6c-5.3054 0-9.6063-4.3009-9.6063-9.6063 0 5.3054-4.3009 9.6063-9.6063 9.6063h-378.6c-5.3054 0-9.6063 4.3009-9.6063 9.6063" fill="#000" fill-opacity="0" fill-rule="evenodd"/>
  <path id="path2917" d="m973.39 576.65c0-5.3054-4.3008-9.6063-9.6063-9.6063h-378.6c-5.3054 0-9.6063-4.3009-9.6063-9.6063 0 5.3054-4.3009 9.6063-9.6063 9.6063h-378.6c-5.3054 0-9.6063 4.3009-9.6063 9.6063" fill-rule="evenodd" stroke="#000" stroke-linecap="butt" stroke-linejoin="round"/>
  <path id="path2919" d="m521.12 523.92h108.91v35.559h-108.91z" fill="#000" fill-opacity="0" fill-rule="evenodd"/>
  <path id="path2921" d="m546.63 545.72v-9.5469h6.9062v1.125h-5.6406v2.9219h5.2812v1.125h-5.2812v3.25h5.8594v1.125zm7.8272 0 3.6562-9.5469h1.3594l3.9062 9.5469h-1.4375l-1.1094-2.8906h-3.9844l-1.0469 2.8906zm2.75-3.9219h3.2344l-1-2.6406q-0.45312-1.2031-0.67187-1.9688-0.1875 0.90625-0.51563 1.8125zm6.2179 3.9219 3.6875-4.9688-3.25-4.5781h1.5l1.7344 2.4531q0.53125 0.76562 0.76563 1.1719 0.3125-0.51562 0.75-1.0938l1.9219-2.5312h1.375l-3.3594 4.5 3.625 5.0469h-1.5625l-2.4062-3.4062q-0.20313-0.29688-0.42188-0.64063-0.3125 0.53125-0.45312 0.71875l-2.3906 3.3281zm15.655 2.8125q-0.98438-1.2344-1.6562-2.875-0.65625-1.6406-0.65625-3.3906 0-1.5469 0.5-2.9688 0.57812-1.6406 1.8125-3.2812h0.82812q-0.78125 1.3594-1.0312 1.9375-0.40625 0.89063-0.625 1.875-0.28125 1.2188-0.28125 2.4375 0 3.1406 1.9375 6.2656zm3.2665-2.8125h-1.0781v-9.5469h1.1719v3.4062q0.73437-0.92187 1.8906-0.92187 0.64063 0 1.2031 0.26562 0.57812 0.25 0.9375 0.71875 0.375 0.45313 0.57812 1.1094 0.20313 0.65625 0.20313 1.4062 0 1.7812-0.875 2.75t-2.1094 0.96875q-1.2188 0-1.9219-1.0156zm0-3.5q0 1.2344 0.32812 1.7812 0.5625 0.90625 1.5 0.90625 0.76563 0 1.3281-0.65625 0.5625-0.67188 0.5625-2 0-1.3438-0.54688-1.9844-0.53125-0.65625-1.2969-0.65625-0.76563 0-1.3281 0.67188-0.54687 0.67187-0.54687 1.9375zm6.35-4.6875v-1.3594h1.1719v1.3594zm0 8.1875v-6.9062h1.1719v6.9062zm5.5079-1.0469 0.17187 1.0312q-0.5 0.10938-0.89062 0.10938-0.64063 0-1-0.20313-0.34375-0.20312-0.48438-0.53125-0.14062-0.32812-0.14062-1.3906v-3.9688h-0.85938v-0.90625h0.85938v-1.7188l1.1719-0.70313v2.4219h1.1719v0.90625h-1.1719v4.0469q0 0.5 0.0469 0.64063 0.0625 0.14062 0.20312 0.23437 0.14063 0.0781 0.40625 0.0781 0.20313 0 0.51563-0.0469zm0.67175-1.0156 1.1562-0.1875q0.10938 0.70312 0.54688 1.0781 0.45312 0.35938 1.25 0.35938 0.8125 0 1.2031-0.32813 0.39063-0.32812 0.39063-0.76562 0-0.39063-0.35938-0.625-0.23437-0.15625-1.1875-0.39063-1.2969-0.32812-1.7969-0.5625-0.48438-0.25-0.75-0.65625-0.25-0.42187-0.25-0.9375 0-0.45312 0.20312-0.84375 0.21875-0.40625 0.57813-0.67187 0.28125-0.1875 0.75-0.32813 0.46875-0.14062 1.0156-0.14062 0.8125 0 1.4219 0.23437 0.60937 0.23438 0.90625 0.64063 0.29687 0.39062 0.40625 1.0625l-1.1406 0.15625q-0.0781-0.53125-0.45312-0.82813-0.375-0.3125-1.0625-0.3125-0.8125 0-1.1562 0.26563-0.34375 0.26562-0.34375 0.625 0 0.23437 0.14062 0.42187 0.15625 0.1875 0.45313 0.3125 0.17187 0.0625 1.0312 0.29688 1.25 0.32812 1.7344 0.54687 0.5 0.20313 0.78125 0.60938t0.28125 1-0.34375 1.1094q-0.34375 0.51563-1 0.79688-0.64062 0.28125-1.4531 0.28125-1.3438 0-2.0469-0.5625-0.70312-0.5625-0.90625-1.6562zm7.8984 4.875h-0.82813q1.9375-3.125 1.9375-6.2656 0-1.2188-0.28125-2.4219-0.21875-0.98438-0.60937-1.875-0.26563-0.59375-1.0469-1.9531h0.82813q1.2344 1.6406 1.8125 3.2812 0.5 1.4219 0.5 2.9688 0 1.75-0.67188 3.3906-0.67187 1.6406-1.6406 2.875z" fill="#000"/>
  <path id="path2923" d="m402.95 581.87h-24v22.772h24z" fill="#f4cccc" fill-rule="evenodd"/>
  <path id="path2925" d="m402.95 581.87h-24v22.772h24z" fill-rule="evenodd" stroke="#000" stroke-linecap="butt" stroke-linejoin="round"/>
  <path id="path2927" d="m388.49 593.35q0-1.6875 0.34375-2.7188 0.35937-1.0312 1.0469-1.5938t1.7188-0.5625q0.78125 0 1.3594 0.3125 0.57812 0.29687 0.95312 0.89062 0.375 0.57813 0.59375 1.4219 0.21875 0.82812 0.21875 2.25 0 1.6719-0.35937 2.7031-0.34375 1.0312-1.0312 1.5938-0.67188 0.5625-1.7344 0.5625-1.375 0-2.1562-0.98437-0.95312-1.1875-0.95312-3.875zm1.2031 0q0 2.3438 0.54688 3.125 0.5625 0.78125 1.3594 0.78125 0.8125 0 1.3594-0.78125 0.5625-0.78125 0.5625-3.125 0-2.3594-0.5625-3.125-0.54688-0.78125-1.3594-0.78125t-1.2969 0.6875q-0.60938 0.875-0.60938 3.2188z" fill="#000"/>
  <path id="path2929" d="m426.95 581.87h-24v22.772h24z" fill="#f4cccc" fill-rule="evenodd"/>
  <path id="path2931" d="m426.95 581.87h-24v22.772h24z" fill-rule="evenodd" stroke="#000" stroke-linecap="butt" stroke-linejoin="round"/>
  <path id="path2933" d="m412.49 593.35q0-1.6875 0.34375-2.7188 0.35937-1.0312 1.0469-1.5938t1.7188-0.5625q0.78125 0 1.3594 0.3125 0.57812 0.29687 0.95312 0.89062 0.375 0.57813 0.59375 1.4219 0.21875 0.82812 0.21875 2.25 0 1.6719-0.35937 2.7031-0.34375 1.0312-1.0312 1.5938-0.67188 0.5625-1.7344 0.5625-1.375 0-2.1562-0.98437-0.95312-1.1875-0.95312-3.875zm1.2031 0q0 2.3438 0.54688 3.125 0.5625 0.78125 1.3594 0.78125 0.8125 0 1.3594-0.78125 0.5625-0.78125 0.5625-3.125 0-2.3594-0.5625-3.125-0.54688-0.78125-1.3594-0.78125t-1.2969 0.6875q-0.60938 0.875-0.60938 3.2188z" fill="#000"/>
  <path id="path2935" d="m450.95 581.87h-24v22.772h24z" fill="#f4cccc" fill-rule="evenodd"/>
  <path id="path2937" d="m450.95 581.87h-24v22.772h24z" fill-rule="evenodd" stroke="#000" stroke-linecap="butt" stroke-linejoin="round"/>
  <path id="path2939" d="m436.49 593.35q0-1.6875 0.34375-2.7188 0.35937-1.0312 1.0469-1.5938t1.7188-0.5625q0.78125 0 1.3594 0.3125 0.57812 0.29687 0.95312 0.89062 0.375 0.57813 0.59375 1.4219 0.21875 0.82812 0.21875 2.25 0 1.6719-0.35937 2.7031-0.34375 1.0312-1.0312 1.5938-0.67188 0.5625-1.7344 0.5625-1.375 0-2.1562-0.98437-0.95312-1.1875-0.95312-3.875zm1.2031 0q0 2.3438 0.54688 3.125 0.5625 0.78125 1.3594 0.78125 0.8125 0 1.3594-0.78125 0.5625-0.78125 0.5625-3.125 0-2.3594-0.5625-3.125-0.54688-0.78125-1.3594-0.78125t-1.2969 0.6875q-0.60938 0.875-0.60938 3.2188z" fill="#000"/>
  <path id="path2941" d="m474.95 581.87h-24v22.772h24z" fill="#f4cccc" fill-rule="evenodd"/>
  <path id="path2943" d="m474.95 581.87h-24v22.772h24z" fill-rule="evenodd" stroke="#000" stroke-linecap="butt" stroke-linejoin="round"/>
  <path id="path2945" d="m460.49 593.35q0-1.6875 0.34375-2.7188 0.35937-1.0312 1.0469-1.5938t1.7188-0.5625q0.78125 0 1.3594 0.3125 0.57812 0.29687 0.95312 0.89062 0.375 0.57813 0.59375 1.4219 0.21875 0.82812 0.21875 2.25 0 1.6719-0.35937 2.7031-0.34375 1.0312-1.0312 1.5938-0.67188 0.5625-1.7344 0.5625-1.375 0-2.1562-0.98437-0.95312-1.1875-0.95312-3.875zm1.2031 0q0 2.3438 0.54688 3.125 0.5625 0.78125 1.3594 0.78125 0.8125 0 1.3594-0.78125 0.5625-0.78125 0.5625-3.125 0-2.3594-0.5625-3.125-0.54688-0.78125-1.3594-0.78125t-1.2969 0.6875q-0.60938 0.875-0.60938 3.2188z" fill="#000"/>
  <path id="path2947" d="m498.95 581.87h-24v22.772h24z" fill="#d9ead3" fill-rule="evenodd"/>
  <path id="path2949" d="m498.95 581.87h-24v22.772h24z" fill-rule="evenodd" stroke="#000" stroke-linecap="butt" stroke-linejoin="round"/>
  <path id="path2951" d="m488.92 598.06h-1.1719v-7.4688q-0.42188 0.40625-1.1094 0.8125t-1.2344 0.60937v-1.1406q0.98437-0.45313 1.7188-1.1094 0.73437-0.67187 1.0312-1.2812h0.76562z" fill="#000"/>
  <path id="path2953" d="m522.95 581.87h-24v22.772h24z" fill="#d9ead3" fill-rule="evenodd"/>
  <path id="path2955" d="m522.95 581.87h-24v22.772h24z" fill-rule="evenodd" stroke="#000" stroke-linecap="butt" stroke-linejoin="round"/>
  <path id="path2957" d="m512.92 598.06h-1.1719v-7.4688q-0.42187 0.40625-1.1094 0.8125t-1.2344 0.60937v-1.1406q0.98438-0.45313 1.7188-1.1094 0.73438-0.67187 1.0312-1.2812h0.76563z" fill="#000"/>
  <path id="path2959" d="m546.95 581.87h-24v22.772h24z" fill="#d9ead3" fill-rule="evenodd"/>
  <path id="path2961" d="m546.95 581.87h-24v22.772h24z" fill-rule="evenodd" stroke="#000" stroke-linecap="butt" stroke-linejoin="round"/>
  <path id="path2963" d="m536.92 598.06h-1.1719v-7.4688q-0.42187 0.40625-1.1094 0.8125t-1.2344 0.60937v-1.1406q0.98438-0.45313 1.7188-1.1094 0.73438-0.67187 1.0312-1.2812h0.76563z" fill="#000"/>
  <path id="path2965" d="m570.95 581.87h-24v22.772h24z" fill="#d9ead3" fill-rule="evenodd"/>
  <path id="path2967" d="m570.95 581.87h-24v22.772h24z" fill-rule="evenodd" stroke="#000" stroke-linecap="butt" stroke-linejoin="round"/>
  <path id="path2969" d="m560.92 598.06h-1.1719v-7.4688q-0.42187 0.40625-1.1094 0.8125t-1.2344 0.60937v-1.1406q0.98438-0.45313 1.7188-1.1094 0.73438-0.67187 1.0312-1.2812h0.76563z" fill="#000"/>
  <path id="path2971" d="m201.35 581.87h-24v22.772h24z" fill="#f4cccc" fill-rule="evenodd"/>
  <path id="path2973" d="m201.35 581.87h-24v22.772h24z" fill-rule="evenodd" stroke="#000" stroke-linecap="butt" stroke-linejoin="round"/>
  <path id="path2975" d="m186.89 593.35q0-1.6875 0.34375-2.7188 0.35937-1.0312 1.0469-1.5938t1.7188-0.5625q0.78125 0 1.3594 0.3125 0.57812 0.29687 0.95312 0.89062 0.375 0.57813 0.59375 1.4219 0.21875 0.82812 0.21875 2.25 0 1.6719-0.35937 2.7031-0.34375 1.0312-1.0312 1.5938-0.67188 0.5625-1.7344 0.5625-1.375 0-2.1562-0.98437-0.95312-1.1875-0.95312-3.875zm1.2031 0q0 2.3438 0.54688 3.125 0.5625 0.78125 1.3594 0.78125 0.8125 0 1.3594-0.78125 0.5625-0.78125 0.5625-3.125 0-2.3594-0.5625-3.125-0.54688-0.78125-1.3594-0.78125t-1.2969 0.6875q-0.60938 0.875-0.60938 3.2188z" fill="#000"/>
  <path id="path2977" d="m225.35 581.87h-24v22.772h24z" fill="#f4cccc" fill-rule="evenodd"/>
  <path id="path2979" d="m225.35 581.87h-24v22.772h24z" fill-rule="evenodd" stroke="#000" stroke-linecap="butt" stroke-linejoin="round"/>
  <path id="path2981" d="m210.89 593.35q0-1.6875 0.34375-2.7188 0.35937-1.0312 1.0469-1.5938t1.7188-0.5625q0.78125 0 1.3594 0.3125 0.57812 0.29687 0.95312 0.89062 0.375 0.57813 0.59375 1.4219 0.21875 0.82812 0.21875 2.25 0 1.6719-0.35937 2.7031-0.34375 1.0312-1.0312 1.5938-0.67188 0.5625-1.7344 0.5625-1.375 0-2.1562-0.98437-0.95312-1.1875-0.95312-3.875zm1.2031 0q0 2.3438 0.54688 3.125 0.5625 0.78125 1.3594 0.78125 0.8125 0 1.3594-0.78125 0.5625-0.78125 0.5625-3.125 0-2.3594-0.5625-3.125-0.54688-0.78125-1.3594-0.78125t-1.2969 0.6875q-0.60938 0.875-0.60938 3.2188z" fill="#000"/>
  <path id="path2983" d="m273.35 581.87h-24v22.772h24z" fill="#f4cccc" fill-rule="evenodd"/>
  <path id="path2985" d="m273.35 581.87h-24v22.772h24z" fill-rule="evenodd" stroke="#000" stroke-linecap="butt" stroke-linejoin="round"/>
  <path id="path2987" d="m258.89 593.35q0-1.6875 0.34375-2.7188 0.35938-1.0312 1.0469-1.5938t1.7188-0.5625q0.78125 0 1.3594 0.3125 0.57813 0.29687 0.95313 0.89062 0.375 0.57813 0.59375 1.4219 0.21875 0.82812 0.21875 2.25 0 1.6719-0.35938 2.7031-0.34375 1.0312-1.0312 1.5938-0.67187 0.5625-1.7344 0.5625-1.375 0-2.1562-0.98437-0.95313-1.1875-0.95313-3.875zm1.2031 0q0 2.3438 0.54687 3.125 0.5625 0.78125 1.3594 0.78125 0.8125 0 1.3594-0.78125 0.5625-0.78125 0.5625-3.125 0-2.3594-0.5625-3.125-0.54687-0.78125-1.3594-0.78125t-1.2969 0.6875q-0.60937 0.875-0.60937 3.2188z" fill="#000"/>
  <path id="path2989" d="m297.35 581.87h-24v22.772h24z" fill="#f4cccc" fill-rule="evenodd"/>
  <path id="path2991" d="m297.35 581.87h-24v22.772h24z" fill-rule="evenodd" stroke="#000" stroke-linecap="butt" stroke-linejoin="round"/>
  <path id="path2993" d="m282.89 593.35q0-1.6875 0.34375-2.7188 0.35938-1.0312 1.0469-1.5938t1.7188-0.5625q0.78125 0 1.3594 0.3125 0.57813 0.29687 0.95313 0.89062 0.375 0.57813 0.59375 1.4219 0.21875 0.82812 0.21875 2.25 0 1.6719-0.35938 2.7031-0.34375 1.0312-1.0312 1.5938-0.67187 0.5625-1.7344 0.5625-1.375 0-2.1562-0.98437-0.95313-1.1875-0.95313-3.875zm1.2031 0q0 2.3438 0.54687 3.125 0.5625 0.78125 1.3594 0.78125 0.8125 0 1.3594-0.78125 0.5625-0.78125 0.5625-3.125 0-2.3594-0.5625-3.125-0.54687-0.78125-1.3594-0.78125t-1.2969 0.6875q-0.60937 0.875-0.60937 3.2188z" fill="#000"/>
  <path id="path2995" d="m321.35 581.87h-24v22.772h24z" fill="#f4cccc" fill-rule="evenodd"/>
  <path id="path2997" d="m321.35 581.87h-24v22.772h24z" fill-rule="evenodd" stroke="#000" stroke-linecap="butt" stroke-linejoin="round"/>
  <path id="path2999" d="m306.89 593.35q0-1.6875 0.34375-2.7188 0.35938-1.0312 1.0469-1.5938t1.7188-0.5625q0.78125 0 1.3594 0.3125 0.57813 0.29687 0.95313 0.89062 0.375 0.57813 0.59375 1.4219 0.21875 0.82812 0.21875 2.25 0 1.6719-0.35938 2.7031-0.34375 1.0312-1.0312 1.5938-0.67187 0.5625-1.7344 0.5625-1.375 0-2.1562-0.98437-0.95313-1.1875-0.95313-3.875zm1.2031 0q0 2.3438 0.54687 3.125 0.5625 0.78125 1.3594 0.78125 0.8125 0 1.3594-0.78125 0.5625-0.78125 0.5625-3.125 0-2.3594-0.5625-3.125-0.54687-0.78125-1.3594-0.78125t-1.2969 0.6875q-0.60937 0.875-0.60937 3.2188z" fill="#000"/>
  <path id="path3001" d="m345.35 581.87h-24v22.772h24z" fill="#f4cccc" fill-rule="evenodd"/>
  <path id="path3003" d="m345.35 581.87h-24v22.772h24z" fill-rule="evenodd" stroke="#000" stroke-linecap="butt" stroke-linejoin="round"/>
  <path id="path3005" d="m330.89 593.35q0-1.6875 0.34375-2.7188 0.35938-1.0312 1.0469-1.5938t1.7188-0.5625q0.78125 0 1.3594 0.3125 0.57813 0.29687 0.95313 0.89062 0.375 0.57813 0.59375 1.4219 0.21875 0.82812 0.21875 2.25 0 1.6719-0.35938 2.7031-0.34375 1.0312-1.0312 1.5938-0.67187 0.5625-1.7344 0.5625-1.375 0-2.1562-0.98437-0.95313-1.1875-0.95313-3.875zm1.2031 0q0 2.3438 0.54687 3.125 0.5625 0.78125 1.3594 0.78125 0.8125 0 1.3594-0.78125 0.5625-0.78125 0.5625-3.125 0-2.3594-0.5625-3.125-0.54687-0.78125-1.3594-0.78125t-1.2969 0.6875q-0.60937 0.875-0.60937 3.2188z" fill="#000"/>
  <path id="path3007" d="m369.35 581.87h-24v22.772h24z" fill="#f4cccc" fill-rule="evenodd"/>
  <path id="path3009" d="m369.35 581.87h-24v22.772h24z" fill-rule="evenodd" stroke="#000" stroke-linecap="butt" stroke-linejoin="round"/>
  <path id="path3011" d="m354.89 593.35q0-1.6875 0.34375-2.7188 0.35938-1.0312 1.0469-1.5938t1.7188-0.5625q0.78125 0 1.3594 0.3125 0.57813 0.29687 0.95313 0.89062 0.375 0.57813 0.59375 1.4219 0.21875 0.82812 0.21875 2.25 0 1.6719-0.35938 2.7031-0.34375 1.0312-1.0312 1.5938-0.67187 0.5625-1.7344 0.5625-1.375 0-2.1562-0.98437-0.95313-1.1875-0.95313-3.875zm1.2031 0q0 2.3438 0.54687 3.125 0.5625 0.78125 1.3594 0.78125 0.8125 0 1.3594-0.78125 0.5625-0.78125 0.5625-3.125 0-2.3594-0.5625-3.125-0.54687-0.78125-1.3594-0.78125t-1.2969 0.6875q-0.60937 0.875-0.60937 3.2188z" fill="#000"/>
  <path id="path3013" d="m249.35 581.87h-24v22.772h24z" fill="#f4cccc" fill-rule="evenodd"/>
  <path id="path3015" d="m249.35 581.87h-24v22.772h24z" fill-rule="evenodd" stroke="#000" stroke-linecap="butt" stroke-linejoin="round"/>
  <path id="path3017" d="m234.89 593.35q0-1.6875 0.34375-2.7188 0.35937-1.0312 1.0469-1.5938t1.7188-0.5625q0.78125 0 1.3594 0.3125 0.57812 0.29687 0.95312 0.89062 0.375 0.57813 0.59375 1.4219 0.21875 0.82812 0.21875 2.25 0 1.6719-0.35937 2.7031-0.34375 1.0312-1.0312 1.5938-0.67188 0.5625-1.7344 0.5625-1.375 0-2.1562-0.98437-0.95312-1.1875-0.95312-3.875zm1.2031 0q0 2.3438 0.54688 3.125 0.5625 0.78125 1.3594 0.78125 0.8125 0 1.3594-0.78125 0.5625-0.78125 0.5625-3.125 0-2.3594-0.5625-3.125-0.54688-0.78125-1.3594-0.78125t-1.2969 0.6875q-0.60938 0.875-0.60938 3.2188z" fill="#000"/>
  <path id="path3019" d="m177.35 609.87h48.63v29.071h-48.63z" fill="#000" fill-opacity="0" fill-rule="evenodd"/>
  <path id="path3021" d="m186.94 626.55v-5.7344h0.75v5.0625h2.8281v0.67187zm4.2148-1.8438 0.71875-0.0625q0.0469 0.4375 0.23438 0.71875 0.1875 0.26563 0.57812 0.4375 0.39063 0.17188 0.875 0.17188 0.4375 0 0.76563-0.125 0.32812-0.14063 0.48437-0.35938 0.17188-0.23437 0.17188-0.5 0-0.26562-0.15625-0.46875-0.15625-0.20312-0.51563-0.32812-0.23437-0.0937-1.0312-0.28125-0.78125-0.1875-1.0938-0.35938-0.40625-0.21875-0.60937-0.53125-0.20313-0.32812-0.20313-0.71875 0-0.4375 0.25-0.8125t0.71875-0.5625q0.46875-0.20312 1.0469-0.20312 0.64062 0 1.125 0.20312 0.48437 0.20313 0.75 0.60938 0.26562 0.39062 0.28125 0.90625l-0.73438 0.0469q-0.0469-0.54687-0.39062-0.8125-0.34375-0.28125-1-0.28125-0.6875 0-1 0.25t-0.3125 0.60938q0 0.3125 0.21875 0.5 0.21875 0.20312 1.1406 0.42187 0.92188 0.20313 1.2656 0.35938 0.5 0.23437 0.73437 0.59375 0.25 0.34375 0.25 0.79687 0 0.46875-0.26562 0.875-0.26563 0.39063-0.75 0.625-0.48438 0.21875-1.1094 0.21875-0.76562 0-1.2969-0.21875-0.53125-0.23437-0.82813-0.6875-0.29687-0.45312-0.3125-1.0312zm5.5703 1.8438v-5.7344h2.1406q0.65625 0 1.0469 0.1875 0.40625 0.17187 0.625 0.53125 0.23437 0.35937 0.23437 0.75 0 0.375-0.20312 0.70312-0.20313 0.3125-0.60938 0.51563 0.53125 0.15625 0.79688 0.53125 0.28125 0.35937 0.28125 0.85937 0 0.39063-0.17188 0.75-0.15625 0.34375-0.40625 0.53125t-0.64062 0.28125q-0.375 0.0937-0.92188 0.0937zm0.75-3.3281h1.2344q0.51563 0 0.73438-0.0625 0.28125-0.0781 0.42187-0.28125 0.15625-0.20313 0.15625-0.5 0-0.28125-0.14062-0.5-0.14063-0.21875-0.39063-0.29688-0.25-0.0781-0.875-0.0781h-1.1406zm0 2.6562h1.4219q0.375 0 0.51563-0.0312 0.26562-0.0469 0.4375-0.15625 0.1875-0.10938 0.29687-0.3125 0.10938-0.21875 0.10938-0.48438 0-0.32812-0.17188-0.5625-0.15625-0.23437-0.45312-0.32812-0.28125-0.0937-0.82813-0.0937h-1.3281z" fill="#000"/>
  <path id="path3023" d="m926.4 609.87h48.63v29.071h-48.63z" fill="#000" fill-opacity="0" fill-rule="evenodd"/>
  <path id="path3025" d="m949.29 626.55v-5.7344h1.1406l1.3594 4.0625q0.1875 0.5625 0.26563 0.84375 0.10937-0.3125 0.3125-0.92188l1.375-3.9844h1.0156v5.7344h-0.73437v-4.7969l-1.6562 4.7969h-0.6875l-1.6562-4.875v4.875zm6.4297-1.8438 0.71875-0.0625q0.0469 0.4375 0.23437 0.71875 0.1875 0.26563 0.57813 0.4375 0.39062 0.17188 0.875 0.17188 0.4375 0 0.76562-0.125 0.32813-0.14063 0.48438-0.35938 0.17187-0.23437 0.17187-0.5 0-0.26562-0.15625-0.46875-0.15625-0.20312-0.51562-0.32812-0.23438-0.0937-1.0312-0.28125-0.78125-0.1875-1.0938-0.35938-0.40625-0.21875-0.60938-0.53125-0.20312-0.32812-0.20312-0.71875 0-0.4375 0.25-0.8125t0.71875-0.5625q0.46875-0.20312 1.0469-0.20312 0.64063 0 1.125 0.20312 0.48438 0.20313 0.75 0.60938 0.26563 0.39062 0.28125 0.90625l-0.73437 0.0469q-0.0469-0.54687-0.39063-0.8125-0.34375-0.28125-1-0.28125-0.6875 0-1 0.25t-0.3125 0.60938q0 0.3125 0.21875 0.5 0.21875 0.20312 1.1406 0.42187 0.92187 0.20313 1.2656 0.35938 0.5 0.23437 0.73438 0.59375 0.25 0.34375 0.25 0.79687 0 0.46875-0.26563 0.875-0.26562 0.39063-0.75 0.625-0.48437 0.21875-1.1094 0.21875-0.76563 0-1.2969-0.21875-0.53125-0.23437-0.82812-0.6875-0.29688-0.45312-0.3125-1.0312zm5.5703 1.8438v-5.7344h2.1406q0.65625 0 1.0469 0.1875 0.40625 0.17187 0.625 0.53125 0.23438 0.35937 0.23438 0.75 0 0.375-0.20313 0.70312-0.20312 0.3125-0.60937 0.51563 0.53125 0.15625 0.79687 0.53125 0.28125 0.35937 0.28125 0.85937 0 0.39063-0.17187 0.75-0.15625 0.34375-0.40625 0.53125t-0.64063 0.28125q-0.375 0.0937-0.92187 0.0937zm0.75-3.3281h1.2344q0.51562 0 0.73437-0.0625 0.28125-0.0781 0.42188-0.28125 0.15625-0.20313 0.15625-0.5 0-0.28125-0.14063-0.5-0.14062-0.21875-0.39062-0.29688-0.25-0.0781-0.875-0.0781h-1.1406zm0 2.6562h1.4219q0.375 0 0.51562-0.0312 0.26563-0.0469 0.4375-0.15625 0.1875-0.10938 0.29688-0.3125 0.10937-0.21875 0.10937-0.48438 0-0.32812-0.17187-0.5625-0.15625-0.23437-0.45313-0.32812-0.28125-0.0937-0.82812-0.0937h-1.3281z" fill="#000"/>
  <path id="path3027" d="m193.02 446.51v93.039" fill="#000" fill-opacity="0" fill-rule="evenodd"/>
  <path id="path3029" d="m193.02 446.51v87.039" fill-rule="evenodd" stroke="#000" stroke-linecap="butt" stroke-linejoin="round"/>
  <path id="path3031" d="m191.37 533.55 1.6517 4.5381 1.6517-4.5381z" fill="#000" fill-rule="evenodd" stroke="#000" stroke-linecap="butt"/>
  <path id="path3033" d="m220.93 472.02h190.71v42.016h-190.71z" fill="#000" fill-opacity="0" fill-rule="evenodd"/>
  <path id="path3035" d="m237.79 495.83 1.6875 0.20312q-0.40625 1.4844-1.4844 2.3125-1.0781 0.8125-2.7656 0.8125-2.125 0-3.375-1.2969-1.2344-1.3125-1.2344-3.6719 0-2.4531 1.25-3.7969 1.2656-1.3438 3.2656-1.3438 1.9375 0 3.1562 1.3281 1.2344 1.3125 1.2344 3.7031 0 0.15625 0 0.4375h-7.2188q0.0937 1.5938 0.90625 2.4531 0.8125 0.84375 2.0156 0.84375 0.90625 0 1.5469-0.46875 0.64063-0.48437 1.0156-1.5156zm-5.3906-2.6562h5.4062q-0.10937-1.2188-0.625-1.8281-0.78125-0.95312-2.0312-0.95312-1.125 0-1.9062 0.76562-0.76562 0.75-0.84375 2.0156zm8.0476 5.7656 3.5312-5.0312-3.2656-4.6406h2.0469l1.4844 2.2656q0.42188 0.64063 0.67188 1.0781 0.40625-0.59375 0.73437-1.0625l1.6406-2.2812h1.9531l-3.3438 4.5469 3.5938 5.125h-2.0156l-1.9844-3-0.51562-0.8125-2.5469 3.8125zm14-1.4688 0.23437 1.4531q-0.6875 0.14062-1.2344 0.14062-0.89063 0-1.3906-0.28125-0.48437-0.28125-0.6875-0.73437-0.20312-0.46875-0.20312-1.9375v-5.5781h-1.2031v-1.2656h1.2031v-2.3906l1.625-0.98437v3.375h1.6562v1.2656h-1.6562v5.6719q0 0.6875 0.0781 0.89062 0.0937 0.20313 0.28125 0.32813 0.20313 0.10937 0.57813 0.10937 0.26562 0 0.71875-0.0625zm1.5896 1.4688v-9.6719h1.4688v1.4688q0.5625-1.0312 1.0312-1.3594 0.48438-0.32812 1.0625-0.32812 0.82813 0 1.6875 0.53125l-0.5625 1.5156q-0.60937-0.35937-1.2031-0.35937-0.54688 0-0.96875 0.32812-0.42188 0.32813-0.60938 0.89063-0.28125 0.875-0.28125 1.9219v5.0625zm12.541-1.1875q-0.92187 0.76563-1.7656 1.0938-0.82813 0.3125-1.7969 0.3125-1.5938 0-2.4531-0.78125-0.85938-0.78125-0.85938-1.9844 0-0.71875 0.32813-1.2969 0.32812-0.59375 0.84375-0.9375 0.53125-0.35937 1.1875-0.54687 0.46875-0.125 1.4531-0.25 1.9844-0.23438 2.9219-0.5625 0.0156-0.34375 0.0156-0.42188 0-1-0.46875-1.4219-0.625-0.54688-1.875-0.54688-1.1562 0-1.7031 0.40625-0.54688 0.40625-0.8125 1.4219l-1.6094-0.21875q0.21875-1.0156 0.71875-1.6406 0.5-0.64062 1.4531-0.98437 0.95312-0.34375 2.1875-0.34375 1.25 0 2.0156 0.29687 0.78125 0.28125 1.1406 0.73438 0.375 0.4375 0.51562 1.1094 0.0781 0.42188 0.0781 1.5156v2.1875q0 2.2812 0.10937 2.8906 0.10938 0.59375 0.40625 1.1562h-1.7031q-0.26563-0.51562-0.32813-1.1875zm-0.14062-3.6719q-0.89063 0.375-2.6719 0.625-1.0156 0.14062-1.4375 0.32812-0.42187 0.1875-0.65625 0.53125-0.21875 0.34375-0.21875 0.78125 0 0.65625 0.5 1.0938t1.4531 0.4375q0.9375 0 1.6719-0.40625 0.75-0.42187 1.0938-1.1406 0.26563-0.5625 0.26563-1.6406zm10.516 1.3125 1.6094 0.21875q-0.26563 1.6562-1.3594 2.6094-1.0781 0.9375-2.6719 0.9375-1.9844 0-3.1875-1.2969-1.2031-1.2969-1.2031-3.7188 0-1.5781 0.51563-2.75 0.51562-1.1719 1.5781-1.75 1.0625-0.59375 2.3125-0.59375 1.5781 0 2.5781 0.79687 1 0.79688 1.2812 2.2656l-1.5938 0.23437q-0.23438-0.96875-0.8125-1.4531-0.57813-0.5-1.3906-0.5-1.2344 0-2.0156 0.89062-0.78125 0.89063-0.78125 2.8125 0 1.9531 0.75 2.8438 0.75 0.875 1.9531 0.875 0.96875 0 1.6094-0.59375 0.65625-0.59375 0.82812-1.8281zm6.5938 2.0781 0.23438 1.4531q-0.6875 0.14062-1.2344 0.14062-0.89062 0-1.3906-0.28125-0.48438-0.28125-0.6875-0.73437-0.20313-0.46875-0.20313-1.9375v-5.5781h-1.2031v-1.2656h1.2031v-2.3906l1.625-0.98437v3.375h1.6562v1.2656h-1.6562v5.6719q0 0.6875 0.0781 0.89062 0.0937 0.20313 0.28125 0.32813 0.20312 0.10937 0.57812 0.10937 0.26563 0 0.71875-0.0625z" fill="#000"/>
 </g>
</svg>
