<?xml version="1.0" encoding="UTF-8"?>
<svg id="svg6030" width="668.89" height="201.57" fill="none" stroke-linecap="square" stroke-miterlimit="10" version="1.1" viewBox="0 0 668.89 201.57" xmlns="http://www.w3.org/2000/svg">
 <clipPath id="p.0">
  <path id="path5907" d="m0 0h1152v864h-1152z"/>
 </clipPath>
 <g id="g6028" transform="translate(-99.501 -49.655)" clip-path="url(#p.0)">
  <path id="path5912" d="m222.53 150.44h123.28v25.071h-123.28z" fill="#cfe2f3" fill-rule="evenodd"/>
  <path id="path5914" d="m222.53 150.44h123.28v25.071h-123.28z" fill-rule="evenodd" stroke="#000" stroke-linecap="butt" stroke-linejoin="round"/>
  <path id="path5916" d="m238.86 168.83v-4.8594l-4.4219-6.5938h1.8438l2.2656 3.4531q0.625 0.96875 1.1562 1.9375 0.51562-0.90625 1.25-2.0312l2.2188-3.3594h1.7656l-4.5625 6.5938v4.8594zm7.3906 0v-11.453h2.2812l2.7188 8.1094q0.375 1.125 0.54688 1.6875 0.1875-0.625 0.60937-1.8281l2.7344-7.9688h2.0469v11.453h-1.4687v-9.5938l-3.3281 9.5938h-1.3594l-3.3125-9.75v9.75zm13.328 0v-11.453h2.2812l2.7188 8.1094q0.375 1.125 0.54688 1.6875 0.1875-0.625 0.60937-1.8281l2.7344-7.9688h2.0469v11.453h-1.4688v-9.5938l-3.3281 9.5938h-1.3594l-3.3125-9.75v9.75zm12.812-5.6562q0-2.0312 0.40625-3.2656 0.42188-1.2344 1.25-1.9062 0.82813-0.67187 2.0781-0.67187 0.92187 0 1.6094 0.375 0.70313 0.35937 1.1562 1.0625 0.45313 0.70312 0.70313 1.7031 0.26562 1 0.26562 2.7031 0 2.0156-0.42187 3.2656-0.40625 1.2344-1.2344 1.9219-0.82812 0.67187-2.0781 0.67187-1.6562 0-2.6094-1.2031-1.125-1.4219-1.125-4.6562zm1.4375 0q0 2.8281 0.65625 3.7656 0.67188 0.92188 1.6406 0.92188t1.625-0.9375 0.65625-3.75q0-2.8281-0.65625-3.75-0.65625-0.9375-1.6406-0.9375-0.96875 0-1.5469 0.82812-0.73438 1.0469-0.73438 3.8594zm14.984 9.0312q-1.1719-1.4688-1.9844-3.4375-0.79687-1.9844-0.79687-4.0938 0-1.8594 0.60937-3.5625 0.70313-1.9688 2.1719-3.9375h1q-0.9375 1.625-1.25 2.3281-0.46875 1.0781-0.75 2.25-0.32813 1.4531-0.32813 2.9375 0 3.75 2.3281 7.5156zm2.6094-3.375v-11.453h1.4062v11.453zm3.0547-4.1562q0-2.2969 1.2812-3.4062 1.0781-0.92188 2.6094-0.92188 1.7188 0 2.7969 1.125 1.0938 1.1094 1.0938 3.0938 0 1.5938-0.48437 2.5156-0.48438 0.92187-1.4062 1.4375-0.90625 0.5-2 0.5-1.7344 0-2.8125-1.1094-1.0781-1.125-1.0781-3.2344zm1.4531 0q0 1.5938 0.6875 2.3906 0.70312 0.79688 1.75 0.79688 1.0469 0 1.7344-0.79688 0.70313-0.79687 0.70313-2.4375 0-1.5312-0.70313-2.3281-0.6875-0.79688-1.7344-0.79688-1.0469 0-1.75 0.79688-0.6875 0.78125-0.6875 2.375zm9.5078 4.1562-2.5469-8.2969h1.4531l1.3281 4.7812 0.48438 1.7812q0.0312-0.125 0.4375-1.7031l1.3125-4.8594h1.4531l1.2344 4.8125 0.42187 1.5781 0.46875-1.5938 1.4219-4.7969h1.375l-2.5938 8.2969h-1.4688l-1.3125-4.9688-0.32813-1.4219-1.6719 6.3906zm15.695-2.6719 1.4531 0.17188q-0.34375 1.2812-1.2812 1.9844-0.92188 0.70313-2.3594 0.70313-1.8281 0-2.8906-1.125t-1.0625-3.1406q0-2.0938 1.0781-3.25 1.0781-1.1562 2.7969-1.1562 1.6562 0 2.7031 1.1406 1.0625 1.125 1.0625 3.1719 0 0.125 0 0.375h-6.1875q0.0781 1.375 0.76563 2.1094 0.70312 0.71875 1.7344 0.71875 0.78125 0 1.3281-0.40625 0.54687-0.40625 0.85937-1.2969zm-4.6094-2.2812h4.625q-0.0937-1.0469-0.53125-1.5625-0.67188-0.8125-1.7344-0.8125-0.96875 0-1.6406 0.65625-0.65625 0.64063-0.71875 1.7188zm7.8203 4.9531v-8.2969h1.2656v1.25q0.48438-0.875 0.89063-1.1562t0.90625-0.28125q0.70312 0 1.4375 0.45313l-0.48438 1.2969q-0.51562-0.29687-1.0312-0.29687-0.45312 0-0.82812 0.28125-0.35938 0.26562-0.51563 0.76562-0.23437 0.75-0.23437 1.6406v4.3438zm6.2656 3.375h-1.0156q2.3438-3.7656 2.3438-7.5156 0-1.4688-0.34375-2.9219-0.26563-1.1719-0.73438-2.25-0.3125-0.70313-1.2656-2.3438h1.0156q1.4688 1.9688 2.1719 3.9375 0.59375 1.7031 0.59375 3.5625 0 2.1094-0.8125 4.0938-0.79688 1.9688-1.9531 3.4375z" fill="#000"/>
  <path id="path5918" d="m222.53 175.51h123.28v25.071h-123.28z" fill="#cfe2f3" fill-rule="evenodd"/>
  <path id="path5920" d="m222.53 175.51h123.28v25.071h-123.28z" fill-rule="evenodd" stroke="#000" stroke-linecap="butt" stroke-linejoin="round"/>
  <path id="path5922" d="m238.86 193.9v-4.8594l-4.4219-6.5938h1.8438l2.2656 3.4531q0.625 0.96875 1.1562 1.9375 0.51562-0.90625 1.25-2.0312l2.2188-3.3594h1.7656l-4.5625 6.5938v4.8594zm7.3906 0v-11.453h2.2812l2.7188 8.1094q0.375 1.125 0.54688 1.6875 0.1875-0.625 0.60937-1.8281l2.7344-7.9688h2.0469v11.453h-1.4687v-9.5938l-3.3281 9.5938h-1.3594l-3.3125-9.75v9.75zm13.328 0v-11.453h2.2812l2.7188 8.1094q0.375 1.125 0.54688 1.6875 0.1875-0.625 0.60937-1.8281l2.7344-7.9688h2.0469v11.453h-1.4688v-9.5938l-3.3281 9.5938h-1.3594l-3.3125-9.75v9.75zm18.109 0h-1.4062v-8.9688q-0.51563 0.48437-1.3438 0.96875-0.8125 0.48437-1.4688 0.73437v-1.3594q1.1719-0.5625 2.0469-1.3438 0.89063-0.79688 1.2656-1.5312h0.90625zm11.125 3.375q-1.1719-1.4688-1.9844-3.4375-0.79687-1.9844-0.79687-4.0938 0-1.8594 0.60937-3.5625 0.70313-1.9688 2.1719-3.9375h1q-0.9375 1.625-1.25 2.3281-0.46875 1.0781-0.75 2.25-0.32813 1.4531-0.32813 2.9375 0 3.75 2.3281 7.5156zm2.6094-3.375v-11.453h1.4062v11.453zm3.0547-4.1562q0-2.2969 1.2812-3.4062 1.0781-0.92188 2.6094-0.92188 1.7188 0 2.7969 1.125 1.0938 1.1094 1.0938 3.0938 0 1.5938-0.48437 2.5156-0.48438 0.92187-1.4062 1.4375-0.90625 0.5-2 0.5-1.7344 0-2.8125-1.1094-1.0781-1.125-1.0781-3.2344zm1.4531 0q0 1.5938 0.6875 2.3906 0.70312 0.79688 1.75 0.79688 1.0469 0 1.7344-0.79688 0.70313-0.79687 0.70313-2.4375 0-1.5312-0.70313-2.3281-0.6875-0.79688-1.7344-0.79688-1.0469 0-1.75 0.79688-0.6875 0.78125-0.6875 2.375zm9.5078 4.1562-2.5469-8.2969h1.4531l1.3281 4.7812 0.48438 1.7812q0.0312-0.125 0.4375-1.7031l1.3125-4.8594h1.4531l1.2344 4.8125 0.42187 1.5781 0.46875-1.5938 1.4219-4.7969h1.375l-2.5938 8.2969h-1.4688l-1.3125-4.9688-0.32813-1.4219-1.6719 6.3906zm15.695-2.6719 1.4531 0.17188q-0.34375 1.2812-1.2812 1.9844-0.92188 0.70313-2.3594 0.70313-1.8281 0-2.8906-1.125t-1.0625-3.1406q0-2.0938 1.0781-3.25 1.0781-1.1562 2.7969-1.1562 1.6562 0 2.7031 1.1406 1.0625 1.125 1.0625 3.1719 0 0.125 0 0.375h-6.1875q0.0781 1.375 0.76563 2.1094 0.70312 0.71875 1.7344 0.71875 0.78125 0 1.3281-0.40625 0.54687-0.40625 0.85937-1.2969zm-4.6094-2.2812h4.625q-0.0937-1.0469-0.53125-1.5625-0.67188-0.8125-1.7344-0.8125-0.96875 0-1.6406 0.65625-0.65625 0.64063-0.71875 1.7188zm7.8203 4.9531v-8.2969h1.2656v1.25q0.48438-0.875 0.89063-1.1562t0.90625-0.28125q0.70312 0 1.4375 0.45313l-0.48438 1.2969q-0.51562-0.29687-1.0312-0.29687-0.45312 0-0.82812 0.28125-0.35938 0.26562-0.51563 0.76562-0.23437 0.75-0.23437 1.6406v4.3438zm6.2656 3.375h-1.0156q2.3438-3.7656 2.3438-7.5156 0-1.4688-0.34375-2.9219-0.26563-1.1719-0.73438-2.25-0.3125-0.70313-1.2656-2.3438h1.0156q1.4688 1.9688 2.1719 3.9375 0.59375 1.7031 0.59375 3.5625 0 2.1094-0.8125 4.0938-0.79688 1.9688-1.9531 3.4375z" fill="#000"/>
  <path id="path5924" d="m222.53 200.58h123.28v25.071h-123.28z" fill="#cfe2f3" fill-rule="evenodd"/>
  <path id="path5926" d="m222.53 200.58h123.28v25.071h-123.28z" fill-rule="evenodd" stroke="#000" stroke-linecap="butt" stroke-linejoin="round"/>
  <path id="path5928" d="m238.86 218.98v-4.8594l-4.4219-6.5938h1.8438l2.2656 3.4531q0.625 0.96875 1.1562 1.9375 0.51562-0.90625 1.25-2.0312l2.2188-3.3594h1.7656l-4.5625 6.5938v4.8594zm7.3906 0v-11.453h2.2812l2.7188 8.1094q0.375 1.125 0.54688 1.6875 0.1875-0.625 0.60937-1.8281l2.7344-7.9688h2.0469v11.453h-1.4687v-9.5938l-3.3281 9.5938h-1.3594l-3.3125-9.75v9.75zm13.328 0v-11.453h2.2812l2.7188 8.1094q0.375 1.125 0.54688 1.6875 0.1875-0.625 0.60937-1.8281l2.7344-7.9688h2.0469v11.453h-1.4688v-9.5938l-3.3281 9.5938h-1.3594l-3.3125-9.75v9.75zm20.203-1.3594v1.3594h-7.5781q-0.0156-0.51563 0.17188-0.98438 0.28125-0.76562 0.92187-1.5156 0.64063-0.75 1.8438-1.7344 1.8594-1.5312 2.5156-2.4219 0.65625-0.90625 0.65625-1.7031 0-0.82812-0.59375-1.4062-0.59375-0.57812-1.5625-0.57812-1.0156 0-1.625 0.60937-0.60938 0.60938-0.60938 1.6875l-1.4531-0.14062q0.15625-1.625 1.125-2.4688t2.5938-0.84375q1.6562 0 2.6094 0.92187 0.96875 0.90625 0.96875 2.25 0 0.6875-0.28125 1.3594-0.28125 0.65625-0.9375 1.3906-0.65625 0.73438-2.1719 2.0156-1.2656 1.0625-1.625 1.4531-0.35938 0.375-0.59375 0.75zm9.0312 4.7344q-1.1719-1.4688-1.9844-3.4375-0.79687-1.9844-0.79687-4.0938 0-1.8594 0.60937-3.5625 0.70313-1.9688 2.1719-3.9375h1q-0.9375 1.625-1.25 2.3281-0.46875 1.0781-0.75 2.25-0.32813 1.4531-0.32813 2.9375 0 3.75 2.3281 7.5156zm2.6094-3.375v-11.453h1.4062v11.453zm3.0547-4.1562q0-2.2969 1.2812-3.4062 1.0781-0.92188 2.6094-0.92188 1.7188 0 2.7969 1.125 1.0938 1.1094 1.0938 3.0938 0 1.5938-0.48437 2.5156-0.48438 0.92187-1.4062 1.4375-0.90625 0.5-2 0.5-1.7344 0-2.8125-1.1094-1.0781-1.125-1.0781-3.2344zm1.4531 0q0 1.5938 0.6875 2.3906 0.70312 0.79688 1.75 0.79688 1.0469 0 1.7344-0.79688 0.70313-0.79687 0.70313-2.4375 0-1.5312-0.70313-2.3281-0.6875-0.79688-1.7344-0.79688-1.0469 0-1.75 0.79688-0.6875 0.78125-0.6875 2.375zm9.5078 4.1562-2.5469-8.2969h1.4531l1.3281 4.7812 0.48438 1.7812q0.0312-0.125 0.4375-1.7031l1.3125-4.8594h1.4531l1.2344 4.8125 0.42187 1.5781 0.46875-1.5938 1.4219-4.7969h1.375l-2.5938 8.2969h-1.4688l-1.3125-4.9688-0.32813-1.4219-1.6719 6.3906zm15.695-2.6719 1.4531 0.17188q-0.34375 1.2812-1.2812 1.9844-0.92188 0.70313-2.3594 0.70313-1.8281 0-2.8906-1.125t-1.0625-3.1406q0-2.0938 1.0781-3.25 1.0781-1.1562 2.7969-1.1562 1.6562 0 2.7031 1.1406 1.0625 1.125 1.0625 3.1719 0 0.125 0 0.375h-6.1875q0.0781 1.375 0.76563 2.1094 0.70312 0.71875 1.7344 0.71875 0.78125 0 1.3281-0.40625 0.54687-0.40625 0.85937-1.2969zm-4.6094-2.2812h4.625q-0.0937-1.0469-0.53125-1.5625-0.67188-0.8125-1.7344-0.8125-0.96875 0-1.6406 0.65625-0.65625 0.64063-0.71875 1.7188zm7.8203 4.9531v-8.2969h1.2656v1.25q0.48438-0.875 0.89063-1.1562t0.90625-0.28125q0.70312 0 1.4375 0.45313l-0.48438 1.2969q-0.51562-0.29687-1.0312-0.29687-0.45312 0-0.82812 0.28125-0.35938 0.26562-0.51563 0.76562-0.23437 0.75-0.23437 1.6406v4.3438zm6.2656 3.375h-1.0156q2.3438-3.7656 2.3438-7.5156 0-1.4688-0.34375-2.9219-0.26563-1.1719-0.73438-2.25-0.3125-0.70313-1.2656-2.3438h1.0156q1.4688 1.9688 2.1719 3.9375 0.59375 1.7031 0.59375 3.5625 0 2.1094-0.8125 4.0938-0.79688 1.9688-1.9531 3.4375z" fill="#000"/>
  <path id="path5930" d="m222.53 225.65h123.28v25.071h-123.28z" fill="#cfe2f3" fill-rule="evenodd"/>
  <path id="path5932" d="m222.53 225.65h123.28v25.071h-123.28z" fill-rule="evenodd" stroke="#000" stroke-linecap="butt" stroke-linejoin="round"/>
  <path id="path5934" d="m238.86 244.05v-4.8594l-4.4219-6.5938h1.8438l2.2656 3.4531q0.625 0.96875 1.1562 1.9375 0.51562-0.90625 1.25-2.0312l2.2188-3.3594h1.7656l-4.5625 6.5938v4.8594zm7.3906 0v-11.453h2.2812l2.7188 8.1094q0.375 1.125 0.54688 1.6875 0.1875-0.625 0.60937-1.8281l2.7344-7.9688h2.0469v11.453h-1.4687v-9.5938l-3.3281 9.5938h-1.3594l-3.3125-9.75v9.75zm13.328 0v-11.453h2.2812l2.7188 8.1094q0.375 1.125 0.54688 1.6875 0.1875-0.625 0.60937-1.8281l2.7344-7.9688h2.0469v11.453h-1.4688v-9.5938l-3.3281 9.5938h-1.3594l-3.3125-9.75v9.75zm12.812-3.0312 1.4062-0.1875q0.25 1.2031 0.82813 1.7344 0.57812 0.51563 1.4219 0.51563 0.98438 0 1.6719-0.6875t0.6875-1.7031q0-0.96875-0.64063-1.5938-0.625-0.625-1.6094-0.625-0.39063 0-0.98438 0.15625l0.15625-1.2344q0.14063 0.0156 0.21875 0.0156 0.90625 0 1.625-0.46875t0.71875-1.4531q0-0.76563-0.53125-1.2656-0.51562-0.51562-1.3438-0.51562-0.82812 0-1.375 0.51562-0.54687 0.51563-0.70312 1.5469l-1.4062-0.25q0.26562-1.4219 1.1719-2.1875 0.92188-0.78125 2.2812-0.78125 0.9375 0 1.7188 0.40625 0.79688 0.39062 1.2031 1.0938 0.42187 0.6875 0.42187 1.4688 0 0.75-0.40625 1.3594-0.39062 0.60938-1.1719 0.96875 1.0156 0.23438 1.5781 0.96875 0.5625 0.73438 0.5625 1.8438 0 1.5-1.0938 2.5469-1.0938 1.0469-2.7656 1.0469-1.5 0-2.5-0.89062-1-0.90625-1.1406-2.3438zm16.422 6.4062q-1.1719-1.4688-1.9844-3.4375-0.79687-1.9844-0.79687-4.0938 0-1.8594 0.60937-3.5625 0.70313-1.9688 2.1719-3.9375h1q-0.9375 1.625-1.25 2.3281-0.46875 1.0781-0.75 2.25-0.32813 1.4531-0.32813 2.9375 0 3.75 2.3281 7.5156zm2.6094-3.375v-11.453h1.4062v11.453zm3.0547-4.1562q0-2.2969 1.2812-3.4062 1.0781-0.92188 2.6094-0.92188 1.7188 0 2.7969 1.125 1.0938 1.1094 1.0938 3.0938 0 1.5938-0.48437 2.5156-0.48438 0.92187-1.4062 1.4375-0.90625 0.5-2 0.5-1.7344 0-2.8125-1.1094-1.0781-1.125-1.0781-3.2344zm1.4531 0q0 1.5938 0.6875 2.3906 0.70312 0.79688 1.75 0.79688 1.0469 0 1.7344-0.79688 0.70313-0.79687 0.70313-2.4375 0-1.5312-0.70313-2.3281-0.6875-0.79688-1.7344-0.79688-1.0469 0-1.75 0.79688-0.6875 0.78125-0.6875 2.375zm9.5078 4.1562-2.5469-8.2969h1.4531l1.3281 4.7812 0.48438 1.7812q0.0312-0.125 0.4375-1.7031l1.3125-4.8594h1.4531l1.2344 4.8125 0.42187 1.5781 0.46875-1.5938 1.4219-4.7969h1.375l-2.5938 8.2969h-1.4688l-1.3125-4.9688-0.32813-1.4219-1.6719 6.3906zm15.695-2.6719 1.4531 0.17188q-0.34375 1.2812-1.2812 1.9844-0.92188 0.70313-2.3594 0.70313-1.8281 0-2.8906-1.125t-1.0625-3.1406q0-2.0938 1.0781-3.25 1.0781-1.1562 2.7969-1.1562 1.6562 0 2.7031 1.1406 1.0625 1.125 1.0625 3.1719 0 0.125 0 0.375h-6.1875q0.0781 1.375 0.76563 2.1094 0.70312 0.71875 1.7344 0.71875 0.78125 0 1.3281-0.40625 0.54687-0.40625 0.85937-1.2969zm-4.6094-2.2812h4.625q-0.0937-1.0469-0.53125-1.5625-0.67188-0.8125-1.7344-0.8125-0.96875 0-1.6406 0.65625-0.65625 0.64063-0.71875 1.7188zm7.8203 4.9531v-8.2969h1.2656v1.25q0.48438-0.875 0.89063-1.1562t0.90625-0.28125q0.70312 0 1.4375 0.45313l-0.48438 1.2969q-0.51562-0.29687-1.0312-0.29687-0.45312 0-0.82812 0.28125-0.35938 0.26562-0.51563 0.76562-0.23437 0.75-0.23437 1.6406v4.3438zm6.2656 3.375h-1.0156q2.3438-3.7656 2.3438-7.5156 0-1.4688-0.34375-2.9219-0.26563-1.1719-0.73438-2.25-0.3125-0.70313-1.2656-2.3438h1.0156q1.4688 1.9688 2.1719 3.9375 0.59375 1.7031 0.59375 3.5625 0 2.1094-0.8125 4.0938-0.79688 1.9688-1.9531 3.4375z" fill="#000"/>
  <path id="path5936" d="m405.69 150.44h362.2v25.071h-362.2z" fill="#cfe2f3" fill-rule="evenodd"/>
  <path id="path5938" d="m405.69 150.44h362.2v25.071h-362.2z" fill-rule="evenodd" stroke="#000" stroke-linecap="butt" stroke-linejoin="round"/>
  <path id="path5940" d="m405.69 175.51h362.2v25.071h-362.2z" fill="#cfe2f3" fill-rule="evenodd"/>
  <path id="path5942" d="m405.69 175.51h362.2v25.071h-362.2z" fill-rule="evenodd" stroke="#000" stroke-linecap="butt" stroke-linejoin="round"/>
  <path id="path5944" d="m405.69 200.58h362.2v25.071h-362.2z" fill="#cfe2f3" fill-rule="evenodd"/>
  <path id="path5946" d="m405.69 200.58h362.2v25.071h-362.2z" fill-rule="evenodd" stroke="#000" stroke-linecap="butt" stroke-linejoin="round"/>
  <path id="path5948" d="m405.69 225.65h362.2v25.071h-362.2z" fill="#cfe2f3" fill-rule="evenodd"/>
  <path id="path5950" d="m405.69 225.65h362.2v25.071h-362.2z" fill-rule="evenodd" stroke="#000" stroke-linecap="butt" stroke-linejoin="round"/>
  <path id="path5952" d="m345.81 213.12c14.971 0 22.457-12.535 29.941-25.071 7.4843-12.535 14.966-25.071 29.933-25.071" fill="#000" fill-opacity="0" fill-rule="evenodd"/>
  <path id="path5954" d="m345.81 213.12c14.971 0 22.457-12.535 29.941-25.071 3.7421-6.2677 7.4837-12.535 12.161-17.236 2.3385-2.3504 4.9107-4.309 7.8337-5.6801 1.4615-0.68553 3.0107-1.2242 4.6623-1.5914 0.41287-0.0918 0.83218-0.17292 1.2581-0.24291 0.10647-0.0175 0.21337-0.0343 0.32067-0.0504l0.27808-0.0398" fill-rule="evenodd" stroke="#000" stroke-linecap="butt" stroke-linejoin="round"/>
  <path id="path5956" d="m402.26 163.2-1.0466 1.1975 3.0073-1.3294-3.1583-0.91469z" fill="#000" fill-rule="evenodd" stroke="#000" stroke-linecap="butt"/>
  <path id="path5958" d="m345.81 187.98c14.969 0 22.453 0.0157 29.937 0.0315 7.4842 0.0158 14.968 0.0315 29.937 0.0315" fill="#000" fill-opacity="0" fill-rule="evenodd"/>
  <path id="path5960" d="m345.81 187.98c14.969 0 22.453 0.0157 29.937 0.0315 3.7421 8e-3 7.4842 0.0158 12.162 0.0217 2.3388 3e-3 4.9115 5e-3 7.835 7e-3l6.513 2e-3" fill-rule="evenodd" stroke="#000" stroke-linecap="butt" stroke-linejoin="round"/>
  <path id="path5962" d="m402.26 188.04-1.1249 1.1243 3.0901-1.1238-3.0895-1.1254z" fill="#000" fill-rule="evenodd" stroke="#000" stroke-linecap="butt"/>
  <path id="path5964" d="m345.81 238.19c14.971 0 22.457-6.2677 29.941-12.535 7.4843-6.2677 14.966-12.535 29.933-12.535" fill="#000" fill-opacity="0" fill-rule="evenodd"/>
  <path id="path5966" d="m345.81 238.19c14.971 0 22.457-6.2677 29.941-12.535 3.7421-3.1339 7.4837-6.2677 12.161-8.6181 2.3385-1.1752 4.9107-2.1545 7.8337-2.8401 1.4615-0.34275 3.0107-0.61207 4.6623-0.7957 0.41287-0.0459 0.83218-0.0865 1.2581-0.12146l0.59298-0.0445" fill-rule="evenodd" stroke="#000" stroke-linecap="butt" stroke-linejoin="round"/>
  <path id="path5968" d="m402.25 213.23-1.086 1.1619 3.0501-1.2282-3.126-1.0197z" fill="#000" fill-rule="evenodd" stroke="#000" stroke-linecap="butt"/>
  <path id="path5970" d="m222.53 50.155h123.28v25.071h-123.28z" fill="#cfe2f3" fill-rule="evenodd"/>
  <path id="path5972" d="m222.53 50.155h123.28v25.071h-123.28z" fill-rule="evenodd" stroke="#000" stroke-linecap="butt" stroke-linejoin="round"/>
  <path id="path5974" d="m237.51 68.55v-4.8594l-4.4219-6.5938h1.8438l2.2656 3.4531q0.625 0.96875 1.1562 1.9375 0.51562-0.90625 1.25-2.0312l2.2188-3.3594h1.7656l-4.5625 6.5938v4.8594zm7.3906 0v-11.453h2.2812l2.7188 8.1094q0.375 1.125 0.54688 1.6875 0.1875-0.625 0.60937-1.8281l2.7344-7.9687h2.0469v11.453h-1.4688v-9.5937l-3.3281 9.5937h-1.3594l-3.3125-9.75v9.75zm13.328 0v-11.453h2.2812l2.7188 8.1094q0.375 1.125 0.54688 1.6875 0.1875-0.625 0.60937-1.8281l2.7344-7.9687h2.0469v11.453h-1.4688v-9.5937l-3.3281 9.5937h-1.3594l-3.3125-9.75v9.75zm12.812-5.6562q0-2.0312 0.40625-3.2656 0.42188-1.2344 1.25-1.9062 0.82813-0.67188 2.0781-0.67188 0.92187 0 1.6094 0.375 0.70313 0.35938 1.1562 1.0625 0.45313 0.70312 0.70313 1.7031 0.26562 1 0.26562 2.7031 0 2.0156-0.42187 3.2656-0.40625 1.2344-1.2344 1.9219-0.82812 0.67188-2.0781 0.67188-1.6562 0-2.6094-1.2031-1.125-1.4219-1.125-4.6562zm1.4375 0q0 2.8281 0.65625 3.7656 0.67188 0.92188 1.6406 0.92188t1.625-0.9375 0.65625-3.75q0-2.8281-0.65625-3.75-0.65625-0.9375-1.6406-0.9375-0.96875 0-1.5469 0.82812-0.73438 1.0469-0.73438 3.8594zm14.984 9.0312q-1.1719-1.4688-1.9844-3.4375-0.79687-1.9844-0.79687-4.0938 0-1.8594 0.60937-3.5625 0.70313-1.9688 2.1719-3.9375h1q-0.9375 1.625-1.25 2.3281-0.46875 1.0781-0.75 2.25-0.32813 1.4531-0.32813 2.9375 0 3.75 2.3281 7.5156zm8.0781-3.375v-1.2188q-0.96875 1.4062-2.6406 1.4062-0.73438 0-1.375-0.28125-0.625-0.28125-0.9375-0.70312-0.3125-0.4375-0.4375-1.0469-0.0781-0.42188-0.0781-1.3125v-5.1406h1.4062v4.5937q0 1.1094 0.0781 1.4844 0.14062 0.5625 0.5625 0.875 0.4375 0.3125 1.0625 0.3125 0.64062 0 1.1875-0.3125 0.5625-0.32812 0.78125-0.89062 0.23437-0.5625 0.23437-1.625v-4.4375h1.4062v8.2969zm3.4609 3.1875v-11.484h1.2812v1.0781q0.45313-0.64062 1.0156-0.95312 0.57812-0.3125 1.3906-0.3125 1.0625 0 1.875 0.54688t1.2188 1.5469q0.42188 0.98438 0.42188 2.1719 0 1.2812-0.46875 2.2969-0.45313 1.0156-1.3281 1.5625-0.85937 0.54688-1.8281 0.54688-0.70313 0-1.2656-0.29688-0.54687-0.29688-0.90625-0.75v4.0469zm1.2656-7.2969q0 1.6094 0.64062 2.375 0.65625 0.76562 1.5781 0.76562 0.9375 0 1.6094-0.79688 0.67188-0.79688 0.67188-2.4531 0-1.5937-0.65625-2.375-0.65625-0.79688-1.5625-0.79688-0.89063 0-1.5938 0.84375-0.6875 0.84375-0.6875 2.4375zm7.6328 7.2969v-11.484h1.2812v1.0781q0.45312-0.64062 1.0156-0.95312 0.57813-0.3125 1.3906-0.3125 1.0625 0 1.875 0.54688t1.2188 1.5469q0.42187 0.98438 0.42187 2.1719 0 1.2812-0.46875 2.2969-0.45312 1.0156-1.3281 1.5625-0.85938 0.54688-1.8281 0.54688-0.70312 0-1.2656-0.29688-0.54688-0.29688-0.90625-0.75v4.0469zm1.2656-7.2969q0 1.6094 0.64063 2.375 0.65625 0.76562 1.5781 0.76562 0.9375 0 1.6094-0.79688 0.67187-0.79688 0.67187-2.4531 0-1.5937-0.65625-2.375-0.65625-0.79688-1.5625-0.79688-0.89062 0-1.5938 0.84375-0.6875 0.84375-0.6875 2.4375zm13.305 1.4375 1.4531 0.17188q-0.34375 1.2812-1.2812 1.9844-0.92188 0.70312-2.3594 0.70312-1.8281 0-2.8906-1.125t-1.0625-3.1406q0-2.0937 1.0781-3.25 1.0781-1.1562 2.7969-1.1562 1.6562 0 2.7031 1.1406 1.0625 1.125 1.0625 3.1719 0 0.125 0 0.375h-6.1875q0.0781 1.375 0.76563 2.1094 0.70312 0.71875 1.7344 0.71875 0.78125 0 1.3281-0.40625 0.54687-0.40625 0.85937-1.2969zm-4.6094-2.2812h4.625q-0.0937-1.0469-0.53125-1.5625-0.67188-0.8125-1.7344-0.8125-0.96875 0-1.6406 0.65625-0.65625 0.64062-0.71875 1.7188zm7.8203 4.9531v-8.2969h1.2656v1.25q0.48438-0.875 0.89063-1.1562t0.90625-0.28125q0.70312 0 1.4375 0.45312l-0.48438 1.2969q-0.51562-0.29688-1.0312-0.29688-0.45312 0-0.82812 0.28125-0.35938 0.26562-0.51563 0.76562-0.23437 0.75-0.23437 1.6406v4.3438zm6.2656 3.375h-1.0156q2.3438-3.7656 2.3438-7.5156 0-1.4687-0.34375-2.9219-0.26563-1.1719-0.73438-2.25-0.3125-0.70312-1.2656-2.3438h1.0156q1.4688 1.9688 2.1719 3.9375 0.59375 1.7031 0.59375 3.5625 0 2.1094-0.8125 4.0938-0.79688 1.9688-1.9531 3.4375z" fill="#000"/>
  <path id="path5976" d="m222.53 75.226h123.28v25.071h-123.28z" fill="#cfe2f3" fill-rule="evenodd"/>
  <path id="path5978" d="m222.53 75.226h123.28v25.071h-123.28z" fill-rule="evenodd" stroke="#000" stroke-linecap="butt" stroke-linejoin="round"/>
  <path id="path5980" d="m237.51 93.621v-4.8594l-4.4219-6.5938h1.8438l2.2656 3.4531q0.625 0.96875 1.1562 1.9375 0.51562-0.90625 1.25-2.0312l2.2188-3.3594h1.7656l-4.5625 6.5938v4.8594zm7.3906 0v-11.453h2.2812l2.7188 8.1094q0.375 1.125 0.54688 1.6875 0.1875-0.625 0.60937-1.8281l2.7344-7.9688h2.0469v11.453h-1.4688v-9.5938l-3.3281 9.5938h-1.3594l-3.3125-9.75v9.75zm13.328 0v-11.453h2.2812l2.7188 8.1094q0.375 1.125 0.54688 1.6875 0.1875-0.625 0.60937-1.8281l2.7344-7.9688h2.0469v11.453h-1.4688v-9.5938l-3.3281 9.5938h-1.3594l-3.3125-9.75v9.75zm18.109 0h-1.4062v-8.9688q-0.51563 0.48438-1.3438 0.96875-0.8125 0.48438-1.4688 0.73438v-1.3594q1.1719-0.5625 2.0469-1.3438 0.89063-0.79688 1.2656-1.5312h0.90625zm11.125 3.375q-1.1719-1.4688-1.9844-3.4375-0.79687-1.9844-0.79687-4.0938 0-1.8594 0.60937-3.5625 0.70313-1.9688 2.1719-3.9375h1q-0.9375 1.625-1.25 2.3281-0.46875 1.0781-0.75 2.25-0.32813 1.4531-0.32813 2.9375 0 3.75 2.3281 7.5156zm8.0781-3.375v-1.2188q-0.96875 1.4062-2.6406 1.4062-0.73438 0-1.375-0.28125-0.625-0.28125-0.9375-0.70312-0.3125-0.4375-0.4375-1.0469-0.0781-0.42188-0.0781-1.3125v-5.1406h1.4062v4.5938q0 1.1094 0.0781 1.4844 0.14062 0.5625 0.5625 0.875 0.4375 0.3125 1.0625 0.3125 0.64062 0 1.1875-0.3125 0.5625-0.32812 0.78125-0.89062 0.23437-0.5625 0.23437-1.625v-4.4375h1.4062v8.2969zm3.4609 3.1875v-11.484h1.2812v1.0781q0.45313-0.64062 1.0156-0.95312 0.57812-0.3125 1.3906-0.3125 1.0625 0 1.875 0.54688t1.2188 1.5469q0.42188 0.98438 0.42188 2.1719 0 1.2812-0.46875 2.2969-0.45313 1.0156-1.3281 1.5625-0.85937 0.54688-1.8281 0.54688-0.70313 0-1.2656-0.29688-0.54687-0.29688-0.90625-0.75v4.0469zm1.2656-7.2969q0 1.6094 0.64062 2.375 0.65625 0.76562 1.5781 0.76562 0.9375 0 1.6094-0.79688 0.67188-0.79688 0.67188-2.4531 0-1.5938-0.65625-2.375-0.65625-0.79688-1.5625-0.79688-0.89063 0-1.5938 0.84375-0.6875 0.84375-0.6875 2.4375zm7.6328 7.2969v-11.484h1.2812v1.0781q0.45312-0.64062 1.0156-0.95312 0.57813-0.3125 1.3906-0.3125 1.0625 0 1.875 0.54688t1.2188 1.5469q0.42187 0.98438 0.42187 2.1719 0 1.2812-0.46875 2.2969-0.45312 1.0156-1.3281 1.5625-0.85938 0.54688-1.8281 0.54688-0.70312 0-1.2656-0.29688-0.54688-0.29688-0.90625-0.75v4.0469zm1.2656-7.2969q0 1.6094 0.64063 2.375 0.65625 0.76562 1.5781 0.76562 0.9375 0 1.6094-0.79688 0.67187-0.79688 0.67187-2.4531 0-1.5938-0.65625-2.375-0.65625-0.79688-1.5625-0.79688-0.89062 0-1.5938 0.84375-0.6875 0.84375-0.6875 2.4375zm13.305 1.4375 1.4531 0.17188q-0.34375 1.2812-1.2812 1.9844-0.92188 0.70312-2.3594 0.70312-1.8281 0-2.8906-1.125t-1.0625-3.1406q0-2.0938 1.0781-3.25 1.0781-1.1562 2.7969-1.1562 1.6562 0 2.7031 1.1406 1.0625 1.125 1.0625 3.1719 0 0.125 0 0.375h-6.1875q0.0781 1.375 0.76563 2.1094 0.70312 0.71875 1.7344 0.71875 0.78125 0 1.3281-0.40625 0.54687-0.40625 0.85937-1.2969zm-4.6094-2.2812h4.625q-0.0937-1.0469-0.53125-1.5625-0.67188-0.8125-1.7344-0.8125-0.96875 0-1.6406 0.65625-0.65625 0.64062-0.71875 1.7188zm7.8203 4.9531v-8.2969h1.2656v1.25q0.48438-0.875 0.89063-1.1562t0.90625-0.28125q0.70312 0 1.4375 0.45312l-0.48438 1.2969q-0.51562-0.29688-1.0312-0.29688-0.45312 0-0.82812 0.28125-0.35938 0.26562-0.51563 0.76562-0.23437 0.75-0.23437 1.6406v4.3438zm6.2656 3.375h-1.0156q2.3438-3.7656 2.3438-7.5156 0-1.4688-0.34375-2.9219-0.26563-1.1719-0.73438-2.25-0.3125-0.70312-1.2656-2.3438h1.0156q1.4688 1.9688 2.1719 3.9375 0.59375 1.7031 0.59375 3.5625 0 2.1094-0.8125 4.0938-0.79688 1.9688-1.9531 3.4375z" fill="#000"/>
  <path id="path5982" d="m222.53 100.3h123.28v25.071h-123.28z" fill="#cfe2f3" fill-rule="evenodd"/>
  <path id="path5984" d="m222.53 100.3h123.28v25.071h-123.28z" fill-rule="evenodd" stroke="#000" stroke-linecap="butt" stroke-linejoin="round"/>
  <path id="path5986" d="m237.51 118.69v-4.8594l-4.4219-6.5938h1.8438l2.2656 3.4531q0.625 0.96875 1.1562 1.9375 0.51562-0.90625 1.25-2.0312l2.2188-3.3594h1.7656l-4.5625 6.5938v4.8594zm7.3906 0v-11.453h2.2812l2.7188 8.1094q0.375 1.125 0.54688 1.6875 0.1875-0.625 0.60937-1.8281l2.7344-7.9688h2.0469v11.453h-1.4688v-9.5938l-3.3281 9.5938h-1.3594l-3.3125-9.75v9.75zm13.328 0v-11.453h2.2812l2.7188 8.1094q0.375 1.125 0.54688 1.6875 0.1875-0.625 0.60937-1.8281l2.7344-7.9688h2.0469v11.453h-1.4688v-9.5938l-3.3281 9.5938h-1.3594l-3.3125-9.75v9.75zm20.203-1.3594v1.3594h-7.5781q-0.0156-0.51562 0.17188-0.98437 0.28125-0.76563 0.92187-1.5156 0.64063-0.75 1.8438-1.7344 1.8594-1.5312 2.5156-2.4219 0.65625-0.90625 0.65625-1.7031 0-0.82813-0.59375-1.4062-0.59375-0.57813-1.5625-0.57813-1.0156 0-1.625 0.60938-0.60938 0.60937-0.60938 1.6875l-1.4531-0.14063q0.15625-1.625 1.125-2.4688t2.5938-0.84375q1.6562 0 2.6094 0.92188 0.96875 0.90625 0.96875 2.25 0 0.6875-0.28125 1.3594-0.28125 0.65625-0.9375 1.3906-0.65625 0.73437-2.1719 2.0156-1.2656 1.0625-1.625 1.4531-0.35938 0.375-0.59375 0.75zm9.0312 4.7344q-1.1719-1.4688-1.9844-3.4375-0.79687-1.9844-0.79687-4.0938 0-1.8594 0.60937-3.5625 0.70313-1.9688 2.1719-3.9375h1q-0.9375 1.625-1.25 2.3281-0.46875 1.0781-0.75 2.25-0.32813 1.4531-0.32813 2.9375 0 3.75 2.3281 7.5156zm8.0781-3.375v-1.2188q-0.96875 1.4062-2.6406 1.4062-0.73438 0-1.375-0.28125-0.625-0.28125-0.9375-0.70312-0.3125-0.4375-0.4375-1.0469-0.0781-0.42187-0.0781-1.3125v-5.1406h1.4062v4.5938q0 1.1094 0.0781 1.4844 0.14062 0.5625 0.5625 0.875 0.4375 0.3125 1.0625 0.3125 0.64062 0 1.1875-0.3125 0.5625-0.32812 0.78125-0.89062 0.23437-0.5625 0.23437-1.625v-4.4375h1.4062v8.2969zm3.4609 3.1875v-11.484h1.2812v1.0781q0.45313-0.64062 1.0156-0.95312 0.57812-0.3125 1.3906-0.3125 1.0625 0 1.875 0.54687 0.8125 0.54688 1.2188 1.5469 0.42188 0.98437 0.42188 2.1719 0 1.2812-0.46875 2.2969-0.45313 1.0156-1.3281 1.5625-0.85937 0.54687-1.8281 0.54687-0.70313 0-1.2656-0.29687-0.54687-0.29688-0.90625-0.75v4.0469zm1.2656-7.2969q0 1.6094 0.64062 2.375 0.65625 0.76562 1.5781 0.76562 0.9375 0 1.6094-0.79687 0.67188-0.79688 0.67188-2.4531 0-1.5938-0.65625-2.375-0.65625-0.79687-1.5625-0.79687-0.89063 0-1.5938 0.84375-0.6875 0.84375-0.6875 2.4375zm7.6328 7.2969v-11.484h1.2812v1.0781q0.45312-0.64062 1.0156-0.95312 0.57813-0.3125 1.3906-0.3125 1.0625 0 1.875 0.54687 0.8125 0.54688 1.2188 1.5469 0.42187 0.98437 0.42187 2.1719 0 1.2812-0.46875 2.2969-0.45312 1.0156-1.3281 1.5625-0.85938 0.54687-1.8281 0.54687-0.70312 0-1.2656-0.29687-0.54688-0.29688-0.90625-0.75v4.0469zm1.2656-7.2969q0 1.6094 0.64063 2.375 0.65625 0.76562 1.5781 0.76562 0.9375 0 1.6094-0.79687 0.67187-0.79688 0.67187-2.4531 0-1.5938-0.65625-2.375-0.65625-0.79687-1.5625-0.79687-0.89062 0-1.5938 0.84375-0.6875 0.84375-0.6875 2.4375zm13.305 1.4375 1.4531 0.17187q-0.34375 1.2812-1.2812 1.9844-0.92188 0.70312-2.3594 0.70312-1.8281 0-2.8906-1.125t-1.0625-3.1406q0-2.0938 1.0781-3.25 1.0781-1.1562 2.7969-1.1562 1.6562 0 2.7031 1.1406 1.0625 1.125 1.0625 3.1719 0 0.125 0 0.375h-6.1875q0.0781 1.375 0.76563 2.1094 0.70312 0.71875 1.7344 0.71875 0.78125 0 1.3281-0.40625 0.54687-0.40625 0.85937-1.2969zm-4.6094-2.2812h4.625q-0.0937-1.0469-0.53125-1.5625-0.67188-0.8125-1.7344-0.8125-0.96875 0-1.6406 0.65625-0.65625 0.64062-0.71875 1.7188zm7.8203 4.9531v-8.2969h1.2656v1.25q0.48438-0.875 0.89063-1.1562t0.90625-0.28125q0.70312 0 1.4375 0.45312l-0.48438 1.2969q-0.51562-0.29688-1.0312-0.29688-0.45312 0-0.82812 0.28125-0.35938 0.26563-0.51563 0.76563-0.23437 0.75-0.23437 1.6406v4.3438zm6.2656 3.375h-1.0156q2.3438-3.7656 2.3438-7.5156 0-1.4688-0.34375-2.9219-0.26563-1.1719-0.73438-2.25-0.3125-0.70312-1.2656-2.3438h1.0156q1.4688 1.9688 2.1719 3.9375 0.59375 1.7031 0.59375 3.5625 0 2.1094-0.8125 4.0938-0.79688 1.9688-1.9531 3.4375z" fill="#000"/>
  <path id="path5988" d="m222.53 125.37h123.28v25.071h-123.28z" fill="#cfe2f3" fill-rule="evenodd"/>
  <path id="path5990" d="m222.53 125.37h123.28v25.071h-123.28z" fill-rule="evenodd" stroke="#000" stroke-linecap="butt" stroke-linejoin="round"/>
  <path id="path5992" d="m237.51 143.76v-4.8594l-4.4219-6.5938h1.8438l2.2656 3.4531q0.625 0.96875 1.1562 1.9375 0.51562-0.90625 1.25-2.0312l2.2188-3.3594h1.7656l-4.5625 6.5938v4.8594zm7.3906 0v-11.453h2.2812l2.7188 8.1094q0.375 1.125 0.54688 1.6875 0.1875-0.625 0.60937-1.8281l2.7344-7.9688h2.0469v11.453h-1.4688v-9.5938l-3.3281 9.5938h-1.3594l-3.3125-9.75v9.75zm13.328 0v-11.453h2.2812l2.7188 8.1094q0.375 1.125 0.54688 1.6875 0.1875-0.625 0.60937-1.8281l2.7344-7.9688h2.0469v11.453h-1.4688v-9.5938l-3.3281 9.5938h-1.3594l-3.3125-9.75v9.75zm12.812-3.0312 1.4062-0.1875q0.25 1.2031 0.82813 1.7344 0.57812 0.51563 1.4219 0.51563 0.98438 0 1.6719-0.6875t0.6875-1.7031q0-0.96875-0.64063-1.5938-0.625-0.625-1.6094-0.625-0.39063 0-0.98438 0.15625l0.15625-1.2344q0.14063 0.0156 0.21875 0.0156 0.90625 0 1.625-0.46875t0.71875-1.4531q0-0.76563-0.53125-1.2656-0.51562-0.51562-1.3438-0.51562-0.82812 0-1.375 0.51562-0.54687 0.51563-0.70312 1.5469l-1.4062-0.25q0.26562-1.4219 1.1719-2.1875 0.92188-0.78125 2.2812-0.78125 0.9375 0 1.7188 0.40625 0.79688 0.39062 1.2031 1.0938 0.42187 0.6875 0.42187 1.4688 0 0.75-0.40625 1.3594-0.39062 0.60938-1.1719 0.96875 1.0156 0.23438 1.5781 0.96875 0.5625 0.73438 0.5625 1.8438 0 1.5-1.0938 2.5469-1.0938 1.0469-2.7656 1.0469-1.5 0-2.5-0.89062-1-0.90625-1.1406-2.3438zm16.422 6.4062q-1.1719-1.4688-1.9844-3.4375-0.79687-1.9844-0.79687-4.0938 0-1.8594 0.60937-3.5625 0.70313-1.9688 2.1719-3.9375h1q-0.9375 1.625-1.25 2.3281-0.46875 1.0781-0.75 2.25-0.32813 1.4531-0.32813 2.9375 0 3.75 2.3281 7.5156zm8.0781-3.375v-1.2188q-0.96875 1.4062-2.6406 1.4062-0.73438 0-1.375-0.28125-0.625-0.28125-0.9375-0.70313-0.3125-0.4375-0.4375-1.0469-0.0781-0.42188-0.0781-1.3125v-5.1406h1.4062v4.5938q0 1.1094 0.0781 1.4844 0.14062 0.5625 0.5625 0.875 0.4375 0.3125 1.0625 0.3125 0.64062 0 1.1875-0.3125 0.5625-0.32813 0.78125-0.89063 0.23437-0.5625 0.23437-1.625v-4.4375h1.4062v8.2969zm3.4609 3.1875v-11.484h1.2812v1.0781q0.45313-0.64063 1.0156-0.95313 0.57812-0.3125 1.3906-0.3125 1.0625 0 1.875 0.54688 0.8125 0.54687 1.2188 1.5469 0.42188 0.98438 0.42188 2.1719 0 1.2812-0.46875 2.2969-0.45313 1.0156-1.3281 1.5625-0.85937 0.54688-1.8281 0.54688-0.70313 0-1.2656-0.29688-0.54687-0.29687-0.90625-0.75v4.0469zm1.2656-7.2969q0 1.6094 0.64062 2.375 0.65625 0.76563 1.5781 0.76563 0.9375 0 1.6094-0.79688 0.67188-0.79687 0.67188-2.4531 0-1.5938-0.65625-2.375-0.65625-0.79688-1.5625-0.79688-0.89063 0-1.5938 0.84375-0.6875 0.84375-0.6875 2.4375zm7.6328 7.2969v-11.484h1.2812v1.0781q0.45312-0.64063 1.0156-0.95313 0.57813-0.3125 1.3906-0.3125 1.0625 0 1.875 0.54688 0.8125 0.54687 1.2188 1.5469 0.42187 0.98438 0.42187 2.1719 0 1.2812-0.46875 2.2969-0.45312 1.0156-1.3281 1.5625-0.85938 0.54688-1.8281 0.54688-0.70312 0-1.2656-0.29688-0.54688-0.29687-0.90625-0.75v4.0469zm1.2656-7.2969q0 1.6094 0.64063 2.375 0.65625 0.76563 1.5781 0.76563 0.9375 0 1.6094-0.79688 0.67187-0.79687 0.67187-2.4531 0-1.5938-0.65625-2.375-0.65625-0.79688-1.5625-0.79688-0.89062 0-1.5938 0.84375-0.6875 0.84375-0.6875 2.4375zm13.305 1.4375 1.4531 0.17188q-0.34375 1.2812-1.2812 1.9844-0.92188 0.70313-2.3594 0.70313-1.8281 0-2.8906-1.125t-1.0625-3.1406q0-2.0938 1.0781-3.25 1.0781-1.1562 2.7969-1.1562 1.6562 0 2.7031 1.1406 1.0625 1.125 1.0625 3.1719 0 0.125 0 0.375h-6.1875q0.0781 1.375 0.76563 2.1094 0.70312 0.71875 1.7344 0.71875 0.78125 0 1.3281-0.40625 0.54687-0.40625 0.85937-1.2969zm-4.6094-2.2812h4.625q-0.0937-1.0469-0.53125-1.5625-0.67188-0.8125-1.7344-0.8125-0.96875 0-1.6406 0.65625-0.65625 0.64063-0.71875 1.7188zm7.8203 4.9531v-8.2969h1.2656v1.25q0.48438-0.875 0.89063-1.1562t0.90625-0.28125q0.70312 0 1.4375 0.45313l-0.48438 1.2969q-0.51562-0.29687-1.0312-0.29687-0.45312 0-0.82812 0.28125-0.35938 0.26562-0.51563 0.76562-0.23437 0.75-0.23437 1.6406v4.3438zm6.2656 3.375h-1.0156q2.3438-3.7656 2.3438-7.5156 0-1.4688-0.34375-2.9219-0.26563-1.1719-0.73438-2.25-0.3125-0.70313-1.2656-2.3438h1.0156q1.4688 1.9688 2.1719 3.9375 0.59375 1.7031 0.59375 3.5625 0 2.1094-0.8125 4.0938-0.79688 1.9688-1.9531 3.4375z" fill="#000"/>
  <path id="path5994" d="m409.95 94.27c0-17.169 8.6864-31.087 19.402-31.087 5.1456 0 10.08 3.2752 13.719 9.1051 3.6385 5.8299 5.6826 13.737 5.6826 21.982 0 17.169-8.6864 31.087-19.402 31.087-10.715 0-19.402-13.918-19.402-31.087zm9.7008 0c0 11.811 4.3432 21.386 9.7008 21.386 5.3576 0 9.7008-9.5748 9.7008-21.386 0-11.811-4.3432-21.386-9.7008-21.386-5.3576 0-9.7008 9.5748-9.7008 21.386z" fill="#cfe2f3" fill-rule="evenodd"/>
  <path id="path5996" d="m409.95 94.27c0-17.169 8.6864-31.087 19.402-31.087 5.1456 0 10.08 3.2752 13.719 9.1051 3.6385 5.8299 5.6826 13.737 5.6826 21.982 0 17.169-8.6864 31.087-19.402 31.087-10.715 0-19.402-13.918-19.402-31.087zm9.7008 0c0 11.811 4.3432 21.386 9.7008 21.386 5.3576 0 9.7008-9.5748 9.7008-21.386 0-11.811-4.3432-21.386-9.7008-21.386-5.3576 0-9.7008 9.5748-9.7008 21.386z" fill-rule="evenodd" stroke="#000" stroke-linecap="butt" stroke-linejoin="round"/>
  <path id="path5998" d="m345.81 62.69c16.036 0 24.053 7.8976 32.072 15.795 8.0197 7.8976 16.043 15.795 32.085 15.795" fill="#000" fill-opacity="0" fill-rule="evenodd"/>
  <path id="path6000" d="m345.81 62.69c16.036 0 24.053 7.8976 32.072 15.795 8.0197 7.8976 16.043 15.795 32.085 15.795" fill-rule="evenodd" stroke="#000" stroke-linecap="butt" stroke-linejoin="round"/>
  <path id="path6002" d="m345.81 87.761c16.036 0 24.053 1.6299 32.072 3.2598 8.0197 1.6299 16.043 3.2598 32.085 3.2598" fill="#000" fill-opacity="0" fill-rule="evenodd"/>
  <path id="path6004" d="m345.81 87.761c16.036 0 24.053 1.6299 32.072 3.2598 8.0197 1.6299 16.043 3.2598 32.085 3.2598" fill-rule="evenodd" stroke="#000" stroke-linecap="butt" stroke-linejoin="round"/>
  <path id="path6006" d="m345.81 112.83c16.036 0 24.053-4.6378 32.072-9.2756 8.0197-4.6378 16.043-9.2756 32.085-9.2756" fill="#000" fill-opacity="0" fill-rule="evenodd"/>
  <path id="path6008" d="m345.81 112.83c16.036 0 24.053-4.6378 32.072-9.2756 8.0197-4.6378 16.043-9.2756 32.085-9.2756" fill-rule="evenodd" stroke="#000" stroke-linecap="butt" stroke-linejoin="round"/>
  <path id="path6010" d="m345.81 137.9c16.036 0 24.053-10.906 32.072-21.811 8.0197-10.906 16.043-21.811 32.085-21.811" fill="#000" fill-opacity="0" fill-rule="evenodd"/>
  <path id="path6012" d="m345.81 137.9c16.036 0 24.053-10.906 32.072-21.811 8.0197-10.906 16.043-21.811 32.085-21.811" fill-rule="evenodd" stroke="#000" stroke-linecap="butt" stroke-linejoin="round"/>
  <path id="path6014" d="m222.53 162.97c-12.5 0-25.008-25.071-25-50.142 8e-3 -25.071 12.531-50.142 25.063-50.142" fill="#000" fill-opacity="0" fill-rule="evenodd"/>
  <path id="path6016" d="m222.53 162.97c-12.5 0-25.008-25.071-25-50.142 4e-3 -12.535 3.1368-25.071 7.8351-34.472 2.3492-4.7008 5.0897-8.6181 8.0261-11.36 1.4682-1.3711 2.9854-2.4483 4.5272-3.1828 0.38546-0.18362 0.77243-0.34583 1.1606-0.48584l0.13847-0.04793" fill-rule="evenodd" stroke="#000" stroke-dasharray="4, 3" stroke-linecap="butt" stroke-linejoin="round"/>
  <path id="path6018" d="m219.22 63.283-0.91324 1.3021 2.8488-1.6418-3.2377-0.57351z" fill="#000" fill-rule="evenodd" stroke="#000" stroke-linecap="butt"/>
  <path id="path6020" d="m99.501 91.824h95.024v42.016h-95.024z" fill="#000" fill-opacity="0" fill-rule="evenodd"/>
  <path id="path6022" d="m109.74 118.74v-9.6719h1.4688v1.3594q0.45313-0.71875 1.2031-1.1406 0.76562-0.4375 1.7188-0.4375 1.0781 0 1.7656 0.45312 0.6875 0.4375 0.96875 1.2344 1.1562-1.6875 2.9844-1.6875 1.4531 0 2.2188 0.79687 0.78125 0.79688 0.78125 2.4531v6.6406h-1.6406v-6.0938q0-0.98437-0.15625-1.4062-0.15625-0.4375-0.57812-0.70312-0.42188-0.26563-0.98438-0.26563-1.0156 0-1.6875 0.6875-0.67187 0.67188-0.67187 2.1562v5.625h-1.6406v-6.2812q0-1.0938-0.40625-1.6406-0.40625-0.54688-1.3125-0.54688-0.6875 0-1.2812 0.35938-0.59375 0.35937-0.85937 1.0625-0.25 0.70312-0.25 2.0312v5.0156zm22.166-3.1094 1.6875 0.20312q-0.40625 1.4844-1.4844 2.3125-1.0781 0.8125-2.7656 0.8125-2.125 0-3.375-1.2969-1.2344-1.3125-1.2344-3.6719 0-2.4531 1.25-3.7969 1.2656-1.3438 3.2656-1.3438 1.9375 0 3.1562 1.3281 1.2344 1.3125 1.2344 3.7031 0 0.15625 0 0.4375h-7.2188q0.0937 1.5938 0.90625 2.4531 0.8125 0.84375 2.0156 0.84375 0.90625 0 1.5469-0.46875 0.64062-0.48437 1.0156-1.5156zm-5.3906-2.6562h5.4062q-0.10938-1.2188-0.625-1.8281-0.78125-0.95312-2.0312-0.95312-1.125 0-1.9062 0.76562-0.76563 0.75-0.84375 2.0156zm9.1257 5.7656v-9.6719h1.4688v1.4688q0.5625-1.0312 1.0312-1.3594 0.48438-0.32812 1.0625-0.32812 0.82813 0 1.6875 0.53125l-0.5625 1.5156q-0.60937-0.35937-1.2031-0.35937-0.54688 0-0.96875 0.32812-0.42188 0.32813-0.60938 0.89063-0.28125 0.875-0.28125 1.9219v5.0625zm5.9158 0.79688 1.5938 0.23437q0.10937 0.75 0.5625 1.0781 0.60937 0.45312 1.6719 0.45312 1.1406 0 1.75-0.45312 0.625-0.45313 0.84375-1.2656 0.125-0.5 0.10938-2.1094-1.0625 1.2656-2.6719 1.2656-2 0-3.0938-1.4375t-1.0938-3.4531q0-1.3906 0.5-2.5625 0.51563-1.1719 1.4531-1.7969 0.95312-0.64062 2.25-0.64062 1.7031 0 2.8125 1.375v-1.1562h1.5156v8.3594q0 2.2656-0.46875 3.2031-0.45312 0.9375-1.4531 1.4844-0.98438 0.54688-2.4531 0.54688-1.7188 0-2.7969-0.78125-1.0625-0.76563-1.0312-2.3438zm1.3594-5.8125q0 1.9062 0.75 2.7812 0.76563 0.875 1.9062 0.875 1.125 0 1.8906-0.85938 0.76562-0.875 0.76562-2.7344 0-1.7812-0.79687-2.6719-0.78125-0.90625-1.8906-0.90625-1.0938 0-1.8594 0.89063-0.76563 0.875-0.76563 2.625zm15.954 1.9062 1.6875 0.20312q-0.40625 1.4844-1.4844 2.3125-1.0781 0.8125-2.7656 0.8125-2.125 0-3.375-1.2969-1.2344-1.3125-1.2344-3.6719 0-2.4531 1.25-3.7969 1.2656-1.3438 3.2656-1.3438 1.9375 0 3.1562 1.3281 1.2344 1.3125 1.2344 3.7031 0 0.15625 0 0.4375h-7.2188q0.0937 1.5938 0.90625 2.4531 0.8125 0.84375 2.0156 0.84375 0.90625 0 1.5469-0.46875 0.64062-0.48437 1.0156-1.5156zm-5.3906-2.6562h5.4062q-0.10938-1.2188-0.625-1.8281-0.78125-0.95312-2.0312-0.95312-1.125 0-1.9062 0.76562-0.76563 0.75-0.84375 2.0156zm15.407 5.7656v-1.2188q-0.90625 1.4375-2.7031 1.4375-1.1562 0-2.125-0.64062-0.96875-0.64063-1.5-1.7812-0.53125-1.1406-0.53125-2.625 0-1.4531 0.48438-2.625 0.48437-1.1875 1.4375-1.8125 0.96875-0.625 2.1719-0.625 0.875 0 1.5469 0.375 0.6875 0.35937 1.1094 0.95312v-4.7969h1.6406v13.359zm-5.1719-4.8281q0 1.8594 0.78125 2.7812 0.78125 0.92187 1.8438 0.92187 1.0781 0 1.8281-0.875 0.75-0.89062 0.75-2.6875 0-1.9844-0.76563-2.9062-0.76562-0.9375-1.8906-0.9375-1.0781 0-1.8125 0.89063-0.73438 0.89062-0.73438 2.8125z" fill="#000"/>
  <path id="path6024" d="m453.81 73.262h95.024v42.016h-95.024z" fill="#000" fill-opacity="0" fill-rule="evenodd"/>
  <path id="path6026" d="m463.17 100.18v-1.3281l6.1562-7.0781q-1.0469 0.0625-1.8438 0.0625h-3.9375v-1.3281h7.9062v1.0781l-5.25 6.1406-1 1.125q1.0938-0.07813 2.0625-0.07813h4.4688v1.4062zm16.828-3.1094 1.6875 0.20312q-0.40625 1.4844-1.4844 2.3125-1.0781 0.8125-2.7656 0.8125-2.125 0-3.375-1.2969-1.2344-1.3125-1.2344-3.6719 0-2.4531 1.25-3.7969 1.2656-1.3438 3.2656-1.3438 1.9375 0 3.1562 1.3281 1.2344 1.3125 1.2344 3.7031 0 0.15625 0 0.4375h-7.2188q0.0937 1.5938 0.90625 2.4531 0.8125 0.84375 2.0156 0.84375 0.90625 0 1.5469-0.46875 0.64062-0.48438 1.0156-1.5156zm-5.3906-2.6562h5.4062q-0.10938-1.2188-0.625-1.8281-0.78125-0.95312-2.0312-0.95312-1.125 0-1.9062 0.76562-0.76563 0.75-0.84375 2.0156zm9.1257 5.7656v-9.6719h1.4688v1.4688q0.5625-1.0312 1.0312-1.3594 0.48438-0.32812 1.0625-0.32812 0.82813 0 1.6875 0.53125l-0.5625 1.5156q-0.60937-0.35938-1.2031-0.35938-0.54688 0-0.96875 0.32812-0.42188 0.32812-0.60938 0.89062-0.28125 0.875-0.28125 1.9219v5.0625zm5.6189-4.8437q0-2.6875 1.4844-3.9688 1.25-1.0781 3.0469-1.0781 2 0 3.2656 1.3125 1.2656 1.2969 1.2656 3.6094 0 1.8594-0.5625 2.9375-0.5625 1.0625-1.6406 1.6562-1.0625 0.59374-2.3281 0.59374-2.0312 0-3.2812-1.2969-1.25-1.3125-1.25-3.7656zm1.6875 0q0 1.8594 0.79687 2.7969 0.8125 0.92188 2.0469 0.92188 1.2188 0 2.0312-0.92188 0.8125-0.9375 0.8125-2.8438 0-1.7969-0.8125-2.7188t-2.0312-0.92188q-1.2344 0-2.0469 0.92188-0.79687 0.90625-0.79687 2.7656zm15.981 4.8437h-1.5156v-13.359h1.6406v4.7656q1.0469-1.2969 2.6562-1.2969 0.89063 0 1.6875 0.35938 0.79688 0.35938 1.3125 1.0156 0.51563 0.64062 0.79688 1.5625 0.29687 0.92188 0.29687 1.9688 0 2.4844-1.2344 3.8438-1.2188 1.3594-2.9531 1.3594-1.7031 0-2.6875-1.4375zm-0.0156-4.9062q0 1.7344 0.48437 2.5156 0.76563 1.2656 2.0938 1.2656 1.0781 0 1.8594-0.9375t0.78125-2.7812q0-1.8906-0.75-2.7969t-1.8281-0.90625q-1.0625 0-1.8594 0.9375-0.78125 0.9375-0.78125 2.7031zm8.8914-6.5625v-1.8906h1.6406v1.8906zm0 11.469v-9.6719h1.6406v9.6719zm7.723-1.4687 0.23437 1.4531q-0.6875 0.14062-1.2344 0.14062-0.89063 0-1.3906-0.28125-0.48437-0.28124-0.6875-0.73437-0.20312-0.46875-0.20312-1.9375v-5.5781h-1.2031v-1.2656h1.2031v-2.3906l1.625-0.98438v3.375h1.6562v1.2656h-1.6562v5.6719q0 0.6875 0.0781 0.89062 0.0937 0.20312 0.28125 0.32812 0.20313 0.10938 0.57813 0.10938 0.26562 0 0.71875-0.0625z" fill="#000"/>
 </g>
</svg>
